G75*
%MOIN*%
%OFA0B0*%
%FSLAX25Y25*%
%IPPOS*%
%LPD*%
%AMOC8*
5,1,8,0,0,1.08239X$1,22.5*
%
%ADD10C,0.00000*%
%ADD11R,0.02100X0.07800*%
%ADD12R,0.03543X0.12598*%
%ADD13R,0.42520X0.32087*%
%ADD14R,0.06299X0.05118*%
%ADD15R,0.05118X0.06299*%
%ADD16R,0.03583X0.04803*%
%ADD17R,0.08268X0.05906*%
%ADD18R,0.02200X0.07800*%
%ADD19R,0.04803X0.03583*%
%ADD20R,0.05906X0.05118*%
%ADD21R,0.05118X0.05906*%
%ADD22R,0.01969X0.05906*%
%ADD23R,0.05906X0.01969*%
%ADD24OC8,0.06000*%
%ADD25C,0.06000*%
%ADD26R,0.07900X0.05900*%
%ADD27R,0.07900X0.15000*%
%ADD28R,0.06299X0.05906*%
%ADD29R,0.04724X0.04724*%
%ADD30R,0.09843X0.15748*%
%ADD31R,0.12600X0.05700*%
%ADD32C,0.23000*%
%ADD33R,0.07087X0.12598*%
%ADD34R,0.02835X0.07008*%
%ADD35R,0.06150X0.06150*%
%ADD36C,0.06150*%
%ADD37R,0.03000X0.11300*%
%ADD38R,0.05906X0.05906*%
%ADD39R,0.07874X0.07874*%
%ADD40R,0.13780X0.09843*%
%ADD41R,0.06299X0.13780*%
%ADD42C,0.01600*%
%ADD43R,0.03562X0.03562*%
%ADD44C,0.04000*%
%ADD45C,0.02400*%
%ADD46C,0.05600*%
%ADD47C,0.03200*%
%ADD48C,0.05600*%
%ADD49C,0.01000*%
%ADD50C,0.01200*%
D10*
X0001800Y0001800D02*
X0001800Y0316761D01*
X0395501Y0316761D01*
X0395501Y0001800D01*
X0001800Y0001800D01*
X0137233Y0025422D02*
X0137235Y0025580D01*
X0137241Y0025738D01*
X0137251Y0025896D01*
X0137265Y0026054D01*
X0137283Y0026211D01*
X0137304Y0026368D01*
X0137330Y0026524D01*
X0137360Y0026680D01*
X0137393Y0026835D01*
X0137431Y0026988D01*
X0137472Y0027141D01*
X0137517Y0027293D01*
X0137566Y0027444D01*
X0137619Y0027593D01*
X0137675Y0027741D01*
X0137735Y0027887D01*
X0137799Y0028032D01*
X0137867Y0028175D01*
X0137938Y0028317D01*
X0138012Y0028457D01*
X0138090Y0028594D01*
X0138172Y0028730D01*
X0138256Y0028864D01*
X0138345Y0028995D01*
X0138436Y0029124D01*
X0138531Y0029251D01*
X0138628Y0029376D01*
X0138729Y0029498D01*
X0138833Y0029617D01*
X0138940Y0029734D01*
X0139050Y0029848D01*
X0139163Y0029959D01*
X0139278Y0030068D01*
X0139396Y0030173D01*
X0139517Y0030275D01*
X0139640Y0030375D01*
X0139766Y0030471D01*
X0139894Y0030564D01*
X0140024Y0030654D01*
X0140157Y0030740D01*
X0140292Y0030824D01*
X0140428Y0030903D01*
X0140567Y0030980D01*
X0140708Y0031052D01*
X0140850Y0031122D01*
X0140994Y0031187D01*
X0141140Y0031249D01*
X0141287Y0031307D01*
X0141436Y0031362D01*
X0141586Y0031413D01*
X0141737Y0031460D01*
X0141889Y0031503D01*
X0142042Y0031542D01*
X0142197Y0031578D01*
X0142352Y0031609D01*
X0142508Y0031637D01*
X0142664Y0031661D01*
X0142821Y0031681D01*
X0142979Y0031697D01*
X0143136Y0031709D01*
X0143295Y0031717D01*
X0143453Y0031721D01*
X0143611Y0031721D01*
X0143769Y0031717D01*
X0143928Y0031709D01*
X0144085Y0031697D01*
X0144243Y0031681D01*
X0144400Y0031661D01*
X0144556Y0031637D01*
X0144712Y0031609D01*
X0144867Y0031578D01*
X0145022Y0031542D01*
X0145175Y0031503D01*
X0145327Y0031460D01*
X0145478Y0031413D01*
X0145628Y0031362D01*
X0145777Y0031307D01*
X0145924Y0031249D01*
X0146070Y0031187D01*
X0146214Y0031122D01*
X0146356Y0031052D01*
X0146497Y0030980D01*
X0146636Y0030903D01*
X0146772Y0030824D01*
X0146907Y0030740D01*
X0147040Y0030654D01*
X0147170Y0030564D01*
X0147298Y0030471D01*
X0147424Y0030375D01*
X0147547Y0030275D01*
X0147668Y0030173D01*
X0147786Y0030068D01*
X0147901Y0029959D01*
X0148014Y0029848D01*
X0148124Y0029734D01*
X0148231Y0029617D01*
X0148335Y0029498D01*
X0148436Y0029376D01*
X0148533Y0029251D01*
X0148628Y0029124D01*
X0148719Y0028995D01*
X0148808Y0028864D01*
X0148892Y0028730D01*
X0148974Y0028594D01*
X0149052Y0028457D01*
X0149126Y0028317D01*
X0149197Y0028175D01*
X0149265Y0028032D01*
X0149329Y0027887D01*
X0149389Y0027741D01*
X0149445Y0027593D01*
X0149498Y0027444D01*
X0149547Y0027293D01*
X0149592Y0027141D01*
X0149633Y0026988D01*
X0149671Y0026835D01*
X0149704Y0026680D01*
X0149734Y0026524D01*
X0149760Y0026368D01*
X0149781Y0026211D01*
X0149799Y0026054D01*
X0149813Y0025896D01*
X0149823Y0025738D01*
X0149829Y0025580D01*
X0149831Y0025422D01*
X0149829Y0025264D01*
X0149823Y0025106D01*
X0149813Y0024948D01*
X0149799Y0024790D01*
X0149781Y0024633D01*
X0149760Y0024476D01*
X0149734Y0024320D01*
X0149704Y0024164D01*
X0149671Y0024009D01*
X0149633Y0023856D01*
X0149592Y0023703D01*
X0149547Y0023551D01*
X0149498Y0023400D01*
X0149445Y0023251D01*
X0149389Y0023103D01*
X0149329Y0022957D01*
X0149265Y0022812D01*
X0149197Y0022669D01*
X0149126Y0022527D01*
X0149052Y0022387D01*
X0148974Y0022250D01*
X0148892Y0022114D01*
X0148808Y0021980D01*
X0148719Y0021849D01*
X0148628Y0021720D01*
X0148533Y0021593D01*
X0148436Y0021468D01*
X0148335Y0021346D01*
X0148231Y0021227D01*
X0148124Y0021110D01*
X0148014Y0020996D01*
X0147901Y0020885D01*
X0147786Y0020776D01*
X0147668Y0020671D01*
X0147547Y0020569D01*
X0147424Y0020469D01*
X0147298Y0020373D01*
X0147170Y0020280D01*
X0147040Y0020190D01*
X0146907Y0020104D01*
X0146772Y0020020D01*
X0146636Y0019941D01*
X0146497Y0019864D01*
X0146356Y0019792D01*
X0146214Y0019722D01*
X0146070Y0019657D01*
X0145924Y0019595D01*
X0145777Y0019537D01*
X0145628Y0019482D01*
X0145478Y0019431D01*
X0145327Y0019384D01*
X0145175Y0019341D01*
X0145022Y0019302D01*
X0144867Y0019266D01*
X0144712Y0019235D01*
X0144556Y0019207D01*
X0144400Y0019183D01*
X0144243Y0019163D01*
X0144085Y0019147D01*
X0143928Y0019135D01*
X0143769Y0019127D01*
X0143611Y0019123D01*
X0143453Y0019123D01*
X0143295Y0019127D01*
X0143136Y0019135D01*
X0142979Y0019147D01*
X0142821Y0019163D01*
X0142664Y0019183D01*
X0142508Y0019207D01*
X0142352Y0019235D01*
X0142197Y0019266D01*
X0142042Y0019302D01*
X0141889Y0019341D01*
X0141737Y0019384D01*
X0141586Y0019431D01*
X0141436Y0019482D01*
X0141287Y0019537D01*
X0141140Y0019595D01*
X0140994Y0019657D01*
X0140850Y0019722D01*
X0140708Y0019792D01*
X0140567Y0019864D01*
X0140428Y0019941D01*
X0140292Y0020020D01*
X0140157Y0020104D01*
X0140024Y0020190D01*
X0139894Y0020280D01*
X0139766Y0020373D01*
X0139640Y0020469D01*
X0139517Y0020569D01*
X0139396Y0020671D01*
X0139278Y0020776D01*
X0139163Y0020885D01*
X0139050Y0020996D01*
X0138940Y0021110D01*
X0138833Y0021227D01*
X0138729Y0021346D01*
X0138628Y0021468D01*
X0138531Y0021593D01*
X0138436Y0021720D01*
X0138345Y0021849D01*
X0138256Y0021980D01*
X0138172Y0022114D01*
X0138090Y0022250D01*
X0138012Y0022387D01*
X0137938Y0022527D01*
X0137867Y0022669D01*
X0137799Y0022812D01*
X0137735Y0022957D01*
X0137675Y0023103D01*
X0137619Y0023251D01*
X0137566Y0023400D01*
X0137517Y0023551D01*
X0137472Y0023703D01*
X0137431Y0023856D01*
X0137393Y0024009D01*
X0137360Y0024164D01*
X0137330Y0024320D01*
X0137304Y0024476D01*
X0137283Y0024633D01*
X0137265Y0024790D01*
X0137251Y0024948D01*
X0137241Y0025106D01*
X0137235Y0025264D01*
X0137233Y0025422D01*
X0286840Y0025422D02*
X0286842Y0025580D01*
X0286848Y0025738D01*
X0286858Y0025896D01*
X0286872Y0026054D01*
X0286890Y0026211D01*
X0286911Y0026368D01*
X0286937Y0026524D01*
X0286967Y0026680D01*
X0287000Y0026835D01*
X0287038Y0026988D01*
X0287079Y0027141D01*
X0287124Y0027293D01*
X0287173Y0027444D01*
X0287226Y0027593D01*
X0287282Y0027741D01*
X0287342Y0027887D01*
X0287406Y0028032D01*
X0287474Y0028175D01*
X0287545Y0028317D01*
X0287619Y0028457D01*
X0287697Y0028594D01*
X0287779Y0028730D01*
X0287863Y0028864D01*
X0287952Y0028995D01*
X0288043Y0029124D01*
X0288138Y0029251D01*
X0288235Y0029376D01*
X0288336Y0029498D01*
X0288440Y0029617D01*
X0288547Y0029734D01*
X0288657Y0029848D01*
X0288770Y0029959D01*
X0288885Y0030068D01*
X0289003Y0030173D01*
X0289124Y0030275D01*
X0289247Y0030375D01*
X0289373Y0030471D01*
X0289501Y0030564D01*
X0289631Y0030654D01*
X0289764Y0030740D01*
X0289899Y0030824D01*
X0290035Y0030903D01*
X0290174Y0030980D01*
X0290315Y0031052D01*
X0290457Y0031122D01*
X0290601Y0031187D01*
X0290747Y0031249D01*
X0290894Y0031307D01*
X0291043Y0031362D01*
X0291193Y0031413D01*
X0291344Y0031460D01*
X0291496Y0031503D01*
X0291649Y0031542D01*
X0291804Y0031578D01*
X0291959Y0031609D01*
X0292115Y0031637D01*
X0292271Y0031661D01*
X0292428Y0031681D01*
X0292586Y0031697D01*
X0292743Y0031709D01*
X0292902Y0031717D01*
X0293060Y0031721D01*
X0293218Y0031721D01*
X0293376Y0031717D01*
X0293535Y0031709D01*
X0293692Y0031697D01*
X0293850Y0031681D01*
X0294007Y0031661D01*
X0294163Y0031637D01*
X0294319Y0031609D01*
X0294474Y0031578D01*
X0294629Y0031542D01*
X0294782Y0031503D01*
X0294934Y0031460D01*
X0295085Y0031413D01*
X0295235Y0031362D01*
X0295384Y0031307D01*
X0295531Y0031249D01*
X0295677Y0031187D01*
X0295821Y0031122D01*
X0295963Y0031052D01*
X0296104Y0030980D01*
X0296243Y0030903D01*
X0296379Y0030824D01*
X0296514Y0030740D01*
X0296647Y0030654D01*
X0296777Y0030564D01*
X0296905Y0030471D01*
X0297031Y0030375D01*
X0297154Y0030275D01*
X0297275Y0030173D01*
X0297393Y0030068D01*
X0297508Y0029959D01*
X0297621Y0029848D01*
X0297731Y0029734D01*
X0297838Y0029617D01*
X0297942Y0029498D01*
X0298043Y0029376D01*
X0298140Y0029251D01*
X0298235Y0029124D01*
X0298326Y0028995D01*
X0298415Y0028864D01*
X0298499Y0028730D01*
X0298581Y0028594D01*
X0298659Y0028457D01*
X0298733Y0028317D01*
X0298804Y0028175D01*
X0298872Y0028032D01*
X0298936Y0027887D01*
X0298996Y0027741D01*
X0299052Y0027593D01*
X0299105Y0027444D01*
X0299154Y0027293D01*
X0299199Y0027141D01*
X0299240Y0026988D01*
X0299278Y0026835D01*
X0299311Y0026680D01*
X0299341Y0026524D01*
X0299367Y0026368D01*
X0299388Y0026211D01*
X0299406Y0026054D01*
X0299420Y0025896D01*
X0299430Y0025738D01*
X0299436Y0025580D01*
X0299438Y0025422D01*
X0299436Y0025264D01*
X0299430Y0025106D01*
X0299420Y0024948D01*
X0299406Y0024790D01*
X0299388Y0024633D01*
X0299367Y0024476D01*
X0299341Y0024320D01*
X0299311Y0024164D01*
X0299278Y0024009D01*
X0299240Y0023856D01*
X0299199Y0023703D01*
X0299154Y0023551D01*
X0299105Y0023400D01*
X0299052Y0023251D01*
X0298996Y0023103D01*
X0298936Y0022957D01*
X0298872Y0022812D01*
X0298804Y0022669D01*
X0298733Y0022527D01*
X0298659Y0022387D01*
X0298581Y0022250D01*
X0298499Y0022114D01*
X0298415Y0021980D01*
X0298326Y0021849D01*
X0298235Y0021720D01*
X0298140Y0021593D01*
X0298043Y0021468D01*
X0297942Y0021346D01*
X0297838Y0021227D01*
X0297731Y0021110D01*
X0297621Y0020996D01*
X0297508Y0020885D01*
X0297393Y0020776D01*
X0297275Y0020671D01*
X0297154Y0020569D01*
X0297031Y0020469D01*
X0296905Y0020373D01*
X0296777Y0020280D01*
X0296647Y0020190D01*
X0296514Y0020104D01*
X0296379Y0020020D01*
X0296243Y0019941D01*
X0296104Y0019864D01*
X0295963Y0019792D01*
X0295821Y0019722D01*
X0295677Y0019657D01*
X0295531Y0019595D01*
X0295384Y0019537D01*
X0295235Y0019482D01*
X0295085Y0019431D01*
X0294934Y0019384D01*
X0294782Y0019341D01*
X0294629Y0019302D01*
X0294474Y0019266D01*
X0294319Y0019235D01*
X0294163Y0019207D01*
X0294007Y0019183D01*
X0293850Y0019163D01*
X0293692Y0019147D01*
X0293535Y0019135D01*
X0293376Y0019127D01*
X0293218Y0019123D01*
X0293060Y0019123D01*
X0292902Y0019127D01*
X0292743Y0019135D01*
X0292586Y0019147D01*
X0292428Y0019163D01*
X0292271Y0019183D01*
X0292115Y0019207D01*
X0291959Y0019235D01*
X0291804Y0019266D01*
X0291649Y0019302D01*
X0291496Y0019341D01*
X0291344Y0019384D01*
X0291193Y0019431D01*
X0291043Y0019482D01*
X0290894Y0019537D01*
X0290747Y0019595D01*
X0290601Y0019657D01*
X0290457Y0019722D01*
X0290315Y0019792D01*
X0290174Y0019864D01*
X0290035Y0019941D01*
X0289899Y0020020D01*
X0289764Y0020104D01*
X0289631Y0020190D01*
X0289501Y0020280D01*
X0289373Y0020373D01*
X0289247Y0020469D01*
X0289124Y0020569D01*
X0289003Y0020671D01*
X0288885Y0020776D01*
X0288770Y0020885D01*
X0288657Y0020996D01*
X0288547Y0021110D01*
X0288440Y0021227D01*
X0288336Y0021346D01*
X0288235Y0021468D01*
X0288138Y0021593D01*
X0288043Y0021720D01*
X0287952Y0021849D01*
X0287863Y0021980D01*
X0287779Y0022114D01*
X0287697Y0022250D01*
X0287619Y0022387D01*
X0287545Y0022527D01*
X0287474Y0022669D01*
X0287406Y0022812D01*
X0287342Y0022957D01*
X0287282Y0023103D01*
X0287226Y0023251D01*
X0287173Y0023400D01*
X0287124Y0023551D01*
X0287079Y0023703D01*
X0287038Y0023856D01*
X0287000Y0024009D01*
X0286967Y0024164D01*
X0286937Y0024320D01*
X0286911Y0024476D01*
X0286890Y0024633D01*
X0286872Y0024790D01*
X0286858Y0024948D01*
X0286848Y0025106D01*
X0286842Y0025264D01*
X0286840Y0025422D01*
X0214004Y0167154D02*
X0214006Y0167285D01*
X0214012Y0167417D01*
X0214022Y0167548D01*
X0214036Y0167679D01*
X0214054Y0167809D01*
X0214076Y0167938D01*
X0214101Y0168067D01*
X0214131Y0168195D01*
X0214165Y0168322D01*
X0214202Y0168449D01*
X0214243Y0168573D01*
X0214288Y0168697D01*
X0214337Y0168819D01*
X0214389Y0168940D01*
X0214445Y0169058D01*
X0214505Y0169176D01*
X0214568Y0169291D01*
X0214635Y0169404D01*
X0214705Y0169516D01*
X0214778Y0169625D01*
X0214854Y0169731D01*
X0214934Y0169836D01*
X0215017Y0169938D01*
X0215103Y0170037D01*
X0215192Y0170134D01*
X0215284Y0170228D01*
X0215379Y0170319D01*
X0215476Y0170408D01*
X0215576Y0170493D01*
X0215679Y0170575D01*
X0215784Y0170654D01*
X0215891Y0170730D01*
X0216001Y0170802D01*
X0216113Y0170871D01*
X0216227Y0170937D01*
X0216342Y0170999D01*
X0216460Y0171058D01*
X0216579Y0171113D01*
X0216700Y0171165D01*
X0216823Y0171212D01*
X0216947Y0171256D01*
X0217072Y0171297D01*
X0217198Y0171333D01*
X0217326Y0171366D01*
X0217454Y0171394D01*
X0217583Y0171419D01*
X0217713Y0171440D01*
X0217843Y0171457D01*
X0217974Y0171470D01*
X0218105Y0171479D01*
X0218236Y0171484D01*
X0218368Y0171485D01*
X0218499Y0171482D01*
X0218631Y0171475D01*
X0218762Y0171464D01*
X0218892Y0171449D01*
X0219022Y0171430D01*
X0219152Y0171407D01*
X0219280Y0171381D01*
X0219408Y0171350D01*
X0219535Y0171315D01*
X0219661Y0171277D01*
X0219785Y0171235D01*
X0219909Y0171189D01*
X0220030Y0171139D01*
X0220150Y0171086D01*
X0220269Y0171029D01*
X0220386Y0170969D01*
X0220500Y0170905D01*
X0220613Y0170837D01*
X0220724Y0170766D01*
X0220833Y0170692D01*
X0220939Y0170615D01*
X0221043Y0170534D01*
X0221144Y0170451D01*
X0221243Y0170364D01*
X0221339Y0170274D01*
X0221432Y0170181D01*
X0221523Y0170086D01*
X0221610Y0169988D01*
X0221695Y0169887D01*
X0221776Y0169784D01*
X0221854Y0169678D01*
X0221929Y0169570D01*
X0222001Y0169460D01*
X0222069Y0169348D01*
X0222134Y0169234D01*
X0222195Y0169117D01*
X0222253Y0168999D01*
X0222307Y0168879D01*
X0222358Y0168758D01*
X0222405Y0168635D01*
X0222448Y0168511D01*
X0222487Y0168386D01*
X0222523Y0168259D01*
X0222554Y0168131D01*
X0222582Y0168003D01*
X0222606Y0167874D01*
X0222626Y0167744D01*
X0222642Y0167613D01*
X0222654Y0167482D01*
X0222662Y0167351D01*
X0222666Y0167220D01*
X0222666Y0167088D01*
X0222662Y0166957D01*
X0222654Y0166826D01*
X0222642Y0166695D01*
X0222626Y0166564D01*
X0222606Y0166434D01*
X0222582Y0166305D01*
X0222554Y0166177D01*
X0222523Y0166049D01*
X0222487Y0165922D01*
X0222448Y0165797D01*
X0222405Y0165673D01*
X0222358Y0165550D01*
X0222307Y0165429D01*
X0222253Y0165309D01*
X0222195Y0165191D01*
X0222134Y0165074D01*
X0222069Y0164960D01*
X0222001Y0164848D01*
X0221929Y0164738D01*
X0221854Y0164630D01*
X0221776Y0164524D01*
X0221695Y0164421D01*
X0221610Y0164320D01*
X0221523Y0164222D01*
X0221432Y0164127D01*
X0221339Y0164034D01*
X0221243Y0163944D01*
X0221144Y0163857D01*
X0221043Y0163774D01*
X0220939Y0163693D01*
X0220833Y0163616D01*
X0220724Y0163542D01*
X0220613Y0163471D01*
X0220501Y0163403D01*
X0220386Y0163339D01*
X0220269Y0163279D01*
X0220150Y0163222D01*
X0220030Y0163169D01*
X0219909Y0163119D01*
X0219785Y0163073D01*
X0219661Y0163031D01*
X0219535Y0162993D01*
X0219408Y0162958D01*
X0219280Y0162927D01*
X0219152Y0162901D01*
X0219022Y0162878D01*
X0218892Y0162859D01*
X0218762Y0162844D01*
X0218631Y0162833D01*
X0218499Y0162826D01*
X0218368Y0162823D01*
X0218236Y0162824D01*
X0218105Y0162829D01*
X0217974Y0162838D01*
X0217843Y0162851D01*
X0217713Y0162868D01*
X0217583Y0162889D01*
X0217454Y0162914D01*
X0217326Y0162942D01*
X0217198Y0162975D01*
X0217072Y0163011D01*
X0216947Y0163052D01*
X0216823Y0163096D01*
X0216700Y0163143D01*
X0216579Y0163195D01*
X0216460Y0163250D01*
X0216342Y0163309D01*
X0216227Y0163371D01*
X0216113Y0163437D01*
X0216001Y0163506D01*
X0215891Y0163578D01*
X0215784Y0163654D01*
X0215679Y0163733D01*
X0215576Y0163815D01*
X0215476Y0163900D01*
X0215379Y0163989D01*
X0215284Y0164080D01*
X0215192Y0164174D01*
X0215103Y0164271D01*
X0215017Y0164370D01*
X0214934Y0164472D01*
X0214854Y0164577D01*
X0214778Y0164683D01*
X0214705Y0164792D01*
X0214635Y0164904D01*
X0214568Y0165017D01*
X0214505Y0165132D01*
X0214445Y0165250D01*
X0214389Y0165368D01*
X0214337Y0165489D01*
X0214288Y0165611D01*
X0214243Y0165735D01*
X0214202Y0165859D01*
X0214165Y0165986D01*
X0214131Y0166113D01*
X0214101Y0166241D01*
X0214076Y0166370D01*
X0214054Y0166499D01*
X0214036Y0166629D01*
X0214022Y0166760D01*
X0214012Y0166891D01*
X0214006Y0167023D01*
X0214004Y0167154D01*
X0137233Y0293139D02*
X0137235Y0293297D01*
X0137241Y0293455D01*
X0137251Y0293613D01*
X0137265Y0293771D01*
X0137283Y0293928D01*
X0137304Y0294085D01*
X0137330Y0294241D01*
X0137360Y0294397D01*
X0137393Y0294552D01*
X0137431Y0294705D01*
X0137472Y0294858D01*
X0137517Y0295010D01*
X0137566Y0295161D01*
X0137619Y0295310D01*
X0137675Y0295458D01*
X0137735Y0295604D01*
X0137799Y0295749D01*
X0137867Y0295892D01*
X0137938Y0296034D01*
X0138012Y0296174D01*
X0138090Y0296311D01*
X0138172Y0296447D01*
X0138256Y0296581D01*
X0138345Y0296712D01*
X0138436Y0296841D01*
X0138531Y0296968D01*
X0138628Y0297093D01*
X0138729Y0297215D01*
X0138833Y0297334D01*
X0138940Y0297451D01*
X0139050Y0297565D01*
X0139163Y0297676D01*
X0139278Y0297785D01*
X0139396Y0297890D01*
X0139517Y0297992D01*
X0139640Y0298092D01*
X0139766Y0298188D01*
X0139894Y0298281D01*
X0140024Y0298371D01*
X0140157Y0298457D01*
X0140292Y0298541D01*
X0140428Y0298620D01*
X0140567Y0298697D01*
X0140708Y0298769D01*
X0140850Y0298839D01*
X0140994Y0298904D01*
X0141140Y0298966D01*
X0141287Y0299024D01*
X0141436Y0299079D01*
X0141586Y0299130D01*
X0141737Y0299177D01*
X0141889Y0299220D01*
X0142042Y0299259D01*
X0142197Y0299295D01*
X0142352Y0299326D01*
X0142508Y0299354D01*
X0142664Y0299378D01*
X0142821Y0299398D01*
X0142979Y0299414D01*
X0143136Y0299426D01*
X0143295Y0299434D01*
X0143453Y0299438D01*
X0143611Y0299438D01*
X0143769Y0299434D01*
X0143928Y0299426D01*
X0144085Y0299414D01*
X0144243Y0299398D01*
X0144400Y0299378D01*
X0144556Y0299354D01*
X0144712Y0299326D01*
X0144867Y0299295D01*
X0145022Y0299259D01*
X0145175Y0299220D01*
X0145327Y0299177D01*
X0145478Y0299130D01*
X0145628Y0299079D01*
X0145777Y0299024D01*
X0145924Y0298966D01*
X0146070Y0298904D01*
X0146214Y0298839D01*
X0146356Y0298769D01*
X0146497Y0298697D01*
X0146636Y0298620D01*
X0146772Y0298541D01*
X0146907Y0298457D01*
X0147040Y0298371D01*
X0147170Y0298281D01*
X0147298Y0298188D01*
X0147424Y0298092D01*
X0147547Y0297992D01*
X0147668Y0297890D01*
X0147786Y0297785D01*
X0147901Y0297676D01*
X0148014Y0297565D01*
X0148124Y0297451D01*
X0148231Y0297334D01*
X0148335Y0297215D01*
X0148436Y0297093D01*
X0148533Y0296968D01*
X0148628Y0296841D01*
X0148719Y0296712D01*
X0148808Y0296581D01*
X0148892Y0296447D01*
X0148974Y0296311D01*
X0149052Y0296174D01*
X0149126Y0296034D01*
X0149197Y0295892D01*
X0149265Y0295749D01*
X0149329Y0295604D01*
X0149389Y0295458D01*
X0149445Y0295310D01*
X0149498Y0295161D01*
X0149547Y0295010D01*
X0149592Y0294858D01*
X0149633Y0294705D01*
X0149671Y0294552D01*
X0149704Y0294397D01*
X0149734Y0294241D01*
X0149760Y0294085D01*
X0149781Y0293928D01*
X0149799Y0293771D01*
X0149813Y0293613D01*
X0149823Y0293455D01*
X0149829Y0293297D01*
X0149831Y0293139D01*
X0149829Y0292981D01*
X0149823Y0292823D01*
X0149813Y0292665D01*
X0149799Y0292507D01*
X0149781Y0292350D01*
X0149760Y0292193D01*
X0149734Y0292037D01*
X0149704Y0291881D01*
X0149671Y0291726D01*
X0149633Y0291573D01*
X0149592Y0291420D01*
X0149547Y0291268D01*
X0149498Y0291117D01*
X0149445Y0290968D01*
X0149389Y0290820D01*
X0149329Y0290674D01*
X0149265Y0290529D01*
X0149197Y0290386D01*
X0149126Y0290244D01*
X0149052Y0290104D01*
X0148974Y0289967D01*
X0148892Y0289831D01*
X0148808Y0289697D01*
X0148719Y0289566D01*
X0148628Y0289437D01*
X0148533Y0289310D01*
X0148436Y0289185D01*
X0148335Y0289063D01*
X0148231Y0288944D01*
X0148124Y0288827D01*
X0148014Y0288713D01*
X0147901Y0288602D01*
X0147786Y0288493D01*
X0147668Y0288388D01*
X0147547Y0288286D01*
X0147424Y0288186D01*
X0147298Y0288090D01*
X0147170Y0287997D01*
X0147040Y0287907D01*
X0146907Y0287821D01*
X0146772Y0287737D01*
X0146636Y0287658D01*
X0146497Y0287581D01*
X0146356Y0287509D01*
X0146214Y0287439D01*
X0146070Y0287374D01*
X0145924Y0287312D01*
X0145777Y0287254D01*
X0145628Y0287199D01*
X0145478Y0287148D01*
X0145327Y0287101D01*
X0145175Y0287058D01*
X0145022Y0287019D01*
X0144867Y0286983D01*
X0144712Y0286952D01*
X0144556Y0286924D01*
X0144400Y0286900D01*
X0144243Y0286880D01*
X0144085Y0286864D01*
X0143928Y0286852D01*
X0143769Y0286844D01*
X0143611Y0286840D01*
X0143453Y0286840D01*
X0143295Y0286844D01*
X0143136Y0286852D01*
X0142979Y0286864D01*
X0142821Y0286880D01*
X0142664Y0286900D01*
X0142508Y0286924D01*
X0142352Y0286952D01*
X0142197Y0286983D01*
X0142042Y0287019D01*
X0141889Y0287058D01*
X0141737Y0287101D01*
X0141586Y0287148D01*
X0141436Y0287199D01*
X0141287Y0287254D01*
X0141140Y0287312D01*
X0140994Y0287374D01*
X0140850Y0287439D01*
X0140708Y0287509D01*
X0140567Y0287581D01*
X0140428Y0287658D01*
X0140292Y0287737D01*
X0140157Y0287821D01*
X0140024Y0287907D01*
X0139894Y0287997D01*
X0139766Y0288090D01*
X0139640Y0288186D01*
X0139517Y0288286D01*
X0139396Y0288388D01*
X0139278Y0288493D01*
X0139163Y0288602D01*
X0139050Y0288713D01*
X0138940Y0288827D01*
X0138833Y0288944D01*
X0138729Y0289063D01*
X0138628Y0289185D01*
X0138531Y0289310D01*
X0138436Y0289437D01*
X0138345Y0289566D01*
X0138256Y0289697D01*
X0138172Y0289831D01*
X0138090Y0289967D01*
X0138012Y0290104D01*
X0137938Y0290244D01*
X0137867Y0290386D01*
X0137799Y0290529D01*
X0137735Y0290674D01*
X0137675Y0290820D01*
X0137619Y0290968D01*
X0137566Y0291117D01*
X0137517Y0291268D01*
X0137472Y0291420D01*
X0137431Y0291573D01*
X0137393Y0291726D01*
X0137360Y0291881D01*
X0137330Y0292037D01*
X0137304Y0292193D01*
X0137283Y0292350D01*
X0137265Y0292507D01*
X0137251Y0292665D01*
X0137241Y0292823D01*
X0137235Y0292981D01*
X0137233Y0293139D01*
X0286840Y0293139D02*
X0286842Y0293297D01*
X0286848Y0293455D01*
X0286858Y0293613D01*
X0286872Y0293771D01*
X0286890Y0293928D01*
X0286911Y0294085D01*
X0286937Y0294241D01*
X0286967Y0294397D01*
X0287000Y0294552D01*
X0287038Y0294705D01*
X0287079Y0294858D01*
X0287124Y0295010D01*
X0287173Y0295161D01*
X0287226Y0295310D01*
X0287282Y0295458D01*
X0287342Y0295604D01*
X0287406Y0295749D01*
X0287474Y0295892D01*
X0287545Y0296034D01*
X0287619Y0296174D01*
X0287697Y0296311D01*
X0287779Y0296447D01*
X0287863Y0296581D01*
X0287952Y0296712D01*
X0288043Y0296841D01*
X0288138Y0296968D01*
X0288235Y0297093D01*
X0288336Y0297215D01*
X0288440Y0297334D01*
X0288547Y0297451D01*
X0288657Y0297565D01*
X0288770Y0297676D01*
X0288885Y0297785D01*
X0289003Y0297890D01*
X0289124Y0297992D01*
X0289247Y0298092D01*
X0289373Y0298188D01*
X0289501Y0298281D01*
X0289631Y0298371D01*
X0289764Y0298457D01*
X0289899Y0298541D01*
X0290035Y0298620D01*
X0290174Y0298697D01*
X0290315Y0298769D01*
X0290457Y0298839D01*
X0290601Y0298904D01*
X0290747Y0298966D01*
X0290894Y0299024D01*
X0291043Y0299079D01*
X0291193Y0299130D01*
X0291344Y0299177D01*
X0291496Y0299220D01*
X0291649Y0299259D01*
X0291804Y0299295D01*
X0291959Y0299326D01*
X0292115Y0299354D01*
X0292271Y0299378D01*
X0292428Y0299398D01*
X0292586Y0299414D01*
X0292743Y0299426D01*
X0292902Y0299434D01*
X0293060Y0299438D01*
X0293218Y0299438D01*
X0293376Y0299434D01*
X0293535Y0299426D01*
X0293692Y0299414D01*
X0293850Y0299398D01*
X0294007Y0299378D01*
X0294163Y0299354D01*
X0294319Y0299326D01*
X0294474Y0299295D01*
X0294629Y0299259D01*
X0294782Y0299220D01*
X0294934Y0299177D01*
X0295085Y0299130D01*
X0295235Y0299079D01*
X0295384Y0299024D01*
X0295531Y0298966D01*
X0295677Y0298904D01*
X0295821Y0298839D01*
X0295963Y0298769D01*
X0296104Y0298697D01*
X0296243Y0298620D01*
X0296379Y0298541D01*
X0296514Y0298457D01*
X0296647Y0298371D01*
X0296777Y0298281D01*
X0296905Y0298188D01*
X0297031Y0298092D01*
X0297154Y0297992D01*
X0297275Y0297890D01*
X0297393Y0297785D01*
X0297508Y0297676D01*
X0297621Y0297565D01*
X0297731Y0297451D01*
X0297838Y0297334D01*
X0297942Y0297215D01*
X0298043Y0297093D01*
X0298140Y0296968D01*
X0298235Y0296841D01*
X0298326Y0296712D01*
X0298415Y0296581D01*
X0298499Y0296447D01*
X0298581Y0296311D01*
X0298659Y0296174D01*
X0298733Y0296034D01*
X0298804Y0295892D01*
X0298872Y0295749D01*
X0298936Y0295604D01*
X0298996Y0295458D01*
X0299052Y0295310D01*
X0299105Y0295161D01*
X0299154Y0295010D01*
X0299199Y0294858D01*
X0299240Y0294705D01*
X0299278Y0294552D01*
X0299311Y0294397D01*
X0299341Y0294241D01*
X0299367Y0294085D01*
X0299388Y0293928D01*
X0299406Y0293771D01*
X0299420Y0293613D01*
X0299430Y0293455D01*
X0299436Y0293297D01*
X0299438Y0293139D01*
X0299436Y0292981D01*
X0299430Y0292823D01*
X0299420Y0292665D01*
X0299406Y0292507D01*
X0299388Y0292350D01*
X0299367Y0292193D01*
X0299341Y0292037D01*
X0299311Y0291881D01*
X0299278Y0291726D01*
X0299240Y0291573D01*
X0299199Y0291420D01*
X0299154Y0291268D01*
X0299105Y0291117D01*
X0299052Y0290968D01*
X0298996Y0290820D01*
X0298936Y0290674D01*
X0298872Y0290529D01*
X0298804Y0290386D01*
X0298733Y0290244D01*
X0298659Y0290104D01*
X0298581Y0289967D01*
X0298499Y0289831D01*
X0298415Y0289697D01*
X0298326Y0289566D01*
X0298235Y0289437D01*
X0298140Y0289310D01*
X0298043Y0289185D01*
X0297942Y0289063D01*
X0297838Y0288944D01*
X0297731Y0288827D01*
X0297621Y0288713D01*
X0297508Y0288602D01*
X0297393Y0288493D01*
X0297275Y0288388D01*
X0297154Y0288286D01*
X0297031Y0288186D01*
X0296905Y0288090D01*
X0296777Y0287997D01*
X0296647Y0287907D01*
X0296514Y0287821D01*
X0296379Y0287737D01*
X0296243Y0287658D01*
X0296104Y0287581D01*
X0295963Y0287509D01*
X0295821Y0287439D01*
X0295677Y0287374D01*
X0295531Y0287312D01*
X0295384Y0287254D01*
X0295235Y0287199D01*
X0295085Y0287148D01*
X0294934Y0287101D01*
X0294782Y0287058D01*
X0294629Y0287019D01*
X0294474Y0286983D01*
X0294319Y0286952D01*
X0294163Y0286924D01*
X0294007Y0286900D01*
X0293850Y0286880D01*
X0293692Y0286864D01*
X0293535Y0286852D01*
X0293376Y0286844D01*
X0293218Y0286840D01*
X0293060Y0286840D01*
X0292902Y0286844D01*
X0292743Y0286852D01*
X0292586Y0286864D01*
X0292428Y0286880D01*
X0292271Y0286900D01*
X0292115Y0286924D01*
X0291959Y0286952D01*
X0291804Y0286983D01*
X0291649Y0287019D01*
X0291496Y0287058D01*
X0291344Y0287101D01*
X0291193Y0287148D01*
X0291043Y0287199D01*
X0290894Y0287254D01*
X0290747Y0287312D01*
X0290601Y0287374D01*
X0290457Y0287439D01*
X0290315Y0287509D01*
X0290174Y0287581D01*
X0290035Y0287658D01*
X0289899Y0287737D01*
X0289764Y0287821D01*
X0289631Y0287907D01*
X0289501Y0287997D01*
X0289373Y0288090D01*
X0289247Y0288186D01*
X0289124Y0288286D01*
X0289003Y0288388D01*
X0288885Y0288493D01*
X0288770Y0288602D01*
X0288657Y0288713D01*
X0288547Y0288827D01*
X0288440Y0288944D01*
X0288336Y0289063D01*
X0288235Y0289185D01*
X0288138Y0289310D01*
X0288043Y0289437D01*
X0287952Y0289566D01*
X0287863Y0289697D01*
X0287779Y0289831D01*
X0287697Y0289967D01*
X0287619Y0290104D01*
X0287545Y0290244D01*
X0287474Y0290386D01*
X0287406Y0290529D01*
X0287342Y0290674D01*
X0287282Y0290820D01*
X0287226Y0290968D01*
X0287173Y0291117D01*
X0287124Y0291268D01*
X0287079Y0291420D01*
X0287038Y0291573D01*
X0287000Y0291726D01*
X0286967Y0291881D01*
X0286937Y0292037D01*
X0286911Y0292193D01*
X0286890Y0292350D01*
X0286872Y0292507D01*
X0286858Y0292665D01*
X0286848Y0292823D01*
X0286842Y0292981D01*
X0286840Y0293139D01*
D11*
X0062568Y0240891D03*
X0057568Y0240891D03*
X0052568Y0240891D03*
X0047568Y0240891D03*
X0042568Y0240891D03*
X0037568Y0240891D03*
X0032568Y0240891D03*
X0027568Y0240891D03*
X0022568Y0240891D03*
X0017568Y0240891D03*
X0017568Y0203891D03*
X0022568Y0203891D03*
X0027568Y0203891D03*
X0032568Y0203891D03*
X0037568Y0203891D03*
X0042568Y0203891D03*
X0047568Y0203891D03*
X0052568Y0203891D03*
X0057568Y0203891D03*
X0062568Y0203891D03*
D12*
X0128532Y0180698D03*
X0133532Y0180698D03*
X0138532Y0180698D03*
X0148532Y0180698D03*
X0153532Y0180698D03*
X0158532Y0180698D03*
X0175776Y0180698D03*
X0180776Y0180698D03*
X0185776Y0180698D03*
X0195776Y0180698D03*
X0200776Y0180698D03*
X0205776Y0180698D03*
X0230894Y0180698D03*
X0235894Y0180698D03*
X0240894Y0180698D03*
X0250894Y0180698D03*
X0255894Y0180698D03*
X0260894Y0180698D03*
X0278139Y0180698D03*
X0283139Y0180698D03*
X0288139Y0180698D03*
X0298139Y0180698D03*
X0303139Y0180698D03*
X0308139Y0180698D03*
X0308139Y0094083D03*
X0303139Y0094083D03*
X0298139Y0094083D03*
X0288139Y0094083D03*
X0283139Y0094083D03*
X0278139Y0094083D03*
X0260894Y0094083D03*
X0255894Y0094083D03*
X0250894Y0094083D03*
X0240894Y0094083D03*
X0235894Y0094083D03*
X0230894Y0094083D03*
X0205776Y0094083D03*
X0200776Y0094083D03*
X0195776Y0094083D03*
X0185776Y0094083D03*
X0180776Y0094083D03*
X0175776Y0094083D03*
X0158532Y0094083D03*
X0153532Y0094083D03*
X0148532Y0094083D03*
X0138532Y0094083D03*
X0133532Y0094083D03*
X0128532Y0094083D03*
D13*
X0143532Y0136052D03*
X0190776Y0136052D03*
X0245894Y0136052D03*
X0293139Y0136052D03*
X0293139Y0222666D03*
X0245894Y0222666D03*
X0190776Y0222666D03*
X0143532Y0222666D03*
D14*
X0119910Y0190580D03*
X0119910Y0183099D03*
X0167154Y0183099D03*
X0167154Y0190580D03*
X0224241Y0190580D03*
X0224241Y0183099D03*
X0269517Y0183099D03*
X0269517Y0190580D03*
X0330146Y0113808D03*
X0330146Y0106328D03*
X0269517Y0103965D03*
X0269517Y0096485D03*
X0224241Y0096485D03*
X0224241Y0103965D03*
X0167154Y0103965D03*
X0167154Y0096485D03*
X0121879Y0096485D03*
X0121879Y0103965D03*
X0096288Y0250028D03*
X0096288Y0257509D03*
D15*
X0106328Y0249044D03*
X0113808Y0249044D03*
X0044910Y0295107D03*
X0037430Y0295107D03*
X0069891Y0194241D03*
X0077371Y0194241D03*
X0069497Y0186209D03*
X0062017Y0186209D03*
X0064989Y0176997D03*
X0072469Y0176997D03*
X0082706Y0171091D03*
X0090186Y0171091D03*
X0088414Y0161249D03*
X0096288Y0161249D03*
X0094320Y0127784D03*
X0086446Y0127784D03*
X0042942Y0108493D03*
X0035461Y0108493D03*
X0074831Y0076603D03*
X0082312Y0076603D03*
X0038089Y0062843D03*
X0030609Y0062843D03*
X0026889Y0177971D03*
X0034369Y0177971D03*
D16*
X0032804Y0281328D03*
X0045599Y0281328D03*
X0052489Y0281328D03*
X0065284Y0281328D03*
X0064300Y0043139D03*
X0077095Y0043139D03*
D17*
X0214398Y0091170D03*
X0214398Y0105343D03*
X0214398Y0177784D03*
X0214398Y0191957D03*
X0316761Y0191957D03*
X0316761Y0177784D03*
X0320698Y0109280D03*
X0320698Y0095107D03*
D18*
X0080166Y0033154D03*
X0075166Y0033154D03*
X0070166Y0033154D03*
X0065166Y0033154D03*
X0065166Y0013754D03*
X0070166Y0013754D03*
X0075166Y0013754D03*
X0080166Y0013754D03*
D19*
X0112331Y0054654D03*
X0112331Y0067450D03*
X0082223Y0087883D03*
X0082223Y0100678D03*
D20*
X0076456Y0066652D03*
X0076456Y0059172D03*
D21*
X0042942Y0100225D03*
X0035461Y0100225D03*
X0082706Y0184871D03*
X0090186Y0184871D03*
X0052784Y0271485D03*
X0045304Y0271485D03*
X0336643Y0033296D03*
X0344123Y0033296D03*
X0360265Y0033296D03*
X0367745Y0033296D03*
D22*
X0066761Y0122666D03*
X0063611Y0122666D03*
X0060461Y0122666D03*
X0057312Y0122666D03*
X0054162Y0122666D03*
X0051013Y0122666D03*
X0047863Y0122666D03*
X0044713Y0122666D03*
X0041564Y0122666D03*
X0038414Y0122666D03*
X0035265Y0122666D03*
X0035265Y0168335D03*
X0038414Y0168335D03*
X0041564Y0168335D03*
X0044713Y0168335D03*
X0047863Y0168335D03*
X0051013Y0168335D03*
X0054162Y0168335D03*
X0057312Y0168335D03*
X0060461Y0168335D03*
X0063611Y0168335D03*
X0066761Y0168335D03*
D23*
X0073847Y0161249D03*
X0073847Y0158099D03*
X0073847Y0154950D03*
X0073847Y0151800D03*
X0073847Y0148650D03*
X0073847Y0145501D03*
X0073847Y0142351D03*
X0073847Y0139202D03*
X0073847Y0136052D03*
X0073847Y0132902D03*
X0073847Y0129753D03*
X0028178Y0129753D03*
X0028178Y0132902D03*
X0028178Y0136052D03*
X0028178Y0139202D03*
X0028178Y0142351D03*
X0028178Y0145501D03*
X0028178Y0148650D03*
X0028178Y0151800D03*
X0028178Y0154950D03*
X0028178Y0158099D03*
X0028178Y0161249D03*
D24*
X0061761Y0108257D03*
X0071761Y0108257D03*
X0071761Y0098257D03*
X0061761Y0098257D03*
X0061761Y0088257D03*
X0071761Y0088257D03*
D25*
X0016611Y0127627D02*
X0010611Y0127627D01*
X0010611Y0137627D02*
X0016611Y0137627D01*
X0016611Y0147627D02*
X0010611Y0147627D01*
X0010454Y0160658D02*
X0016454Y0160658D01*
X0016454Y0170658D02*
X0010454Y0170658D01*
X0010454Y0180658D02*
X0016454Y0180658D01*
D26*
X0012933Y0090552D03*
X0012933Y0081552D03*
X0012933Y0072552D03*
D27*
X0037733Y0081652D03*
D28*
X0025422Y0108099D03*
D29*
X0012331Y0104162D03*
X0012331Y0112036D03*
D30*
G36*
X0060138Y0048285D02*
X0053179Y0041326D01*
X0042044Y0052461D01*
X0049003Y0059420D01*
X0060138Y0048285D01*
G37*
G36*
X0025493Y0013639D02*
X0018534Y0006680D01*
X0007399Y0017815D01*
X0014358Y0024774D01*
X0025493Y0013639D01*
G37*
D31*
X0062971Y0062013D03*
X0062971Y0070013D03*
D32*
X0186839Y0293139D03*
X0249831Y0293139D03*
X0330540Y0293139D03*
X0373847Y0293139D03*
D33*
X0361249Y0096288D03*
X0339202Y0096288D03*
X0339202Y0078572D03*
X0361249Y0078572D03*
D34*
X0357725Y0064202D03*
X0352725Y0064202D03*
X0347725Y0064202D03*
X0342725Y0064202D03*
X0342725Y0045698D03*
X0347725Y0045698D03*
X0352725Y0045698D03*
X0357725Y0045698D03*
D35*
X0342379Y0151406D03*
X0342379Y0226997D03*
D36*
X0371879Y0226997D03*
X0371879Y0151406D03*
D37*
X0072666Y0253843D03*
X0072666Y0269443D03*
X0019517Y0261717D03*
X0019517Y0277317D03*
D38*
X0026406Y0295107D03*
X0012627Y0295107D03*
X0008690Y0062824D03*
X0022469Y0062824D03*
D39*
X0094320Y0136446D03*
X0094320Y0150619D03*
D40*
X0177981Y0023454D03*
X0203572Y0023454D03*
D41*
X0100225Y0014792D03*
X0100225Y0036052D03*
D42*
X0084477Y0043139D02*
X0080540Y0043139D01*
X0075166Y0033154D02*
X0075166Y0013754D01*
X0078572Y0012990D02*
X0119910Y0012990D01*
X0119910Y0014588D02*
X0078572Y0014588D01*
X0078572Y0016187D02*
X0119910Y0016187D01*
X0119910Y0017785D02*
X0078572Y0017785D01*
X0078572Y0019384D02*
X0119910Y0019384D01*
X0119910Y0020982D02*
X0078572Y0020982D01*
X0078572Y0022581D02*
X0119910Y0022581D01*
X0119910Y0024179D02*
X0078572Y0024179D01*
X0078572Y0025422D02*
X0118756Y0025422D01*
X0119910Y0024268D01*
X0119910Y0003600D01*
X0003600Y0003600D01*
X0003600Y0056918D01*
X0035265Y0056918D01*
X0035265Y0066413D01*
X0055159Y0066413D01*
X0056009Y0065563D01*
X0068729Y0065563D01*
X0068729Y0058887D01*
X0051800Y0058887D01*
X0049666Y0061020D01*
X0048341Y0061020D01*
X0040444Y0053123D01*
X0040444Y0052255D01*
X0035265Y0047076D01*
X0056918Y0025422D01*
X0056918Y0007706D01*
X0078572Y0007706D01*
X0078572Y0025422D01*
X0078572Y0011391D02*
X0119910Y0011391D01*
X0119910Y0009793D02*
X0078572Y0009793D01*
X0078572Y0008194D02*
X0119910Y0008194D01*
X0119910Y0006596D02*
X0003600Y0006596D01*
X0003600Y0008194D02*
X0056918Y0008194D01*
X0056918Y0009793D02*
X0003600Y0009793D01*
X0003600Y0011391D02*
X0056918Y0011391D01*
X0056918Y0012990D02*
X0003600Y0012990D01*
X0003600Y0014588D02*
X0056918Y0014588D01*
X0056918Y0016187D02*
X0003600Y0016187D01*
X0003600Y0017785D02*
X0056918Y0017785D01*
X0056918Y0019384D02*
X0003600Y0019384D01*
X0003600Y0020982D02*
X0056918Y0020982D01*
X0056918Y0022581D02*
X0003600Y0022581D01*
X0003600Y0024179D02*
X0056918Y0024179D01*
X0056562Y0025778D02*
X0003600Y0025778D01*
X0003600Y0027376D02*
X0054964Y0027376D01*
X0053365Y0028975D02*
X0003600Y0028975D01*
X0003600Y0030573D02*
X0051767Y0030573D01*
X0050168Y0032172D02*
X0003600Y0032172D01*
X0003600Y0033770D02*
X0048570Y0033770D01*
X0046971Y0035369D02*
X0003600Y0035369D01*
X0003600Y0036967D02*
X0045373Y0036967D01*
X0043774Y0038566D02*
X0003600Y0038566D01*
X0003600Y0040164D02*
X0042176Y0040164D01*
X0040577Y0041763D02*
X0003600Y0041763D01*
X0003600Y0043361D02*
X0038979Y0043361D01*
X0037380Y0044960D02*
X0003600Y0044960D01*
X0003600Y0046558D02*
X0035782Y0046558D01*
X0036346Y0048157D02*
X0003600Y0048157D01*
X0003600Y0049755D02*
X0037944Y0049755D01*
X0039543Y0051354D02*
X0003600Y0051354D01*
X0003600Y0052952D02*
X0040444Y0052952D01*
X0041871Y0054551D02*
X0003600Y0054551D01*
X0003600Y0056149D02*
X0043470Y0056149D01*
X0045068Y0057748D02*
X0035265Y0057748D01*
X0035265Y0059346D02*
X0046667Y0059346D01*
X0048265Y0060945D02*
X0035265Y0060945D01*
X0036121Y0061967D02*
X0041170Y0056918D01*
X0038089Y0062843D02*
X0036121Y0061967D01*
X0035265Y0062543D02*
X0068729Y0062543D01*
X0068729Y0060945D02*
X0049742Y0060945D01*
X0051340Y0059346D02*
X0068729Y0059346D01*
X0072952Y0059172D02*
X0066761Y0052981D01*
X0072952Y0059172D02*
X0076456Y0059172D01*
X0068729Y0064142D02*
X0035265Y0064142D01*
X0035265Y0065740D02*
X0055831Y0065740D01*
X0030609Y0062843D02*
X0022469Y0062843D01*
X0022469Y0062824D01*
X0008690Y0062824D02*
X0005737Y0062824D01*
X0005737Y0088414D01*
X0007706Y0090383D01*
X0012764Y0090383D01*
X0012933Y0090552D01*
X0025422Y0108099D02*
X0025422Y0112036D01*
X0021485Y0117942D01*
X0017548Y0121879D02*
X0011643Y0121879D01*
X0011643Y0112036D01*
X0012331Y0112036D01*
X0015580Y0112036D02*
X0017548Y0112036D01*
X0017548Y0121879D02*
X0025422Y0129753D01*
X0028178Y0129753D01*
X0052981Y0129753D01*
X0057902Y0134674D01*
X0049044Y0143532D01*
X0049044Y0155343D01*
X0043139Y0161249D01*
X0028178Y0161249D01*
X0028178Y0176682D01*
X0026889Y0177971D01*
X0021485Y0176997D02*
X0021485Y0159280D01*
X0022666Y0158099D01*
X0028178Y0158099D01*
X0028178Y0154950D02*
X0041564Y0154950D01*
X0045107Y0151406D01*
X0045107Y0141564D01*
X0049044Y0135658D01*
X0041170Y0135658D02*
X0041170Y0143532D01*
X0036052Y0148650D01*
X0028178Y0148650D01*
X0028178Y0145501D02*
X0035265Y0145501D01*
X0037233Y0143532D01*
X0035265Y0141564D01*
X0028178Y0132902D02*
X0018887Y0132902D01*
X0013611Y0127627D01*
X0029359Y0117942D02*
X0031328Y0115973D01*
X0041170Y0115973D01*
X0042942Y0114202D01*
X0042942Y0108493D01*
X0049044Y0102194D02*
X0051013Y0100225D01*
X0051013Y0098257D01*
X0049044Y0102194D02*
X0049044Y0117942D01*
X0047863Y0119123D01*
X0047863Y0122666D01*
X0057902Y0134674D02*
X0059280Y0136052D01*
X0064792Y0136052D01*
X0064792Y0151406D01*
X0058887Y0157312D01*
X0063611Y0160461D01*
X0063611Y0168335D01*
X0060461Y0168335D02*
X0060461Y0172469D01*
X0064989Y0176997D01*
X0072469Y0176997D02*
X0072666Y0176800D01*
X0072666Y0175028D01*
X0072666Y0171091D01*
X0082706Y0171091D01*
X0088414Y0172863D02*
X0088414Y0176997D01*
X0088414Y0172863D02*
X0090186Y0171091D01*
X0088414Y0161249D02*
X0090383Y0159280D01*
X0082509Y0159280D01*
X0072666Y0169123D01*
X0072666Y0171091D01*
X0072666Y0169123D02*
X0071879Y0168335D01*
X0066761Y0168335D01*
X0060461Y0168335D02*
X0060461Y0163217D01*
X0052981Y0163217D01*
X0052981Y0147469D01*
X0058887Y0141564D01*
X0064792Y0136052D02*
X0073847Y0136052D01*
X0078178Y0136052D01*
X0080540Y0133690D01*
X0080540Y0117036D01*
X0071761Y0108257D01*
X0066761Y0113257D02*
X0066761Y0122666D01*
X0062824Y0129753D02*
X0067548Y0132902D01*
X0073847Y0132902D01*
X0073847Y0139202D02*
X0080934Y0139202D01*
X0086446Y0133690D01*
X0086446Y0127784D01*
X0090383Y0119910D01*
X0090383Y0108837D01*
X0082223Y0100678D01*
X0066761Y0113257D02*
X0061761Y0108257D01*
X0094320Y0127784D02*
X0094320Y0136446D01*
X0092351Y0142351D01*
X0073847Y0142351D01*
X0073847Y0145501D02*
X0093139Y0145501D01*
X0094320Y0150619D01*
X0096288Y0152587D01*
X0096288Y0161249D01*
X0081721Y0152587D02*
X0080540Y0152587D01*
X0078178Y0154950D01*
X0073847Y0154950D01*
X0073847Y0158099D02*
X0067548Y0158099D01*
X0066761Y0157312D01*
X0057312Y0168335D02*
X0057312Y0180540D01*
X0047568Y0190284D01*
X0047568Y0203891D01*
X0042568Y0203891D02*
X0042568Y0191347D01*
X0054162Y0179753D01*
X0054162Y0168335D01*
X0047863Y0168335D02*
X0047863Y0180146D01*
X0037568Y0190442D01*
X0037568Y0203891D01*
X0027568Y0203891D02*
X0027568Y0196859D01*
X0025422Y0194713D01*
X0025422Y0190776D01*
X0034369Y0181830D01*
X0034369Y0177971D01*
X0035343Y0176997D01*
X0041564Y0176997D01*
X0041564Y0168335D01*
X0044713Y0168335D02*
X0044713Y0179359D01*
X0031328Y0192745D01*
X0022568Y0197765D02*
X0022568Y0203891D01*
X0022568Y0197765D02*
X0017548Y0192745D01*
X0017824Y0180658D02*
X0013454Y0180658D01*
X0017824Y0180658D02*
X0021485Y0176997D01*
X0019517Y0153375D02*
X0007706Y0153375D01*
X0005737Y0155343D01*
X0005737Y0288217D01*
X0012627Y0295107D01*
X0026406Y0295107D02*
X0037430Y0295107D01*
X0044910Y0295107D02*
X0060855Y0295107D01*
X0041170Y0287233D02*
X0037233Y0283296D01*
X0037233Y0269517D01*
X0029433Y0261717D01*
X0019517Y0261717D01*
X0041170Y0287233D02*
X0082509Y0287233D01*
X0112036Y0257706D01*
X0224241Y0257706D01*
X0224241Y0267548D01*
X0222272Y0267153D02*
X0304950Y0267153D01*
X0304950Y0268751D02*
X0222272Y0268751D01*
X0222272Y0270350D02*
X0304950Y0270350D01*
X0304950Y0271948D02*
X0222272Y0271948D01*
X0222272Y0273547D02*
X0304856Y0273547D01*
X0304950Y0273454D02*
X0304950Y0263611D01*
X0299044Y0257706D01*
X0222272Y0257706D01*
X0222272Y0314961D01*
X0277391Y0314961D01*
X0277391Y0285265D01*
X0285265Y0277391D01*
X0301013Y0277391D01*
X0304950Y0273454D01*
X0303258Y0275145D02*
X0222272Y0275145D01*
X0222272Y0276744D02*
X0301659Y0276744D01*
X0308887Y0276744D02*
X0350225Y0276744D01*
X0350225Y0278342D02*
X0308887Y0278342D01*
X0308887Y0279941D02*
X0350225Y0279941D01*
X0350225Y0281539D02*
X0308887Y0281539D01*
X0308887Y0283138D02*
X0350225Y0283138D01*
X0350225Y0284737D02*
X0308887Y0284737D01*
X0308887Y0286335D02*
X0350225Y0286335D01*
X0350225Y0287934D02*
X0308887Y0287934D01*
X0308887Y0289532D02*
X0350225Y0289532D01*
X0350225Y0291131D02*
X0308887Y0291131D01*
X0308887Y0292729D02*
X0350225Y0292729D01*
X0350225Y0294328D02*
X0308887Y0294328D01*
X0308887Y0295926D02*
X0350225Y0295926D01*
X0350225Y0297525D02*
X0308887Y0297525D01*
X0308887Y0299123D02*
X0350225Y0299123D01*
X0350225Y0300722D02*
X0308887Y0300722D01*
X0308887Y0302320D02*
X0350225Y0302320D01*
X0350225Y0303919D02*
X0308887Y0303919D01*
X0308887Y0305517D02*
X0350225Y0305517D01*
X0350225Y0307116D02*
X0308887Y0307116D01*
X0308887Y0308714D02*
X0350225Y0308714D01*
X0350225Y0310313D02*
X0308887Y0310313D01*
X0308887Y0311911D02*
X0350225Y0311911D01*
X0350225Y0313510D02*
X0308887Y0313510D01*
X0308887Y0314961D02*
X0350225Y0314961D01*
X0350225Y0135658D01*
X0324635Y0135658D01*
X0324635Y0198650D01*
X0316761Y0206524D01*
X0119910Y0206524D01*
X0119910Y0253769D01*
X0301013Y0253769D01*
X0308887Y0261643D01*
X0308887Y0314961D01*
X0277391Y0313510D02*
X0222272Y0313510D01*
X0222272Y0311911D02*
X0277391Y0311911D01*
X0277391Y0310313D02*
X0222272Y0310313D01*
X0222272Y0308714D02*
X0277391Y0308714D01*
X0277391Y0307116D02*
X0222272Y0307116D01*
X0222272Y0305517D02*
X0277391Y0305517D01*
X0277391Y0303919D02*
X0222272Y0303919D01*
X0222272Y0302320D02*
X0277391Y0302320D01*
X0277391Y0300722D02*
X0222272Y0300722D01*
X0222272Y0299123D02*
X0277391Y0299123D01*
X0277391Y0297525D02*
X0222272Y0297525D01*
X0222272Y0295926D02*
X0277391Y0295926D01*
X0277391Y0294328D02*
X0222272Y0294328D01*
X0222272Y0292729D02*
X0277391Y0292729D01*
X0277391Y0291131D02*
X0222272Y0291131D01*
X0222272Y0289532D02*
X0277391Y0289532D01*
X0277391Y0287934D02*
X0222272Y0287934D01*
X0222272Y0286335D02*
X0277391Y0286335D01*
X0277919Y0284737D02*
X0222272Y0284737D01*
X0222272Y0283138D02*
X0279517Y0283138D01*
X0281116Y0281539D02*
X0222272Y0281539D01*
X0222272Y0279941D02*
X0282714Y0279941D01*
X0284313Y0278342D02*
X0222272Y0278342D01*
X0214398Y0278342D02*
X0152358Y0278342D01*
X0151406Y0277391D02*
X0159280Y0285265D01*
X0159280Y0314961D01*
X0214398Y0314961D01*
X0214398Y0261643D01*
X0119910Y0261643D01*
X0119910Y0269517D01*
X0127784Y0277391D01*
X0151406Y0277391D01*
X0153957Y0279941D02*
X0214398Y0279941D01*
X0214398Y0281539D02*
X0155555Y0281539D01*
X0157154Y0283138D02*
X0214398Y0283138D01*
X0214398Y0284737D02*
X0158752Y0284737D01*
X0159280Y0286335D02*
X0214398Y0286335D01*
X0214398Y0287934D02*
X0159280Y0287934D01*
X0159280Y0289532D02*
X0214398Y0289532D01*
X0214398Y0291131D02*
X0159280Y0291131D01*
X0159280Y0292729D02*
X0214398Y0292729D01*
X0214398Y0294328D02*
X0159280Y0294328D01*
X0159280Y0295926D02*
X0214398Y0295926D01*
X0214398Y0297525D02*
X0159280Y0297525D01*
X0159280Y0299123D02*
X0214398Y0299123D01*
X0214398Y0300722D02*
X0159280Y0300722D01*
X0159280Y0302320D02*
X0214398Y0302320D01*
X0214398Y0303919D02*
X0159280Y0303919D01*
X0159280Y0305517D02*
X0214398Y0305517D01*
X0214398Y0307116D02*
X0159280Y0307116D01*
X0159280Y0308714D02*
X0214398Y0308714D01*
X0214398Y0310313D02*
X0159280Y0310313D01*
X0159280Y0311911D02*
X0214398Y0311911D01*
X0214398Y0313510D02*
X0159280Y0313510D01*
X0127138Y0276744D02*
X0214398Y0276744D01*
X0214398Y0275145D02*
X0125539Y0275145D01*
X0123941Y0273547D02*
X0214398Y0273547D01*
X0214398Y0271948D02*
X0122342Y0271948D01*
X0120744Y0270350D02*
X0214398Y0270350D01*
X0214398Y0268751D02*
X0119910Y0268751D01*
X0119910Y0267153D02*
X0214398Y0267153D01*
X0214398Y0265554D02*
X0119910Y0265554D01*
X0119910Y0263956D02*
X0214398Y0263956D01*
X0214398Y0262357D02*
X0119910Y0262357D01*
X0114005Y0263611D02*
X0157312Y0263611D01*
X0119910Y0252766D02*
X0350225Y0252766D01*
X0350225Y0251168D02*
X0119910Y0251168D01*
X0119910Y0249569D02*
X0350225Y0249569D01*
X0350225Y0247971D02*
X0119910Y0247971D01*
X0119910Y0246372D02*
X0350225Y0246372D01*
X0350225Y0244774D02*
X0119910Y0244774D01*
X0119910Y0243175D02*
X0350225Y0243175D01*
X0350225Y0241577D02*
X0119910Y0241577D01*
X0119910Y0239978D02*
X0350225Y0239978D01*
X0350225Y0238380D02*
X0119910Y0238380D01*
X0119910Y0236781D02*
X0350225Y0236781D01*
X0350225Y0235183D02*
X0119910Y0235183D01*
X0119910Y0233584D02*
X0350225Y0233584D01*
X0350225Y0231986D02*
X0119910Y0231986D01*
X0119910Y0230387D02*
X0350225Y0230387D01*
X0350225Y0228789D02*
X0119910Y0228789D01*
X0119910Y0227190D02*
X0350225Y0227190D01*
X0350225Y0225592D02*
X0119910Y0225592D01*
X0119910Y0223993D02*
X0350225Y0223993D01*
X0350225Y0222395D02*
X0119910Y0222395D01*
X0119910Y0220796D02*
X0350225Y0220796D01*
X0350225Y0219198D02*
X0119910Y0219198D01*
X0119910Y0217599D02*
X0350225Y0217599D01*
X0350225Y0216001D02*
X0119910Y0216001D01*
X0119910Y0214402D02*
X0350225Y0214402D01*
X0350225Y0212803D02*
X0119910Y0212803D01*
X0119910Y0211205D02*
X0350225Y0211205D01*
X0350225Y0209606D02*
X0119910Y0209606D01*
X0119910Y0208008D02*
X0350225Y0208008D01*
X0350225Y0206409D02*
X0316876Y0206409D01*
X0318474Y0204811D02*
X0350225Y0204811D01*
X0350225Y0203212D02*
X0320073Y0203212D01*
X0321671Y0201614D02*
X0350225Y0201614D01*
X0350225Y0200015D02*
X0323270Y0200015D01*
X0324635Y0198417D02*
X0350225Y0198417D01*
X0350225Y0196818D02*
X0324635Y0196818D01*
X0324635Y0195220D02*
X0350225Y0195220D01*
X0350225Y0193621D02*
X0324635Y0193621D01*
X0324635Y0192023D02*
X0350225Y0192023D01*
X0350225Y0190424D02*
X0324635Y0190424D01*
X0324635Y0188826D02*
X0350225Y0188826D01*
X0350225Y0187227D02*
X0324635Y0187227D01*
X0324635Y0185629D02*
X0350225Y0185629D01*
X0350225Y0184030D02*
X0324635Y0184030D01*
X0324635Y0182432D02*
X0350225Y0182432D01*
X0350225Y0180833D02*
X0324635Y0180833D01*
X0324635Y0179235D02*
X0350225Y0179235D01*
X0350225Y0177636D02*
X0324635Y0177636D01*
X0324635Y0176038D02*
X0350225Y0176038D01*
X0350225Y0174439D02*
X0324635Y0174439D01*
X0324635Y0172841D02*
X0350225Y0172841D01*
X0350225Y0171242D02*
X0324635Y0171242D01*
X0324635Y0169644D02*
X0350225Y0169644D01*
X0350225Y0168045D02*
X0324635Y0168045D01*
X0324635Y0166447D02*
X0350225Y0166447D01*
X0350225Y0164848D02*
X0324635Y0164848D01*
X0324635Y0163250D02*
X0350225Y0163250D01*
X0350225Y0161651D02*
X0324635Y0161651D01*
X0324635Y0160053D02*
X0350225Y0160053D01*
X0350225Y0158454D02*
X0324635Y0158454D01*
X0324635Y0156856D02*
X0350225Y0156856D01*
X0350225Y0155257D02*
X0324635Y0155257D01*
X0324635Y0153659D02*
X0350225Y0153659D01*
X0350225Y0152060D02*
X0324635Y0152060D01*
X0324635Y0150462D02*
X0350225Y0150462D01*
X0350225Y0148863D02*
X0324635Y0148863D01*
X0324635Y0147265D02*
X0350225Y0147265D01*
X0350225Y0145666D02*
X0324635Y0145666D01*
X0324635Y0144068D02*
X0350225Y0144068D01*
X0350225Y0142469D02*
X0324635Y0142469D01*
X0324635Y0140870D02*
X0350225Y0140870D01*
X0350225Y0139272D02*
X0324635Y0139272D01*
X0324635Y0137673D02*
X0350225Y0137673D01*
X0350225Y0136075D02*
X0324635Y0136075D01*
X0316761Y0136075D02*
X0222272Y0136075D01*
X0222272Y0137673D02*
X0316761Y0137673D01*
X0316761Y0139272D02*
X0222272Y0139272D01*
X0222272Y0140870D02*
X0316761Y0140870D01*
X0316761Y0142469D02*
X0222272Y0142469D01*
X0222272Y0144068D02*
X0316761Y0144068D01*
X0316761Y0145666D02*
X0222272Y0145666D01*
X0222272Y0147265D02*
X0316761Y0147265D01*
X0316761Y0148863D02*
X0222272Y0148863D01*
X0222272Y0150462D02*
X0316761Y0150462D01*
X0316761Y0152060D02*
X0222272Y0152060D01*
X0222272Y0153659D02*
X0316761Y0153659D01*
X0316761Y0155257D02*
X0222272Y0155257D01*
X0222272Y0156856D02*
X0316761Y0156856D01*
X0316761Y0158454D02*
X0222272Y0158454D01*
X0222272Y0160053D02*
X0316761Y0160053D01*
X0316761Y0161651D02*
X0222272Y0161651D01*
X0222272Y0162421D02*
X0223533Y0163682D01*
X0224466Y0165935D01*
X0224466Y0168374D01*
X0223533Y0170627D01*
X0222272Y0171887D01*
X0222272Y0178740D01*
X0227323Y0178740D01*
X0227323Y0173653D01*
X0228377Y0172598D01*
X0233412Y0172598D01*
X0234466Y0173653D01*
X0234466Y0187742D01*
X0233412Y0188797D01*
X0229191Y0188797D01*
X0229191Y0190776D01*
X0264567Y0190776D01*
X0264567Y0187275D01*
X0265002Y0186839D01*
X0264567Y0186404D01*
X0264567Y0179795D01*
X0265621Y0178740D01*
X0273412Y0178740D01*
X0273493Y0178822D01*
X0274567Y0178415D01*
X0274567Y0173653D01*
X0275621Y0172598D01*
X0280656Y0172598D01*
X0281710Y0173653D01*
X0281710Y0187742D01*
X0280656Y0188797D01*
X0275621Y0188797D01*
X0274567Y0187742D01*
X0274567Y0185687D01*
X0274466Y0185725D01*
X0274466Y0186404D01*
X0274031Y0186839D01*
X0274466Y0187275D01*
X0274466Y0190776D01*
X0310827Y0190776D01*
X0310827Y0188259D01*
X0311881Y0187205D01*
X0316761Y0187205D01*
X0316761Y0119910D01*
X0222272Y0119910D01*
X0222272Y0162421D01*
X0223101Y0163250D02*
X0316761Y0163250D01*
X0316761Y0164848D02*
X0224016Y0164848D01*
X0224466Y0166447D02*
X0316761Y0166447D01*
X0316761Y0168045D02*
X0224466Y0168045D01*
X0223940Y0169644D02*
X0316761Y0169644D01*
X0316761Y0171242D02*
X0222918Y0171242D01*
X0222272Y0172841D02*
X0228135Y0172841D01*
X0227323Y0174439D02*
X0222272Y0174439D01*
X0222272Y0176038D02*
X0227323Y0176038D01*
X0227323Y0177636D02*
X0222272Y0177636D01*
X0224241Y0183099D02*
X0226524Y0183099D01*
X0229191Y0188826D02*
X0264567Y0188826D01*
X0264567Y0190424D02*
X0229191Y0190424D01*
X0234466Y0187227D02*
X0264614Y0187227D01*
X0264567Y0185629D02*
X0234466Y0185629D01*
X0234466Y0184030D02*
X0264567Y0184030D01*
X0264567Y0182432D02*
X0234466Y0182432D01*
X0234466Y0180833D02*
X0264567Y0180833D01*
X0265127Y0179235D02*
X0234466Y0179235D01*
X0234466Y0177636D02*
X0274567Y0177636D01*
X0274567Y0176038D02*
X0234466Y0176038D01*
X0234466Y0174439D02*
X0274567Y0174439D01*
X0275379Y0172841D02*
X0233654Y0172841D01*
X0214398Y0172841D02*
X0178536Y0172841D01*
X0178294Y0172598D02*
X0179348Y0173653D01*
X0179348Y0187742D01*
X0178294Y0188797D01*
X0173259Y0188797D01*
X0172205Y0187742D01*
X0172205Y0183747D01*
X0172104Y0183802D01*
X0172104Y0186404D01*
X0171668Y0186839D01*
X0172104Y0187275D01*
X0172104Y0190776D01*
X0208465Y0190776D01*
X0208465Y0188259D01*
X0209519Y0187205D01*
X0214398Y0187205D01*
X0214398Y0171887D01*
X0213138Y0170627D01*
X0212205Y0168374D01*
X0212205Y0165935D01*
X0213138Y0163682D01*
X0214398Y0162421D01*
X0214398Y0119910D01*
X0119910Y0119910D01*
X0119910Y0178740D01*
X0121613Y0178740D01*
X0122461Y0178274D01*
X0122581Y0178154D01*
X0122980Y0177989D01*
X0123358Y0177781D01*
X0123527Y0177763D01*
X0123684Y0177698D01*
X0124115Y0177698D01*
X0124545Y0177650D01*
X0124707Y0177698D01*
X0124961Y0177698D01*
X0124961Y0173653D01*
X0126015Y0172598D01*
X0131050Y0172598D01*
X0132104Y0173653D01*
X0132104Y0187742D01*
X0131050Y0188797D01*
X0126015Y0188797D01*
X0124961Y0187742D01*
X0124961Y0183747D01*
X0124860Y0183802D01*
X0124860Y0186404D01*
X0124424Y0186839D01*
X0124860Y0187275D01*
X0124860Y0190776D01*
X0162205Y0190776D01*
X0162205Y0187275D01*
X0162640Y0186839D01*
X0162205Y0186404D01*
X0162205Y0179795D01*
X0163259Y0178740D01*
X0168857Y0178740D01*
X0169705Y0178274D01*
X0169825Y0178154D01*
X0170224Y0177989D01*
X0170603Y0177781D01*
X0170771Y0177763D01*
X0170928Y0177698D01*
X0171360Y0177698D01*
X0171789Y0177650D01*
X0171952Y0177698D01*
X0172205Y0177698D01*
X0172205Y0173653D01*
X0173259Y0172598D01*
X0178294Y0172598D01*
X0179348Y0174439D02*
X0214398Y0174439D01*
X0214398Y0176038D02*
X0179348Y0176038D01*
X0179348Y0177636D02*
X0214398Y0177636D01*
X0214398Y0179235D02*
X0179348Y0179235D01*
X0179348Y0180833D02*
X0214398Y0180833D01*
X0214398Y0182432D02*
X0179348Y0182432D01*
X0179348Y0184030D02*
X0214398Y0184030D01*
X0214398Y0185629D02*
X0179348Y0185629D01*
X0179348Y0187227D02*
X0209496Y0187227D01*
X0208465Y0188826D02*
X0172104Y0188826D01*
X0172104Y0190424D02*
X0208465Y0190424D01*
X0213753Y0171242D02*
X0119910Y0171242D01*
X0119910Y0169644D02*
X0212731Y0169644D01*
X0212205Y0168045D02*
X0119910Y0168045D01*
X0119910Y0166447D02*
X0212205Y0166447D01*
X0212655Y0164848D02*
X0119910Y0164848D01*
X0119910Y0163250D02*
X0213570Y0163250D01*
X0214398Y0161651D02*
X0119910Y0161651D01*
X0119910Y0160053D02*
X0214398Y0160053D01*
X0214398Y0158454D02*
X0119910Y0158454D01*
X0119910Y0156856D02*
X0214398Y0156856D01*
X0214398Y0155257D02*
X0119910Y0155257D01*
X0119910Y0153659D02*
X0214398Y0153659D01*
X0214398Y0152060D02*
X0119910Y0152060D01*
X0119910Y0150462D02*
X0214398Y0150462D01*
X0214398Y0148863D02*
X0119910Y0148863D01*
X0119910Y0147265D02*
X0214398Y0147265D01*
X0214398Y0145666D02*
X0119910Y0145666D01*
X0119910Y0144068D02*
X0214398Y0144068D01*
X0214398Y0142469D02*
X0119910Y0142469D01*
X0119910Y0140870D02*
X0214398Y0140870D01*
X0214398Y0139272D02*
X0119910Y0139272D01*
X0119910Y0137673D02*
X0214398Y0137673D01*
X0214398Y0136075D02*
X0119910Y0136075D01*
X0119910Y0134476D02*
X0214398Y0134476D01*
X0214398Y0132878D02*
X0119910Y0132878D01*
X0119910Y0131279D02*
X0214398Y0131279D01*
X0214398Y0129681D02*
X0119910Y0129681D01*
X0119910Y0128082D02*
X0214398Y0128082D01*
X0214398Y0126484D02*
X0119910Y0126484D01*
X0119910Y0124885D02*
X0214398Y0124885D01*
X0214398Y0123287D02*
X0119910Y0123287D01*
X0119910Y0121688D02*
X0214398Y0121688D01*
X0214398Y0120090D02*
X0119910Y0120090D01*
X0126828Y0104162D02*
X0162205Y0104162D01*
X0162205Y0100661D01*
X0162640Y0100225D01*
X0162205Y0099790D01*
X0162205Y0093180D01*
X0163259Y0092126D01*
X0168027Y0092126D01*
X0169463Y0091337D01*
X0169598Y0091201D01*
X0170051Y0091014D01*
X0170480Y0090778D01*
X0170671Y0090757D01*
X0170848Y0090683D01*
X0171338Y0090683D01*
X0171824Y0090630D01*
X0172009Y0090683D01*
X0172205Y0090683D01*
X0172205Y0087039D01*
X0173259Y0085984D01*
X0178294Y0085984D01*
X0179348Y0087039D01*
X0179348Y0101128D01*
X0178294Y0102183D01*
X0173259Y0102183D01*
X0172205Y0101128D01*
X0172205Y0097589D01*
X0172104Y0097645D01*
X0172104Y0099790D01*
X0171668Y0100225D01*
X0172104Y0100661D01*
X0172104Y0104162D01*
X0208465Y0104162D01*
X0208465Y0101645D01*
X0209519Y0100591D01*
X0219278Y0100591D01*
X0219320Y0100632D01*
X0219727Y0100225D01*
X0219291Y0099790D01*
X0219291Y0093180D01*
X0220346Y0092126D01*
X0225113Y0092126D01*
X0226549Y0091337D01*
X0226685Y0091201D01*
X0227137Y0091014D01*
X0227323Y0090912D01*
X0227323Y0087039D01*
X0228377Y0085984D01*
X0233412Y0085984D01*
X0234466Y0087039D01*
X0234466Y0101128D01*
X0233412Y0102183D01*
X0229191Y0102183D01*
X0229191Y0104162D01*
X0264567Y0104162D01*
X0264567Y0100661D01*
X0265002Y0100225D01*
X0264567Y0099790D01*
X0264567Y0093180D01*
X0265621Y0092126D01*
X0270389Y0092126D01*
X0271825Y0091337D01*
X0271961Y0091201D01*
X0272413Y0091014D01*
X0272842Y0090778D01*
X0273033Y0090757D01*
X0273210Y0090683D01*
X0273700Y0090683D01*
X0274186Y0090630D01*
X0274371Y0090683D01*
X0274567Y0090683D01*
X0274567Y0087039D01*
X0275621Y0085984D01*
X0280656Y0085984D01*
X0281710Y0087039D01*
X0281710Y0101128D01*
X0280656Y0102183D01*
X0275621Y0102183D01*
X0274567Y0101128D01*
X0274567Y0097589D01*
X0274466Y0097645D01*
X0274466Y0099790D01*
X0274031Y0100225D01*
X0274466Y0100661D01*
X0274466Y0104162D01*
X0348257Y0104162D01*
X0348257Y0056918D01*
X0119910Y0056918D01*
X0119910Y0092126D01*
X0122751Y0092126D01*
X0124187Y0091337D01*
X0124323Y0091201D01*
X0124775Y0091014D01*
X0124961Y0090912D01*
X0124961Y0087039D01*
X0126015Y0085984D01*
X0131050Y0085984D01*
X0132104Y0087039D01*
X0132104Y0101128D01*
X0131050Y0102183D01*
X0126828Y0102183D01*
X0126828Y0104162D01*
X0126828Y0104105D02*
X0162205Y0104105D01*
X0162205Y0102506D02*
X0126828Y0102506D01*
X0132104Y0100908D02*
X0162205Y0100908D01*
X0162205Y0099309D02*
X0132104Y0099309D01*
X0132104Y0097711D02*
X0162205Y0097711D01*
X0162205Y0096112D02*
X0132104Y0096112D01*
X0132104Y0094514D02*
X0162205Y0094514D01*
X0162470Y0092915D02*
X0132104Y0092915D01*
X0132104Y0091317D02*
X0169483Y0091317D01*
X0172205Y0089718D02*
X0132104Y0089718D01*
X0132104Y0088120D02*
X0172205Y0088120D01*
X0172722Y0086521D02*
X0131586Y0086521D01*
X0125478Y0086521D02*
X0119910Y0086521D01*
X0119910Y0084923D02*
X0348257Y0084923D01*
X0348257Y0086521D02*
X0281193Y0086521D01*
X0281710Y0088120D02*
X0348257Y0088120D01*
X0348257Y0089718D02*
X0281710Y0089718D01*
X0281710Y0091317D02*
X0348257Y0091317D01*
X0348257Y0092915D02*
X0281710Y0092915D01*
X0281710Y0094514D02*
X0348257Y0094514D01*
X0348257Y0096112D02*
X0281710Y0096112D01*
X0281710Y0097711D02*
X0348257Y0097711D01*
X0348257Y0099309D02*
X0281710Y0099309D01*
X0281710Y0100908D02*
X0348257Y0100908D01*
X0348257Y0102506D02*
X0274466Y0102506D01*
X0274466Y0100908D02*
X0274567Y0100908D01*
X0274567Y0099309D02*
X0274466Y0099309D01*
X0274466Y0097711D02*
X0274567Y0097711D01*
X0274466Y0104105D02*
X0348257Y0104105D01*
X0352194Y0104105D02*
X0393701Y0104105D01*
X0393701Y0105703D02*
X0354162Y0105703D01*
X0354162Y0104162D02*
X0352194Y0104162D01*
X0352194Y0056918D01*
X0393701Y0056918D01*
X0393701Y0314961D01*
X0354162Y0314961D01*
X0354162Y0104162D01*
X0352194Y0102506D02*
X0393701Y0102506D01*
X0393701Y0100908D02*
X0352194Y0100908D01*
X0352194Y0099309D02*
X0393701Y0099309D01*
X0393701Y0097711D02*
X0352194Y0097711D01*
X0352194Y0096112D02*
X0393701Y0096112D01*
X0393701Y0094514D02*
X0352194Y0094514D01*
X0352194Y0092915D02*
X0393701Y0092915D01*
X0393701Y0091317D02*
X0352194Y0091317D01*
X0352194Y0089718D02*
X0393701Y0089718D01*
X0393701Y0088120D02*
X0352194Y0088120D01*
X0352194Y0086521D02*
X0393701Y0086521D01*
X0393701Y0084923D02*
X0352194Y0084923D01*
X0352194Y0083324D02*
X0393701Y0083324D01*
X0393701Y0081726D02*
X0352194Y0081726D01*
X0352194Y0080127D02*
X0393701Y0080127D01*
X0393701Y0078529D02*
X0352194Y0078529D01*
X0352194Y0076930D02*
X0393701Y0076930D01*
X0393701Y0075332D02*
X0352194Y0075332D01*
X0352194Y0073733D02*
X0393701Y0073733D01*
X0393701Y0072134D02*
X0352194Y0072134D01*
X0352194Y0070536D02*
X0393701Y0070536D01*
X0393701Y0068937D02*
X0352194Y0068937D01*
X0352194Y0067339D02*
X0393701Y0067339D01*
X0393701Y0065740D02*
X0352194Y0065740D01*
X0352194Y0064142D02*
X0393701Y0064142D01*
X0393701Y0062543D02*
X0352194Y0062543D01*
X0352194Y0060945D02*
X0393701Y0060945D01*
X0393701Y0059346D02*
X0352194Y0059346D01*
X0352194Y0057748D02*
X0393701Y0057748D01*
X0360068Y0031328D02*
X0360068Y0011643D01*
X0356131Y0007706D01*
X0247863Y0007706D01*
X0245894Y0009674D01*
X0245894Y0029359D01*
X0239989Y0033296D01*
X0165186Y0033296D01*
X0159280Y0033296D01*
X0149438Y0043139D01*
X0135658Y0043139D01*
X0125816Y0043139D01*
X0119910Y0049044D02*
X0151800Y0049044D01*
X0159674Y0040776D01*
X0163217Y0037233D01*
X0243926Y0037233D01*
X0251800Y0029359D01*
X0251800Y0013611D01*
X0253769Y0011643D01*
X0350225Y0011643D01*
X0352725Y0014143D01*
X0352725Y0045698D01*
X0348257Y0057748D02*
X0119910Y0057748D01*
X0119910Y0059346D02*
X0348257Y0059346D01*
X0348257Y0060945D02*
X0119910Y0060945D01*
X0119910Y0062543D02*
X0348257Y0062543D01*
X0348257Y0064142D02*
X0119910Y0064142D01*
X0119910Y0065740D02*
X0348257Y0065740D01*
X0348257Y0067339D02*
X0119910Y0067339D01*
X0119910Y0068937D02*
X0348257Y0068937D01*
X0348257Y0070536D02*
X0119910Y0070536D01*
X0119910Y0072134D02*
X0348257Y0072134D01*
X0348257Y0073733D02*
X0119910Y0073733D01*
X0119910Y0075332D02*
X0348257Y0075332D01*
X0348257Y0076930D02*
X0119910Y0076930D01*
X0119910Y0078529D02*
X0348257Y0078529D01*
X0348257Y0080127D02*
X0119910Y0080127D01*
X0119910Y0081726D02*
X0348257Y0081726D01*
X0348257Y0083324D02*
X0119910Y0083324D01*
X0119910Y0088120D02*
X0124961Y0088120D01*
X0124961Y0089718D02*
X0119910Y0089718D01*
X0119910Y0091317D02*
X0124207Y0091317D01*
X0108099Y0098257D02*
X0106131Y0100225D01*
X0108099Y0098257D02*
X0108099Y0060855D01*
X0104162Y0056918D01*
X0096288Y0056918D02*
X0096288Y0060855D01*
X0104162Y0068729D01*
X0104162Y0088414D01*
X0102194Y0090383D01*
X0172104Y0097711D02*
X0172205Y0097711D01*
X0172205Y0099309D02*
X0172104Y0099309D01*
X0172104Y0100908D02*
X0172205Y0100908D01*
X0172104Y0102506D02*
X0208465Y0102506D01*
X0208465Y0104105D02*
X0172104Y0104105D01*
X0179348Y0100908D02*
X0209202Y0100908D01*
X0219291Y0099309D02*
X0179348Y0099309D01*
X0179348Y0097711D02*
X0219291Y0097711D01*
X0219291Y0096112D02*
X0179348Y0096112D01*
X0179348Y0094514D02*
X0219291Y0094514D01*
X0219557Y0092915D02*
X0179348Y0092915D01*
X0179348Y0091317D02*
X0226570Y0091317D01*
X0227323Y0089718D02*
X0179348Y0089718D01*
X0179348Y0088120D02*
X0227323Y0088120D01*
X0227840Y0086521D02*
X0178830Y0086521D01*
X0222272Y0120090D02*
X0316761Y0120090D01*
X0316761Y0121688D02*
X0222272Y0121688D01*
X0222272Y0123287D02*
X0316761Y0123287D01*
X0316761Y0124885D02*
X0222272Y0124885D01*
X0222272Y0126484D02*
X0316761Y0126484D01*
X0316761Y0128082D02*
X0222272Y0128082D01*
X0222272Y0129681D02*
X0316761Y0129681D01*
X0316761Y0131279D02*
X0222272Y0131279D01*
X0222272Y0132878D02*
X0316761Y0132878D01*
X0316761Y0134476D02*
X0222272Y0134476D01*
X0229191Y0104105D02*
X0264567Y0104105D01*
X0264567Y0102506D02*
X0229191Y0102506D01*
X0234466Y0100908D02*
X0264567Y0100908D01*
X0264567Y0099309D02*
X0234466Y0099309D01*
X0234466Y0097711D02*
X0264567Y0097711D01*
X0264567Y0096112D02*
X0234466Y0096112D01*
X0234466Y0094514D02*
X0264567Y0094514D01*
X0264832Y0092915D02*
X0234466Y0092915D01*
X0234466Y0091317D02*
X0271845Y0091317D01*
X0274567Y0089718D02*
X0234466Y0089718D01*
X0234466Y0088120D02*
X0274567Y0088120D01*
X0275084Y0086521D02*
X0233949Y0086521D01*
X0280898Y0172841D02*
X0316761Y0172841D01*
X0316761Y0174439D02*
X0281710Y0174439D01*
X0281710Y0176038D02*
X0316761Y0176038D01*
X0316761Y0177636D02*
X0281710Y0177636D01*
X0281710Y0179235D02*
X0316761Y0179235D01*
X0316761Y0180833D02*
X0281710Y0180833D01*
X0281710Y0182432D02*
X0316761Y0182432D01*
X0316761Y0184030D02*
X0281710Y0184030D01*
X0281710Y0185629D02*
X0316761Y0185629D01*
X0311859Y0187227D02*
X0281710Y0187227D01*
X0274567Y0187227D02*
X0274419Y0187227D01*
X0274466Y0188826D02*
X0310827Y0188826D01*
X0310827Y0190424D02*
X0274466Y0190424D01*
X0301609Y0254365D02*
X0350225Y0254365D01*
X0350225Y0255963D02*
X0303207Y0255963D01*
X0304806Y0257562D02*
X0350225Y0257562D01*
X0350225Y0259160D02*
X0306404Y0259160D01*
X0308003Y0260759D02*
X0350225Y0260759D01*
X0350225Y0262357D02*
X0308887Y0262357D01*
X0308887Y0263956D02*
X0350225Y0263956D01*
X0350225Y0265554D02*
X0308887Y0265554D01*
X0308887Y0267153D02*
X0350225Y0267153D01*
X0350225Y0268751D02*
X0308887Y0268751D01*
X0308887Y0270350D02*
X0350225Y0270350D01*
X0350225Y0271948D02*
X0308887Y0271948D01*
X0308887Y0273547D02*
X0350225Y0273547D01*
X0350225Y0275145D02*
X0308887Y0275145D01*
X0304950Y0265554D02*
X0222272Y0265554D01*
X0222272Y0263956D02*
X0304950Y0263956D01*
X0303696Y0262357D02*
X0222272Y0262357D01*
X0222272Y0260759D02*
X0302097Y0260759D01*
X0300499Y0259160D02*
X0222272Y0259160D01*
X0162205Y0190424D02*
X0124860Y0190424D01*
X0124860Y0188826D02*
X0162205Y0188826D01*
X0162252Y0187227D02*
X0132104Y0187227D01*
X0132104Y0185629D02*
X0162205Y0185629D01*
X0162205Y0184030D02*
X0132104Y0184030D01*
X0132104Y0182432D02*
X0162205Y0182432D01*
X0162205Y0180833D02*
X0132104Y0180833D01*
X0132104Y0179235D02*
X0162765Y0179235D01*
X0172205Y0177636D02*
X0132104Y0177636D01*
X0132104Y0176038D02*
X0172205Y0176038D01*
X0172205Y0174439D02*
X0132104Y0174439D01*
X0131292Y0172841D02*
X0173017Y0172841D01*
X0172205Y0184030D02*
X0172104Y0184030D01*
X0172104Y0185629D02*
X0172205Y0185629D01*
X0172205Y0187227D02*
X0172056Y0187227D01*
X0124961Y0187227D02*
X0124812Y0187227D01*
X0124860Y0185629D02*
X0124961Y0185629D01*
X0124961Y0184030D02*
X0124860Y0184030D01*
X0124961Y0177636D02*
X0119910Y0177636D01*
X0119910Y0176038D02*
X0124961Y0176038D01*
X0124961Y0174439D02*
X0119910Y0174439D01*
X0119910Y0172841D02*
X0125773Y0172841D01*
X0090186Y0184871D02*
X0090186Y0189005D01*
X0086446Y0192745D01*
X0028178Y0151800D02*
X0021091Y0151800D01*
X0019517Y0153375D01*
X0008690Y0063552D02*
X0008690Y0062824D01*
X0003600Y0004997D02*
X0119910Y0004997D01*
X0354162Y0107302D02*
X0393701Y0107302D01*
X0393701Y0108900D02*
X0354162Y0108900D01*
X0354162Y0110499D02*
X0393701Y0110499D01*
X0393701Y0112097D02*
X0354162Y0112097D01*
X0354162Y0113696D02*
X0393701Y0113696D01*
X0393701Y0115294D02*
X0354162Y0115294D01*
X0354162Y0116893D02*
X0393701Y0116893D01*
X0393701Y0118491D02*
X0354162Y0118491D01*
X0354162Y0120090D02*
X0393701Y0120090D01*
X0393701Y0121688D02*
X0354162Y0121688D01*
X0354162Y0123287D02*
X0393701Y0123287D01*
X0393701Y0124885D02*
X0354162Y0124885D01*
X0354162Y0126484D02*
X0393701Y0126484D01*
X0393701Y0128082D02*
X0354162Y0128082D01*
X0354162Y0129681D02*
X0393701Y0129681D01*
X0393701Y0131279D02*
X0354162Y0131279D01*
X0354162Y0132878D02*
X0393701Y0132878D01*
X0393701Y0134476D02*
X0354162Y0134476D01*
X0354162Y0136075D02*
X0393701Y0136075D01*
X0393701Y0137673D02*
X0354162Y0137673D01*
X0354162Y0139272D02*
X0393701Y0139272D01*
X0393701Y0140870D02*
X0354162Y0140870D01*
X0354162Y0142469D02*
X0393701Y0142469D01*
X0393701Y0144068D02*
X0354162Y0144068D01*
X0354162Y0145666D02*
X0393701Y0145666D01*
X0393701Y0147265D02*
X0354162Y0147265D01*
X0354162Y0148863D02*
X0393701Y0148863D01*
X0393701Y0150462D02*
X0354162Y0150462D01*
X0354162Y0152060D02*
X0393701Y0152060D01*
X0393701Y0153659D02*
X0354162Y0153659D01*
X0354162Y0155257D02*
X0393701Y0155257D01*
X0393701Y0156856D02*
X0354162Y0156856D01*
X0354162Y0158454D02*
X0393701Y0158454D01*
X0393701Y0160053D02*
X0354162Y0160053D01*
X0354162Y0161651D02*
X0393701Y0161651D01*
X0393701Y0163250D02*
X0354162Y0163250D01*
X0354162Y0164848D02*
X0393701Y0164848D01*
X0393701Y0166447D02*
X0354162Y0166447D01*
X0354162Y0168045D02*
X0393701Y0168045D01*
X0393701Y0169644D02*
X0354162Y0169644D01*
X0354162Y0171242D02*
X0393701Y0171242D01*
X0393701Y0172841D02*
X0354162Y0172841D01*
X0354162Y0174439D02*
X0393701Y0174439D01*
X0393701Y0176038D02*
X0354162Y0176038D01*
X0354162Y0177636D02*
X0393701Y0177636D01*
X0393701Y0179235D02*
X0354162Y0179235D01*
X0354162Y0180833D02*
X0393701Y0180833D01*
X0393701Y0182432D02*
X0354162Y0182432D01*
X0354162Y0184030D02*
X0393701Y0184030D01*
X0393701Y0185629D02*
X0354162Y0185629D01*
X0354162Y0187227D02*
X0393701Y0187227D01*
X0393701Y0188826D02*
X0354162Y0188826D01*
X0354162Y0190424D02*
X0393701Y0190424D01*
X0393701Y0192023D02*
X0354162Y0192023D01*
X0354162Y0193621D02*
X0393701Y0193621D01*
X0393701Y0195220D02*
X0354162Y0195220D01*
X0354162Y0196818D02*
X0393701Y0196818D01*
X0393701Y0198417D02*
X0354162Y0198417D01*
X0354162Y0200015D02*
X0393701Y0200015D01*
X0393701Y0201614D02*
X0354162Y0201614D01*
X0354162Y0203212D02*
X0393701Y0203212D01*
X0393701Y0204811D02*
X0354162Y0204811D01*
X0354162Y0206409D02*
X0393701Y0206409D01*
X0393701Y0208008D02*
X0354162Y0208008D01*
X0354162Y0209606D02*
X0393701Y0209606D01*
X0393701Y0211205D02*
X0354162Y0211205D01*
X0354162Y0212803D02*
X0393701Y0212803D01*
X0393701Y0214402D02*
X0354162Y0214402D01*
X0354162Y0216001D02*
X0393701Y0216001D01*
X0393701Y0217599D02*
X0354162Y0217599D01*
X0354162Y0219198D02*
X0393701Y0219198D01*
X0393701Y0220796D02*
X0354162Y0220796D01*
X0354162Y0222395D02*
X0393701Y0222395D01*
X0393701Y0223993D02*
X0354162Y0223993D01*
X0354162Y0225592D02*
X0393701Y0225592D01*
X0393701Y0227190D02*
X0354162Y0227190D01*
X0354162Y0228789D02*
X0393701Y0228789D01*
X0393701Y0230387D02*
X0354162Y0230387D01*
X0354162Y0231986D02*
X0393701Y0231986D01*
X0393701Y0233584D02*
X0354162Y0233584D01*
X0354162Y0235183D02*
X0393701Y0235183D01*
X0393701Y0236781D02*
X0354162Y0236781D01*
X0354162Y0238380D02*
X0393701Y0238380D01*
X0393701Y0239978D02*
X0354162Y0239978D01*
X0354162Y0241577D02*
X0393701Y0241577D01*
X0393701Y0243175D02*
X0354162Y0243175D01*
X0354162Y0244774D02*
X0393701Y0244774D01*
X0393701Y0246372D02*
X0354162Y0246372D01*
X0354162Y0247971D02*
X0393701Y0247971D01*
X0393701Y0249569D02*
X0354162Y0249569D01*
X0354162Y0251168D02*
X0393701Y0251168D01*
X0393701Y0252766D02*
X0354162Y0252766D01*
X0354162Y0254365D02*
X0393701Y0254365D01*
X0393701Y0255963D02*
X0354162Y0255963D01*
X0354162Y0257562D02*
X0393701Y0257562D01*
X0393701Y0259160D02*
X0354162Y0259160D01*
X0354162Y0260759D02*
X0393701Y0260759D01*
X0393701Y0262357D02*
X0354162Y0262357D01*
X0354162Y0263956D02*
X0393701Y0263956D01*
X0393701Y0265554D02*
X0354162Y0265554D01*
X0354162Y0267153D02*
X0393701Y0267153D01*
X0393701Y0268751D02*
X0354162Y0268751D01*
X0354162Y0270350D02*
X0393701Y0270350D01*
X0393701Y0271948D02*
X0354162Y0271948D01*
X0354162Y0273547D02*
X0393701Y0273547D01*
X0393701Y0275145D02*
X0354162Y0275145D01*
X0354162Y0276744D02*
X0393701Y0276744D01*
X0393701Y0278342D02*
X0354162Y0278342D01*
X0354162Y0279941D02*
X0393701Y0279941D01*
X0393701Y0281539D02*
X0354162Y0281539D01*
X0354162Y0283138D02*
X0393701Y0283138D01*
X0393701Y0284737D02*
X0354162Y0284737D01*
X0354162Y0286335D02*
X0393701Y0286335D01*
X0393701Y0287934D02*
X0354162Y0287934D01*
X0354162Y0289532D02*
X0393701Y0289532D01*
X0393701Y0291131D02*
X0354162Y0291131D01*
X0354162Y0292729D02*
X0393701Y0292729D01*
X0393701Y0294328D02*
X0354162Y0294328D01*
X0354162Y0295926D02*
X0393701Y0295926D01*
X0393701Y0297525D02*
X0354162Y0297525D01*
X0354162Y0299123D02*
X0393701Y0299123D01*
X0393701Y0300722D02*
X0354162Y0300722D01*
X0354162Y0302320D02*
X0393701Y0302320D01*
X0393701Y0303919D02*
X0354162Y0303919D01*
X0354162Y0305517D02*
X0393701Y0305517D01*
X0393701Y0307116D02*
X0354162Y0307116D01*
X0354162Y0308714D02*
X0393701Y0308714D01*
X0393701Y0310313D02*
X0354162Y0310313D01*
X0354162Y0311911D02*
X0393701Y0311911D01*
X0393701Y0313510D02*
X0354162Y0313510D01*
X0114005Y0263611D02*
X0096288Y0281328D01*
X0096288Y0285265D01*
X0064792Y0265580D02*
X0064792Y0261717D01*
X0072666Y0253843D01*
D43*
X0133690Y0190776D03*
X0137627Y0190776D03*
X0143532Y0190776D03*
X0143532Y0184871D03*
X0143532Y0180934D03*
X0143532Y0176997D03*
X0149438Y0190776D03*
X0153375Y0190776D03*
X0157312Y0190776D03*
X0180934Y0190776D03*
X0184871Y0190776D03*
X0190776Y0190776D03*
X0190776Y0184871D03*
X0196682Y0190776D03*
X0200619Y0190776D03*
X0204556Y0190776D03*
X0190776Y0180934D03*
X0190776Y0176997D03*
X0167154Y0145501D03*
X0167154Y0137627D03*
X0167154Y0129753D03*
X0167154Y0121879D03*
X0157312Y0102194D03*
X0153375Y0102194D03*
X0149438Y0102194D03*
X0143532Y0102194D03*
X0137627Y0102194D03*
X0133690Y0102194D03*
X0143532Y0096288D03*
X0143532Y0090383D03*
X0123847Y0066761D03*
X0147469Y0058887D03*
X0171091Y0058887D03*
X0194713Y0058887D03*
X0194713Y0049044D03*
X0218335Y0049044D03*
X0218335Y0058887D03*
X0241957Y0058887D03*
X0241957Y0049044D03*
X0265580Y0049044D03*
X0265580Y0058887D03*
X0289202Y0058887D03*
X0297076Y0058887D03*
X0301013Y0049044D03*
X0316761Y0049044D03*
X0346288Y0072666D03*
X0346288Y0076603D03*
X0346288Y0080540D03*
X0346288Y0084477D03*
X0346288Y0088414D03*
X0346288Y0092351D03*
X0346288Y0096288D03*
X0354162Y0094320D03*
X0354162Y0086446D03*
X0354162Y0078572D03*
X0362036Y0058887D03*
X0371879Y0058887D03*
X0383690Y0058887D03*
X0387627Y0066761D03*
X0387627Y0082509D03*
X0387627Y0098257D03*
X0387627Y0114005D03*
X0387627Y0129753D03*
X0387627Y0145501D03*
X0387627Y0161249D03*
X0387627Y0176997D03*
X0387627Y0192745D03*
X0387627Y0208493D03*
X0387627Y0224241D03*
X0387627Y0239989D03*
X0387627Y0255737D03*
X0387627Y0271485D03*
X0356131Y0271485D03*
X0348257Y0269517D03*
X0356131Y0255737D03*
X0348257Y0253769D03*
X0356131Y0239989D03*
X0356131Y0224241D03*
X0348257Y0222272D03*
X0356131Y0208493D03*
X0348257Y0206524D03*
X0356131Y0192745D03*
X0356131Y0176997D03*
X0348257Y0175028D03*
X0348257Y0159280D03*
X0356131Y0161249D03*
X0356131Y0145501D03*
X0348257Y0135658D03*
X0340383Y0135658D03*
X0332509Y0135658D03*
X0324635Y0135658D03*
X0316761Y0137627D03*
X0316761Y0145501D03*
X0324635Y0143532D03*
X0324635Y0151406D03*
X0316761Y0153375D03*
X0316761Y0161249D03*
X0324635Y0159280D03*
X0324635Y0167154D03*
X0324635Y0175028D03*
X0316761Y0169123D03*
X0324635Y0182902D03*
X0324635Y0190776D03*
X0324635Y0198650D03*
X0306918Y0190776D03*
X0302981Y0190776D03*
X0299044Y0190776D03*
X0293139Y0190776D03*
X0293139Y0184871D03*
X0287233Y0190776D03*
X0283296Y0190776D03*
X0293139Y0180934D03*
X0293139Y0176997D03*
X0259674Y0190776D03*
X0255737Y0190776D03*
X0251800Y0190776D03*
X0245894Y0190776D03*
X0245894Y0184871D03*
X0245894Y0180934D03*
X0245894Y0176997D03*
X0239989Y0190776D03*
X0236052Y0190776D03*
X0222272Y0145501D03*
X0214398Y0145501D03*
X0214398Y0137627D03*
X0222272Y0137627D03*
X0222272Y0129753D03*
X0214398Y0129753D03*
X0214398Y0121879D03*
X0222272Y0121879D03*
X0236052Y0102194D03*
X0239989Y0102194D03*
X0245894Y0102194D03*
X0251800Y0102194D03*
X0255737Y0102194D03*
X0259674Y0102194D03*
X0245894Y0096288D03*
X0245894Y0090383D03*
X0283296Y0102194D03*
X0287233Y0102194D03*
X0293139Y0102194D03*
X0299044Y0102194D03*
X0302981Y0102194D03*
X0306918Y0102194D03*
X0293139Y0096288D03*
X0293139Y0090383D03*
X0316761Y0121879D03*
X0316761Y0129753D03*
X0356131Y0129753D03*
X0356131Y0114005D03*
X0354162Y0102194D03*
X0269517Y0121879D03*
X0269517Y0129753D03*
X0269517Y0137627D03*
X0269517Y0145501D03*
X0204556Y0102194D03*
X0200619Y0102194D03*
X0196682Y0102194D03*
X0190776Y0102194D03*
X0184871Y0102194D03*
X0180934Y0102194D03*
X0190776Y0096288D03*
X0190776Y0090383D03*
X0119910Y0121879D03*
X0119910Y0129753D03*
X0119910Y0137627D03*
X0119910Y0145501D03*
X0119910Y0153375D03*
X0232115Y0259674D03*
X0239989Y0259674D03*
X0247863Y0259674D03*
X0255737Y0259674D03*
X0263611Y0259674D03*
X0271485Y0259674D03*
X0279359Y0259674D03*
X0324635Y0261643D03*
X0324635Y0245894D03*
X0324635Y0230146D03*
X0224241Y0267548D03*
X0224241Y0275422D03*
X0212430Y0271485D03*
X0212430Y0279359D03*
X0212430Y0263611D03*
X0204556Y0263611D03*
X0196682Y0263611D03*
X0188808Y0263611D03*
X0180934Y0263611D03*
X0173060Y0263611D03*
X0165186Y0263611D03*
X0157312Y0263611D03*
D44*
X0143532Y0222666D02*
X0112430Y0222666D01*
X0102194Y0198650D02*
X0092351Y0198650D01*
X0102194Y0198650D02*
X0106131Y0194713D01*
X0106131Y0125816D01*
X0096288Y0115973D01*
X0096288Y0084477D01*
X0098257Y0082509D01*
X0098257Y0073017D01*
X0097524Y0071249D02*
X0096288Y0070013D01*
X0076603Y0070013D01*
X0076603Y0066652D01*
X0076456Y0066652D01*
X0076603Y0070013D02*
X0062971Y0070013D01*
X0015473Y0070013D01*
X0012933Y0072552D01*
X0070698Y0047076D02*
X0070698Y0041170D01*
X0070698Y0039202D01*
X0070698Y0047076D02*
X0072666Y0049044D01*
X0112036Y0049044D01*
X0112036Y0037233D01*
X0139595Y0009674D01*
X0161249Y0009674D01*
X0177981Y0026406D01*
X0177981Y0023454D01*
X0203572Y0023454D02*
X0218335Y0023454D01*
X0114005Y0076603D02*
X0112036Y0074635D01*
X0112036Y0067745D01*
X0112331Y0067450D01*
X0112331Y0054654D02*
X0112331Y0049339D01*
X0112036Y0049044D01*
X0097525Y0071249D02*
X0097593Y0071320D01*
X0097658Y0071393D01*
X0097720Y0071469D01*
X0097780Y0071548D01*
X0097836Y0071628D01*
X0097889Y0071711D01*
X0097938Y0071795D01*
X0097985Y0071882D01*
X0098027Y0071970D01*
X0098067Y0072060D01*
X0098102Y0072152D01*
X0098135Y0072244D01*
X0098163Y0072338D01*
X0098188Y0072433D01*
X0098209Y0072529D01*
X0098226Y0072626D01*
X0098240Y0072723D01*
X0098249Y0072821D01*
X0098255Y0072919D01*
X0098257Y0073017D01*
X0334477Y0045107D02*
X0342135Y0045107D01*
X0367745Y0033296D02*
X0375816Y0033296D01*
D45*
X0320698Y0109280D02*
X0321288Y0113808D01*
X0330146Y0113808D01*
X0320698Y0114005D02*
X0320698Y0109280D01*
X0320698Y0114005D02*
X0269517Y0114005D01*
X0269517Y0103965D01*
X0269517Y0114005D02*
X0224241Y0114005D01*
X0224241Y0103965D01*
X0214398Y0105343D02*
X0213611Y0108099D01*
X0167154Y0108099D01*
X0167154Y0103965D01*
X0167154Y0108099D02*
X0121879Y0108099D01*
X0104162Y0108099D01*
X0108099Y0114005D02*
X0106131Y0115973D01*
X0108099Y0114005D02*
X0224241Y0114005D01*
X0175776Y0180698D02*
X0171524Y0180698D01*
X0167154Y0183099D01*
X0167154Y0190580D02*
X0167154Y0198650D01*
X0119910Y0198650D01*
X0115973Y0198650D01*
X0112036Y0202587D01*
X0112036Y0210461D01*
X0110068Y0212430D01*
X0106131Y0212430D01*
X0100225Y0218335D01*
X0100225Y0224241D01*
X0105146Y0229162D02*
X0104162Y0230146D01*
X0056918Y0230146D01*
X0049044Y0222272D01*
X0029359Y0222272D01*
X0017548Y0234083D01*
X0017548Y0240891D01*
X0017568Y0240891D01*
X0022568Y0240891D02*
X0022568Y0247961D01*
X0019517Y0251013D01*
X0019517Y0261717D01*
X0029359Y0251800D02*
X0032568Y0247135D01*
X0032568Y0240891D01*
X0037568Y0240891D02*
X0042568Y0240891D01*
X0042568Y0251800D01*
X0037233Y0251800D01*
X0047568Y0262135D02*
X0047568Y0240891D01*
X0047568Y0234576D01*
X0045107Y0232115D01*
X0047076Y0226209D02*
X0054950Y0234083D01*
X0100225Y0234083D01*
X0108099Y0239989D01*
X0113808Y0237824D02*
X0105146Y0229162D01*
X0106131Y0228178D01*
X0106131Y0218335D01*
X0108099Y0216367D01*
X0114005Y0216367D01*
X0115973Y0214398D01*
X0115973Y0204556D01*
X0117942Y0202587D01*
X0224241Y0202587D01*
X0224241Y0190580D01*
X0214398Y0191957D02*
X0209674Y0198650D01*
X0167154Y0198650D01*
X0128532Y0180698D02*
X0124280Y0180698D01*
X0119910Y0183099D01*
X0119910Y0190580D02*
X0119910Y0198650D01*
X0112036Y0222272D02*
X0112430Y0222666D01*
X0113808Y0237824D02*
X0113808Y0249044D01*
X0106328Y0249044D02*
X0106328Y0257509D01*
X0106131Y0257706D01*
X0096485Y0257706D01*
X0096288Y0257509D01*
X0088611Y0257509D01*
X0088414Y0257706D01*
X0084477Y0253769D02*
X0080540Y0257706D01*
X0084477Y0253769D02*
X0084477Y0245894D01*
X0096288Y0250028D02*
X0100225Y0246091D01*
X0100225Y0241957D01*
X0099158Y0240891D01*
X0062568Y0240891D01*
X0057568Y0240891D02*
X0057568Y0246977D01*
X0064433Y0253843D01*
X0072666Y0253843D01*
X0072666Y0269443D02*
X0072666Y0279359D01*
X0067253Y0279359D01*
X0065284Y0281328D01*
X0072666Y0279359D02*
X0074635Y0279359D01*
X0052489Y0281328D02*
X0045599Y0281328D01*
X0045599Y0271780D01*
X0045304Y0271485D01*
X0042568Y0268749D01*
X0042568Y0240891D01*
X0052568Y0240891D02*
X0052981Y0241304D01*
X0052981Y0253769D01*
X0054950Y0255737D01*
X0047568Y0262135D02*
X0052784Y0267351D01*
X0052784Y0271485D01*
X0032804Y0281328D02*
X0028793Y0277317D01*
X0019517Y0277317D01*
X0022076Y0277391D02*
X0013611Y0277391D01*
X0011643Y0275422D01*
X0011643Y0234083D01*
X0017568Y0228158D01*
X0017568Y0203891D01*
X0031328Y0212430D02*
X0032568Y0212430D01*
X0032568Y0203891D01*
X0052568Y0203891D02*
X0052568Y0193158D01*
X0058887Y0186839D01*
X0061387Y0186839D01*
X0062017Y0186209D01*
X0069497Y0186209D02*
X0072666Y0183040D01*
X0072666Y0176800D01*
X0072666Y0175028D02*
X0074831Y0177194D01*
X0082706Y0184871D01*
X0077371Y0189576D02*
X0074635Y0186839D01*
X0070127Y0186839D01*
X0069497Y0186209D01*
X0069891Y0194241D02*
X0069418Y0194713D01*
X0060855Y0194713D01*
X0057568Y0198001D01*
X0057568Y0203891D01*
X0062568Y0203891D02*
X0079875Y0203891D01*
X0084477Y0208493D01*
X0084477Y0222272D01*
X0077371Y0194241D02*
X0077371Y0189576D01*
X0047076Y0226209D02*
X0031328Y0226209D01*
X0027568Y0229969D01*
X0027568Y0240891D01*
X0030225Y0278749D02*
X0032804Y0281328D01*
X0224241Y0202587D02*
X0269517Y0202587D01*
X0269517Y0190580D01*
X0269517Y0202587D02*
X0312824Y0202587D01*
X0316761Y0198650D01*
X0316761Y0191957D01*
X0121879Y0108099D02*
X0121879Y0103965D01*
X0090383Y0076603D02*
X0082312Y0076603D01*
X0074831Y0076603D02*
X0074831Y0080491D01*
X0082223Y0087883D01*
X0071761Y0088257D02*
X0082223Y0098719D01*
X0082223Y0100678D01*
X0074831Y0076603D02*
X0060855Y0076603D01*
X0043139Y0094320D01*
X0043139Y0100028D01*
X0042942Y0100225D01*
X0042942Y0108493D01*
X0035461Y0108493D02*
X0035461Y0104359D01*
X0029359Y0098257D01*
X0027391Y0098257D01*
X0021485Y0098257D02*
X0017548Y0102194D01*
X0017548Y0112036D01*
X0012331Y0112036D01*
X0005737Y0106131D02*
X0007706Y0104162D01*
X0012331Y0104162D01*
X0012331Y0091154D01*
X0012933Y0090552D01*
X0021485Y0084477D02*
X0021485Y0098257D01*
X0035461Y0100225D02*
X0035461Y0108493D01*
X0013611Y0127627D02*
X0009517Y0127627D01*
X0005737Y0123847D01*
X0005737Y0106131D01*
X0021485Y0084477D02*
X0018560Y0081552D01*
X0012933Y0081552D01*
X0041170Y0056918D02*
X0017548Y0033296D01*
X0017548Y0016830D01*
X0016446Y0015727D01*
X0051091Y0050373D02*
X0058326Y0043139D01*
X0064300Y0043139D01*
X0064300Y0034020D01*
X0065166Y0033154D01*
X0075166Y0033154D02*
X0075166Y0041209D01*
X0077095Y0043139D01*
X0075166Y0033154D02*
X0080166Y0033154D01*
X0075166Y0013754D02*
X0070166Y0013754D01*
X0065166Y0013754D01*
X0041170Y0056918D02*
X0046265Y0062013D01*
X0062971Y0062013D01*
D46*
X0066761Y0052981D03*
X0084477Y0043139D03*
X0096288Y0056918D03*
X0104162Y0056918D03*
X0119910Y0049044D03*
X0125816Y0043139D03*
X0114005Y0076603D03*
X0102194Y0090383D03*
X0106131Y0100225D03*
X0104162Y0108099D03*
X0106131Y0115973D03*
X0090383Y0119910D03*
X0062824Y0129753D03*
X0049044Y0135658D03*
X0041170Y0135658D03*
X0035265Y0141564D03*
X0058887Y0141564D03*
X0058887Y0157312D03*
X0066761Y0157312D03*
X0080540Y0152587D03*
X0082509Y0159280D03*
X0088414Y0176997D03*
X0086446Y0192745D03*
X0092351Y0198650D03*
X0084477Y0222272D03*
X0100225Y0224241D03*
X0112036Y0222272D03*
X0108099Y0239989D03*
X0100225Y0241957D03*
X0084477Y0245894D03*
X0080540Y0257706D03*
X0088414Y0257706D03*
X0064792Y0265580D03*
X0054950Y0255737D03*
X0037233Y0251800D03*
X0029359Y0251800D03*
X0045107Y0232115D03*
X0031328Y0212430D03*
X0031328Y0192745D03*
X0017548Y0192745D03*
X0021485Y0117942D03*
X0029359Y0117942D03*
X0027391Y0098257D03*
X0051013Y0098257D03*
X0090383Y0076603D03*
X0218335Y0023454D03*
X0334477Y0045107D03*
X0375816Y0033296D03*
X0074635Y0279359D03*
X0060855Y0295107D03*
X0096288Y0285265D03*
D47*
X0226524Y0183099D02*
X0230894Y0180698D01*
X0269517Y0183099D02*
X0271800Y0183099D01*
X0278139Y0180698D01*
X0269517Y0096485D02*
X0273887Y0094083D01*
X0278139Y0094083D01*
X0285265Y0064792D02*
X0285265Y0064202D01*
X0342725Y0064202D01*
X0342725Y0045698D02*
X0342135Y0045107D01*
X0336643Y0039615D01*
X0336643Y0033296D01*
X0344123Y0033296D02*
X0347725Y0033296D01*
X0347725Y0045698D01*
X0357725Y0045698D02*
X0357725Y0033296D01*
X0360265Y0033296D01*
X0230894Y0094083D02*
X0228611Y0094083D01*
X0224241Y0096485D01*
X0175776Y0094083D02*
X0171524Y0094083D01*
X0167154Y0096485D01*
X0128532Y0094083D02*
X0126249Y0094083D01*
X0121879Y0096485D01*
X0093139Y0043139D02*
X0080540Y0043139D01*
X0077095Y0043139D01*
X0070698Y0041170D02*
X0070166Y0040639D01*
X0070166Y0033154D01*
X0080166Y0014792D02*
X0080166Y0013754D01*
X0080166Y0007331D01*
X0078572Y0005737D01*
X0026436Y0005737D01*
X0016446Y0015727D01*
X0080166Y0014792D02*
X0100225Y0014792D01*
X0100225Y0036052D02*
X0093139Y0043139D01*
D48*
X0173060Y0045107D02*
X0292548Y0045107D01*
X0334477Y0045107D01*
X0333887Y0045698D01*
X0293139Y0045698D02*
X0292548Y0045107D01*
X0293139Y0045698D02*
X0293139Y0056918D01*
D49*
X0108099Y0045107D02*
X0108099Y0027522D01*
X0077702Y0027522D01*
X0077570Y0027391D01*
X0076603Y0027391D01*
X0076603Y0026423D01*
X0076472Y0026292D01*
X0076472Y0009805D01*
X0060855Y0009805D01*
X0060855Y0021485D01*
X0068729Y0021485D01*
X0074635Y0029359D01*
X0074635Y0045107D01*
X0108099Y0045107D01*
X0108099Y0044736D02*
X0074635Y0044736D01*
X0074635Y0043737D02*
X0108099Y0043737D01*
X0108099Y0042739D02*
X0074635Y0042739D01*
X0074635Y0041740D02*
X0108099Y0041740D01*
X0108099Y0040742D02*
X0074635Y0040742D01*
X0074635Y0039743D02*
X0108099Y0039743D01*
X0108099Y0038745D02*
X0074635Y0038745D01*
X0074635Y0037746D02*
X0108099Y0037746D01*
X0108099Y0036748D02*
X0074635Y0036748D01*
X0074635Y0035749D02*
X0108099Y0035749D01*
X0108099Y0034751D02*
X0074635Y0034751D01*
X0074635Y0033752D02*
X0108099Y0033752D01*
X0108099Y0032754D02*
X0074635Y0032754D01*
X0074635Y0031755D02*
X0108099Y0031755D01*
X0108099Y0030757D02*
X0074635Y0030757D01*
X0074635Y0029758D02*
X0108099Y0029758D01*
X0108099Y0028760D02*
X0074185Y0028760D01*
X0073436Y0027761D02*
X0108099Y0027761D01*
X0076603Y0026763D02*
X0072687Y0026763D01*
X0071939Y0025764D02*
X0076472Y0025764D01*
X0076472Y0024766D02*
X0071190Y0024766D01*
X0070441Y0023767D02*
X0076472Y0023767D01*
X0076472Y0022769D02*
X0069692Y0022769D01*
X0068943Y0021770D02*
X0076472Y0021770D01*
X0076472Y0020772D02*
X0060855Y0020772D01*
X0060855Y0019773D02*
X0076472Y0019773D01*
X0076472Y0018775D02*
X0060855Y0018775D01*
X0060855Y0017776D02*
X0076472Y0017776D01*
X0076472Y0016778D02*
X0060855Y0016778D01*
X0060855Y0015779D02*
X0076472Y0015779D01*
X0076472Y0014781D02*
X0060855Y0014781D01*
X0060855Y0013782D02*
X0076472Y0013782D01*
X0076472Y0012784D02*
X0060855Y0012784D01*
X0060855Y0011785D02*
X0076472Y0011785D01*
X0076472Y0010787D02*
X0060855Y0010787D01*
X0060855Y0025422D02*
X0066761Y0025422D01*
X0066761Y0048881D01*
X0065945Y0048881D01*
X0064438Y0049505D01*
X0063285Y0050659D01*
X0062661Y0052166D01*
X0062661Y0053797D01*
X0063285Y0055304D01*
X0064438Y0056457D01*
X0065234Y0056787D01*
X0047945Y0056787D01*
X0038718Y0047559D01*
X0060855Y0025422D01*
X0060513Y0025764D02*
X0066761Y0025764D01*
X0066761Y0026763D02*
X0059514Y0026763D01*
X0058516Y0027761D02*
X0066761Y0027761D01*
X0066761Y0028760D02*
X0057517Y0028760D01*
X0056519Y0029758D02*
X0066761Y0029758D01*
X0066761Y0030757D02*
X0055520Y0030757D01*
X0054522Y0031755D02*
X0066761Y0031755D01*
X0066761Y0032754D02*
X0053523Y0032754D01*
X0052525Y0033752D02*
X0066761Y0033752D01*
X0066761Y0034751D02*
X0051526Y0034751D01*
X0050528Y0035749D02*
X0066761Y0035749D01*
X0066761Y0036748D02*
X0049529Y0036748D01*
X0048531Y0037746D02*
X0066761Y0037746D01*
X0066761Y0038745D02*
X0047532Y0038745D01*
X0046534Y0039743D02*
X0066761Y0039743D01*
X0066761Y0040742D02*
X0045535Y0040742D01*
X0044537Y0041740D02*
X0066761Y0041740D01*
X0066761Y0042739D02*
X0043538Y0042739D01*
X0042540Y0043737D02*
X0066761Y0043737D01*
X0066761Y0044736D02*
X0041541Y0044736D01*
X0040543Y0045734D02*
X0066761Y0045734D01*
X0066761Y0046733D02*
X0039544Y0046733D01*
X0038890Y0047732D02*
X0066761Y0047732D01*
X0066761Y0048730D02*
X0039889Y0048730D01*
X0040887Y0049729D02*
X0064215Y0049729D01*
X0063256Y0050727D02*
X0041886Y0050727D01*
X0042884Y0051726D02*
X0062843Y0051726D01*
X0062661Y0052724D02*
X0043883Y0052724D01*
X0044881Y0053723D02*
X0062661Y0053723D01*
X0063044Y0054721D02*
X0045880Y0054721D01*
X0046878Y0055720D02*
X0063701Y0055720D01*
X0065069Y0056718D02*
X0047877Y0056718D01*
D50*
X0061761Y0098257D02*
X0052981Y0105068D01*
X0052981Y0112036D01*
X0060461Y0119517D01*
X0060461Y0122666D01*
X0063611Y0122666D02*
X0063611Y0116761D01*
X0062824Y0115973D01*
X0060855Y0115973D01*
X0056918Y0112036D01*
X0056918Y0106131D01*
X0058887Y0104162D01*
X0065855Y0102194D01*
X0071761Y0098257D01*
M02*
