%
M48
M72
T01C0.02362
T02C0.02756
T03C0.04000
T04C0.04100
T05C0.08661
T06C0.12598
%
T01
X157312Y263611
X165186Y263611
X173060Y263611
X180934Y263611
X188808Y263611
X196682Y263611
X204556Y263611
X212430Y263611
X212430Y271485
X212430Y279359
X224241Y275422
X224241Y267548
X232115Y259674
X239989Y259674
X247863Y259674
X255737Y259674
X263611Y259674
X271485Y259674
X279359Y259674
X324635Y261643
X324635Y245894
X324635Y230146
X348257Y222272
X356131Y224241
X356131Y239989
X348257Y253769
X356131Y255737
X348257Y269517
X356131Y271485
X387627Y271485
X387627Y255737
X387627Y239989
X387627Y224241
X387627Y208493
X387627Y192745
X387627Y176997
X387627Y161249
X387627Y145501
X387627Y129753
X387627Y114005
X387627Y98257
X387627Y82509
X387627Y66761
X383690Y58887
X371879Y58887
X362036Y58887
X346288Y72666
X346288Y76603
X346288Y80540
X346288Y84477
X346288Y88414
X346288Y92351
X346288Y96288
X354162Y94320
X354162Y86446
X354162Y78572
X354162Y102194
X356131Y114005
X356131Y129753
X348257Y135658
X340383Y135658
X332509Y135658
X324635Y135658
X316761Y137627
X316761Y145501
X324635Y143532
X324635Y151406
X316761Y153375
X316761Y161249
X324635Y159280
X324635Y167154
X324635Y175028
X316761Y169123
X324635Y182902
X324635Y190776
X324635Y198650
X306918Y190776
X302981Y190776
X299044Y190776
X293139Y190776
X293139Y184871
X287233Y190776
X283296Y190776
X293139Y180934
X293139Y176997
X259674Y190776
X255737Y190776
X251800Y190776
X245894Y190776
X245894Y184871
X245894Y180934
X245894Y176997
X239989Y190776
X236052Y190776
X190776Y176997
X190776Y180934
X190776Y184871
X190776Y190776
X196682Y190776
X200619Y190776
X204556Y190776
X184871Y190776
X180934Y190776
X157312Y190776
X153375Y190776
X149438Y190776
X143532Y190776
X143532Y184871
X137627Y190776
X133690Y190776
X143532Y180934
X143532Y176997
X119910Y153375
X119910Y145501
X119910Y137627
X119910Y129753
X119910Y121879
X133690Y102194
X137627Y102194
X143532Y102194
X149438Y102194
X153375Y102194
X157312Y102194
X143532Y96288
X143532Y90383
X123847Y66761
X147469Y58887
X171091Y58887
X194713Y58887
X194713Y49044
X218335Y49044
X218335Y58887
X241957Y58887
X241957Y49044
X265580Y49044
X265580Y58887
X289202Y58887
X297076Y58887
X301013Y49044
X316761Y49044
X293139Y90383
X293139Y96288
X293139Y102194
X287233Y102194
X283296Y102194
X299044Y102194
X302981Y102194
X306918Y102194
X316761Y121879
X316761Y129753
X356131Y145501
X356131Y161249
X348257Y159280
X348257Y175028
X356131Y176997
X356131Y192745
X348257Y206524
X356131Y208493
X269517Y145501
X269517Y137627
X269517Y129753
X269517Y121879
X259674Y102194
X255737Y102194
X251800Y102194
X245894Y102194
X239989Y102194
X236052Y102194
X245894Y96288
X245894Y90383
X222272Y121879
X214398Y121879
X214398Y129753
X222272Y129753
X222272Y137627
X214398Y137627
X214398Y145501
X222272Y145501
X204556Y102194
X200619Y102194
X196682Y102194
X190776Y102194
X184871Y102194
X180934Y102194
X190776Y96288
X190776Y90383
X167154Y121879
X167154Y129753
X167154Y137627
X167154Y145501
T02
X66761Y52981
X84477Y43139
X96288Y56918
X104162Y56918
X119910Y49044
X125816Y43139
X114005Y76603
X102194Y90383
X106131Y100225
X104162Y108099
X106131Y115973
X90383Y119910
X62824Y129753
X49044Y135658
X41170Y135658
X35265Y141564
X58887Y141564
X58887Y157312
X66761Y157312
X80540Y152587
X82509Y159280
X88414Y176997
X86446Y192745
X92351Y198650
X84477Y222272
X100225Y224241
X112036Y222272
X108099Y239989
X100225Y241957
X84477Y245894
X80540Y257706
X88414Y257706
X64792Y265580
X54950Y255737
X37233Y251800
X29359Y251800
X45107Y232115
X31328Y212430
X31328Y192745
X17548Y192745
X21485Y117942
X29359Y117942
X27391Y98257
X51013Y98257
X90383Y76603
X218335Y23454
X334477Y45107
X375816Y33296
X74635Y279359
X60855Y295107
X96288Y285265
T03
X13454Y180658
X13454Y170658
X13454Y160658
X13611Y147627
X13611Y137627
X13611Y127627
X61761Y108257
X71761Y108257
X71761Y98257
X61761Y98257
X61761Y88257
X71761Y88257
T04
X342379Y226997
X371879Y226997
X371879Y151406
X342379Y151406
T05
X218335Y167154
T06
X143532Y293139
X186839Y293139
X249831Y293139
X293139Y293139
X330540Y293139
X373847Y293139
X143532Y25422
X293139Y25422
M30
