G75*
%MOIN*%
%OFA0B0*%
%FSLAX25Y25*%
%IPPOS*%
%LPD*%
%AMOC8*
5,1,8,0,0,1.08239X$1,22.5*
%
%ADD10C,0.00000*%
%ADD11OC8,0.06000*%
%ADD12C,0.06000*%
%ADD13C,0.23000*%
%ADD14R,0.06150X0.06150*%
%ADD15C,0.06150*%
%ADD16R,0.03562X0.03562*%
%ADD17C,0.01600*%
%ADD18C,0.05600*%
%ADD19C,0.04000*%
%ADD20C,0.02400*%
D10*
X0001800Y0001800D02*
X0001800Y0316761D01*
X0395501Y0316761D01*
X0395501Y0001800D01*
X0001800Y0001800D01*
X0137233Y0025422D02*
X0137235Y0025580D01*
X0137241Y0025738D01*
X0137251Y0025896D01*
X0137265Y0026054D01*
X0137283Y0026211D01*
X0137304Y0026368D01*
X0137330Y0026524D01*
X0137360Y0026680D01*
X0137393Y0026835D01*
X0137431Y0026988D01*
X0137472Y0027141D01*
X0137517Y0027293D01*
X0137566Y0027444D01*
X0137619Y0027593D01*
X0137675Y0027741D01*
X0137735Y0027887D01*
X0137799Y0028032D01*
X0137867Y0028175D01*
X0137938Y0028317D01*
X0138012Y0028457D01*
X0138090Y0028594D01*
X0138172Y0028730D01*
X0138256Y0028864D01*
X0138345Y0028995D01*
X0138436Y0029124D01*
X0138531Y0029251D01*
X0138628Y0029376D01*
X0138729Y0029498D01*
X0138833Y0029617D01*
X0138940Y0029734D01*
X0139050Y0029848D01*
X0139163Y0029959D01*
X0139278Y0030068D01*
X0139396Y0030173D01*
X0139517Y0030275D01*
X0139640Y0030375D01*
X0139766Y0030471D01*
X0139894Y0030564D01*
X0140024Y0030654D01*
X0140157Y0030740D01*
X0140292Y0030824D01*
X0140428Y0030903D01*
X0140567Y0030980D01*
X0140708Y0031052D01*
X0140850Y0031122D01*
X0140994Y0031187D01*
X0141140Y0031249D01*
X0141287Y0031307D01*
X0141436Y0031362D01*
X0141586Y0031413D01*
X0141737Y0031460D01*
X0141889Y0031503D01*
X0142042Y0031542D01*
X0142197Y0031578D01*
X0142352Y0031609D01*
X0142508Y0031637D01*
X0142664Y0031661D01*
X0142821Y0031681D01*
X0142979Y0031697D01*
X0143136Y0031709D01*
X0143295Y0031717D01*
X0143453Y0031721D01*
X0143611Y0031721D01*
X0143769Y0031717D01*
X0143928Y0031709D01*
X0144085Y0031697D01*
X0144243Y0031681D01*
X0144400Y0031661D01*
X0144556Y0031637D01*
X0144712Y0031609D01*
X0144867Y0031578D01*
X0145022Y0031542D01*
X0145175Y0031503D01*
X0145327Y0031460D01*
X0145478Y0031413D01*
X0145628Y0031362D01*
X0145777Y0031307D01*
X0145924Y0031249D01*
X0146070Y0031187D01*
X0146214Y0031122D01*
X0146356Y0031052D01*
X0146497Y0030980D01*
X0146636Y0030903D01*
X0146772Y0030824D01*
X0146907Y0030740D01*
X0147040Y0030654D01*
X0147170Y0030564D01*
X0147298Y0030471D01*
X0147424Y0030375D01*
X0147547Y0030275D01*
X0147668Y0030173D01*
X0147786Y0030068D01*
X0147901Y0029959D01*
X0148014Y0029848D01*
X0148124Y0029734D01*
X0148231Y0029617D01*
X0148335Y0029498D01*
X0148436Y0029376D01*
X0148533Y0029251D01*
X0148628Y0029124D01*
X0148719Y0028995D01*
X0148808Y0028864D01*
X0148892Y0028730D01*
X0148974Y0028594D01*
X0149052Y0028457D01*
X0149126Y0028317D01*
X0149197Y0028175D01*
X0149265Y0028032D01*
X0149329Y0027887D01*
X0149389Y0027741D01*
X0149445Y0027593D01*
X0149498Y0027444D01*
X0149547Y0027293D01*
X0149592Y0027141D01*
X0149633Y0026988D01*
X0149671Y0026835D01*
X0149704Y0026680D01*
X0149734Y0026524D01*
X0149760Y0026368D01*
X0149781Y0026211D01*
X0149799Y0026054D01*
X0149813Y0025896D01*
X0149823Y0025738D01*
X0149829Y0025580D01*
X0149831Y0025422D01*
X0149829Y0025264D01*
X0149823Y0025106D01*
X0149813Y0024948D01*
X0149799Y0024790D01*
X0149781Y0024633D01*
X0149760Y0024476D01*
X0149734Y0024320D01*
X0149704Y0024164D01*
X0149671Y0024009D01*
X0149633Y0023856D01*
X0149592Y0023703D01*
X0149547Y0023551D01*
X0149498Y0023400D01*
X0149445Y0023251D01*
X0149389Y0023103D01*
X0149329Y0022957D01*
X0149265Y0022812D01*
X0149197Y0022669D01*
X0149126Y0022527D01*
X0149052Y0022387D01*
X0148974Y0022250D01*
X0148892Y0022114D01*
X0148808Y0021980D01*
X0148719Y0021849D01*
X0148628Y0021720D01*
X0148533Y0021593D01*
X0148436Y0021468D01*
X0148335Y0021346D01*
X0148231Y0021227D01*
X0148124Y0021110D01*
X0148014Y0020996D01*
X0147901Y0020885D01*
X0147786Y0020776D01*
X0147668Y0020671D01*
X0147547Y0020569D01*
X0147424Y0020469D01*
X0147298Y0020373D01*
X0147170Y0020280D01*
X0147040Y0020190D01*
X0146907Y0020104D01*
X0146772Y0020020D01*
X0146636Y0019941D01*
X0146497Y0019864D01*
X0146356Y0019792D01*
X0146214Y0019722D01*
X0146070Y0019657D01*
X0145924Y0019595D01*
X0145777Y0019537D01*
X0145628Y0019482D01*
X0145478Y0019431D01*
X0145327Y0019384D01*
X0145175Y0019341D01*
X0145022Y0019302D01*
X0144867Y0019266D01*
X0144712Y0019235D01*
X0144556Y0019207D01*
X0144400Y0019183D01*
X0144243Y0019163D01*
X0144085Y0019147D01*
X0143928Y0019135D01*
X0143769Y0019127D01*
X0143611Y0019123D01*
X0143453Y0019123D01*
X0143295Y0019127D01*
X0143136Y0019135D01*
X0142979Y0019147D01*
X0142821Y0019163D01*
X0142664Y0019183D01*
X0142508Y0019207D01*
X0142352Y0019235D01*
X0142197Y0019266D01*
X0142042Y0019302D01*
X0141889Y0019341D01*
X0141737Y0019384D01*
X0141586Y0019431D01*
X0141436Y0019482D01*
X0141287Y0019537D01*
X0141140Y0019595D01*
X0140994Y0019657D01*
X0140850Y0019722D01*
X0140708Y0019792D01*
X0140567Y0019864D01*
X0140428Y0019941D01*
X0140292Y0020020D01*
X0140157Y0020104D01*
X0140024Y0020190D01*
X0139894Y0020280D01*
X0139766Y0020373D01*
X0139640Y0020469D01*
X0139517Y0020569D01*
X0139396Y0020671D01*
X0139278Y0020776D01*
X0139163Y0020885D01*
X0139050Y0020996D01*
X0138940Y0021110D01*
X0138833Y0021227D01*
X0138729Y0021346D01*
X0138628Y0021468D01*
X0138531Y0021593D01*
X0138436Y0021720D01*
X0138345Y0021849D01*
X0138256Y0021980D01*
X0138172Y0022114D01*
X0138090Y0022250D01*
X0138012Y0022387D01*
X0137938Y0022527D01*
X0137867Y0022669D01*
X0137799Y0022812D01*
X0137735Y0022957D01*
X0137675Y0023103D01*
X0137619Y0023251D01*
X0137566Y0023400D01*
X0137517Y0023551D01*
X0137472Y0023703D01*
X0137431Y0023856D01*
X0137393Y0024009D01*
X0137360Y0024164D01*
X0137330Y0024320D01*
X0137304Y0024476D01*
X0137283Y0024633D01*
X0137265Y0024790D01*
X0137251Y0024948D01*
X0137241Y0025106D01*
X0137235Y0025264D01*
X0137233Y0025422D01*
X0286840Y0025422D02*
X0286842Y0025580D01*
X0286848Y0025738D01*
X0286858Y0025896D01*
X0286872Y0026054D01*
X0286890Y0026211D01*
X0286911Y0026368D01*
X0286937Y0026524D01*
X0286967Y0026680D01*
X0287000Y0026835D01*
X0287038Y0026988D01*
X0287079Y0027141D01*
X0287124Y0027293D01*
X0287173Y0027444D01*
X0287226Y0027593D01*
X0287282Y0027741D01*
X0287342Y0027887D01*
X0287406Y0028032D01*
X0287474Y0028175D01*
X0287545Y0028317D01*
X0287619Y0028457D01*
X0287697Y0028594D01*
X0287779Y0028730D01*
X0287863Y0028864D01*
X0287952Y0028995D01*
X0288043Y0029124D01*
X0288138Y0029251D01*
X0288235Y0029376D01*
X0288336Y0029498D01*
X0288440Y0029617D01*
X0288547Y0029734D01*
X0288657Y0029848D01*
X0288770Y0029959D01*
X0288885Y0030068D01*
X0289003Y0030173D01*
X0289124Y0030275D01*
X0289247Y0030375D01*
X0289373Y0030471D01*
X0289501Y0030564D01*
X0289631Y0030654D01*
X0289764Y0030740D01*
X0289899Y0030824D01*
X0290035Y0030903D01*
X0290174Y0030980D01*
X0290315Y0031052D01*
X0290457Y0031122D01*
X0290601Y0031187D01*
X0290747Y0031249D01*
X0290894Y0031307D01*
X0291043Y0031362D01*
X0291193Y0031413D01*
X0291344Y0031460D01*
X0291496Y0031503D01*
X0291649Y0031542D01*
X0291804Y0031578D01*
X0291959Y0031609D01*
X0292115Y0031637D01*
X0292271Y0031661D01*
X0292428Y0031681D01*
X0292586Y0031697D01*
X0292743Y0031709D01*
X0292902Y0031717D01*
X0293060Y0031721D01*
X0293218Y0031721D01*
X0293376Y0031717D01*
X0293535Y0031709D01*
X0293692Y0031697D01*
X0293850Y0031681D01*
X0294007Y0031661D01*
X0294163Y0031637D01*
X0294319Y0031609D01*
X0294474Y0031578D01*
X0294629Y0031542D01*
X0294782Y0031503D01*
X0294934Y0031460D01*
X0295085Y0031413D01*
X0295235Y0031362D01*
X0295384Y0031307D01*
X0295531Y0031249D01*
X0295677Y0031187D01*
X0295821Y0031122D01*
X0295963Y0031052D01*
X0296104Y0030980D01*
X0296243Y0030903D01*
X0296379Y0030824D01*
X0296514Y0030740D01*
X0296647Y0030654D01*
X0296777Y0030564D01*
X0296905Y0030471D01*
X0297031Y0030375D01*
X0297154Y0030275D01*
X0297275Y0030173D01*
X0297393Y0030068D01*
X0297508Y0029959D01*
X0297621Y0029848D01*
X0297731Y0029734D01*
X0297838Y0029617D01*
X0297942Y0029498D01*
X0298043Y0029376D01*
X0298140Y0029251D01*
X0298235Y0029124D01*
X0298326Y0028995D01*
X0298415Y0028864D01*
X0298499Y0028730D01*
X0298581Y0028594D01*
X0298659Y0028457D01*
X0298733Y0028317D01*
X0298804Y0028175D01*
X0298872Y0028032D01*
X0298936Y0027887D01*
X0298996Y0027741D01*
X0299052Y0027593D01*
X0299105Y0027444D01*
X0299154Y0027293D01*
X0299199Y0027141D01*
X0299240Y0026988D01*
X0299278Y0026835D01*
X0299311Y0026680D01*
X0299341Y0026524D01*
X0299367Y0026368D01*
X0299388Y0026211D01*
X0299406Y0026054D01*
X0299420Y0025896D01*
X0299430Y0025738D01*
X0299436Y0025580D01*
X0299438Y0025422D01*
X0299436Y0025264D01*
X0299430Y0025106D01*
X0299420Y0024948D01*
X0299406Y0024790D01*
X0299388Y0024633D01*
X0299367Y0024476D01*
X0299341Y0024320D01*
X0299311Y0024164D01*
X0299278Y0024009D01*
X0299240Y0023856D01*
X0299199Y0023703D01*
X0299154Y0023551D01*
X0299105Y0023400D01*
X0299052Y0023251D01*
X0298996Y0023103D01*
X0298936Y0022957D01*
X0298872Y0022812D01*
X0298804Y0022669D01*
X0298733Y0022527D01*
X0298659Y0022387D01*
X0298581Y0022250D01*
X0298499Y0022114D01*
X0298415Y0021980D01*
X0298326Y0021849D01*
X0298235Y0021720D01*
X0298140Y0021593D01*
X0298043Y0021468D01*
X0297942Y0021346D01*
X0297838Y0021227D01*
X0297731Y0021110D01*
X0297621Y0020996D01*
X0297508Y0020885D01*
X0297393Y0020776D01*
X0297275Y0020671D01*
X0297154Y0020569D01*
X0297031Y0020469D01*
X0296905Y0020373D01*
X0296777Y0020280D01*
X0296647Y0020190D01*
X0296514Y0020104D01*
X0296379Y0020020D01*
X0296243Y0019941D01*
X0296104Y0019864D01*
X0295963Y0019792D01*
X0295821Y0019722D01*
X0295677Y0019657D01*
X0295531Y0019595D01*
X0295384Y0019537D01*
X0295235Y0019482D01*
X0295085Y0019431D01*
X0294934Y0019384D01*
X0294782Y0019341D01*
X0294629Y0019302D01*
X0294474Y0019266D01*
X0294319Y0019235D01*
X0294163Y0019207D01*
X0294007Y0019183D01*
X0293850Y0019163D01*
X0293692Y0019147D01*
X0293535Y0019135D01*
X0293376Y0019127D01*
X0293218Y0019123D01*
X0293060Y0019123D01*
X0292902Y0019127D01*
X0292743Y0019135D01*
X0292586Y0019147D01*
X0292428Y0019163D01*
X0292271Y0019183D01*
X0292115Y0019207D01*
X0291959Y0019235D01*
X0291804Y0019266D01*
X0291649Y0019302D01*
X0291496Y0019341D01*
X0291344Y0019384D01*
X0291193Y0019431D01*
X0291043Y0019482D01*
X0290894Y0019537D01*
X0290747Y0019595D01*
X0290601Y0019657D01*
X0290457Y0019722D01*
X0290315Y0019792D01*
X0290174Y0019864D01*
X0290035Y0019941D01*
X0289899Y0020020D01*
X0289764Y0020104D01*
X0289631Y0020190D01*
X0289501Y0020280D01*
X0289373Y0020373D01*
X0289247Y0020469D01*
X0289124Y0020569D01*
X0289003Y0020671D01*
X0288885Y0020776D01*
X0288770Y0020885D01*
X0288657Y0020996D01*
X0288547Y0021110D01*
X0288440Y0021227D01*
X0288336Y0021346D01*
X0288235Y0021468D01*
X0288138Y0021593D01*
X0288043Y0021720D01*
X0287952Y0021849D01*
X0287863Y0021980D01*
X0287779Y0022114D01*
X0287697Y0022250D01*
X0287619Y0022387D01*
X0287545Y0022527D01*
X0287474Y0022669D01*
X0287406Y0022812D01*
X0287342Y0022957D01*
X0287282Y0023103D01*
X0287226Y0023251D01*
X0287173Y0023400D01*
X0287124Y0023551D01*
X0287079Y0023703D01*
X0287038Y0023856D01*
X0287000Y0024009D01*
X0286967Y0024164D01*
X0286937Y0024320D01*
X0286911Y0024476D01*
X0286890Y0024633D01*
X0286872Y0024790D01*
X0286858Y0024948D01*
X0286848Y0025106D01*
X0286842Y0025264D01*
X0286840Y0025422D01*
X0214004Y0167154D02*
X0214006Y0167285D01*
X0214012Y0167417D01*
X0214022Y0167548D01*
X0214036Y0167679D01*
X0214054Y0167809D01*
X0214076Y0167938D01*
X0214101Y0168067D01*
X0214131Y0168195D01*
X0214165Y0168322D01*
X0214202Y0168449D01*
X0214243Y0168573D01*
X0214288Y0168697D01*
X0214337Y0168819D01*
X0214389Y0168940D01*
X0214445Y0169058D01*
X0214505Y0169176D01*
X0214568Y0169291D01*
X0214635Y0169404D01*
X0214705Y0169516D01*
X0214778Y0169625D01*
X0214854Y0169731D01*
X0214934Y0169836D01*
X0215017Y0169938D01*
X0215103Y0170037D01*
X0215192Y0170134D01*
X0215284Y0170228D01*
X0215379Y0170319D01*
X0215476Y0170408D01*
X0215576Y0170493D01*
X0215679Y0170575D01*
X0215784Y0170654D01*
X0215891Y0170730D01*
X0216001Y0170802D01*
X0216113Y0170871D01*
X0216227Y0170937D01*
X0216342Y0170999D01*
X0216460Y0171058D01*
X0216579Y0171113D01*
X0216700Y0171165D01*
X0216823Y0171212D01*
X0216947Y0171256D01*
X0217072Y0171297D01*
X0217198Y0171333D01*
X0217326Y0171366D01*
X0217454Y0171394D01*
X0217583Y0171419D01*
X0217713Y0171440D01*
X0217843Y0171457D01*
X0217974Y0171470D01*
X0218105Y0171479D01*
X0218236Y0171484D01*
X0218368Y0171485D01*
X0218499Y0171482D01*
X0218631Y0171475D01*
X0218762Y0171464D01*
X0218892Y0171449D01*
X0219022Y0171430D01*
X0219152Y0171407D01*
X0219280Y0171381D01*
X0219408Y0171350D01*
X0219535Y0171315D01*
X0219661Y0171277D01*
X0219785Y0171235D01*
X0219909Y0171189D01*
X0220030Y0171139D01*
X0220150Y0171086D01*
X0220269Y0171029D01*
X0220386Y0170969D01*
X0220500Y0170905D01*
X0220613Y0170837D01*
X0220724Y0170766D01*
X0220833Y0170692D01*
X0220939Y0170615D01*
X0221043Y0170534D01*
X0221144Y0170451D01*
X0221243Y0170364D01*
X0221339Y0170274D01*
X0221432Y0170181D01*
X0221523Y0170086D01*
X0221610Y0169988D01*
X0221695Y0169887D01*
X0221776Y0169784D01*
X0221854Y0169678D01*
X0221929Y0169570D01*
X0222001Y0169460D01*
X0222069Y0169348D01*
X0222134Y0169234D01*
X0222195Y0169117D01*
X0222253Y0168999D01*
X0222307Y0168879D01*
X0222358Y0168758D01*
X0222405Y0168635D01*
X0222448Y0168511D01*
X0222487Y0168386D01*
X0222523Y0168259D01*
X0222554Y0168131D01*
X0222582Y0168003D01*
X0222606Y0167874D01*
X0222626Y0167744D01*
X0222642Y0167613D01*
X0222654Y0167482D01*
X0222662Y0167351D01*
X0222666Y0167220D01*
X0222666Y0167088D01*
X0222662Y0166957D01*
X0222654Y0166826D01*
X0222642Y0166695D01*
X0222626Y0166564D01*
X0222606Y0166434D01*
X0222582Y0166305D01*
X0222554Y0166177D01*
X0222523Y0166049D01*
X0222487Y0165922D01*
X0222448Y0165797D01*
X0222405Y0165673D01*
X0222358Y0165550D01*
X0222307Y0165429D01*
X0222253Y0165309D01*
X0222195Y0165191D01*
X0222134Y0165074D01*
X0222069Y0164960D01*
X0222001Y0164848D01*
X0221929Y0164738D01*
X0221854Y0164630D01*
X0221776Y0164524D01*
X0221695Y0164421D01*
X0221610Y0164320D01*
X0221523Y0164222D01*
X0221432Y0164127D01*
X0221339Y0164034D01*
X0221243Y0163944D01*
X0221144Y0163857D01*
X0221043Y0163774D01*
X0220939Y0163693D01*
X0220833Y0163616D01*
X0220724Y0163542D01*
X0220613Y0163471D01*
X0220501Y0163403D01*
X0220386Y0163339D01*
X0220269Y0163279D01*
X0220150Y0163222D01*
X0220030Y0163169D01*
X0219909Y0163119D01*
X0219785Y0163073D01*
X0219661Y0163031D01*
X0219535Y0162993D01*
X0219408Y0162958D01*
X0219280Y0162927D01*
X0219152Y0162901D01*
X0219022Y0162878D01*
X0218892Y0162859D01*
X0218762Y0162844D01*
X0218631Y0162833D01*
X0218499Y0162826D01*
X0218368Y0162823D01*
X0218236Y0162824D01*
X0218105Y0162829D01*
X0217974Y0162838D01*
X0217843Y0162851D01*
X0217713Y0162868D01*
X0217583Y0162889D01*
X0217454Y0162914D01*
X0217326Y0162942D01*
X0217198Y0162975D01*
X0217072Y0163011D01*
X0216947Y0163052D01*
X0216823Y0163096D01*
X0216700Y0163143D01*
X0216579Y0163195D01*
X0216460Y0163250D01*
X0216342Y0163309D01*
X0216227Y0163371D01*
X0216113Y0163437D01*
X0216001Y0163506D01*
X0215891Y0163578D01*
X0215784Y0163654D01*
X0215679Y0163733D01*
X0215576Y0163815D01*
X0215476Y0163900D01*
X0215379Y0163989D01*
X0215284Y0164080D01*
X0215192Y0164174D01*
X0215103Y0164271D01*
X0215017Y0164370D01*
X0214934Y0164472D01*
X0214854Y0164577D01*
X0214778Y0164683D01*
X0214705Y0164792D01*
X0214635Y0164904D01*
X0214568Y0165017D01*
X0214505Y0165132D01*
X0214445Y0165250D01*
X0214389Y0165368D01*
X0214337Y0165489D01*
X0214288Y0165611D01*
X0214243Y0165735D01*
X0214202Y0165859D01*
X0214165Y0165986D01*
X0214131Y0166113D01*
X0214101Y0166241D01*
X0214076Y0166370D01*
X0214054Y0166499D01*
X0214036Y0166629D01*
X0214022Y0166760D01*
X0214012Y0166891D01*
X0214006Y0167023D01*
X0214004Y0167154D01*
X0137233Y0293139D02*
X0137235Y0293297D01*
X0137241Y0293455D01*
X0137251Y0293613D01*
X0137265Y0293771D01*
X0137283Y0293928D01*
X0137304Y0294085D01*
X0137330Y0294241D01*
X0137360Y0294397D01*
X0137393Y0294552D01*
X0137431Y0294705D01*
X0137472Y0294858D01*
X0137517Y0295010D01*
X0137566Y0295161D01*
X0137619Y0295310D01*
X0137675Y0295458D01*
X0137735Y0295604D01*
X0137799Y0295749D01*
X0137867Y0295892D01*
X0137938Y0296034D01*
X0138012Y0296174D01*
X0138090Y0296311D01*
X0138172Y0296447D01*
X0138256Y0296581D01*
X0138345Y0296712D01*
X0138436Y0296841D01*
X0138531Y0296968D01*
X0138628Y0297093D01*
X0138729Y0297215D01*
X0138833Y0297334D01*
X0138940Y0297451D01*
X0139050Y0297565D01*
X0139163Y0297676D01*
X0139278Y0297785D01*
X0139396Y0297890D01*
X0139517Y0297992D01*
X0139640Y0298092D01*
X0139766Y0298188D01*
X0139894Y0298281D01*
X0140024Y0298371D01*
X0140157Y0298457D01*
X0140292Y0298541D01*
X0140428Y0298620D01*
X0140567Y0298697D01*
X0140708Y0298769D01*
X0140850Y0298839D01*
X0140994Y0298904D01*
X0141140Y0298966D01*
X0141287Y0299024D01*
X0141436Y0299079D01*
X0141586Y0299130D01*
X0141737Y0299177D01*
X0141889Y0299220D01*
X0142042Y0299259D01*
X0142197Y0299295D01*
X0142352Y0299326D01*
X0142508Y0299354D01*
X0142664Y0299378D01*
X0142821Y0299398D01*
X0142979Y0299414D01*
X0143136Y0299426D01*
X0143295Y0299434D01*
X0143453Y0299438D01*
X0143611Y0299438D01*
X0143769Y0299434D01*
X0143928Y0299426D01*
X0144085Y0299414D01*
X0144243Y0299398D01*
X0144400Y0299378D01*
X0144556Y0299354D01*
X0144712Y0299326D01*
X0144867Y0299295D01*
X0145022Y0299259D01*
X0145175Y0299220D01*
X0145327Y0299177D01*
X0145478Y0299130D01*
X0145628Y0299079D01*
X0145777Y0299024D01*
X0145924Y0298966D01*
X0146070Y0298904D01*
X0146214Y0298839D01*
X0146356Y0298769D01*
X0146497Y0298697D01*
X0146636Y0298620D01*
X0146772Y0298541D01*
X0146907Y0298457D01*
X0147040Y0298371D01*
X0147170Y0298281D01*
X0147298Y0298188D01*
X0147424Y0298092D01*
X0147547Y0297992D01*
X0147668Y0297890D01*
X0147786Y0297785D01*
X0147901Y0297676D01*
X0148014Y0297565D01*
X0148124Y0297451D01*
X0148231Y0297334D01*
X0148335Y0297215D01*
X0148436Y0297093D01*
X0148533Y0296968D01*
X0148628Y0296841D01*
X0148719Y0296712D01*
X0148808Y0296581D01*
X0148892Y0296447D01*
X0148974Y0296311D01*
X0149052Y0296174D01*
X0149126Y0296034D01*
X0149197Y0295892D01*
X0149265Y0295749D01*
X0149329Y0295604D01*
X0149389Y0295458D01*
X0149445Y0295310D01*
X0149498Y0295161D01*
X0149547Y0295010D01*
X0149592Y0294858D01*
X0149633Y0294705D01*
X0149671Y0294552D01*
X0149704Y0294397D01*
X0149734Y0294241D01*
X0149760Y0294085D01*
X0149781Y0293928D01*
X0149799Y0293771D01*
X0149813Y0293613D01*
X0149823Y0293455D01*
X0149829Y0293297D01*
X0149831Y0293139D01*
X0149829Y0292981D01*
X0149823Y0292823D01*
X0149813Y0292665D01*
X0149799Y0292507D01*
X0149781Y0292350D01*
X0149760Y0292193D01*
X0149734Y0292037D01*
X0149704Y0291881D01*
X0149671Y0291726D01*
X0149633Y0291573D01*
X0149592Y0291420D01*
X0149547Y0291268D01*
X0149498Y0291117D01*
X0149445Y0290968D01*
X0149389Y0290820D01*
X0149329Y0290674D01*
X0149265Y0290529D01*
X0149197Y0290386D01*
X0149126Y0290244D01*
X0149052Y0290104D01*
X0148974Y0289967D01*
X0148892Y0289831D01*
X0148808Y0289697D01*
X0148719Y0289566D01*
X0148628Y0289437D01*
X0148533Y0289310D01*
X0148436Y0289185D01*
X0148335Y0289063D01*
X0148231Y0288944D01*
X0148124Y0288827D01*
X0148014Y0288713D01*
X0147901Y0288602D01*
X0147786Y0288493D01*
X0147668Y0288388D01*
X0147547Y0288286D01*
X0147424Y0288186D01*
X0147298Y0288090D01*
X0147170Y0287997D01*
X0147040Y0287907D01*
X0146907Y0287821D01*
X0146772Y0287737D01*
X0146636Y0287658D01*
X0146497Y0287581D01*
X0146356Y0287509D01*
X0146214Y0287439D01*
X0146070Y0287374D01*
X0145924Y0287312D01*
X0145777Y0287254D01*
X0145628Y0287199D01*
X0145478Y0287148D01*
X0145327Y0287101D01*
X0145175Y0287058D01*
X0145022Y0287019D01*
X0144867Y0286983D01*
X0144712Y0286952D01*
X0144556Y0286924D01*
X0144400Y0286900D01*
X0144243Y0286880D01*
X0144085Y0286864D01*
X0143928Y0286852D01*
X0143769Y0286844D01*
X0143611Y0286840D01*
X0143453Y0286840D01*
X0143295Y0286844D01*
X0143136Y0286852D01*
X0142979Y0286864D01*
X0142821Y0286880D01*
X0142664Y0286900D01*
X0142508Y0286924D01*
X0142352Y0286952D01*
X0142197Y0286983D01*
X0142042Y0287019D01*
X0141889Y0287058D01*
X0141737Y0287101D01*
X0141586Y0287148D01*
X0141436Y0287199D01*
X0141287Y0287254D01*
X0141140Y0287312D01*
X0140994Y0287374D01*
X0140850Y0287439D01*
X0140708Y0287509D01*
X0140567Y0287581D01*
X0140428Y0287658D01*
X0140292Y0287737D01*
X0140157Y0287821D01*
X0140024Y0287907D01*
X0139894Y0287997D01*
X0139766Y0288090D01*
X0139640Y0288186D01*
X0139517Y0288286D01*
X0139396Y0288388D01*
X0139278Y0288493D01*
X0139163Y0288602D01*
X0139050Y0288713D01*
X0138940Y0288827D01*
X0138833Y0288944D01*
X0138729Y0289063D01*
X0138628Y0289185D01*
X0138531Y0289310D01*
X0138436Y0289437D01*
X0138345Y0289566D01*
X0138256Y0289697D01*
X0138172Y0289831D01*
X0138090Y0289967D01*
X0138012Y0290104D01*
X0137938Y0290244D01*
X0137867Y0290386D01*
X0137799Y0290529D01*
X0137735Y0290674D01*
X0137675Y0290820D01*
X0137619Y0290968D01*
X0137566Y0291117D01*
X0137517Y0291268D01*
X0137472Y0291420D01*
X0137431Y0291573D01*
X0137393Y0291726D01*
X0137360Y0291881D01*
X0137330Y0292037D01*
X0137304Y0292193D01*
X0137283Y0292350D01*
X0137265Y0292507D01*
X0137251Y0292665D01*
X0137241Y0292823D01*
X0137235Y0292981D01*
X0137233Y0293139D01*
X0286840Y0293139D02*
X0286842Y0293297D01*
X0286848Y0293455D01*
X0286858Y0293613D01*
X0286872Y0293771D01*
X0286890Y0293928D01*
X0286911Y0294085D01*
X0286937Y0294241D01*
X0286967Y0294397D01*
X0287000Y0294552D01*
X0287038Y0294705D01*
X0287079Y0294858D01*
X0287124Y0295010D01*
X0287173Y0295161D01*
X0287226Y0295310D01*
X0287282Y0295458D01*
X0287342Y0295604D01*
X0287406Y0295749D01*
X0287474Y0295892D01*
X0287545Y0296034D01*
X0287619Y0296174D01*
X0287697Y0296311D01*
X0287779Y0296447D01*
X0287863Y0296581D01*
X0287952Y0296712D01*
X0288043Y0296841D01*
X0288138Y0296968D01*
X0288235Y0297093D01*
X0288336Y0297215D01*
X0288440Y0297334D01*
X0288547Y0297451D01*
X0288657Y0297565D01*
X0288770Y0297676D01*
X0288885Y0297785D01*
X0289003Y0297890D01*
X0289124Y0297992D01*
X0289247Y0298092D01*
X0289373Y0298188D01*
X0289501Y0298281D01*
X0289631Y0298371D01*
X0289764Y0298457D01*
X0289899Y0298541D01*
X0290035Y0298620D01*
X0290174Y0298697D01*
X0290315Y0298769D01*
X0290457Y0298839D01*
X0290601Y0298904D01*
X0290747Y0298966D01*
X0290894Y0299024D01*
X0291043Y0299079D01*
X0291193Y0299130D01*
X0291344Y0299177D01*
X0291496Y0299220D01*
X0291649Y0299259D01*
X0291804Y0299295D01*
X0291959Y0299326D01*
X0292115Y0299354D01*
X0292271Y0299378D01*
X0292428Y0299398D01*
X0292586Y0299414D01*
X0292743Y0299426D01*
X0292902Y0299434D01*
X0293060Y0299438D01*
X0293218Y0299438D01*
X0293376Y0299434D01*
X0293535Y0299426D01*
X0293692Y0299414D01*
X0293850Y0299398D01*
X0294007Y0299378D01*
X0294163Y0299354D01*
X0294319Y0299326D01*
X0294474Y0299295D01*
X0294629Y0299259D01*
X0294782Y0299220D01*
X0294934Y0299177D01*
X0295085Y0299130D01*
X0295235Y0299079D01*
X0295384Y0299024D01*
X0295531Y0298966D01*
X0295677Y0298904D01*
X0295821Y0298839D01*
X0295963Y0298769D01*
X0296104Y0298697D01*
X0296243Y0298620D01*
X0296379Y0298541D01*
X0296514Y0298457D01*
X0296647Y0298371D01*
X0296777Y0298281D01*
X0296905Y0298188D01*
X0297031Y0298092D01*
X0297154Y0297992D01*
X0297275Y0297890D01*
X0297393Y0297785D01*
X0297508Y0297676D01*
X0297621Y0297565D01*
X0297731Y0297451D01*
X0297838Y0297334D01*
X0297942Y0297215D01*
X0298043Y0297093D01*
X0298140Y0296968D01*
X0298235Y0296841D01*
X0298326Y0296712D01*
X0298415Y0296581D01*
X0298499Y0296447D01*
X0298581Y0296311D01*
X0298659Y0296174D01*
X0298733Y0296034D01*
X0298804Y0295892D01*
X0298872Y0295749D01*
X0298936Y0295604D01*
X0298996Y0295458D01*
X0299052Y0295310D01*
X0299105Y0295161D01*
X0299154Y0295010D01*
X0299199Y0294858D01*
X0299240Y0294705D01*
X0299278Y0294552D01*
X0299311Y0294397D01*
X0299341Y0294241D01*
X0299367Y0294085D01*
X0299388Y0293928D01*
X0299406Y0293771D01*
X0299420Y0293613D01*
X0299430Y0293455D01*
X0299436Y0293297D01*
X0299438Y0293139D01*
X0299436Y0292981D01*
X0299430Y0292823D01*
X0299420Y0292665D01*
X0299406Y0292507D01*
X0299388Y0292350D01*
X0299367Y0292193D01*
X0299341Y0292037D01*
X0299311Y0291881D01*
X0299278Y0291726D01*
X0299240Y0291573D01*
X0299199Y0291420D01*
X0299154Y0291268D01*
X0299105Y0291117D01*
X0299052Y0290968D01*
X0298996Y0290820D01*
X0298936Y0290674D01*
X0298872Y0290529D01*
X0298804Y0290386D01*
X0298733Y0290244D01*
X0298659Y0290104D01*
X0298581Y0289967D01*
X0298499Y0289831D01*
X0298415Y0289697D01*
X0298326Y0289566D01*
X0298235Y0289437D01*
X0298140Y0289310D01*
X0298043Y0289185D01*
X0297942Y0289063D01*
X0297838Y0288944D01*
X0297731Y0288827D01*
X0297621Y0288713D01*
X0297508Y0288602D01*
X0297393Y0288493D01*
X0297275Y0288388D01*
X0297154Y0288286D01*
X0297031Y0288186D01*
X0296905Y0288090D01*
X0296777Y0287997D01*
X0296647Y0287907D01*
X0296514Y0287821D01*
X0296379Y0287737D01*
X0296243Y0287658D01*
X0296104Y0287581D01*
X0295963Y0287509D01*
X0295821Y0287439D01*
X0295677Y0287374D01*
X0295531Y0287312D01*
X0295384Y0287254D01*
X0295235Y0287199D01*
X0295085Y0287148D01*
X0294934Y0287101D01*
X0294782Y0287058D01*
X0294629Y0287019D01*
X0294474Y0286983D01*
X0294319Y0286952D01*
X0294163Y0286924D01*
X0294007Y0286900D01*
X0293850Y0286880D01*
X0293692Y0286864D01*
X0293535Y0286852D01*
X0293376Y0286844D01*
X0293218Y0286840D01*
X0293060Y0286840D01*
X0292902Y0286844D01*
X0292743Y0286852D01*
X0292586Y0286864D01*
X0292428Y0286880D01*
X0292271Y0286900D01*
X0292115Y0286924D01*
X0291959Y0286952D01*
X0291804Y0286983D01*
X0291649Y0287019D01*
X0291496Y0287058D01*
X0291344Y0287101D01*
X0291193Y0287148D01*
X0291043Y0287199D01*
X0290894Y0287254D01*
X0290747Y0287312D01*
X0290601Y0287374D01*
X0290457Y0287439D01*
X0290315Y0287509D01*
X0290174Y0287581D01*
X0290035Y0287658D01*
X0289899Y0287737D01*
X0289764Y0287821D01*
X0289631Y0287907D01*
X0289501Y0287997D01*
X0289373Y0288090D01*
X0289247Y0288186D01*
X0289124Y0288286D01*
X0289003Y0288388D01*
X0288885Y0288493D01*
X0288770Y0288602D01*
X0288657Y0288713D01*
X0288547Y0288827D01*
X0288440Y0288944D01*
X0288336Y0289063D01*
X0288235Y0289185D01*
X0288138Y0289310D01*
X0288043Y0289437D01*
X0287952Y0289566D01*
X0287863Y0289697D01*
X0287779Y0289831D01*
X0287697Y0289967D01*
X0287619Y0290104D01*
X0287545Y0290244D01*
X0287474Y0290386D01*
X0287406Y0290529D01*
X0287342Y0290674D01*
X0287282Y0290820D01*
X0287226Y0290968D01*
X0287173Y0291117D01*
X0287124Y0291268D01*
X0287079Y0291420D01*
X0287038Y0291573D01*
X0287000Y0291726D01*
X0286967Y0291881D01*
X0286937Y0292037D01*
X0286911Y0292193D01*
X0286890Y0292350D01*
X0286872Y0292507D01*
X0286858Y0292665D01*
X0286848Y0292823D01*
X0286842Y0292981D01*
X0286840Y0293139D01*
D11*
X0071761Y0108257D03*
X0061761Y0108257D03*
X0061761Y0098257D03*
X0071761Y0098257D03*
X0071761Y0088257D03*
X0061761Y0088257D03*
D12*
X0016611Y0127627D02*
X0010611Y0127627D01*
X0010611Y0137627D02*
X0016611Y0137627D01*
X0016611Y0147627D02*
X0010611Y0147627D01*
X0010454Y0160658D02*
X0016454Y0160658D01*
X0016454Y0170658D02*
X0010454Y0170658D01*
X0010454Y0180658D02*
X0016454Y0180658D01*
D13*
X0186839Y0293139D03*
X0249831Y0293139D03*
X0330540Y0293139D03*
X0373847Y0293139D03*
D14*
X0342379Y0226997D03*
X0342379Y0151406D03*
D15*
X0371879Y0151406D03*
X0371879Y0226997D03*
D16*
X0387627Y0224241D03*
X0387627Y0239989D03*
X0387627Y0255737D03*
X0387627Y0271485D03*
X0356131Y0271485D03*
X0348257Y0269517D03*
X0356131Y0255737D03*
X0348257Y0253769D03*
X0356131Y0239989D03*
X0356131Y0224241D03*
X0348257Y0222272D03*
X0356131Y0208493D03*
X0348257Y0206524D03*
X0356131Y0192745D03*
X0356131Y0176997D03*
X0348257Y0175028D03*
X0348257Y0159280D03*
X0356131Y0161249D03*
X0356131Y0145501D03*
X0348257Y0135658D03*
X0340383Y0135658D03*
X0332509Y0135658D03*
X0324635Y0135658D03*
X0316761Y0137627D03*
X0316761Y0145501D03*
X0324635Y0143532D03*
X0324635Y0151406D03*
X0316761Y0153375D03*
X0316761Y0161249D03*
X0324635Y0159280D03*
X0324635Y0167154D03*
X0324635Y0175028D03*
X0316761Y0169123D03*
X0324635Y0182902D03*
X0324635Y0190776D03*
X0324635Y0198650D03*
X0306918Y0190776D03*
X0302981Y0190776D03*
X0299044Y0190776D03*
X0293139Y0190776D03*
X0293139Y0184871D03*
X0287233Y0190776D03*
X0283296Y0190776D03*
X0293139Y0180934D03*
X0293139Y0176997D03*
X0259674Y0190776D03*
X0255737Y0190776D03*
X0251800Y0190776D03*
X0245894Y0190776D03*
X0245894Y0184871D03*
X0245894Y0180934D03*
X0245894Y0176997D03*
X0239989Y0190776D03*
X0236052Y0190776D03*
X0204556Y0190776D03*
X0200619Y0190776D03*
X0196682Y0190776D03*
X0190776Y0190776D03*
X0190776Y0184871D03*
X0190776Y0180934D03*
X0190776Y0176997D03*
X0184871Y0190776D03*
X0180934Y0190776D03*
X0157312Y0190776D03*
X0153375Y0190776D03*
X0149438Y0190776D03*
X0143532Y0190776D03*
X0143532Y0184871D03*
X0137627Y0190776D03*
X0133690Y0190776D03*
X0143532Y0180934D03*
X0143532Y0176997D03*
X0119910Y0153375D03*
X0119910Y0145501D03*
X0119910Y0137627D03*
X0119910Y0129753D03*
X0119910Y0121879D03*
X0133690Y0102194D03*
X0137627Y0102194D03*
X0143532Y0102194D03*
X0149438Y0102194D03*
X0153375Y0102194D03*
X0157312Y0102194D03*
X0143532Y0096288D03*
X0143532Y0090383D03*
X0123847Y0066761D03*
X0147469Y0058887D03*
X0171091Y0058887D03*
X0194713Y0058887D03*
X0194713Y0049044D03*
X0218335Y0049044D03*
X0218335Y0058887D03*
X0241957Y0058887D03*
X0241957Y0049044D03*
X0265580Y0049044D03*
X0265580Y0058887D03*
X0289202Y0058887D03*
X0297076Y0058887D03*
X0301013Y0049044D03*
X0316761Y0049044D03*
X0346288Y0072666D03*
X0346288Y0076603D03*
X0346288Y0080540D03*
X0346288Y0084477D03*
X0346288Y0088414D03*
X0346288Y0092351D03*
X0346288Y0096288D03*
X0354162Y0094320D03*
X0354162Y0086446D03*
X0354162Y0078572D03*
X0362036Y0058887D03*
X0371879Y0058887D03*
X0383690Y0058887D03*
X0387627Y0066761D03*
X0387627Y0082509D03*
X0387627Y0098257D03*
X0387627Y0114005D03*
X0387627Y0129753D03*
X0387627Y0145501D03*
X0387627Y0161249D03*
X0387627Y0176997D03*
X0387627Y0192745D03*
X0387627Y0208493D03*
X0324635Y0230146D03*
X0324635Y0245894D03*
X0324635Y0261643D03*
X0279359Y0259674D03*
X0271485Y0259674D03*
X0263611Y0259674D03*
X0255737Y0259674D03*
X0247863Y0259674D03*
X0239989Y0259674D03*
X0232115Y0259674D03*
X0224241Y0267548D03*
X0224241Y0275422D03*
X0212430Y0271485D03*
X0212430Y0279359D03*
X0212430Y0263611D03*
X0204556Y0263611D03*
X0196682Y0263611D03*
X0188808Y0263611D03*
X0180934Y0263611D03*
X0173060Y0263611D03*
X0165186Y0263611D03*
X0157312Y0263611D03*
X0167154Y0145501D03*
X0167154Y0137627D03*
X0167154Y0129753D03*
X0167154Y0121879D03*
X0180934Y0102194D03*
X0184871Y0102194D03*
X0190776Y0102194D03*
X0196682Y0102194D03*
X0200619Y0102194D03*
X0204556Y0102194D03*
X0190776Y0096288D03*
X0190776Y0090383D03*
X0214398Y0121879D03*
X0214398Y0129753D03*
X0222272Y0129753D03*
X0222272Y0121879D03*
X0222272Y0137627D03*
X0214398Y0137627D03*
X0214398Y0145501D03*
X0222272Y0145501D03*
X0269517Y0145501D03*
X0269517Y0137627D03*
X0269517Y0129753D03*
X0269517Y0121879D03*
X0259674Y0102194D03*
X0255737Y0102194D03*
X0251800Y0102194D03*
X0245894Y0102194D03*
X0239989Y0102194D03*
X0236052Y0102194D03*
X0245894Y0096288D03*
X0245894Y0090383D03*
X0283296Y0102194D03*
X0287233Y0102194D03*
X0293139Y0102194D03*
X0299044Y0102194D03*
X0302981Y0102194D03*
X0306918Y0102194D03*
X0293139Y0096288D03*
X0293139Y0090383D03*
X0316761Y0121879D03*
X0316761Y0129753D03*
X0356131Y0129753D03*
X0356131Y0114005D03*
X0354162Y0102194D03*
D17*
X0354162Y0102506D02*
X0393701Y0102506D01*
X0393701Y0100908D02*
X0354162Y0100908D01*
X0354162Y0099309D02*
X0393701Y0099309D01*
X0393701Y0097711D02*
X0354162Y0097711D01*
X0354162Y0096112D02*
X0393701Y0096112D01*
X0393701Y0094514D02*
X0354162Y0094514D01*
X0354162Y0092915D02*
X0393701Y0092915D01*
X0393701Y0091317D02*
X0354162Y0091317D01*
X0354162Y0089718D02*
X0393701Y0089718D01*
X0393701Y0088120D02*
X0354162Y0088120D01*
X0354162Y0086521D02*
X0393701Y0086521D01*
X0393701Y0084923D02*
X0354162Y0084923D01*
X0354162Y0083324D02*
X0393701Y0083324D01*
X0393701Y0081726D02*
X0354162Y0081726D01*
X0354162Y0080127D02*
X0393701Y0080127D01*
X0393701Y0078529D02*
X0354162Y0078529D01*
X0354162Y0076930D02*
X0393701Y0076930D01*
X0393701Y0075332D02*
X0354162Y0075332D01*
X0354162Y0073733D02*
X0393701Y0073733D01*
X0393701Y0072134D02*
X0354162Y0072134D01*
X0354162Y0070536D02*
X0393701Y0070536D01*
X0393701Y0068937D02*
X0354162Y0068937D01*
X0354162Y0067339D02*
X0393701Y0067339D01*
X0393701Y0065740D02*
X0354162Y0065740D01*
X0354162Y0064142D02*
X0393701Y0064142D01*
X0393701Y0062543D02*
X0354162Y0062543D01*
X0354162Y0060945D02*
X0393701Y0060945D01*
X0393701Y0059346D02*
X0354162Y0059346D01*
X0354162Y0057748D02*
X0393701Y0057748D01*
X0393701Y0056918D02*
X0393701Y0314961D01*
X0354162Y0314961D01*
X0354162Y0056918D01*
X0393701Y0056918D01*
X0393701Y0049044D02*
X0393701Y0003600D01*
X0003600Y0003600D01*
X0003600Y0314961D01*
X0104162Y0314961D01*
X0104162Y0243950D01*
X0103955Y0244450D01*
X0102718Y0245688D01*
X0101100Y0246357D01*
X0099350Y0246357D01*
X0097733Y0245688D01*
X0096495Y0244450D01*
X0095825Y0242833D01*
X0095825Y0241082D01*
X0096495Y0239465D01*
X0097425Y0238535D01*
X0097425Y0227663D01*
X0096495Y0226733D01*
X0095825Y0225116D01*
X0095825Y0223366D01*
X0096495Y0221749D01*
X0097733Y0220511D01*
X0099350Y0219841D01*
X0101100Y0219841D01*
X0102718Y0220511D01*
X0103331Y0221124D01*
X0103331Y0213284D01*
X0095151Y0221464D01*
X0095151Y0248420D01*
X0094725Y0249449D01*
X0093937Y0250237D01*
X0090000Y0254174D01*
X0088971Y0254600D01*
X0083657Y0254600D01*
X0084270Y0255213D01*
X0084940Y0256830D01*
X0084940Y0258581D01*
X0084270Y0260198D01*
X0083340Y0261128D01*
X0083340Y0274010D01*
X0082914Y0275040D01*
X0079035Y0278919D01*
X0079035Y0280234D01*
X0078365Y0281851D01*
X0077127Y0283089D01*
X0075510Y0283759D01*
X0073759Y0283759D01*
X0072142Y0283089D01*
X0070905Y0281851D01*
X0070235Y0280234D01*
X0070235Y0278484D01*
X0070905Y0276867D01*
X0072142Y0275629D01*
X0073759Y0274959D01*
X0075075Y0274959D01*
X0077740Y0272294D01*
X0077740Y0261128D01*
X0076810Y0260198D01*
X0076140Y0258581D01*
X0076140Y0256830D01*
X0076810Y0255213D01*
X0077423Y0254600D01*
X0060046Y0254600D01*
X0059350Y0255297D01*
X0059350Y0256612D01*
X0058680Y0258229D01*
X0057442Y0259467D01*
X0055825Y0260137D01*
X0054074Y0260137D01*
X0052457Y0259467D01*
X0051219Y0258229D01*
X0050550Y0256612D01*
X0050550Y0254862D01*
X0051219Y0253245D01*
X0052457Y0252007D01*
X0054074Y0251337D01*
X0055390Y0251337D01*
X0056513Y0250214D01*
X0057301Y0249426D01*
X0058330Y0249000D01*
X0081360Y0249000D01*
X0080747Y0248387D01*
X0080077Y0246770D01*
X0080077Y0245019D01*
X0080747Y0243402D01*
X0081677Y0242472D01*
X0081677Y0225695D01*
X0080747Y0224765D01*
X0080077Y0223148D01*
X0080077Y0221397D01*
X0080747Y0219780D01*
X0081985Y0218542D01*
X0083602Y0217872D01*
X0085352Y0217872D01*
X0086970Y0218542D01*
X0088207Y0219780D01*
X0088877Y0221397D01*
X0088877Y0223148D01*
X0088207Y0224765D01*
X0087277Y0225695D01*
X0087277Y0242472D01*
X0088207Y0243402D01*
X0088877Y0245019D01*
X0088877Y0246770D01*
X0088448Y0247807D01*
X0089551Y0246703D01*
X0089551Y0219747D01*
X0089977Y0218718D01*
X0090765Y0217930D01*
X0099394Y0209302D01*
X0099394Y0179397D01*
X0092183Y0179397D01*
X0092144Y0179489D01*
X0090907Y0180727D01*
X0089289Y0181397D01*
X0087539Y0181397D01*
X0085922Y0180727D01*
X0084909Y0179714D01*
X0084909Y0187814D01*
X0085478Y0188383D01*
X0085570Y0188345D01*
X0087321Y0188345D01*
X0088938Y0189015D01*
X0090176Y0190252D01*
X0090846Y0191870D01*
X0090846Y0193620D01*
X0090400Y0194696D01*
X0091476Y0194250D01*
X0093226Y0194250D01*
X0094844Y0194920D01*
X0096081Y0196158D01*
X0096751Y0197775D01*
X0096751Y0199526D01*
X0096081Y0201143D01*
X0094844Y0202381D01*
X0093226Y0203050D01*
X0091476Y0203050D01*
X0089859Y0202381D01*
X0089729Y0202250D01*
X0040833Y0202250D01*
X0040833Y0249177D01*
X0040963Y0249308D01*
X0041633Y0250925D01*
X0041633Y0252675D01*
X0040963Y0254292D01*
X0039725Y0255530D01*
X0038108Y0256200D01*
X0036358Y0256200D01*
X0034741Y0255530D01*
X0033503Y0254292D01*
X0032833Y0252675D01*
X0032833Y0250925D01*
X0033503Y0249308D01*
X0033633Y0249177D01*
X0033633Y0197934D01*
X0034181Y0196611D01*
X0035194Y0195598D01*
X0036517Y0195050D01*
X0082638Y0195050D01*
X0082046Y0193620D01*
X0082046Y0191870D01*
X0082084Y0191777D01*
X0081149Y0190842D01*
X0080474Y0190167D01*
X0080109Y0189285D01*
X0080109Y0169554D01*
X0072865Y0169554D01*
X0072590Y0169600D01*
X0072392Y0169554D01*
X0072189Y0169554D01*
X0071931Y0169448D01*
X0071660Y0169385D01*
X0071494Y0169267D01*
X0071307Y0169189D01*
X0071110Y0168992D01*
X0060493Y0161409D01*
X0059762Y0161712D01*
X0058011Y0161712D01*
X0056394Y0161042D01*
X0055156Y0159804D01*
X0054487Y0158187D01*
X0054487Y0156437D01*
X0055156Y0154819D01*
X0056170Y0153806D01*
X0044133Y0153806D01*
X0036624Y0161315D01*
X0035742Y0161680D01*
X0034290Y0161680D01*
X0023953Y0172018D01*
X0023278Y0172693D01*
X0022395Y0173058D01*
X0020438Y0173058D01*
X0020353Y0173264D01*
X0019059Y0174558D01*
X0017369Y0175258D01*
X0009539Y0175258D01*
X0007848Y0174558D01*
X0006554Y0173264D01*
X0005854Y0171573D01*
X0005854Y0169743D01*
X0006554Y0168053D01*
X0007848Y0166759D01*
X0009539Y0166058D01*
X0017369Y0166058D01*
X0019059Y0166759D01*
X0020353Y0168053D01*
X0020438Y0168258D01*
X0020924Y0168258D01*
X0031937Y0157246D01*
X0032819Y0156880D01*
X0034270Y0156880D01*
X0037344Y0153806D01*
X0023700Y0153806D01*
X0019903Y0157603D01*
X0020353Y0158053D01*
X0021054Y0159743D01*
X0021054Y0161573D01*
X0020353Y0163264D01*
X0019059Y0164558D01*
X0017369Y0165258D01*
X0009539Y0165258D01*
X0007848Y0164558D01*
X0006554Y0163264D01*
X0005854Y0161573D01*
X0005854Y0159743D01*
X0006554Y0158053D01*
X0007848Y0156759D01*
X0009539Y0156058D01*
X0014659Y0156058D01*
X0019173Y0151544D01*
X0017526Y0152227D01*
X0009696Y0152227D01*
X0008005Y0151526D01*
X0006711Y0150232D01*
X0006011Y0148542D01*
X0006011Y0146712D01*
X0006711Y0145021D01*
X0008005Y0143727D01*
X0009696Y0143027D01*
X0017526Y0143027D01*
X0019217Y0143727D01*
X0020511Y0145021D01*
X0020531Y0145069D01*
X0032548Y0145069D01*
X0031534Y0144056D01*
X0030865Y0142439D01*
X0030865Y0140689D01*
X0031534Y0139071D01*
X0032772Y0137834D01*
X0033673Y0137461D01*
X0033230Y0137018D01*
X0032865Y0136136D01*
X0032865Y0132715D01*
X0022453Y0122303D01*
X0022360Y0122342D01*
X0020610Y0122342D01*
X0018993Y0121672D01*
X0017755Y0120434D01*
X0017085Y0118817D01*
X0017085Y0117067D01*
X0017755Y0115449D01*
X0018993Y0114212D01*
X0020610Y0113542D01*
X0022360Y0113542D01*
X0023977Y0114212D01*
X0025215Y0115449D01*
X0025422Y0115949D01*
X0025629Y0115449D01*
X0026867Y0114212D01*
X0028484Y0113542D01*
X0030234Y0113542D01*
X0031851Y0114212D01*
X0033089Y0115449D01*
X0033697Y0116917D01*
X0042530Y0125750D01*
X0043205Y0126425D01*
X0043570Y0127307D01*
X0043570Y0131890D01*
X0043662Y0131928D01*
X0044900Y0133166D01*
X0045107Y0133665D01*
X0045314Y0133166D01*
X0046552Y0131928D01*
X0048169Y0131258D01*
X0049919Y0131258D01*
X0051536Y0131928D01*
X0052774Y0133166D01*
X0052812Y0133258D01*
X0060107Y0133258D01*
X0059093Y0132245D01*
X0058424Y0130628D01*
X0058424Y0128878D01*
X0059093Y0127260D01*
X0060331Y0126023D01*
X0061948Y0125353D01*
X0063699Y0125353D01*
X0063791Y0125391D01*
X0064361Y0124822D01*
X0064361Y0112162D01*
X0063666Y0112857D01*
X0059855Y0112857D01*
X0057161Y0110162D01*
X0057161Y0106351D01*
X0059855Y0103657D01*
X0063666Y0103657D01*
X0064361Y0104351D01*
X0064361Y0102162D01*
X0063666Y0102857D01*
X0059855Y0102857D01*
X0057161Y0100162D01*
X0057161Y0096351D01*
X0059855Y0093657D01*
X0063666Y0093657D01*
X0064361Y0094351D01*
X0064361Y0094251D01*
X0062967Y0092857D01*
X0059855Y0092857D01*
X0057161Y0090162D01*
X0057161Y0086351D01*
X0059855Y0083657D01*
X0063666Y0083657D01*
X0066361Y0086351D01*
X0066361Y0089463D01*
X0068795Y0091897D01*
X0069161Y0092779D01*
X0069161Y0094351D01*
X0069855Y0093657D01*
X0073666Y0093657D01*
X0076361Y0096351D01*
X0076361Y0100162D01*
X0073666Y0102857D01*
X0069855Y0102857D01*
X0069161Y0102162D01*
X0069161Y0104351D01*
X0069855Y0103657D01*
X0073666Y0103657D01*
X0075709Y0105699D01*
X0083483Y0105699D01*
X0097832Y0091350D01*
X0097794Y0091258D01*
X0097794Y0089507D01*
X0098464Y0087890D01*
X0099701Y0086653D01*
X0101318Y0085983D01*
X0103069Y0085983D01*
X0104162Y0086436D01*
X0104162Y0079403D01*
X0093805Y0079403D01*
X0092875Y0080333D01*
X0091258Y0081003D01*
X0089507Y0081003D01*
X0087890Y0080333D01*
X0086653Y0079096D01*
X0085983Y0077478D01*
X0085983Y0075728D01*
X0086653Y0074111D01*
X0087890Y0072873D01*
X0089507Y0072203D01*
X0091258Y0072203D01*
X0092875Y0072873D01*
X0093805Y0073803D01*
X0104162Y0073803D01*
X0104162Y0061318D01*
X0103287Y0061318D01*
X0101670Y0060648D01*
X0100432Y0059411D01*
X0100225Y0058911D01*
X0100018Y0059411D01*
X0098781Y0060648D01*
X0097163Y0061318D01*
X0095413Y0061318D01*
X0093796Y0060648D01*
X0092558Y0059411D01*
X0091888Y0057793D01*
X0091888Y0056043D01*
X0092558Y0054426D01*
X0093796Y0053188D01*
X0095413Y0052518D01*
X0097163Y0052518D01*
X0097256Y0052556D01*
X0108708Y0041104D01*
X0109590Y0040739D01*
X0122047Y0040739D01*
X0122086Y0040646D01*
X0123323Y0039408D01*
X0124941Y0038739D01*
X0126691Y0038739D01*
X0128308Y0039408D01*
X0129546Y0040646D01*
X0130216Y0042263D01*
X0130216Y0044014D01*
X0129546Y0045631D01*
X0128308Y0046869D01*
X0126691Y0047539D01*
X0124941Y0047539D01*
X0123865Y0047093D01*
X0124310Y0048169D01*
X0124310Y0049044D01*
X0393701Y0049044D01*
X0393701Y0048157D02*
X0124305Y0048157D01*
X0119910Y0049044D02*
X0108099Y0049044D01*
X0104162Y0052981D01*
X0104162Y0056918D01*
X0100406Y0059346D02*
X0100045Y0059346D01*
X0098064Y0060945D02*
X0102386Y0060945D01*
X0104162Y0062543D02*
X0003600Y0062543D01*
X0003600Y0060945D02*
X0094512Y0060945D01*
X0092531Y0059346D02*
X0003600Y0059346D01*
X0003600Y0057748D02*
X0091888Y0057748D01*
X0091888Y0056149D02*
X0003600Y0056149D01*
X0003600Y0054551D02*
X0092506Y0054551D01*
X0094365Y0052952D02*
X0003600Y0052952D01*
X0003600Y0051354D02*
X0098458Y0051354D01*
X0100057Y0049755D02*
X0003600Y0049755D01*
X0003600Y0048157D02*
X0101655Y0048157D01*
X0103254Y0046558D02*
X0003600Y0046558D01*
X0003600Y0044960D02*
X0104852Y0044960D01*
X0106451Y0043361D02*
X0003600Y0043361D01*
X0003600Y0041763D02*
X0108049Y0041763D01*
X0110068Y0043139D02*
X0096288Y0056918D01*
X0104162Y0064142D02*
X0003600Y0064142D01*
X0003600Y0065740D02*
X0104162Y0065740D01*
X0104162Y0067339D02*
X0003600Y0067339D01*
X0003600Y0068937D02*
X0104162Y0068937D01*
X0104162Y0070536D02*
X0003600Y0070536D01*
X0003600Y0072134D02*
X0104162Y0072134D01*
X0104162Y0073733D02*
X0093735Y0073733D01*
X0093081Y0080127D02*
X0104162Y0080127D01*
X0104162Y0081726D02*
X0003600Y0081726D01*
X0003600Y0083324D02*
X0104162Y0083324D01*
X0104162Y0084923D02*
X0064932Y0084923D01*
X0066361Y0086521D02*
X0100019Y0086521D01*
X0098369Y0088120D02*
X0066361Y0088120D01*
X0066616Y0089718D02*
X0097794Y0089718D01*
X0097818Y0091317D02*
X0068215Y0091317D01*
X0069161Y0092915D02*
X0096267Y0092915D01*
X0094669Y0094514D02*
X0074523Y0094514D01*
X0076121Y0096112D02*
X0093070Y0096112D01*
X0091472Y0097711D02*
X0076361Y0097711D01*
X0076361Y0099309D02*
X0089873Y0099309D01*
X0088275Y0100908D02*
X0075615Y0100908D01*
X0074016Y0102506D02*
X0086676Y0102506D01*
X0085078Y0104105D02*
X0074114Y0104105D01*
X0071918Y0108099D02*
X0071761Y0108257D01*
X0071918Y0108099D02*
X0084477Y0108099D01*
X0102194Y0090383D01*
X0100225Y0100225D02*
X0084477Y0115973D01*
X0084477Y0131721D01*
X0080540Y0135658D01*
X0049044Y0135658D01*
X0045602Y0132878D02*
X0044612Y0132878D01*
X0043570Y0131279D02*
X0048118Y0131279D01*
X0049970Y0131279D02*
X0058693Y0131279D01*
X0058424Y0129681D02*
X0043570Y0129681D01*
X0043570Y0128082D02*
X0058753Y0128082D01*
X0059870Y0126484D02*
X0043229Y0126484D01*
X0041665Y0124885D02*
X0064297Y0124885D01*
X0064361Y0123287D02*
X0040067Y0123287D01*
X0038468Y0121688D02*
X0064361Y0121688D01*
X0064361Y0120090D02*
X0036870Y0120090D01*
X0035271Y0118491D02*
X0064361Y0118491D01*
X0064361Y0116893D02*
X0033687Y0116893D01*
X0032934Y0115294D02*
X0064361Y0115294D01*
X0064361Y0113696D02*
X0030606Y0113696D01*
X0028112Y0113696D02*
X0022732Y0113696D01*
X0020238Y0113696D02*
X0003600Y0113696D01*
X0003600Y0115294D02*
X0017910Y0115294D01*
X0017157Y0116893D02*
X0003600Y0116893D01*
X0003600Y0118491D02*
X0017085Y0118491D01*
X0017612Y0120090D02*
X0003600Y0120090D01*
X0003600Y0121688D02*
X0019032Y0121688D01*
X0021485Y0117942D02*
X0035265Y0131721D01*
X0035265Y0135658D01*
X0037233Y0137627D01*
X0035265Y0141564D01*
X0033159Y0137673D02*
X0021211Y0137673D01*
X0021211Y0138542D02*
X0020511Y0140232D01*
X0019217Y0141526D01*
X0017526Y0142227D01*
X0009696Y0142227D01*
X0008005Y0141526D01*
X0006711Y0140232D01*
X0006011Y0138542D01*
X0006011Y0136712D01*
X0006711Y0135021D01*
X0008005Y0133727D01*
X0009696Y0133027D01*
X0017526Y0133027D01*
X0019217Y0133727D01*
X0020511Y0135021D01*
X0021211Y0136712D01*
X0021211Y0138542D01*
X0020909Y0139272D02*
X0031451Y0139272D01*
X0030865Y0140870D02*
X0019873Y0140870D01*
X0019557Y0144068D02*
X0031546Y0144068D01*
X0030877Y0142469D02*
X0003600Y0142469D01*
X0003600Y0140870D02*
X0007349Y0140870D01*
X0006313Y0139272D02*
X0003600Y0139272D01*
X0003600Y0137673D02*
X0006011Y0137673D01*
X0006275Y0136075D02*
X0003600Y0136075D01*
X0003600Y0134476D02*
X0007256Y0134476D01*
X0003600Y0132878D02*
X0032865Y0132878D01*
X0032865Y0134476D02*
X0019966Y0134476D01*
X0020947Y0136075D02*
X0032865Y0136075D01*
X0031429Y0131279D02*
X0003600Y0131279D01*
X0003600Y0129681D02*
X0029830Y0129681D01*
X0028232Y0128082D02*
X0003600Y0128082D01*
X0003600Y0126484D02*
X0026633Y0126484D01*
X0025035Y0124885D02*
X0003600Y0124885D01*
X0003600Y0123287D02*
X0023436Y0123287D01*
X0029359Y0117942D02*
X0031328Y0117942D01*
X0041170Y0127784D01*
X0041170Y0135658D01*
X0043139Y0141564D02*
X0058887Y0141564D01*
X0061604Y0145069D02*
X0077081Y0145069D01*
X0077963Y0145435D01*
X0078638Y0146110D01*
X0080715Y0148187D01*
X0081415Y0148187D01*
X0083033Y0148857D01*
X0084270Y0150095D01*
X0084940Y0151712D01*
X0084940Y0153463D01*
X0084270Y0155080D01*
X0083033Y0156318D01*
X0081415Y0156987D01*
X0079665Y0156987D01*
X0078048Y0156318D01*
X0076810Y0155080D01*
X0076140Y0153463D01*
X0076140Y0151712D01*
X0076524Y0150785D01*
X0075609Y0149869D01*
X0062712Y0149869D01*
X0062890Y0150047D01*
X0065793Y0152950D01*
X0065885Y0152912D01*
X0067636Y0152912D01*
X0069253Y0153582D01*
X0070491Y0154819D01*
X0071161Y0156437D01*
X0071161Y0158187D01*
X0070491Y0159804D01*
X0069253Y0161042D01*
X0068610Y0161308D01*
X0073435Y0164754D01*
X0082986Y0164754D01*
X0083868Y0165120D01*
X0084543Y0165795D01*
X0084909Y0166677D01*
X0084909Y0174280D01*
X0085922Y0173267D01*
X0087539Y0172597D01*
X0089289Y0172597D01*
X0090907Y0173267D01*
X0092144Y0174504D01*
X0092183Y0174597D01*
X0099394Y0174597D01*
X0099394Y0125007D01*
X0093914Y0119528D01*
X0093488Y0118499D01*
X0093488Y0110356D01*
X0086877Y0116967D01*
X0086877Y0132199D01*
X0086512Y0133081D01*
X0081900Y0137693D01*
X0081018Y0138058D01*
X0061604Y0138058D01*
X0062617Y0139071D01*
X0063287Y0140689D01*
X0063287Y0142439D01*
X0062617Y0144056D01*
X0061604Y0145069D01*
X0062605Y0144068D02*
X0099394Y0144068D01*
X0099394Y0145666D02*
X0078194Y0145666D01*
X0079792Y0147265D02*
X0099394Y0147265D01*
X0099394Y0148863D02*
X0083038Y0148863D01*
X0084422Y0150462D02*
X0099394Y0150462D01*
X0099394Y0152060D02*
X0084940Y0152060D01*
X0084859Y0153659D02*
X0099394Y0153659D01*
X0099394Y0155257D02*
X0084093Y0155257D01*
X0081734Y0156856D02*
X0099394Y0156856D01*
X0099394Y0158454D02*
X0071050Y0158454D01*
X0071161Y0156856D02*
X0079347Y0156856D01*
X0076987Y0155257D02*
X0070672Y0155257D01*
X0069330Y0153659D02*
X0076221Y0153659D01*
X0076140Y0152060D02*
X0064903Y0152060D01*
X0063304Y0150462D02*
X0076201Y0150462D01*
X0076603Y0147469D02*
X0043139Y0147469D01*
X0039202Y0151406D01*
X0022706Y0151406D01*
X0013454Y0160658D01*
X0018359Y0164848D02*
X0024334Y0164848D01*
X0025933Y0163250D02*
X0020359Y0163250D01*
X0021021Y0161651D02*
X0027531Y0161651D01*
X0029130Y0160053D02*
X0021054Y0160053D01*
X0020520Y0158454D02*
X0030728Y0158454D01*
X0033296Y0159280D02*
X0035265Y0159280D01*
X0043139Y0151406D01*
X0060855Y0151406D01*
X0066761Y0157312D01*
X0070242Y0160053D02*
X0099394Y0160053D01*
X0099394Y0161651D02*
X0069091Y0161651D01*
X0071329Y0163250D02*
X0099394Y0163250D01*
X0099394Y0164848D02*
X0083213Y0164848D01*
X0084813Y0166447D02*
X0099394Y0166447D01*
X0099394Y0168045D02*
X0084909Y0168045D01*
X0084909Y0169644D02*
X0099394Y0169644D01*
X0099394Y0171242D02*
X0084909Y0171242D01*
X0084909Y0172841D02*
X0086950Y0172841D01*
X0089878Y0172841D02*
X0099394Y0172841D01*
X0099394Y0174439D02*
X0092079Y0174439D01*
X0088414Y0176997D02*
X0102194Y0176997D01*
X0099394Y0180833D02*
X0090650Y0180833D01*
X0086178Y0180833D02*
X0084909Y0180833D01*
X0084909Y0182432D02*
X0099394Y0182432D01*
X0099394Y0184030D02*
X0084909Y0184030D01*
X0084909Y0185629D02*
X0099394Y0185629D01*
X0099394Y0187227D02*
X0084909Y0187227D01*
X0082509Y0188808D02*
X0082509Y0167154D01*
X0072666Y0167154D01*
X0058887Y0157312D01*
X0054975Y0155257D02*
X0042682Y0155257D01*
X0041083Y0156856D02*
X0054487Y0156856D01*
X0054597Y0158454D02*
X0039485Y0158454D01*
X0037886Y0160053D02*
X0055405Y0160053D01*
X0057865Y0161651D02*
X0035812Y0161651D01*
X0033296Y0159280D02*
X0021918Y0170658D01*
X0013454Y0170658D01*
X0018306Y0166447D02*
X0022736Y0166447D01*
X0021137Y0168045D02*
X0020346Y0168045D01*
X0024728Y0171242D02*
X0080109Y0171242D01*
X0080109Y0169644D02*
X0026327Y0169644D01*
X0027925Y0168045D02*
X0069784Y0168045D01*
X0067546Y0166447D02*
X0029524Y0166447D01*
X0031122Y0164848D02*
X0065308Y0164848D01*
X0063070Y0163250D02*
X0032721Y0163250D01*
X0034295Y0156856D02*
X0020650Y0156856D01*
X0022249Y0155257D02*
X0035894Y0155257D01*
X0037233Y0147469D02*
X0043139Y0141564D01*
X0037233Y0147469D02*
X0013769Y0147469D01*
X0013611Y0147627D01*
X0009294Y0152060D02*
X0003600Y0152060D01*
X0003600Y0150462D02*
X0006940Y0150462D01*
X0006144Y0148863D02*
X0003600Y0148863D01*
X0003600Y0147265D02*
X0006011Y0147265D01*
X0006444Y0145666D02*
X0003600Y0145666D01*
X0003600Y0144068D02*
X0007665Y0144068D01*
X0003600Y0153659D02*
X0017059Y0153659D01*
X0017928Y0152060D02*
X0018658Y0152060D01*
X0015461Y0155257D02*
X0003600Y0155257D01*
X0003600Y0156856D02*
X0007751Y0156856D01*
X0006388Y0158454D02*
X0003600Y0158454D01*
X0003600Y0160053D02*
X0005854Y0160053D01*
X0005886Y0161651D02*
X0003600Y0161651D01*
X0003600Y0163250D02*
X0006548Y0163250D01*
X0008548Y0164848D02*
X0003600Y0164848D01*
X0003600Y0166447D02*
X0008601Y0166447D01*
X0006561Y0168045D02*
X0003600Y0168045D01*
X0003600Y0169644D02*
X0005895Y0169644D01*
X0005854Y0171242D02*
X0003600Y0171242D01*
X0003600Y0172841D02*
X0006379Y0172841D01*
X0007729Y0174439D02*
X0003600Y0174439D01*
X0003600Y0176038D02*
X0080109Y0176038D01*
X0080109Y0177636D02*
X0003600Y0177636D01*
X0003600Y0179235D02*
X0080109Y0179235D01*
X0080109Y0180833D02*
X0003600Y0180833D01*
X0003600Y0182432D02*
X0080109Y0182432D01*
X0080109Y0184030D02*
X0003600Y0184030D01*
X0003600Y0185629D02*
X0080109Y0185629D01*
X0080109Y0187227D02*
X0003600Y0187227D01*
X0003600Y0188826D02*
X0015512Y0188826D01*
X0015056Y0189015D02*
X0016673Y0188345D01*
X0018423Y0188345D01*
X0020040Y0189015D01*
X0021278Y0190252D01*
X0021316Y0190345D01*
X0027559Y0190345D01*
X0027597Y0190252D01*
X0028835Y0189015D01*
X0030452Y0188345D01*
X0032203Y0188345D01*
X0033820Y0189015D01*
X0035058Y0190252D01*
X0035728Y0191870D01*
X0035728Y0193620D01*
X0035058Y0195237D01*
X0033820Y0196475D01*
X0032203Y0197145D01*
X0030452Y0197145D01*
X0028835Y0196475D01*
X0027597Y0195237D01*
X0027559Y0195145D01*
X0021316Y0195145D01*
X0021278Y0195237D01*
X0020040Y0196475D01*
X0018423Y0197145D01*
X0016673Y0197145D01*
X0015056Y0196475D01*
X0013818Y0195237D01*
X0013148Y0193620D01*
X0013148Y0191870D01*
X0013818Y0190252D01*
X0015056Y0189015D01*
X0013747Y0190424D02*
X0003600Y0190424D01*
X0003600Y0192023D02*
X0013148Y0192023D01*
X0013149Y0193621D02*
X0003600Y0193621D01*
X0003600Y0195220D02*
X0013811Y0195220D01*
X0015885Y0196818D02*
X0003600Y0196818D01*
X0003600Y0198417D02*
X0033633Y0198417D01*
X0033633Y0200015D02*
X0003600Y0200015D01*
X0003600Y0201614D02*
X0033633Y0201614D01*
X0033633Y0203212D02*
X0003600Y0203212D01*
X0003600Y0204811D02*
X0033633Y0204811D01*
X0033633Y0206409D02*
X0003600Y0206409D01*
X0003600Y0208008D02*
X0033633Y0208008D01*
X0033633Y0209606D02*
X0003600Y0209606D01*
X0003600Y0211205D02*
X0033633Y0211205D01*
X0033633Y0212803D02*
X0003600Y0212803D01*
X0003600Y0214402D02*
X0033633Y0214402D01*
X0033633Y0216001D02*
X0003600Y0216001D01*
X0003600Y0217599D02*
X0033633Y0217599D01*
X0033633Y0219198D02*
X0003600Y0219198D01*
X0003600Y0220796D02*
X0033633Y0220796D01*
X0033633Y0222395D02*
X0003600Y0222395D01*
X0003600Y0223993D02*
X0033633Y0223993D01*
X0033633Y0225592D02*
X0003600Y0225592D01*
X0003600Y0227190D02*
X0033633Y0227190D01*
X0033633Y0228789D02*
X0003600Y0228789D01*
X0003600Y0230387D02*
X0033633Y0230387D01*
X0033633Y0231986D02*
X0003600Y0231986D01*
X0003600Y0233584D02*
X0033633Y0233584D01*
X0033633Y0235183D02*
X0003600Y0235183D01*
X0003600Y0236781D02*
X0033633Y0236781D01*
X0033633Y0238380D02*
X0003600Y0238380D01*
X0003600Y0239978D02*
X0033633Y0239978D01*
X0033633Y0241577D02*
X0003600Y0241577D01*
X0003600Y0243175D02*
X0033633Y0243175D01*
X0033633Y0244774D02*
X0003600Y0244774D01*
X0003600Y0246372D02*
X0033633Y0246372D01*
X0033633Y0247971D02*
X0003600Y0247971D01*
X0003600Y0249569D02*
X0033395Y0249569D01*
X0032833Y0251168D02*
X0003600Y0251168D01*
X0003600Y0252766D02*
X0032871Y0252766D01*
X0033575Y0254365D02*
X0003600Y0254365D01*
X0003600Y0255963D02*
X0035786Y0255963D01*
X0038680Y0255963D02*
X0050550Y0255963D01*
X0050755Y0254365D02*
X0040891Y0254365D01*
X0041595Y0252766D02*
X0051698Y0252766D01*
X0055559Y0251168D02*
X0041633Y0251168D01*
X0041072Y0249569D02*
X0057158Y0249569D01*
X0056513Y0250214D02*
X0056513Y0250214D01*
X0059350Y0255963D02*
X0076499Y0255963D01*
X0076140Y0257562D02*
X0058956Y0257562D01*
X0057749Y0259160D02*
X0076380Y0259160D01*
X0077371Y0260759D02*
X0003600Y0260759D01*
X0003600Y0262357D02*
X0061792Y0262357D01*
X0062300Y0261849D02*
X0063917Y0261180D01*
X0065667Y0261180D01*
X0067285Y0261849D01*
X0068522Y0263087D01*
X0069192Y0264704D01*
X0069192Y0266455D01*
X0068522Y0268072D01*
X0067285Y0269310D01*
X0067192Y0269348D01*
X0067192Y0286239D01*
X0069723Y0288770D01*
X0089389Y0288770D01*
X0091926Y0286232D01*
X0091888Y0286140D01*
X0091888Y0284389D01*
X0092558Y0282772D01*
X0093796Y0281534D01*
X0095413Y0280865D01*
X0097163Y0280865D01*
X0098781Y0281534D01*
X0100018Y0282772D01*
X0100688Y0284389D01*
X0100688Y0286140D01*
X0100018Y0287757D01*
X0098781Y0288995D01*
X0097163Y0289665D01*
X0095413Y0289665D01*
X0095321Y0289626D01*
X0091742Y0293205D01*
X0090860Y0293570D01*
X0068252Y0293570D01*
X0067370Y0293205D01*
X0066695Y0292530D01*
X0062758Y0288593D01*
X0062392Y0287710D01*
X0062392Y0269348D01*
X0062300Y0269310D01*
X0061062Y0268072D01*
X0060392Y0266455D01*
X0060392Y0264704D01*
X0061062Y0263087D01*
X0062300Y0261849D01*
X0060702Y0263956D02*
X0003600Y0263956D01*
X0003600Y0265554D02*
X0060392Y0265554D01*
X0060681Y0267153D02*
X0003600Y0267153D01*
X0003600Y0268751D02*
X0061741Y0268751D01*
X0062392Y0270350D02*
X0003600Y0270350D01*
X0003600Y0271948D02*
X0062392Y0271948D01*
X0062392Y0273547D02*
X0003600Y0273547D01*
X0003600Y0275145D02*
X0062392Y0275145D01*
X0062392Y0276744D02*
X0003600Y0276744D01*
X0003600Y0278342D02*
X0062392Y0278342D01*
X0062392Y0279941D02*
X0003600Y0279941D01*
X0003600Y0281539D02*
X0062392Y0281539D01*
X0062392Y0283138D02*
X0003600Y0283138D01*
X0003600Y0284737D02*
X0062392Y0284737D01*
X0062392Y0286335D02*
X0003600Y0286335D01*
X0003600Y0287934D02*
X0062485Y0287934D01*
X0063697Y0289532D02*
X0003600Y0289532D01*
X0003600Y0291131D02*
X0065295Y0291131D01*
X0066894Y0292729D02*
X0003600Y0292729D01*
X0003600Y0294328D02*
X0104162Y0294328D01*
X0104162Y0295926D02*
X0003600Y0295926D01*
X0003600Y0297525D02*
X0104162Y0297525D01*
X0104162Y0299123D02*
X0003600Y0299123D01*
X0003600Y0300722D02*
X0104162Y0300722D01*
X0104162Y0302320D02*
X0003600Y0302320D01*
X0003600Y0303919D02*
X0104162Y0303919D01*
X0104162Y0305517D02*
X0003600Y0305517D01*
X0003600Y0307116D02*
X0104162Y0307116D01*
X0104162Y0308714D02*
X0003600Y0308714D01*
X0003600Y0310313D02*
X0104162Y0310313D01*
X0104162Y0311911D02*
X0003600Y0311911D01*
X0003600Y0313510D02*
X0104162Y0313510D01*
X0104162Y0292729D02*
X0092218Y0292729D01*
X0093816Y0291131D02*
X0104162Y0291131D01*
X0104162Y0289532D02*
X0097483Y0289532D01*
X0099842Y0287934D02*
X0104162Y0287934D01*
X0104162Y0286335D02*
X0100607Y0286335D01*
X0100688Y0284737D02*
X0104162Y0284737D01*
X0104162Y0283138D02*
X0100170Y0283138D01*
X0098786Y0281539D02*
X0104162Y0281539D01*
X0104162Y0279941D02*
X0079035Y0279941D01*
X0078494Y0281539D02*
X0093791Y0281539D01*
X0092407Y0283138D02*
X0077009Y0283138D01*
X0079611Y0278342D02*
X0104162Y0278342D01*
X0104162Y0276744D02*
X0081210Y0276744D01*
X0082808Y0275145D02*
X0104162Y0275145D01*
X0104162Y0273547D02*
X0083340Y0273547D01*
X0083340Y0271948D02*
X0104162Y0271948D01*
X0104162Y0270350D02*
X0083340Y0270350D01*
X0083340Y0268751D02*
X0104162Y0268751D01*
X0104162Y0267153D02*
X0083340Y0267153D01*
X0083340Y0265554D02*
X0104162Y0265554D01*
X0104162Y0263956D02*
X0083340Y0263956D01*
X0083340Y0262357D02*
X0104162Y0262357D01*
X0104162Y0260759D02*
X0083709Y0260759D01*
X0084700Y0259160D02*
X0104162Y0259160D01*
X0104162Y0257562D02*
X0084940Y0257562D01*
X0084581Y0255963D02*
X0104162Y0255963D01*
X0104162Y0254365D02*
X0089539Y0254365D01*
X0091408Y0252766D02*
X0104162Y0252766D01*
X0104162Y0251168D02*
X0093006Y0251168D01*
X0094605Y0249569D02*
X0104162Y0249569D01*
X0104162Y0247971D02*
X0095151Y0247971D01*
X0095151Y0246372D02*
X0104162Y0246372D01*
X0104162Y0244774D02*
X0103631Y0244774D01*
X0096819Y0244774D02*
X0095151Y0244774D01*
X0095151Y0243175D02*
X0095967Y0243175D01*
X0095825Y0241577D02*
X0095151Y0241577D01*
X0095151Y0239978D02*
X0096283Y0239978D01*
X0095151Y0238380D02*
X0097425Y0238380D01*
X0097425Y0236781D02*
X0095151Y0236781D01*
X0095151Y0235183D02*
X0097425Y0235183D01*
X0097425Y0233584D02*
X0095151Y0233584D01*
X0095151Y0231986D02*
X0097425Y0231986D01*
X0097425Y0230387D02*
X0095151Y0230387D01*
X0095151Y0228789D02*
X0097425Y0228789D01*
X0096952Y0227190D02*
X0095151Y0227190D01*
X0095151Y0225592D02*
X0096022Y0225592D01*
X0095825Y0223993D02*
X0095151Y0223993D01*
X0095151Y0222395D02*
X0096227Y0222395D01*
X0095819Y0220796D02*
X0097448Y0220796D01*
X0097417Y0219198D02*
X0103331Y0219198D01*
X0103331Y0220796D02*
X0103003Y0220796D01*
X0103331Y0217599D02*
X0099016Y0217599D01*
X0100614Y0216001D02*
X0103331Y0216001D01*
X0103331Y0214402D02*
X0102213Y0214402D01*
X0097490Y0211205D02*
X0040833Y0211205D01*
X0040833Y0212803D02*
X0095892Y0212803D01*
X0094293Y0214402D02*
X0040833Y0214402D01*
X0040833Y0216001D02*
X0092695Y0216001D01*
X0091096Y0217599D02*
X0040833Y0217599D01*
X0040833Y0219198D02*
X0081330Y0219198D01*
X0080326Y0220796D02*
X0040833Y0220796D01*
X0040833Y0222395D02*
X0080077Y0222395D01*
X0080427Y0223993D02*
X0040833Y0223993D01*
X0040833Y0225592D02*
X0081574Y0225592D01*
X0081677Y0227190D02*
X0040833Y0227190D01*
X0040833Y0228789D02*
X0081677Y0228789D01*
X0081677Y0230387D02*
X0040833Y0230387D01*
X0040833Y0231986D02*
X0081677Y0231986D01*
X0081677Y0233584D02*
X0040833Y0233584D01*
X0040833Y0235183D02*
X0081677Y0235183D01*
X0081677Y0236781D02*
X0040833Y0236781D01*
X0040833Y0238380D02*
X0081677Y0238380D01*
X0081677Y0239978D02*
X0040833Y0239978D01*
X0040833Y0241577D02*
X0081677Y0241577D01*
X0080974Y0243175D02*
X0040833Y0243175D01*
X0040833Y0244774D02*
X0080179Y0244774D01*
X0080077Y0246372D02*
X0040833Y0246372D01*
X0040833Y0247971D02*
X0080575Y0247971D01*
X0087980Y0243175D02*
X0089551Y0243175D01*
X0089551Y0241577D02*
X0087277Y0241577D01*
X0087277Y0239978D02*
X0089551Y0239978D01*
X0089551Y0238380D02*
X0087277Y0238380D01*
X0087277Y0236781D02*
X0089551Y0236781D01*
X0089551Y0235183D02*
X0087277Y0235183D01*
X0087277Y0233584D02*
X0089551Y0233584D01*
X0089551Y0231986D02*
X0087277Y0231986D01*
X0087277Y0230387D02*
X0089551Y0230387D01*
X0089551Y0228789D02*
X0087277Y0228789D01*
X0087277Y0227190D02*
X0089551Y0227190D01*
X0089551Y0225592D02*
X0087381Y0225592D01*
X0088527Y0223993D02*
X0089551Y0223993D01*
X0089551Y0222395D02*
X0088877Y0222395D01*
X0088628Y0220796D02*
X0089551Y0220796D01*
X0089779Y0219198D02*
X0087625Y0219198D01*
X0090765Y0217930D02*
X0090765Y0217930D01*
X0100225Y0224241D02*
X0100225Y0226209D01*
X0119910Y0225592D02*
X0214398Y0225592D01*
X0214398Y0227190D02*
X0119910Y0227190D01*
X0119910Y0228789D02*
X0214398Y0228789D01*
X0214398Y0230387D02*
X0119910Y0230387D01*
X0119910Y0231986D02*
X0214398Y0231986D01*
X0214398Y0233584D02*
X0119910Y0233584D01*
X0119910Y0235183D02*
X0214398Y0235183D01*
X0214398Y0236781D02*
X0119910Y0236781D01*
X0119910Y0238380D02*
X0214398Y0238380D01*
X0214398Y0239978D02*
X0119910Y0239978D01*
X0119910Y0241577D02*
X0214398Y0241577D01*
X0214398Y0243175D02*
X0119910Y0243175D01*
X0119910Y0244774D02*
X0214398Y0244774D01*
X0214398Y0246372D02*
X0119910Y0246372D01*
X0119910Y0247971D02*
X0214398Y0247971D01*
X0214398Y0249569D02*
X0119910Y0249569D01*
X0119910Y0251168D02*
X0214398Y0251168D01*
X0214398Y0252766D02*
X0119910Y0252766D01*
X0119910Y0254365D02*
X0214398Y0254365D01*
X0214398Y0255963D02*
X0119910Y0255963D01*
X0119910Y0257562D02*
X0214398Y0257562D01*
X0214398Y0259160D02*
X0119910Y0259160D01*
X0119910Y0260759D02*
X0214398Y0260759D01*
X0214398Y0262357D02*
X0119910Y0262357D01*
X0119910Y0263956D02*
X0214398Y0263956D01*
X0214398Y0265554D02*
X0119910Y0265554D01*
X0119910Y0267153D02*
X0214398Y0267153D01*
X0214398Y0268751D02*
X0119910Y0268751D01*
X0119910Y0269517D02*
X0127784Y0277391D01*
X0151406Y0277391D01*
X0159280Y0285265D01*
X0159280Y0314961D01*
X0214398Y0314961D01*
X0214398Y0171887D01*
X0213138Y0170627D01*
X0212205Y0168374D01*
X0212205Y0165935D01*
X0213138Y0163682D01*
X0214398Y0162421D01*
X0214398Y0119910D01*
X0119910Y0119910D01*
X0119910Y0269517D01*
X0120744Y0270350D02*
X0214398Y0270350D01*
X0214398Y0271948D02*
X0122342Y0271948D01*
X0123941Y0273547D02*
X0214398Y0273547D01*
X0214398Y0275145D02*
X0125539Y0275145D01*
X0127138Y0276744D02*
X0214398Y0276744D01*
X0214398Y0278342D02*
X0152358Y0278342D01*
X0153957Y0279941D02*
X0214398Y0279941D01*
X0214398Y0281539D02*
X0155555Y0281539D01*
X0157154Y0283138D02*
X0214398Y0283138D01*
X0214398Y0284737D02*
X0158752Y0284737D01*
X0159280Y0286335D02*
X0214398Y0286335D01*
X0214398Y0287934D02*
X0159280Y0287934D01*
X0159280Y0289532D02*
X0214398Y0289532D01*
X0214398Y0291131D02*
X0159280Y0291131D01*
X0159280Y0292729D02*
X0214398Y0292729D01*
X0214398Y0294328D02*
X0159280Y0294328D01*
X0159280Y0295926D02*
X0214398Y0295926D01*
X0214398Y0297525D02*
X0159280Y0297525D01*
X0159280Y0299123D02*
X0214398Y0299123D01*
X0214398Y0300722D02*
X0159280Y0300722D01*
X0159280Y0302320D02*
X0214398Y0302320D01*
X0214398Y0303919D02*
X0159280Y0303919D01*
X0159280Y0305517D02*
X0214398Y0305517D01*
X0214398Y0307116D02*
X0159280Y0307116D01*
X0159280Y0308714D02*
X0214398Y0308714D01*
X0214398Y0310313D02*
X0159280Y0310313D01*
X0159280Y0311911D02*
X0214398Y0311911D01*
X0214398Y0313510D02*
X0159280Y0313510D01*
X0222272Y0313510D02*
X0277391Y0313510D01*
X0277391Y0314961D02*
X0277391Y0285265D01*
X0285265Y0277391D01*
X0308887Y0277391D01*
X0316761Y0269517D01*
X0316761Y0119910D01*
X0222272Y0119910D01*
X0222272Y0162421D01*
X0223533Y0163682D01*
X0224466Y0165935D01*
X0224466Y0168374D01*
X0223533Y0170627D01*
X0222272Y0171887D01*
X0222272Y0314961D01*
X0277391Y0314961D01*
X0277391Y0311911D02*
X0222272Y0311911D01*
X0222272Y0310313D02*
X0277391Y0310313D01*
X0277391Y0308714D02*
X0222272Y0308714D01*
X0222272Y0307116D02*
X0277391Y0307116D01*
X0277391Y0305517D02*
X0222272Y0305517D01*
X0222272Y0303919D02*
X0277391Y0303919D01*
X0277391Y0302320D02*
X0222272Y0302320D01*
X0222272Y0300722D02*
X0277391Y0300722D01*
X0277391Y0299123D02*
X0222272Y0299123D01*
X0222272Y0297525D02*
X0277391Y0297525D01*
X0277391Y0295926D02*
X0222272Y0295926D01*
X0222272Y0294328D02*
X0277391Y0294328D01*
X0277391Y0292729D02*
X0222272Y0292729D01*
X0222272Y0291131D02*
X0277391Y0291131D01*
X0277391Y0289532D02*
X0222272Y0289532D01*
X0222272Y0287934D02*
X0277391Y0287934D01*
X0277391Y0286335D02*
X0222272Y0286335D01*
X0222272Y0284737D02*
X0277919Y0284737D01*
X0279517Y0283138D02*
X0222272Y0283138D01*
X0222272Y0281539D02*
X0281116Y0281539D01*
X0282714Y0279941D02*
X0222272Y0279941D01*
X0222272Y0278342D02*
X0284313Y0278342D01*
X0309533Y0276744D02*
X0222272Y0276744D01*
X0222272Y0275145D02*
X0311132Y0275145D01*
X0312730Y0273547D02*
X0222272Y0273547D01*
X0222272Y0271948D02*
X0314329Y0271948D01*
X0315927Y0270350D02*
X0222272Y0270350D01*
X0222272Y0268751D02*
X0316761Y0268751D01*
X0316761Y0267153D02*
X0222272Y0267153D01*
X0222272Y0265554D02*
X0316761Y0265554D01*
X0316761Y0263956D02*
X0222272Y0263956D01*
X0222272Y0262357D02*
X0316761Y0262357D01*
X0316761Y0260759D02*
X0222272Y0260759D01*
X0222272Y0259160D02*
X0316761Y0259160D01*
X0316761Y0257562D02*
X0222272Y0257562D01*
X0222272Y0255963D02*
X0316761Y0255963D01*
X0316761Y0254365D02*
X0222272Y0254365D01*
X0222272Y0252766D02*
X0316761Y0252766D01*
X0316761Y0251168D02*
X0222272Y0251168D01*
X0222272Y0249569D02*
X0316761Y0249569D01*
X0316761Y0247971D02*
X0222272Y0247971D01*
X0222272Y0246372D02*
X0316761Y0246372D01*
X0316761Y0244774D02*
X0222272Y0244774D01*
X0222272Y0243175D02*
X0316761Y0243175D01*
X0316761Y0241577D02*
X0222272Y0241577D01*
X0222272Y0239978D02*
X0316761Y0239978D01*
X0316761Y0238380D02*
X0222272Y0238380D01*
X0222272Y0236781D02*
X0316761Y0236781D01*
X0316761Y0235183D02*
X0222272Y0235183D01*
X0222272Y0233584D02*
X0316761Y0233584D01*
X0316761Y0231986D02*
X0222272Y0231986D01*
X0222272Y0230387D02*
X0316761Y0230387D01*
X0316761Y0228789D02*
X0222272Y0228789D01*
X0222272Y0227190D02*
X0316761Y0227190D01*
X0316761Y0225592D02*
X0222272Y0225592D01*
X0222272Y0223993D02*
X0316761Y0223993D01*
X0316761Y0222395D02*
X0222272Y0222395D01*
X0222272Y0220796D02*
X0316761Y0220796D01*
X0316761Y0219198D02*
X0222272Y0219198D01*
X0222272Y0217599D02*
X0316761Y0217599D01*
X0316761Y0216001D02*
X0222272Y0216001D01*
X0222272Y0214402D02*
X0316761Y0214402D01*
X0316761Y0212803D02*
X0222272Y0212803D01*
X0222272Y0211205D02*
X0316761Y0211205D01*
X0316761Y0209606D02*
X0222272Y0209606D01*
X0222272Y0208008D02*
X0316761Y0208008D01*
X0316761Y0206409D02*
X0222272Y0206409D01*
X0222272Y0204811D02*
X0316761Y0204811D01*
X0316761Y0203212D02*
X0222272Y0203212D01*
X0222272Y0201614D02*
X0316761Y0201614D01*
X0316761Y0200015D02*
X0222272Y0200015D01*
X0222272Y0198417D02*
X0316761Y0198417D01*
X0316761Y0196818D02*
X0222272Y0196818D01*
X0222272Y0195220D02*
X0316761Y0195220D01*
X0316761Y0193621D02*
X0222272Y0193621D01*
X0222272Y0192023D02*
X0316761Y0192023D01*
X0316761Y0190424D02*
X0222272Y0190424D01*
X0222272Y0188826D02*
X0316761Y0188826D01*
X0316761Y0187227D02*
X0222272Y0187227D01*
X0222272Y0185629D02*
X0316761Y0185629D01*
X0316761Y0184030D02*
X0222272Y0184030D01*
X0222272Y0182432D02*
X0316761Y0182432D01*
X0316761Y0180833D02*
X0222272Y0180833D01*
X0222272Y0179235D02*
X0316761Y0179235D01*
X0316761Y0177636D02*
X0222272Y0177636D01*
X0222272Y0176038D02*
X0316761Y0176038D01*
X0316761Y0174439D02*
X0222272Y0174439D01*
X0222272Y0172841D02*
X0316761Y0172841D01*
X0316761Y0171242D02*
X0222918Y0171242D01*
X0223940Y0169644D02*
X0316761Y0169644D01*
X0316761Y0168045D02*
X0224466Y0168045D01*
X0224466Y0166447D02*
X0316761Y0166447D01*
X0316761Y0164848D02*
X0224016Y0164848D01*
X0223101Y0163250D02*
X0316761Y0163250D01*
X0316761Y0161651D02*
X0222272Y0161651D01*
X0222272Y0160053D02*
X0316761Y0160053D01*
X0316761Y0158454D02*
X0222272Y0158454D01*
X0222272Y0156856D02*
X0316761Y0156856D01*
X0316761Y0155257D02*
X0222272Y0155257D01*
X0222272Y0153659D02*
X0316761Y0153659D01*
X0316761Y0152060D02*
X0222272Y0152060D01*
X0222272Y0150462D02*
X0316761Y0150462D01*
X0316761Y0148863D02*
X0222272Y0148863D01*
X0222272Y0147265D02*
X0316761Y0147265D01*
X0316761Y0145666D02*
X0222272Y0145666D01*
X0222272Y0144068D02*
X0316761Y0144068D01*
X0316761Y0142469D02*
X0222272Y0142469D01*
X0222272Y0140870D02*
X0316761Y0140870D01*
X0316761Y0139272D02*
X0222272Y0139272D01*
X0222272Y0137673D02*
X0316761Y0137673D01*
X0316761Y0136075D02*
X0222272Y0136075D01*
X0222272Y0134476D02*
X0316761Y0134476D01*
X0316761Y0132878D02*
X0222272Y0132878D01*
X0222272Y0131279D02*
X0316761Y0131279D01*
X0316761Y0129681D02*
X0222272Y0129681D01*
X0222272Y0128082D02*
X0316761Y0128082D01*
X0316761Y0126484D02*
X0222272Y0126484D01*
X0222272Y0124885D02*
X0316761Y0124885D01*
X0316761Y0123287D02*
X0222272Y0123287D01*
X0222272Y0121688D02*
X0316761Y0121688D01*
X0316761Y0120090D02*
X0222272Y0120090D01*
X0214398Y0120090D02*
X0119910Y0120090D01*
X0119910Y0121688D02*
X0214398Y0121688D01*
X0214398Y0123287D02*
X0119910Y0123287D01*
X0119910Y0124885D02*
X0214398Y0124885D01*
X0214398Y0126484D02*
X0119910Y0126484D01*
X0119910Y0128082D02*
X0214398Y0128082D01*
X0214398Y0129681D02*
X0119910Y0129681D01*
X0119910Y0131279D02*
X0214398Y0131279D01*
X0214398Y0132878D02*
X0119910Y0132878D01*
X0119910Y0134476D02*
X0214398Y0134476D01*
X0214398Y0136075D02*
X0119910Y0136075D01*
X0119910Y0137673D02*
X0214398Y0137673D01*
X0214398Y0139272D02*
X0119910Y0139272D01*
X0119910Y0140870D02*
X0214398Y0140870D01*
X0214398Y0142469D02*
X0119910Y0142469D01*
X0119910Y0144068D02*
X0214398Y0144068D01*
X0214398Y0145666D02*
X0119910Y0145666D01*
X0119910Y0147265D02*
X0214398Y0147265D01*
X0214398Y0148863D02*
X0119910Y0148863D01*
X0119910Y0150462D02*
X0214398Y0150462D01*
X0214398Y0152060D02*
X0119910Y0152060D01*
X0119910Y0153659D02*
X0214398Y0153659D01*
X0214398Y0155257D02*
X0119910Y0155257D01*
X0119910Y0156856D02*
X0214398Y0156856D01*
X0214398Y0158454D02*
X0119910Y0158454D01*
X0119910Y0160053D02*
X0214398Y0160053D01*
X0214398Y0161651D02*
X0119910Y0161651D01*
X0119910Y0163250D02*
X0213570Y0163250D01*
X0212655Y0164848D02*
X0119910Y0164848D01*
X0119910Y0166447D02*
X0212205Y0166447D01*
X0212205Y0168045D02*
X0119910Y0168045D01*
X0119910Y0169644D02*
X0212731Y0169644D01*
X0213753Y0171242D02*
X0119910Y0171242D01*
X0119910Y0172841D02*
X0214398Y0172841D01*
X0214398Y0174439D02*
X0119910Y0174439D01*
X0119910Y0176038D02*
X0214398Y0176038D01*
X0214398Y0177636D02*
X0119910Y0177636D01*
X0119910Y0179235D02*
X0214398Y0179235D01*
X0214398Y0180833D02*
X0119910Y0180833D01*
X0119910Y0182432D02*
X0214398Y0182432D01*
X0214398Y0184030D02*
X0119910Y0184030D01*
X0119910Y0185629D02*
X0214398Y0185629D01*
X0214398Y0187227D02*
X0119910Y0187227D01*
X0119910Y0188826D02*
X0214398Y0188826D01*
X0214398Y0190424D02*
X0119910Y0190424D01*
X0119910Y0192023D02*
X0214398Y0192023D01*
X0214398Y0193621D02*
X0119910Y0193621D01*
X0119910Y0195220D02*
X0214398Y0195220D01*
X0214398Y0196818D02*
X0119910Y0196818D01*
X0119910Y0198417D02*
X0214398Y0198417D01*
X0214398Y0200015D02*
X0119910Y0200015D01*
X0119910Y0201614D02*
X0214398Y0201614D01*
X0214398Y0203212D02*
X0119910Y0203212D01*
X0119910Y0204811D02*
X0214398Y0204811D01*
X0214398Y0206409D02*
X0119910Y0206409D01*
X0119910Y0208008D02*
X0214398Y0208008D01*
X0214398Y0209606D02*
X0119910Y0209606D01*
X0119910Y0211205D02*
X0214398Y0211205D01*
X0214398Y0212803D02*
X0119910Y0212803D01*
X0119910Y0214402D02*
X0214398Y0214402D01*
X0214398Y0216001D02*
X0119910Y0216001D01*
X0119910Y0217599D02*
X0214398Y0217599D01*
X0214398Y0219198D02*
X0119910Y0219198D01*
X0119910Y0220796D02*
X0214398Y0220796D01*
X0214398Y0222395D02*
X0119910Y0222395D01*
X0119910Y0223993D02*
X0214398Y0223993D01*
X0308887Y0285265D02*
X0308887Y0314961D01*
X0350225Y0314961D01*
X0350225Y0135658D01*
X0324635Y0135658D01*
X0324635Y0269517D01*
X0308887Y0285265D01*
X0309415Y0284737D02*
X0350225Y0284737D01*
X0350225Y0286335D02*
X0308887Y0286335D01*
X0308887Y0287934D02*
X0350225Y0287934D01*
X0350225Y0289532D02*
X0308887Y0289532D01*
X0308887Y0291131D02*
X0350225Y0291131D01*
X0350225Y0292729D02*
X0308887Y0292729D01*
X0308887Y0294328D02*
X0350225Y0294328D01*
X0350225Y0295926D02*
X0308887Y0295926D01*
X0308887Y0297525D02*
X0350225Y0297525D01*
X0350225Y0299123D02*
X0308887Y0299123D01*
X0308887Y0300722D02*
X0350225Y0300722D01*
X0350225Y0302320D02*
X0308887Y0302320D01*
X0308887Y0303919D02*
X0350225Y0303919D01*
X0350225Y0305517D02*
X0308887Y0305517D01*
X0308887Y0307116D02*
X0350225Y0307116D01*
X0350225Y0308714D02*
X0308887Y0308714D01*
X0308887Y0310313D02*
X0350225Y0310313D01*
X0350225Y0311911D02*
X0308887Y0311911D01*
X0308887Y0313510D02*
X0350225Y0313510D01*
X0354162Y0313510D02*
X0393701Y0313510D01*
X0393701Y0311911D02*
X0354162Y0311911D01*
X0354162Y0310313D02*
X0393701Y0310313D01*
X0393701Y0308714D02*
X0354162Y0308714D01*
X0354162Y0307116D02*
X0393701Y0307116D01*
X0393701Y0305517D02*
X0354162Y0305517D01*
X0354162Y0303919D02*
X0393701Y0303919D01*
X0393701Y0302320D02*
X0354162Y0302320D01*
X0354162Y0300722D02*
X0393701Y0300722D01*
X0393701Y0299123D02*
X0354162Y0299123D01*
X0354162Y0297525D02*
X0393701Y0297525D01*
X0393701Y0295926D02*
X0354162Y0295926D01*
X0354162Y0294328D02*
X0393701Y0294328D01*
X0393701Y0292729D02*
X0354162Y0292729D01*
X0354162Y0291131D02*
X0393701Y0291131D01*
X0393701Y0289532D02*
X0354162Y0289532D01*
X0354162Y0287934D02*
X0393701Y0287934D01*
X0393701Y0286335D02*
X0354162Y0286335D01*
X0354162Y0284737D02*
X0393701Y0284737D01*
X0393701Y0283138D02*
X0354162Y0283138D01*
X0354162Y0281539D02*
X0393701Y0281539D01*
X0393701Y0279941D02*
X0354162Y0279941D01*
X0354162Y0278342D02*
X0393701Y0278342D01*
X0393701Y0276744D02*
X0354162Y0276744D01*
X0354162Y0275145D02*
X0393701Y0275145D01*
X0393701Y0273547D02*
X0354162Y0273547D01*
X0354162Y0271948D02*
X0393701Y0271948D01*
X0393701Y0270350D02*
X0354162Y0270350D01*
X0354162Y0268751D02*
X0393701Y0268751D01*
X0393701Y0267153D02*
X0354162Y0267153D01*
X0354162Y0265554D02*
X0393701Y0265554D01*
X0393701Y0263956D02*
X0354162Y0263956D01*
X0354162Y0262357D02*
X0393701Y0262357D01*
X0393701Y0260759D02*
X0354162Y0260759D01*
X0354162Y0259160D02*
X0393701Y0259160D01*
X0393701Y0257562D02*
X0354162Y0257562D01*
X0354162Y0255963D02*
X0393701Y0255963D01*
X0393701Y0254365D02*
X0354162Y0254365D01*
X0354162Y0252766D02*
X0393701Y0252766D01*
X0393701Y0251168D02*
X0354162Y0251168D01*
X0354162Y0249569D02*
X0393701Y0249569D01*
X0393701Y0247971D02*
X0354162Y0247971D01*
X0354162Y0246372D02*
X0393701Y0246372D01*
X0393701Y0244774D02*
X0354162Y0244774D01*
X0354162Y0243175D02*
X0393701Y0243175D01*
X0393701Y0241577D02*
X0354162Y0241577D01*
X0354162Y0239978D02*
X0393701Y0239978D01*
X0393701Y0238380D02*
X0354162Y0238380D01*
X0354162Y0236781D02*
X0393701Y0236781D01*
X0393701Y0235183D02*
X0354162Y0235183D01*
X0354162Y0233584D02*
X0393701Y0233584D01*
X0393701Y0231986D02*
X0354162Y0231986D01*
X0354162Y0230387D02*
X0393701Y0230387D01*
X0393701Y0228789D02*
X0354162Y0228789D01*
X0354162Y0227190D02*
X0393701Y0227190D01*
X0393701Y0225592D02*
X0354162Y0225592D01*
X0354162Y0223993D02*
X0393701Y0223993D01*
X0393701Y0222395D02*
X0354162Y0222395D01*
X0354162Y0220796D02*
X0393701Y0220796D01*
X0393701Y0219198D02*
X0354162Y0219198D01*
X0354162Y0217599D02*
X0393701Y0217599D01*
X0393701Y0216001D02*
X0354162Y0216001D01*
X0354162Y0214402D02*
X0393701Y0214402D01*
X0393701Y0212803D02*
X0354162Y0212803D01*
X0354162Y0211205D02*
X0393701Y0211205D01*
X0393701Y0209606D02*
X0354162Y0209606D01*
X0354162Y0208008D02*
X0393701Y0208008D01*
X0393701Y0206409D02*
X0354162Y0206409D01*
X0354162Y0204811D02*
X0393701Y0204811D01*
X0393701Y0203212D02*
X0354162Y0203212D01*
X0354162Y0201614D02*
X0393701Y0201614D01*
X0393701Y0200015D02*
X0354162Y0200015D01*
X0354162Y0198417D02*
X0393701Y0198417D01*
X0393701Y0196818D02*
X0354162Y0196818D01*
X0354162Y0195220D02*
X0393701Y0195220D01*
X0393701Y0193621D02*
X0354162Y0193621D01*
X0354162Y0192023D02*
X0393701Y0192023D01*
X0393701Y0190424D02*
X0354162Y0190424D01*
X0354162Y0188826D02*
X0393701Y0188826D01*
X0393701Y0187227D02*
X0354162Y0187227D01*
X0354162Y0185629D02*
X0393701Y0185629D01*
X0393701Y0184030D02*
X0354162Y0184030D01*
X0354162Y0182432D02*
X0393701Y0182432D01*
X0393701Y0180833D02*
X0354162Y0180833D01*
X0354162Y0179235D02*
X0393701Y0179235D01*
X0393701Y0177636D02*
X0354162Y0177636D01*
X0354162Y0176038D02*
X0393701Y0176038D01*
X0393701Y0174439D02*
X0354162Y0174439D01*
X0354162Y0172841D02*
X0393701Y0172841D01*
X0393701Y0171242D02*
X0354162Y0171242D01*
X0354162Y0169644D02*
X0393701Y0169644D01*
X0393701Y0168045D02*
X0354162Y0168045D01*
X0354162Y0166447D02*
X0393701Y0166447D01*
X0393701Y0164848D02*
X0354162Y0164848D01*
X0354162Y0163250D02*
X0393701Y0163250D01*
X0393701Y0161651D02*
X0354162Y0161651D01*
X0354162Y0160053D02*
X0393701Y0160053D01*
X0393701Y0158454D02*
X0354162Y0158454D01*
X0354162Y0156856D02*
X0393701Y0156856D01*
X0393701Y0155257D02*
X0354162Y0155257D01*
X0354162Y0153659D02*
X0393701Y0153659D01*
X0393701Y0152060D02*
X0354162Y0152060D01*
X0354162Y0150462D02*
X0393701Y0150462D01*
X0393701Y0148863D02*
X0354162Y0148863D01*
X0354162Y0147265D02*
X0393701Y0147265D01*
X0393701Y0145666D02*
X0354162Y0145666D01*
X0354162Y0144068D02*
X0393701Y0144068D01*
X0393701Y0142469D02*
X0354162Y0142469D01*
X0354162Y0140870D02*
X0393701Y0140870D01*
X0393701Y0139272D02*
X0354162Y0139272D01*
X0354162Y0137673D02*
X0393701Y0137673D01*
X0393701Y0136075D02*
X0354162Y0136075D01*
X0354162Y0134476D02*
X0393701Y0134476D01*
X0393701Y0132878D02*
X0354162Y0132878D01*
X0354162Y0131279D02*
X0393701Y0131279D01*
X0393701Y0129681D02*
X0354162Y0129681D01*
X0354162Y0128082D02*
X0393701Y0128082D01*
X0393701Y0126484D02*
X0354162Y0126484D01*
X0354162Y0124885D02*
X0393701Y0124885D01*
X0393701Y0123287D02*
X0354162Y0123287D01*
X0354162Y0121688D02*
X0393701Y0121688D01*
X0393701Y0120090D02*
X0354162Y0120090D01*
X0354162Y0118491D02*
X0393701Y0118491D01*
X0393701Y0116893D02*
X0354162Y0116893D01*
X0354162Y0115294D02*
X0393701Y0115294D01*
X0393701Y0113696D02*
X0354162Y0113696D01*
X0354162Y0112097D02*
X0393701Y0112097D01*
X0393701Y0110499D02*
X0354162Y0110499D01*
X0354162Y0108900D02*
X0393701Y0108900D01*
X0393701Y0107302D02*
X0354162Y0107302D01*
X0354162Y0105703D02*
X0393701Y0105703D01*
X0393701Y0104105D02*
X0354162Y0104105D01*
X0348257Y0104105D02*
X0119910Y0104105D01*
X0119910Y0104162D02*
X0348257Y0104162D01*
X0348257Y0056918D01*
X0119910Y0056918D01*
X0119910Y0104162D01*
X0119910Y0102506D02*
X0348257Y0102506D01*
X0348257Y0100908D02*
X0119910Y0100908D01*
X0119910Y0099309D02*
X0348257Y0099309D01*
X0348257Y0097711D02*
X0119910Y0097711D01*
X0119910Y0096112D02*
X0348257Y0096112D01*
X0348257Y0094514D02*
X0119910Y0094514D01*
X0119910Y0092915D02*
X0348257Y0092915D01*
X0348257Y0091317D02*
X0119910Y0091317D01*
X0119910Y0089718D02*
X0348257Y0089718D01*
X0348257Y0088120D02*
X0119910Y0088120D01*
X0119910Y0086521D02*
X0348257Y0086521D01*
X0348257Y0084923D02*
X0119910Y0084923D01*
X0119910Y0083324D02*
X0348257Y0083324D01*
X0348257Y0081726D02*
X0119910Y0081726D01*
X0119910Y0080127D02*
X0348257Y0080127D01*
X0348257Y0078529D02*
X0119910Y0078529D01*
X0119910Y0076930D02*
X0348257Y0076930D01*
X0348257Y0075332D02*
X0119910Y0075332D01*
X0119910Y0073733D02*
X0348257Y0073733D01*
X0348257Y0072134D02*
X0119910Y0072134D01*
X0119910Y0070536D02*
X0348257Y0070536D01*
X0348257Y0068937D02*
X0119910Y0068937D01*
X0119910Y0067339D02*
X0348257Y0067339D01*
X0348257Y0065740D02*
X0119910Y0065740D01*
X0119910Y0064142D02*
X0348257Y0064142D01*
X0348257Y0062543D02*
X0119910Y0062543D01*
X0119910Y0060945D02*
X0348257Y0060945D01*
X0348257Y0059346D02*
X0119910Y0059346D01*
X0119910Y0057748D02*
X0348257Y0057748D01*
X0393701Y0046558D02*
X0128619Y0046558D01*
X0129824Y0044960D02*
X0393701Y0044960D01*
X0393701Y0043361D02*
X0130216Y0043361D01*
X0130008Y0041763D02*
X0393701Y0041763D01*
X0393701Y0040164D02*
X0129064Y0040164D01*
X0125816Y0043139D02*
X0110068Y0043139D01*
X0122568Y0040164D02*
X0003600Y0040164D01*
X0003600Y0038566D02*
X0393701Y0038566D01*
X0393701Y0036967D02*
X0003600Y0036967D01*
X0003600Y0035369D02*
X0393701Y0035369D01*
X0393701Y0033770D02*
X0003600Y0033770D01*
X0003600Y0032172D02*
X0138828Y0032172D01*
X0138944Y0032288D02*
X0136666Y0030010D01*
X0135433Y0027033D01*
X0135433Y0023811D01*
X0136666Y0020834D01*
X0138944Y0018556D01*
X0141921Y0017323D01*
X0145143Y0017323D01*
X0148120Y0018556D01*
X0150398Y0020834D01*
X0151631Y0023811D01*
X0151631Y0027033D01*
X0150398Y0030010D01*
X0148120Y0032288D01*
X0145143Y0033521D01*
X0141921Y0033521D01*
X0138944Y0032288D01*
X0137229Y0030573D02*
X0003600Y0030573D01*
X0003600Y0028975D02*
X0136237Y0028975D01*
X0135575Y0027376D02*
X0003600Y0027376D01*
X0003600Y0025778D02*
X0135433Y0025778D01*
X0135433Y0024179D02*
X0003600Y0024179D01*
X0003600Y0022581D02*
X0135943Y0022581D01*
X0136605Y0020982D02*
X0003600Y0020982D01*
X0003600Y0019384D02*
X0138117Y0019384D01*
X0140805Y0017785D02*
X0003600Y0017785D01*
X0003600Y0016187D02*
X0393701Y0016187D01*
X0393701Y0017785D02*
X0295866Y0017785D01*
X0294750Y0017323D02*
X0297726Y0018556D01*
X0300005Y0020834D01*
X0301238Y0023811D01*
X0301238Y0027033D01*
X0300005Y0030010D01*
X0297726Y0032288D01*
X0294750Y0033521D01*
X0291528Y0033521D01*
X0288551Y0032288D01*
X0286272Y0030010D01*
X0285039Y0027033D01*
X0285039Y0023811D01*
X0286272Y0020834D01*
X0288551Y0018556D01*
X0291528Y0017323D01*
X0294750Y0017323D01*
X0298554Y0019384D02*
X0393701Y0019384D01*
X0393701Y0020982D02*
X0300066Y0020982D01*
X0300728Y0022581D02*
X0393701Y0022581D01*
X0393701Y0024179D02*
X0301238Y0024179D01*
X0301238Y0025778D02*
X0393701Y0025778D01*
X0393701Y0027376D02*
X0301096Y0027376D01*
X0300434Y0028975D02*
X0393701Y0028975D01*
X0393701Y0030573D02*
X0299441Y0030573D01*
X0297843Y0032172D02*
X0393701Y0032172D01*
X0393701Y0014588D02*
X0003600Y0014588D01*
X0003600Y0012990D02*
X0393701Y0012990D01*
X0393701Y0011391D02*
X0003600Y0011391D01*
X0003600Y0009793D02*
X0393701Y0009793D01*
X0393701Y0008194D02*
X0003600Y0008194D01*
X0003600Y0006596D02*
X0393701Y0006596D01*
X0393701Y0004997D02*
X0003600Y0004997D01*
X0084477Y0043139D02*
X0086446Y0043139D01*
X0087030Y0073733D02*
X0003600Y0073733D01*
X0003600Y0075332D02*
X0086147Y0075332D01*
X0085983Y0076930D02*
X0003600Y0076930D01*
X0003600Y0078529D02*
X0086418Y0078529D01*
X0087684Y0080127D02*
X0003600Y0080127D01*
X0003600Y0084923D02*
X0058589Y0084923D01*
X0057161Y0086521D02*
X0003600Y0086521D01*
X0003600Y0088120D02*
X0057161Y0088120D01*
X0057161Y0089718D02*
X0003600Y0089718D01*
X0003600Y0091317D02*
X0058315Y0091317D01*
X0058998Y0094514D02*
X0003600Y0094514D01*
X0003600Y0096112D02*
X0057400Y0096112D01*
X0057161Y0097711D02*
X0003600Y0097711D01*
X0003600Y0099309D02*
X0057161Y0099309D01*
X0057906Y0100908D02*
X0003600Y0100908D01*
X0003600Y0102506D02*
X0059505Y0102506D01*
X0059407Y0104105D02*
X0003600Y0104105D01*
X0003600Y0105703D02*
X0057809Y0105703D01*
X0057161Y0107302D02*
X0003600Y0107302D01*
X0003600Y0108900D02*
X0057161Y0108900D01*
X0057497Y0110499D02*
X0003600Y0110499D01*
X0003600Y0112097D02*
X0059096Y0112097D01*
X0064114Y0104105D02*
X0064361Y0104105D01*
X0064361Y0102506D02*
X0064016Y0102506D01*
X0069161Y0102506D02*
X0069505Y0102506D01*
X0069407Y0104105D02*
X0069161Y0104105D01*
X0066761Y0093257D02*
X0061761Y0088257D01*
X0063025Y0092915D02*
X0003600Y0092915D01*
X0029359Y0098257D02*
X0051013Y0098257D01*
X0066761Y0093257D02*
X0066761Y0125816D01*
X0062824Y0129753D01*
X0059726Y0132878D02*
X0052486Y0132878D01*
X0062700Y0139272D02*
X0099394Y0139272D01*
X0099394Y0140870D02*
X0063287Y0140870D01*
X0063274Y0142469D02*
X0099394Y0142469D01*
X0099394Y0137673D02*
X0081919Y0137673D01*
X0083518Y0136075D02*
X0099394Y0136075D01*
X0099394Y0134476D02*
X0085116Y0134476D01*
X0086596Y0132878D02*
X0099394Y0132878D01*
X0099394Y0131279D02*
X0086877Y0131279D01*
X0086877Y0129681D02*
X0099394Y0129681D01*
X0099394Y0128082D02*
X0086877Y0128082D01*
X0086877Y0126484D02*
X0099394Y0126484D01*
X0099272Y0124885D02*
X0086877Y0124885D01*
X0086877Y0123287D02*
X0097674Y0123287D01*
X0096075Y0121688D02*
X0086877Y0121688D01*
X0086877Y0120090D02*
X0094477Y0120090D01*
X0093488Y0118491D02*
X0086877Y0118491D01*
X0086952Y0116893D02*
X0093488Y0116893D01*
X0093488Y0115294D02*
X0088550Y0115294D01*
X0090149Y0113696D02*
X0093488Y0113696D01*
X0093488Y0112097D02*
X0091747Y0112097D01*
X0093346Y0110499D02*
X0093488Y0110499D01*
X0100225Y0100225D02*
X0106131Y0100225D01*
X0076603Y0147469D02*
X0080540Y0151406D01*
X0080540Y0152587D01*
X0060833Y0161651D02*
X0059908Y0161651D01*
X0080109Y0172841D02*
X0022921Y0172841D01*
X0019178Y0174439D02*
X0080109Y0174439D01*
X0080109Y0188826D02*
X0033364Y0188826D01*
X0035129Y0190424D02*
X0080731Y0190424D01*
X0082046Y0192023D02*
X0035728Y0192023D01*
X0035727Y0193621D02*
X0082046Y0193621D01*
X0086446Y0192745D02*
X0082509Y0188808D01*
X0088482Y0188826D02*
X0099394Y0188826D01*
X0099394Y0190424D02*
X0090247Y0190424D01*
X0090846Y0192023D02*
X0099394Y0192023D01*
X0099394Y0193621D02*
X0090845Y0193621D01*
X0095143Y0195220D02*
X0099394Y0195220D01*
X0099394Y0196818D02*
X0096355Y0196818D01*
X0096751Y0198417D02*
X0099394Y0198417D01*
X0099394Y0200015D02*
X0096548Y0200015D01*
X0095610Y0201614D02*
X0099394Y0201614D01*
X0099394Y0203212D02*
X0040833Y0203212D01*
X0040833Y0204811D02*
X0099394Y0204811D01*
X0099394Y0206409D02*
X0040833Y0206409D01*
X0040833Y0208008D02*
X0099394Y0208008D01*
X0099089Y0209606D02*
X0040833Y0209606D01*
X0034095Y0196818D02*
X0032991Y0196818D01*
X0035065Y0195220D02*
X0036108Y0195220D01*
X0031328Y0192745D02*
X0017548Y0192745D01*
X0019211Y0196818D02*
X0029664Y0196818D01*
X0027590Y0195220D02*
X0021285Y0195220D01*
X0019584Y0188826D02*
X0029291Y0188826D01*
X0088775Y0244774D02*
X0089551Y0244774D01*
X0089551Y0246372D02*
X0088877Y0246372D01*
X0077740Y0262357D02*
X0067792Y0262357D01*
X0068882Y0263956D02*
X0077740Y0263956D01*
X0077740Y0265554D02*
X0069192Y0265554D01*
X0068903Y0267153D02*
X0077740Y0267153D01*
X0077740Y0268751D02*
X0067843Y0268751D01*
X0067192Y0270350D02*
X0077740Y0270350D01*
X0077740Y0271948D02*
X0067192Y0271948D01*
X0067192Y0273547D02*
X0076487Y0273547D01*
X0073309Y0275145D02*
X0067192Y0275145D01*
X0067192Y0276744D02*
X0071027Y0276744D01*
X0070293Y0278342D02*
X0067192Y0278342D01*
X0067192Y0279941D02*
X0070235Y0279941D01*
X0070775Y0281539D02*
X0067192Y0281539D01*
X0067192Y0283138D02*
X0072260Y0283138D01*
X0067192Y0284737D02*
X0091888Y0284737D01*
X0091824Y0286335D02*
X0067288Y0286335D01*
X0068887Y0287934D02*
X0090225Y0287934D01*
X0090383Y0291170D02*
X0096288Y0285265D01*
X0090383Y0291170D02*
X0068729Y0291170D01*
X0064792Y0287233D01*
X0064792Y0265580D01*
X0052150Y0259160D02*
X0003600Y0259160D01*
X0003600Y0257562D02*
X0050943Y0257562D01*
X0060855Y0295107D02*
X0064792Y0295107D01*
X0025784Y0115294D02*
X0025060Y0115294D01*
X0148237Y0032172D02*
X0288434Y0032172D01*
X0286836Y0030573D02*
X0149835Y0030573D01*
X0150827Y0028975D02*
X0285844Y0028975D01*
X0285181Y0027376D02*
X0151489Y0027376D01*
X0151631Y0025778D02*
X0285039Y0025778D01*
X0285039Y0024179D02*
X0151631Y0024179D01*
X0151122Y0022581D02*
X0285549Y0022581D01*
X0286211Y0020982D02*
X0150460Y0020982D01*
X0148948Y0019384D02*
X0287723Y0019384D01*
X0290411Y0017785D02*
X0146259Y0017785D01*
X0324635Y0136075D02*
X0350225Y0136075D01*
X0350225Y0137673D02*
X0324635Y0137673D01*
X0324635Y0139272D02*
X0350225Y0139272D01*
X0350225Y0140870D02*
X0324635Y0140870D01*
X0324635Y0142469D02*
X0350225Y0142469D01*
X0350225Y0144068D02*
X0324635Y0144068D01*
X0324635Y0145666D02*
X0350225Y0145666D01*
X0350225Y0147265D02*
X0324635Y0147265D01*
X0324635Y0148863D02*
X0350225Y0148863D01*
X0350225Y0150462D02*
X0324635Y0150462D01*
X0324635Y0152060D02*
X0350225Y0152060D01*
X0350225Y0153659D02*
X0324635Y0153659D01*
X0324635Y0155257D02*
X0350225Y0155257D01*
X0350225Y0156856D02*
X0324635Y0156856D01*
X0324635Y0158454D02*
X0350225Y0158454D01*
X0350225Y0160053D02*
X0324635Y0160053D01*
X0324635Y0161651D02*
X0350225Y0161651D01*
X0350225Y0163250D02*
X0324635Y0163250D01*
X0324635Y0164848D02*
X0350225Y0164848D01*
X0350225Y0166447D02*
X0324635Y0166447D01*
X0324635Y0168045D02*
X0350225Y0168045D01*
X0350225Y0169644D02*
X0324635Y0169644D01*
X0324635Y0171242D02*
X0350225Y0171242D01*
X0350225Y0172841D02*
X0324635Y0172841D01*
X0324635Y0174439D02*
X0350225Y0174439D01*
X0350225Y0176038D02*
X0324635Y0176038D01*
X0324635Y0177636D02*
X0350225Y0177636D01*
X0350225Y0179235D02*
X0324635Y0179235D01*
X0324635Y0180833D02*
X0350225Y0180833D01*
X0350225Y0182432D02*
X0324635Y0182432D01*
X0324635Y0184030D02*
X0350225Y0184030D01*
X0350225Y0185629D02*
X0324635Y0185629D01*
X0324635Y0187227D02*
X0350225Y0187227D01*
X0350225Y0188826D02*
X0324635Y0188826D01*
X0324635Y0190424D02*
X0350225Y0190424D01*
X0350225Y0192023D02*
X0324635Y0192023D01*
X0324635Y0193621D02*
X0350225Y0193621D01*
X0350225Y0195220D02*
X0324635Y0195220D01*
X0324635Y0196818D02*
X0350225Y0196818D01*
X0350225Y0198417D02*
X0324635Y0198417D01*
X0324635Y0200015D02*
X0350225Y0200015D01*
X0350225Y0201614D02*
X0324635Y0201614D01*
X0324635Y0203212D02*
X0350225Y0203212D01*
X0350225Y0204811D02*
X0324635Y0204811D01*
X0324635Y0206409D02*
X0350225Y0206409D01*
X0350225Y0208008D02*
X0324635Y0208008D01*
X0324635Y0209606D02*
X0350225Y0209606D01*
X0350225Y0211205D02*
X0324635Y0211205D01*
X0324635Y0212803D02*
X0350225Y0212803D01*
X0350225Y0214402D02*
X0324635Y0214402D01*
X0324635Y0216001D02*
X0350225Y0216001D01*
X0350225Y0217599D02*
X0324635Y0217599D01*
X0324635Y0219198D02*
X0350225Y0219198D01*
X0350225Y0220796D02*
X0324635Y0220796D01*
X0324635Y0222395D02*
X0350225Y0222395D01*
X0350225Y0223993D02*
X0324635Y0223993D01*
X0324635Y0225592D02*
X0350225Y0225592D01*
X0350225Y0227190D02*
X0324635Y0227190D01*
X0324635Y0228789D02*
X0350225Y0228789D01*
X0350225Y0230387D02*
X0324635Y0230387D01*
X0324635Y0231986D02*
X0350225Y0231986D01*
X0350225Y0233584D02*
X0324635Y0233584D01*
X0324635Y0235183D02*
X0350225Y0235183D01*
X0350225Y0236781D02*
X0324635Y0236781D01*
X0324635Y0238380D02*
X0350225Y0238380D01*
X0350225Y0239978D02*
X0324635Y0239978D01*
X0324635Y0241577D02*
X0350225Y0241577D01*
X0350225Y0243175D02*
X0324635Y0243175D01*
X0324635Y0244774D02*
X0350225Y0244774D01*
X0350225Y0246372D02*
X0324635Y0246372D01*
X0324635Y0247971D02*
X0350225Y0247971D01*
X0350225Y0249569D02*
X0324635Y0249569D01*
X0324635Y0251168D02*
X0350225Y0251168D01*
X0350225Y0252766D02*
X0324635Y0252766D01*
X0324635Y0254365D02*
X0350225Y0254365D01*
X0350225Y0255963D02*
X0324635Y0255963D01*
X0324635Y0257562D02*
X0350225Y0257562D01*
X0350225Y0259160D02*
X0324635Y0259160D01*
X0324635Y0260759D02*
X0350225Y0260759D01*
X0350225Y0262357D02*
X0324635Y0262357D01*
X0324635Y0263956D02*
X0350225Y0263956D01*
X0350225Y0265554D02*
X0324635Y0265554D01*
X0324635Y0267153D02*
X0350225Y0267153D01*
X0350225Y0268751D02*
X0324635Y0268751D01*
X0323801Y0270350D02*
X0350225Y0270350D01*
X0350225Y0271948D02*
X0322203Y0271948D01*
X0320604Y0273547D02*
X0350225Y0273547D01*
X0350225Y0275145D02*
X0319006Y0275145D01*
X0317407Y0276744D02*
X0350225Y0276744D01*
X0350225Y0278342D02*
X0315809Y0278342D01*
X0314210Y0279941D02*
X0350225Y0279941D01*
X0350225Y0281539D02*
X0312612Y0281539D01*
X0311013Y0283138D02*
X0350225Y0283138D01*
D18*
X0112036Y0222272D03*
X0100225Y0224241D03*
X0084477Y0222272D03*
X0100225Y0241957D03*
X0108099Y0239989D03*
X0084477Y0245894D03*
X0080540Y0257706D03*
X0088414Y0257706D03*
X0064792Y0265580D03*
X0054950Y0255737D03*
X0037233Y0251800D03*
X0029359Y0251800D03*
X0045107Y0232115D03*
X0031328Y0212430D03*
X0031328Y0192745D03*
X0017548Y0192745D03*
X0058887Y0157312D03*
X0066761Y0157312D03*
X0080540Y0152587D03*
X0082509Y0159280D03*
X0088414Y0176997D03*
X0086446Y0192745D03*
X0092351Y0198650D03*
X0058887Y0141564D03*
X0049044Y0135658D03*
X0041170Y0135658D03*
X0035265Y0141564D03*
X0029359Y0117942D03*
X0021485Y0117942D03*
X0027391Y0098257D03*
X0051013Y0098257D03*
X0062824Y0129753D03*
X0090383Y0119910D03*
X0106131Y0115973D03*
X0104162Y0108099D03*
X0106131Y0100225D03*
X0102194Y0090383D03*
X0114005Y0076603D03*
X0090383Y0076603D03*
X0096288Y0056918D03*
X0104162Y0056918D03*
X0119910Y0049044D03*
X0125816Y0043139D03*
X0084477Y0043139D03*
X0066761Y0052981D03*
X0218335Y0023454D03*
X0334477Y0045107D03*
X0375816Y0033296D03*
X0074635Y0279359D03*
X0060855Y0295107D03*
X0096288Y0285265D03*
D19*
X0037233Y0251800D02*
X0037233Y0198650D01*
X0092351Y0198650D01*
X0112036Y0222272D02*
X0112036Y0078572D01*
X0114005Y0076603D01*
X0218335Y0023454D02*
X0224241Y0027391D01*
X0222272Y0025422D01*
X0375816Y0033296D02*
X0375816Y0035265D01*
D20*
X0114005Y0076603D02*
X0090383Y0076603D01*
X0088414Y0058887D02*
X0066761Y0052981D01*
X0098257Y0108099D02*
X0096288Y0110068D01*
X0096288Y0117942D01*
X0102194Y0123847D01*
X0102194Y0176997D01*
X0102194Y0210461D01*
X0092351Y0220304D01*
X0092351Y0247863D01*
X0088414Y0251800D01*
X0058887Y0251800D01*
X0054950Y0255737D01*
X0080540Y0257706D02*
X0080540Y0273454D01*
X0074635Y0279359D01*
X0088414Y0259674D02*
X0088414Y0257706D01*
X0084477Y0245894D02*
X0084477Y0222272D01*
X0100225Y0226209D02*
X0100225Y0241957D01*
X0108099Y0239989D02*
X0108099Y0236052D01*
X0106131Y0234083D01*
X0106131Y0115973D01*
X0104162Y0108099D02*
X0098257Y0108099D01*
X0082509Y0159280D02*
X0082509Y0161249D01*
X0031328Y0212430D02*
X0015580Y0198650D01*
X0009674Y0198650D01*
X0043139Y0232115D02*
X0045107Y0232115D01*
X0005737Y0241957D02*
X0009674Y0287233D01*
M02*
