G75*
%MOIN*%
%OFA0B0*%
%FSLAX25Y25*%
%IPPOS*%
%LPD*%
%AMOC8*
5,1,8,0,0,1.08239X$1,22.5*
%
%ADD10C,0.00000*%
%ADD11C,0.12998*%
%ADD12C,0.09061*%
%ADD13R,2.26378X0.13780*%
%ADD14R,0.31496X0.53150*%
%ADD15R,0.27559X2.32283*%
%ADD16R,2.18504X0.13780*%
%ADD17R,0.35433X0.17717*%
%ADD18R,0.33465X0.23622*%
%ADD19R,0.29528X0.47244*%
%ADD20R,0.02500X0.08200*%
%ADD21R,0.03943X0.12998*%
%ADD22R,0.42920X0.32487*%
%ADD23R,0.06699X0.05518*%
%ADD24R,0.05518X0.06699*%
%ADD25R,0.03983X0.05203*%
%ADD26R,0.08668X0.06306*%
%ADD27R,0.02600X0.08200*%
%ADD28R,0.05203X0.03983*%
%ADD29R,0.06306X0.05518*%
%ADD30R,0.05518X0.06306*%
%ADD31R,0.02369X0.06306*%
%ADD32R,0.06306X0.02369*%
%ADD33OC8,0.06400*%
%ADD34C,0.06400*%
%ADD35R,0.08300X0.06300*%
%ADD36R,0.08300X0.15400*%
%ADD37R,0.06699X0.06306*%
%ADD38R,0.05124X0.05124*%
%ADD39R,0.10243X0.16148*%
%ADD40R,0.13000X0.06100*%
%ADD41C,0.23400*%
%ADD42R,0.07487X0.12998*%
%ADD43R,0.03235X0.07408*%
%ADD44R,0.06550X0.06550*%
%ADD45C,0.06550*%
%ADD46R,0.03400X0.11700*%
%ADD47R,0.06306X0.06306*%
%ADD48R,0.08274X0.08274*%
%ADD49R,0.14180X0.10243*%
%ADD50R,0.06699X0.14180*%
%ADD51C,0.06000*%
D10*
X0001800Y0001800D02*
X0001800Y0316761D01*
X0395501Y0316761D01*
X0395501Y0001800D01*
X0001800Y0001800D01*
X0137233Y0025422D02*
X0137235Y0025580D01*
X0137241Y0025738D01*
X0137251Y0025896D01*
X0137265Y0026054D01*
X0137283Y0026211D01*
X0137304Y0026368D01*
X0137330Y0026524D01*
X0137360Y0026680D01*
X0137393Y0026835D01*
X0137431Y0026988D01*
X0137472Y0027141D01*
X0137517Y0027293D01*
X0137566Y0027444D01*
X0137619Y0027593D01*
X0137675Y0027741D01*
X0137735Y0027887D01*
X0137799Y0028032D01*
X0137867Y0028175D01*
X0137938Y0028317D01*
X0138012Y0028457D01*
X0138090Y0028594D01*
X0138172Y0028730D01*
X0138256Y0028864D01*
X0138345Y0028995D01*
X0138436Y0029124D01*
X0138531Y0029251D01*
X0138628Y0029376D01*
X0138729Y0029498D01*
X0138833Y0029617D01*
X0138940Y0029734D01*
X0139050Y0029848D01*
X0139163Y0029959D01*
X0139278Y0030068D01*
X0139396Y0030173D01*
X0139517Y0030275D01*
X0139640Y0030375D01*
X0139766Y0030471D01*
X0139894Y0030564D01*
X0140024Y0030654D01*
X0140157Y0030740D01*
X0140292Y0030824D01*
X0140428Y0030903D01*
X0140567Y0030980D01*
X0140708Y0031052D01*
X0140850Y0031122D01*
X0140994Y0031187D01*
X0141140Y0031249D01*
X0141287Y0031307D01*
X0141436Y0031362D01*
X0141586Y0031413D01*
X0141737Y0031460D01*
X0141889Y0031503D01*
X0142042Y0031542D01*
X0142197Y0031578D01*
X0142352Y0031609D01*
X0142508Y0031637D01*
X0142664Y0031661D01*
X0142821Y0031681D01*
X0142979Y0031697D01*
X0143136Y0031709D01*
X0143295Y0031717D01*
X0143453Y0031721D01*
X0143611Y0031721D01*
X0143769Y0031717D01*
X0143928Y0031709D01*
X0144085Y0031697D01*
X0144243Y0031681D01*
X0144400Y0031661D01*
X0144556Y0031637D01*
X0144712Y0031609D01*
X0144867Y0031578D01*
X0145022Y0031542D01*
X0145175Y0031503D01*
X0145327Y0031460D01*
X0145478Y0031413D01*
X0145628Y0031362D01*
X0145777Y0031307D01*
X0145924Y0031249D01*
X0146070Y0031187D01*
X0146214Y0031122D01*
X0146356Y0031052D01*
X0146497Y0030980D01*
X0146636Y0030903D01*
X0146772Y0030824D01*
X0146907Y0030740D01*
X0147040Y0030654D01*
X0147170Y0030564D01*
X0147298Y0030471D01*
X0147424Y0030375D01*
X0147547Y0030275D01*
X0147668Y0030173D01*
X0147786Y0030068D01*
X0147901Y0029959D01*
X0148014Y0029848D01*
X0148124Y0029734D01*
X0148231Y0029617D01*
X0148335Y0029498D01*
X0148436Y0029376D01*
X0148533Y0029251D01*
X0148628Y0029124D01*
X0148719Y0028995D01*
X0148808Y0028864D01*
X0148892Y0028730D01*
X0148974Y0028594D01*
X0149052Y0028457D01*
X0149126Y0028317D01*
X0149197Y0028175D01*
X0149265Y0028032D01*
X0149329Y0027887D01*
X0149389Y0027741D01*
X0149445Y0027593D01*
X0149498Y0027444D01*
X0149547Y0027293D01*
X0149592Y0027141D01*
X0149633Y0026988D01*
X0149671Y0026835D01*
X0149704Y0026680D01*
X0149734Y0026524D01*
X0149760Y0026368D01*
X0149781Y0026211D01*
X0149799Y0026054D01*
X0149813Y0025896D01*
X0149823Y0025738D01*
X0149829Y0025580D01*
X0149831Y0025422D01*
X0149829Y0025264D01*
X0149823Y0025106D01*
X0149813Y0024948D01*
X0149799Y0024790D01*
X0149781Y0024633D01*
X0149760Y0024476D01*
X0149734Y0024320D01*
X0149704Y0024164D01*
X0149671Y0024009D01*
X0149633Y0023856D01*
X0149592Y0023703D01*
X0149547Y0023551D01*
X0149498Y0023400D01*
X0149445Y0023251D01*
X0149389Y0023103D01*
X0149329Y0022957D01*
X0149265Y0022812D01*
X0149197Y0022669D01*
X0149126Y0022527D01*
X0149052Y0022387D01*
X0148974Y0022250D01*
X0148892Y0022114D01*
X0148808Y0021980D01*
X0148719Y0021849D01*
X0148628Y0021720D01*
X0148533Y0021593D01*
X0148436Y0021468D01*
X0148335Y0021346D01*
X0148231Y0021227D01*
X0148124Y0021110D01*
X0148014Y0020996D01*
X0147901Y0020885D01*
X0147786Y0020776D01*
X0147668Y0020671D01*
X0147547Y0020569D01*
X0147424Y0020469D01*
X0147298Y0020373D01*
X0147170Y0020280D01*
X0147040Y0020190D01*
X0146907Y0020104D01*
X0146772Y0020020D01*
X0146636Y0019941D01*
X0146497Y0019864D01*
X0146356Y0019792D01*
X0146214Y0019722D01*
X0146070Y0019657D01*
X0145924Y0019595D01*
X0145777Y0019537D01*
X0145628Y0019482D01*
X0145478Y0019431D01*
X0145327Y0019384D01*
X0145175Y0019341D01*
X0145022Y0019302D01*
X0144867Y0019266D01*
X0144712Y0019235D01*
X0144556Y0019207D01*
X0144400Y0019183D01*
X0144243Y0019163D01*
X0144085Y0019147D01*
X0143928Y0019135D01*
X0143769Y0019127D01*
X0143611Y0019123D01*
X0143453Y0019123D01*
X0143295Y0019127D01*
X0143136Y0019135D01*
X0142979Y0019147D01*
X0142821Y0019163D01*
X0142664Y0019183D01*
X0142508Y0019207D01*
X0142352Y0019235D01*
X0142197Y0019266D01*
X0142042Y0019302D01*
X0141889Y0019341D01*
X0141737Y0019384D01*
X0141586Y0019431D01*
X0141436Y0019482D01*
X0141287Y0019537D01*
X0141140Y0019595D01*
X0140994Y0019657D01*
X0140850Y0019722D01*
X0140708Y0019792D01*
X0140567Y0019864D01*
X0140428Y0019941D01*
X0140292Y0020020D01*
X0140157Y0020104D01*
X0140024Y0020190D01*
X0139894Y0020280D01*
X0139766Y0020373D01*
X0139640Y0020469D01*
X0139517Y0020569D01*
X0139396Y0020671D01*
X0139278Y0020776D01*
X0139163Y0020885D01*
X0139050Y0020996D01*
X0138940Y0021110D01*
X0138833Y0021227D01*
X0138729Y0021346D01*
X0138628Y0021468D01*
X0138531Y0021593D01*
X0138436Y0021720D01*
X0138345Y0021849D01*
X0138256Y0021980D01*
X0138172Y0022114D01*
X0138090Y0022250D01*
X0138012Y0022387D01*
X0137938Y0022527D01*
X0137867Y0022669D01*
X0137799Y0022812D01*
X0137735Y0022957D01*
X0137675Y0023103D01*
X0137619Y0023251D01*
X0137566Y0023400D01*
X0137517Y0023551D01*
X0137472Y0023703D01*
X0137431Y0023856D01*
X0137393Y0024009D01*
X0137360Y0024164D01*
X0137330Y0024320D01*
X0137304Y0024476D01*
X0137283Y0024633D01*
X0137265Y0024790D01*
X0137251Y0024948D01*
X0137241Y0025106D01*
X0137235Y0025264D01*
X0137233Y0025422D01*
X0286840Y0025422D02*
X0286842Y0025580D01*
X0286848Y0025738D01*
X0286858Y0025896D01*
X0286872Y0026054D01*
X0286890Y0026211D01*
X0286911Y0026368D01*
X0286937Y0026524D01*
X0286967Y0026680D01*
X0287000Y0026835D01*
X0287038Y0026988D01*
X0287079Y0027141D01*
X0287124Y0027293D01*
X0287173Y0027444D01*
X0287226Y0027593D01*
X0287282Y0027741D01*
X0287342Y0027887D01*
X0287406Y0028032D01*
X0287474Y0028175D01*
X0287545Y0028317D01*
X0287619Y0028457D01*
X0287697Y0028594D01*
X0287779Y0028730D01*
X0287863Y0028864D01*
X0287952Y0028995D01*
X0288043Y0029124D01*
X0288138Y0029251D01*
X0288235Y0029376D01*
X0288336Y0029498D01*
X0288440Y0029617D01*
X0288547Y0029734D01*
X0288657Y0029848D01*
X0288770Y0029959D01*
X0288885Y0030068D01*
X0289003Y0030173D01*
X0289124Y0030275D01*
X0289247Y0030375D01*
X0289373Y0030471D01*
X0289501Y0030564D01*
X0289631Y0030654D01*
X0289764Y0030740D01*
X0289899Y0030824D01*
X0290035Y0030903D01*
X0290174Y0030980D01*
X0290315Y0031052D01*
X0290457Y0031122D01*
X0290601Y0031187D01*
X0290747Y0031249D01*
X0290894Y0031307D01*
X0291043Y0031362D01*
X0291193Y0031413D01*
X0291344Y0031460D01*
X0291496Y0031503D01*
X0291649Y0031542D01*
X0291804Y0031578D01*
X0291959Y0031609D01*
X0292115Y0031637D01*
X0292271Y0031661D01*
X0292428Y0031681D01*
X0292586Y0031697D01*
X0292743Y0031709D01*
X0292902Y0031717D01*
X0293060Y0031721D01*
X0293218Y0031721D01*
X0293376Y0031717D01*
X0293535Y0031709D01*
X0293692Y0031697D01*
X0293850Y0031681D01*
X0294007Y0031661D01*
X0294163Y0031637D01*
X0294319Y0031609D01*
X0294474Y0031578D01*
X0294629Y0031542D01*
X0294782Y0031503D01*
X0294934Y0031460D01*
X0295085Y0031413D01*
X0295235Y0031362D01*
X0295384Y0031307D01*
X0295531Y0031249D01*
X0295677Y0031187D01*
X0295821Y0031122D01*
X0295963Y0031052D01*
X0296104Y0030980D01*
X0296243Y0030903D01*
X0296379Y0030824D01*
X0296514Y0030740D01*
X0296647Y0030654D01*
X0296777Y0030564D01*
X0296905Y0030471D01*
X0297031Y0030375D01*
X0297154Y0030275D01*
X0297275Y0030173D01*
X0297393Y0030068D01*
X0297508Y0029959D01*
X0297621Y0029848D01*
X0297731Y0029734D01*
X0297838Y0029617D01*
X0297942Y0029498D01*
X0298043Y0029376D01*
X0298140Y0029251D01*
X0298235Y0029124D01*
X0298326Y0028995D01*
X0298415Y0028864D01*
X0298499Y0028730D01*
X0298581Y0028594D01*
X0298659Y0028457D01*
X0298733Y0028317D01*
X0298804Y0028175D01*
X0298872Y0028032D01*
X0298936Y0027887D01*
X0298996Y0027741D01*
X0299052Y0027593D01*
X0299105Y0027444D01*
X0299154Y0027293D01*
X0299199Y0027141D01*
X0299240Y0026988D01*
X0299278Y0026835D01*
X0299311Y0026680D01*
X0299341Y0026524D01*
X0299367Y0026368D01*
X0299388Y0026211D01*
X0299406Y0026054D01*
X0299420Y0025896D01*
X0299430Y0025738D01*
X0299436Y0025580D01*
X0299438Y0025422D01*
X0299436Y0025264D01*
X0299430Y0025106D01*
X0299420Y0024948D01*
X0299406Y0024790D01*
X0299388Y0024633D01*
X0299367Y0024476D01*
X0299341Y0024320D01*
X0299311Y0024164D01*
X0299278Y0024009D01*
X0299240Y0023856D01*
X0299199Y0023703D01*
X0299154Y0023551D01*
X0299105Y0023400D01*
X0299052Y0023251D01*
X0298996Y0023103D01*
X0298936Y0022957D01*
X0298872Y0022812D01*
X0298804Y0022669D01*
X0298733Y0022527D01*
X0298659Y0022387D01*
X0298581Y0022250D01*
X0298499Y0022114D01*
X0298415Y0021980D01*
X0298326Y0021849D01*
X0298235Y0021720D01*
X0298140Y0021593D01*
X0298043Y0021468D01*
X0297942Y0021346D01*
X0297838Y0021227D01*
X0297731Y0021110D01*
X0297621Y0020996D01*
X0297508Y0020885D01*
X0297393Y0020776D01*
X0297275Y0020671D01*
X0297154Y0020569D01*
X0297031Y0020469D01*
X0296905Y0020373D01*
X0296777Y0020280D01*
X0296647Y0020190D01*
X0296514Y0020104D01*
X0296379Y0020020D01*
X0296243Y0019941D01*
X0296104Y0019864D01*
X0295963Y0019792D01*
X0295821Y0019722D01*
X0295677Y0019657D01*
X0295531Y0019595D01*
X0295384Y0019537D01*
X0295235Y0019482D01*
X0295085Y0019431D01*
X0294934Y0019384D01*
X0294782Y0019341D01*
X0294629Y0019302D01*
X0294474Y0019266D01*
X0294319Y0019235D01*
X0294163Y0019207D01*
X0294007Y0019183D01*
X0293850Y0019163D01*
X0293692Y0019147D01*
X0293535Y0019135D01*
X0293376Y0019127D01*
X0293218Y0019123D01*
X0293060Y0019123D01*
X0292902Y0019127D01*
X0292743Y0019135D01*
X0292586Y0019147D01*
X0292428Y0019163D01*
X0292271Y0019183D01*
X0292115Y0019207D01*
X0291959Y0019235D01*
X0291804Y0019266D01*
X0291649Y0019302D01*
X0291496Y0019341D01*
X0291344Y0019384D01*
X0291193Y0019431D01*
X0291043Y0019482D01*
X0290894Y0019537D01*
X0290747Y0019595D01*
X0290601Y0019657D01*
X0290457Y0019722D01*
X0290315Y0019792D01*
X0290174Y0019864D01*
X0290035Y0019941D01*
X0289899Y0020020D01*
X0289764Y0020104D01*
X0289631Y0020190D01*
X0289501Y0020280D01*
X0289373Y0020373D01*
X0289247Y0020469D01*
X0289124Y0020569D01*
X0289003Y0020671D01*
X0288885Y0020776D01*
X0288770Y0020885D01*
X0288657Y0020996D01*
X0288547Y0021110D01*
X0288440Y0021227D01*
X0288336Y0021346D01*
X0288235Y0021468D01*
X0288138Y0021593D01*
X0288043Y0021720D01*
X0287952Y0021849D01*
X0287863Y0021980D01*
X0287779Y0022114D01*
X0287697Y0022250D01*
X0287619Y0022387D01*
X0287545Y0022527D01*
X0287474Y0022669D01*
X0287406Y0022812D01*
X0287342Y0022957D01*
X0287282Y0023103D01*
X0287226Y0023251D01*
X0287173Y0023400D01*
X0287124Y0023551D01*
X0287079Y0023703D01*
X0287038Y0023856D01*
X0287000Y0024009D01*
X0286967Y0024164D01*
X0286937Y0024320D01*
X0286911Y0024476D01*
X0286890Y0024633D01*
X0286872Y0024790D01*
X0286858Y0024948D01*
X0286848Y0025106D01*
X0286842Y0025264D01*
X0286840Y0025422D01*
X0214004Y0167154D02*
X0214006Y0167285D01*
X0214012Y0167417D01*
X0214022Y0167548D01*
X0214036Y0167679D01*
X0214054Y0167809D01*
X0214076Y0167938D01*
X0214101Y0168067D01*
X0214131Y0168195D01*
X0214165Y0168322D01*
X0214202Y0168449D01*
X0214243Y0168573D01*
X0214288Y0168697D01*
X0214337Y0168819D01*
X0214389Y0168940D01*
X0214445Y0169058D01*
X0214505Y0169176D01*
X0214568Y0169291D01*
X0214635Y0169404D01*
X0214705Y0169516D01*
X0214778Y0169625D01*
X0214854Y0169731D01*
X0214934Y0169836D01*
X0215017Y0169938D01*
X0215103Y0170037D01*
X0215192Y0170134D01*
X0215284Y0170228D01*
X0215379Y0170319D01*
X0215476Y0170408D01*
X0215576Y0170493D01*
X0215679Y0170575D01*
X0215784Y0170654D01*
X0215891Y0170730D01*
X0216001Y0170802D01*
X0216113Y0170871D01*
X0216227Y0170937D01*
X0216342Y0170999D01*
X0216460Y0171058D01*
X0216579Y0171113D01*
X0216700Y0171165D01*
X0216823Y0171212D01*
X0216947Y0171256D01*
X0217072Y0171297D01*
X0217198Y0171333D01*
X0217326Y0171366D01*
X0217454Y0171394D01*
X0217583Y0171419D01*
X0217713Y0171440D01*
X0217843Y0171457D01*
X0217974Y0171470D01*
X0218105Y0171479D01*
X0218236Y0171484D01*
X0218368Y0171485D01*
X0218499Y0171482D01*
X0218631Y0171475D01*
X0218762Y0171464D01*
X0218892Y0171449D01*
X0219022Y0171430D01*
X0219152Y0171407D01*
X0219280Y0171381D01*
X0219408Y0171350D01*
X0219535Y0171315D01*
X0219661Y0171277D01*
X0219785Y0171235D01*
X0219909Y0171189D01*
X0220030Y0171139D01*
X0220150Y0171086D01*
X0220269Y0171029D01*
X0220386Y0170969D01*
X0220500Y0170905D01*
X0220613Y0170837D01*
X0220724Y0170766D01*
X0220833Y0170692D01*
X0220939Y0170615D01*
X0221043Y0170534D01*
X0221144Y0170451D01*
X0221243Y0170364D01*
X0221339Y0170274D01*
X0221432Y0170181D01*
X0221523Y0170086D01*
X0221610Y0169988D01*
X0221695Y0169887D01*
X0221776Y0169784D01*
X0221854Y0169678D01*
X0221929Y0169570D01*
X0222001Y0169460D01*
X0222069Y0169348D01*
X0222134Y0169234D01*
X0222195Y0169117D01*
X0222253Y0168999D01*
X0222307Y0168879D01*
X0222358Y0168758D01*
X0222405Y0168635D01*
X0222448Y0168511D01*
X0222487Y0168386D01*
X0222523Y0168259D01*
X0222554Y0168131D01*
X0222582Y0168003D01*
X0222606Y0167874D01*
X0222626Y0167744D01*
X0222642Y0167613D01*
X0222654Y0167482D01*
X0222662Y0167351D01*
X0222666Y0167220D01*
X0222666Y0167088D01*
X0222662Y0166957D01*
X0222654Y0166826D01*
X0222642Y0166695D01*
X0222626Y0166564D01*
X0222606Y0166434D01*
X0222582Y0166305D01*
X0222554Y0166177D01*
X0222523Y0166049D01*
X0222487Y0165922D01*
X0222448Y0165797D01*
X0222405Y0165673D01*
X0222358Y0165550D01*
X0222307Y0165429D01*
X0222253Y0165309D01*
X0222195Y0165191D01*
X0222134Y0165074D01*
X0222069Y0164960D01*
X0222001Y0164848D01*
X0221929Y0164738D01*
X0221854Y0164630D01*
X0221776Y0164524D01*
X0221695Y0164421D01*
X0221610Y0164320D01*
X0221523Y0164222D01*
X0221432Y0164127D01*
X0221339Y0164034D01*
X0221243Y0163944D01*
X0221144Y0163857D01*
X0221043Y0163774D01*
X0220939Y0163693D01*
X0220833Y0163616D01*
X0220724Y0163542D01*
X0220613Y0163471D01*
X0220501Y0163403D01*
X0220386Y0163339D01*
X0220269Y0163279D01*
X0220150Y0163222D01*
X0220030Y0163169D01*
X0219909Y0163119D01*
X0219785Y0163073D01*
X0219661Y0163031D01*
X0219535Y0162993D01*
X0219408Y0162958D01*
X0219280Y0162927D01*
X0219152Y0162901D01*
X0219022Y0162878D01*
X0218892Y0162859D01*
X0218762Y0162844D01*
X0218631Y0162833D01*
X0218499Y0162826D01*
X0218368Y0162823D01*
X0218236Y0162824D01*
X0218105Y0162829D01*
X0217974Y0162838D01*
X0217843Y0162851D01*
X0217713Y0162868D01*
X0217583Y0162889D01*
X0217454Y0162914D01*
X0217326Y0162942D01*
X0217198Y0162975D01*
X0217072Y0163011D01*
X0216947Y0163052D01*
X0216823Y0163096D01*
X0216700Y0163143D01*
X0216579Y0163195D01*
X0216460Y0163250D01*
X0216342Y0163309D01*
X0216227Y0163371D01*
X0216113Y0163437D01*
X0216001Y0163506D01*
X0215891Y0163578D01*
X0215784Y0163654D01*
X0215679Y0163733D01*
X0215576Y0163815D01*
X0215476Y0163900D01*
X0215379Y0163989D01*
X0215284Y0164080D01*
X0215192Y0164174D01*
X0215103Y0164271D01*
X0215017Y0164370D01*
X0214934Y0164472D01*
X0214854Y0164577D01*
X0214778Y0164683D01*
X0214705Y0164792D01*
X0214635Y0164904D01*
X0214568Y0165017D01*
X0214505Y0165132D01*
X0214445Y0165250D01*
X0214389Y0165368D01*
X0214337Y0165489D01*
X0214288Y0165611D01*
X0214243Y0165735D01*
X0214202Y0165859D01*
X0214165Y0165986D01*
X0214131Y0166113D01*
X0214101Y0166241D01*
X0214076Y0166370D01*
X0214054Y0166499D01*
X0214036Y0166629D01*
X0214022Y0166760D01*
X0214012Y0166891D01*
X0214006Y0167023D01*
X0214004Y0167154D01*
X0137233Y0293139D02*
X0137235Y0293297D01*
X0137241Y0293455D01*
X0137251Y0293613D01*
X0137265Y0293771D01*
X0137283Y0293928D01*
X0137304Y0294085D01*
X0137330Y0294241D01*
X0137360Y0294397D01*
X0137393Y0294552D01*
X0137431Y0294705D01*
X0137472Y0294858D01*
X0137517Y0295010D01*
X0137566Y0295161D01*
X0137619Y0295310D01*
X0137675Y0295458D01*
X0137735Y0295604D01*
X0137799Y0295749D01*
X0137867Y0295892D01*
X0137938Y0296034D01*
X0138012Y0296174D01*
X0138090Y0296311D01*
X0138172Y0296447D01*
X0138256Y0296581D01*
X0138345Y0296712D01*
X0138436Y0296841D01*
X0138531Y0296968D01*
X0138628Y0297093D01*
X0138729Y0297215D01*
X0138833Y0297334D01*
X0138940Y0297451D01*
X0139050Y0297565D01*
X0139163Y0297676D01*
X0139278Y0297785D01*
X0139396Y0297890D01*
X0139517Y0297992D01*
X0139640Y0298092D01*
X0139766Y0298188D01*
X0139894Y0298281D01*
X0140024Y0298371D01*
X0140157Y0298457D01*
X0140292Y0298541D01*
X0140428Y0298620D01*
X0140567Y0298697D01*
X0140708Y0298769D01*
X0140850Y0298839D01*
X0140994Y0298904D01*
X0141140Y0298966D01*
X0141287Y0299024D01*
X0141436Y0299079D01*
X0141586Y0299130D01*
X0141737Y0299177D01*
X0141889Y0299220D01*
X0142042Y0299259D01*
X0142197Y0299295D01*
X0142352Y0299326D01*
X0142508Y0299354D01*
X0142664Y0299378D01*
X0142821Y0299398D01*
X0142979Y0299414D01*
X0143136Y0299426D01*
X0143295Y0299434D01*
X0143453Y0299438D01*
X0143611Y0299438D01*
X0143769Y0299434D01*
X0143928Y0299426D01*
X0144085Y0299414D01*
X0144243Y0299398D01*
X0144400Y0299378D01*
X0144556Y0299354D01*
X0144712Y0299326D01*
X0144867Y0299295D01*
X0145022Y0299259D01*
X0145175Y0299220D01*
X0145327Y0299177D01*
X0145478Y0299130D01*
X0145628Y0299079D01*
X0145777Y0299024D01*
X0145924Y0298966D01*
X0146070Y0298904D01*
X0146214Y0298839D01*
X0146356Y0298769D01*
X0146497Y0298697D01*
X0146636Y0298620D01*
X0146772Y0298541D01*
X0146907Y0298457D01*
X0147040Y0298371D01*
X0147170Y0298281D01*
X0147298Y0298188D01*
X0147424Y0298092D01*
X0147547Y0297992D01*
X0147668Y0297890D01*
X0147786Y0297785D01*
X0147901Y0297676D01*
X0148014Y0297565D01*
X0148124Y0297451D01*
X0148231Y0297334D01*
X0148335Y0297215D01*
X0148436Y0297093D01*
X0148533Y0296968D01*
X0148628Y0296841D01*
X0148719Y0296712D01*
X0148808Y0296581D01*
X0148892Y0296447D01*
X0148974Y0296311D01*
X0149052Y0296174D01*
X0149126Y0296034D01*
X0149197Y0295892D01*
X0149265Y0295749D01*
X0149329Y0295604D01*
X0149389Y0295458D01*
X0149445Y0295310D01*
X0149498Y0295161D01*
X0149547Y0295010D01*
X0149592Y0294858D01*
X0149633Y0294705D01*
X0149671Y0294552D01*
X0149704Y0294397D01*
X0149734Y0294241D01*
X0149760Y0294085D01*
X0149781Y0293928D01*
X0149799Y0293771D01*
X0149813Y0293613D01*
X0149823Y0293455D01*
X0149829Y0293297D01*
X0149831Y0293139D01*
X0149829Y0292981D01*
X0149823Y0292823D01*
X0149813Y0292665D01*
X0149799Y0292507D01*
X0149781Y0292350D01*
X0149760Y0292193D01*
X0149734Y0292037D01*
X0149704Y0291881D01*
X0149671Y0291726D01*
X0149633Y0291573D01*
X0149592Y0291420D01*
X0149547Y0291268D01*
X0149498Y0291117D01*
X0149445Y0290968D01*
X0149389Y0290820D01*
X0149329Y0290674D01*
X0149265Y0290529D01*
X0149197Y0290386D01*
X0149126Y0290244D01*
X0149052Y0290104D01*
X0148974Y0289967D01*
X0148892Y0289831D01*
X0148808Y0289697D01*
X0148719Y0289566D01*
X0148628Y0289437D01*
X0148533Y0289310D01*
X0148436Y0289185D01*
X0148335Y0289063D01*
X0148231Y0288944D01*
X0148124Y0288827D01*
X0148014Y0288713D01*
X0147901Y0288602D01*
X0147786Y0288493D01*
X0147668Y0288388D01*
X0147547Y0288286D01*
X0147424Y0288186D01*
X0147298Y0288090D01*
X0147170Y0287997D01*
X0147040Y0287907D01*
X0146907Y0287821D01*
X0146772Y0287737D01*
X0146636Y0287658D01*
X0146497Y0287581D01*
X0146356Y0287509D01*
X0146214Y0287439D01*
X0146070Y0287374D01*
X0145924Y0287312D01*
X0145777Y0287254D01*
X0145628Y0287199D01*
X0145478Y0287148D01*
X0145327Y0287101D01*
X0145175Y0287058D01*
X0145022Y0287019D01*
X0144867Y0286983D01*
X0144712Y0286952D01*
X0144556Y0286924D01*
X0144400Y0286900D01*
X0144243Y0286880D01*
X0144085Y0286864D01*
X0143928Y0286852D01*
X0143769Y0286844D01*
X0143611Y0286840D01*
X0143453Y0286840D01*
X0143295Y0286844D01*
X0143136Y0286852D01*
X0142979Y0286864D01*
X0142821Y0286880D01*
X0142664Y0286900D01*
X0142508Y0286924D01*
X0142352Y0286952D01*
X0142197Y0286983D01*
X0142042Y0287019D01*
X0141889Y0287058D01*
X0141737Y0287101D01*
X0141586Y0287148D01*
X0141436Y0287199D01*
X0141287Y0287254D01*
X0141140Y0287312D01*
X0140994Y0287374D01*
X0140850Y0287439D01*
X0140708Y0287509D01*
X0140567Y0287581D01*
X0140428Y0287658D01*
X0140292Y0287737D01*
X0140157Y0287821D01*
X0140024Y0287907D01*
X0139894Y0287997D01*
X0139766Y0288090D01*
X0139640Y0288186D01*
X0139517Y0288286D01*
X0139396Y0288388D01*
X0139278Y0288493D01*
X0139163Y0288602D01*
X0139050Y0288713D01*
X0138940Y0288827D01*
X0138833Y0288944D01*
X0138729Y0289063D01*
X0138628Y0289185D01*
X0138531Y0289310D01*
X0138436Y0289437D01*
X0138345Y0289566D01*
X0138256Y0289697D01*
X0138172Y0289831D01*
X0138090Y0289967D01*
X0138012Y0290104D01*
X0137938Y0290244D01*
X0137867Y0290386D01*
X0137799Y0290529D01*
X0137735Y0290674D01*
X0137675Y0290820D01*
X0137619Y0290968D01*
X0137566Y0291117D01*
X0137517Y0291268D01*
X0137472Y0291420D01*
X0137431Y0291573D01*
X0137393Y0291726D01*
X0137360Y0291881D01*
X0137330Y0292037D01*
X0137304Y0292193D01*
X0137283Y0292350D01*
X0137265Y0292507D01*
X0137251Y0292665D01*
X0137241Y0292823D01*
X0137235Y0292981D01*
X0137233Y0293139D01*
X0286840Y0293139D02*
X0286842Y0293297D01*
X0286848Y0293455D01*
X0286858Y0293613D01*
X0286872Y0293771D01*
X0286890Y0293928D01*
X0286911Y0294085D01*
X0286937Y0294241D01*
X0286967Y0294397D01*
X0287000Y0294552D01*
X0287038Y0294705D01*
X0287079Y0294858D01*
X0287124Y0295010D01*
X0287173Y0295161D01*
X0287226Y0295310D01*
X0287282Y0295458D01*
X0287342Y0295604D01*
X0287406Y0295749D01*
X0287474Y0295892D01*
X0287545Y0296034D01*
X0287619Y0296174D01*
X0287697Y0296311D01*
X0287779Y0296447D01*
X0287863Y0296581D01*
X0287952Y0296712D01*
X0288043Y0296841D01*
X0288138Y0296968D01*
X0288235Y0297093D01*
X0288336Y0297215D01*
X0288440Y0297334D01*
X0288547Y0297451D01*
X0288657Y0297565D01*
X0288770Y0297676D01*
X0288885Y0297785D01*
X0289003Y0297890D01*
X0289124Y0297992D01*
X0289247Y0298092D01*
X0289373Y0298188D01*
X0289501Y0298281D01*
X0289631Y0298371D01*
X0289764Y0298457D01*
X0289899Y0298541D01*
X0290035Y0298620D01*
X0290174Y0298697D01*
X0290315Y0298769D01*
X0290457Y0298839D01*
X0290601Y0298904D01*
X0290747Y0298966D01*
X0290894Y0299024D01*
X0291043Y0299079D01*
X0291193Y0299130D01*
X0291344Y0299177D01*
X0291496Y0299220D01*
X0291649Y0299259D01*
X0291804Y0299295D01*
X0291959Y0299326D01*
X0292115Y0299354D01*
X0292271Y0299378D01*
X0292428Y0299398D01*
X0292586Y0299414D01*
X0292743Y0299426D01*
X0292902Y0299434D01*
X0293060Y0299438D01*
X0293218Y0299438D01*
X0293376Y0299434D01*
X0293535Y0299426D01*
X0293692Y0299414D01*
X0293850Y0299398D01*
X0294007Y0299378D01*
X0294163Y0299354D01*
X0294319Y0299326D01*
X0294474Y0299295D01*
X0294629Y0299259D01*
X0294782Y0299220D01*
X0294934Y0299177D01*
X0295085Y0299130D01*
X0295235Y0299079D01*
X0295384Y0299024D01*
X0295531Y0298966D01*
X0295677Y0298904D01*
X0295821Y0298839D01*
X0295963Y0298769D01*
X0296104Y0298697D01*
X0296243Y0298620D01*
X0296379Y0298541D01*
X0296514Y0298457D01*
X0296647Y0298371D01*
X0296777Y0298281D01*
X0296905Y0298188D01*
X0297031Y0298092D01*
X0297154Y0297992D01*
X0297275Y0297890D01*
X0297393Y0297785D01*
X0297508Y0297676D01*
X0297621Y0297565D01*
X0297731Y0297451D01*
X0297838Y0297334D01*
X0297942Y0297215D01*
X0298043Y0297093D01*
X0298140Y0296968D01*
X0298235Y0296841D01*
X0298326Y0296712D01*
X0298415Y0296581D01*
X0298499Y0296447D01*
X0298581Y0296311D01*
X0298659Y0296174D01*
X0298733Y0296034D01*
X0298804Y0295892D01*
X0298872Y0295749D01*
X0298936Y0295604D01*
X0298996Y0295458D01*
X0299052Y0295310D01*
X0299105Y0295161D01*
X0299154Y0295010D01*
X0299199Y0294858D01*
X0299240Y0294705D01*
X0299278Y0294552D01*
X0299311Y0294397D01*
X0299341Y0294241D01*
X0299367Y0294085D01*
X0299388Y0293928D01*
X0299406Y0293771D01*
X0299420Y0293613D01*
X0299430Y0293455D01*
X0299436Y0293297D01*
X0299438Y0293139D01*
X0299436Y0292981D01*
X0299430Y0292823D01*
X0299420Y0292665D01*
X0299406Y0292507D01*
X0299388Y0292350D01*
X0299367Y0292193D01*
X0299341Y0292037D01*
X0299311Y0291881D01*
X0299278Y0291726D01*
X0299240Y0291573D01*
X0299199Y0291420D01*
X0299154Y0291268D01*
X0299105Y0291117D01*
X0299052Y0290968D01*
X0298996Y0290820D01*
X0298936Y0290674D01*
X0298872Y0290529D01*
X0298804Y0290386D01*
X0298733Y0290244D01*
X0298659Y0290104D01*
X0298581Y0289967D01*
X0298499Y0289831D01*
X0298415Y0289697D01*
X0298326Y0289566D01*
X0298235Y0289437D01*
X0298140Y0289310D01*
X0298043Y0289185D01*
X0297942Y0289063D01*
X0297838Y0288944D01*
X0297731Y0288827D01*
X0297621Y0288713D01*
X0297508Y0288602D01*
X0297393Y0288493D01*
X0297275Y0288388D01*
X0297154Y0288286D01*
X0297031Y0288186D01*
X0296905Y0288090D01*
X0296777Y0287997D01*
X0296647Y0287907D01*
X0296514Y0287821D01*
X0296379Y0287737D01*
X0296243Y0287658D01*
X0296104Y0287581D01*
X0295963Y0287509D01*
X0295821Y0287439D01*
X0295677Y0287374D01*
X0295531Y0287312D01*
X0295384Y0287254D01*
X0295235Y0287199D01*
X0295085Y0287148D01*
X0294934Y0287101D01*
X0294782Y0287058D01*
X0294629Y0287019D01*
X0294474Y0286983D01*
X0294319Y0286952D01*
X0294163Y0286924D01*
X0294007Y0286900D01*
X0293850Y0286880D01*
X0293692Y0286864D01*
X0293535Y0286852D01*
X0293376Y0286844D01*
X0293218Y0286840D01*
X0293060Y0286840D01*
X0292902Y0286844D01*
X0292743Y0286852D01*
X0292586Y0286864D01*
X0292428Y0286880D01*
X0292271Y0286900D01*
X0292115Y0286924D01*
X0291959Y0286952D01*
X0291804Y0286983D01*
X0291649Y0287019D01*
X0291496Y0287058D01*
X0291344Y0287101D01*
X0291193Y0287148D01*
X0291043Y0287199D01*
X0290894Y0287254D01*
X0290747Y0287312D01*
X0290601Y0287374D01*
X0290457Y0287439D01*
X0290315Y0287509D01*
X0290174Y0287581D01*
X0290035Y0287658D01*
X0289899Y0287737D01*
X0289764Y0287821D01*
X0289631Y0287907D01*
X0289501Y0287997D01*
X0289373Y0288090D01*
X0289247Y0288186D01*
X0289124Y0288286D01*
X0289003Y0288388D01*
X0288885Y0288493D01*
X0288770Y0288602D01*
X0288657Y0288713D01*
X0288547Y0288827D01*
X0288440Y0288944D01*
X0288336Y0289063D01*
X0288235Y0289185D01*
X0288138Y0289310D01*
X0288043Y0289437D01*
X0287952Y0289566D01*
X0287863Y0289697D01*
X0287779Y0289831D01*
X0287697Y0289967D01*
X0287619Y0290104D01*
X0287545Y0290244D01*
X0287474Y0290386D01*
X0287406Y0290529D01*
X0287342Y0290674D01*
X0287282Y0290820D01*
X0287226Y0290968D01*
X0287173Y0291117D01*
X0287124Y0291268D01*
X0287079Y0291420D01*
X0287038Y0291573D01*
X0287000Y0291726D01*
X0286967Y0291881D01*
X0286937Y0292037D01*
X0286911Y0292193D01*
X0286890Y0292350D01*
X0286872Y0292507D01*
X0286858Y0292665D01*
X0286848Y0292823D01*
X0286842Y0292981D01*
X0286840Y0293139D01*
D11*
X0293139Y0293139D03*
X0143532Y0293139D03*
X0143532Y0025422D03*
X0293139Y0025422D03*
D12*
X0218335Y0167154D03*
D13*
X0235068Y0244910D03*
D14*
X0332509Y0266564D03*
D15*
X0369910Y0176997D03*
D16*
X0235068Y0077587D03*
D17*
X0326603Y0087430D03*
D18*
X0298060Y0163217D03*
X0250816Y0163217D03*
X0195698Y0163217D03*
X0148454Y0163217D03*
D19*
X0170107Y0143532D03*
X0272469Y0143532D03*
D20*
X0062568Y0203891D03*
X0057568Y0203891D03*
X0052568Y0203891D03*
X0047568Y0203891D03*
X0042568Y0203891D03*
X0037568Y0203891D03*
X0032568Y0203891D03*
X0027568Y0203891D03*
X0022568Y0203891D03*
X0017568Y0203891D03*
X0017568Y0240891D03*
X0022568Y0240891D03*
X0027568Y0240891D03*
X0032568Y0240891D03*
X0037568Y0240891D03*
X0042568Y0240891D03*
X0047568Y0240891D03*
X0052568Y0240891D03*
X0057568Y0240891D03*
X0062568Y0240891D03*
D21*
X0128532Y0180698D03*
X0133532Y0180698D03*
X0138532Y0180698D03*
X0148532Y0180698D03*
X0153532Y0180698D03*
X0158532Y0180698D03*
X0175776Y0180698D03*
X0180776Y0180698D03*
X0185776Y0180698D03*
X0195776Y0180698D03*
X0200776Y0180698D03*
X0205776Y0180698D03*
X0230894Y0180698D03*
X0235894Y0180698D03*
X0240894Y0180698D03*
X0250894Y0180698D03*
X0255894Y0180698D03*
X0260894Y0180698D03*
X0278139Y0180698D03*
X0283139Y0180698D03*
X0288139Y0180698D03*
X0298139Y0180698D03*
X0303139Y0180698D03*
X0308139Y0180698D03*
X0308139Y0094083D03*
X0303139Y0094083D03*
X0298139Y0094083D03*
X0288139Y0094083D03*
X0283139Y0094083D03*
X0278139Y0094083D03*
X0260894Y0094083D03*
X0255894Y0094083D03*
X0250894Y0094083D03*
X0240894Y0094083D03*
X0235894Y0094083D03*
X0230894Y0094083D03*
X0205776Y0094083D03*
X0200776Y0094083D03*
X0195776Y0094083D03*
X0185776Y0094083D03*
X0180776Y0094083D03*
X0175776Y0094083D03*
X0158532Y0094083D03*
X0153532Y0094083D03*
X0148532Y0094083D03*
X0138532Y0094083D03*
X0133532Y0094083D03*
X0128532Y0094083D03*
D22*
X0143532Y0136052D03*
X0190776Y0136052D03*
X0245894Y0136052D03*
X0293139Y0136052D03*
X0293139Y0222666D03*
X0245894Y0222666D03*
X0190776Y0222666D03*
X0143532Y0222666D03*
D23*
X0119910Y0190580D03*
X0119910Y0183099D03*
X0167154Y0183099D03*
X0167154Y0190580D03*
X0224241Y0190580D03*
X0224241Y0183099D03*
X0269517Y0183099D03*
X0269517Y0190580D03*
X0330146Y0113808D03*
X0330146Y0106328D03*
X0269517Y0103965D03*
X0269517Y0096485D03*
X0224241Y0096485D03*
X0224241Y0103965D03*
X0167154Y0103965D03*
X0167154Y0096485D03*
X0121879Y0096485D03*
X0121879Y0103965D03*
X0096288Y0250028D03*
X0096288Y0257509D03*
D24*
X0106328Y0249044D03*
X0113808Y0249044D03*
X0044910Y0295107D03*
X0037430Y0295107D03*
X0069891Y0194241D03*
X0077371Y0194241D03*
X0069497Y0186209D03*
X0062017Y0186209D03*
X0064989Y0176997D03*
X0072469Y0176997D03*
X0082706Y0171091D03*
X0090186Y0171091D03*
X0088414Y0161249D03*
X0096288Y0161249D03*
X0094320Y0127784D03*
X0086446Y0127784D03*
X0042942Y0108493D03*
X0035461Y0108493D03*
X0074831Y0076603D03*
X0082312Y0076603D03*
X0038089Y0062843D03*
X0030609Y0062843D03*
X0026889Y0177971D03*
X0034369Y0177971D03*
D25*
X0032804Y0281328D03*
X0045599Y0281328D03*
X0052489Y0281328D03*
X0065284Y0281328D03*
X0064300Y0043139D03*
X0077095Y0043139D03*
D26*
X0214398Y0091170D03*
X0214398Y0105343D03*
X0214398Y0177784D03*
X0214398Y0191957D03*
X0316761Y0191957D03*
X0316761Y0177784D03*
X0320698Y0109280D03*
X0320698Y0095107D03*
D27*
X0080166Y0033154D03*
X0075166Y0033154D03*
X0070166Y0033154D03*
X0065166Y0033154D03*
X0065166Y0013754D03*
X0070166Y0013754D03*
X0075166Y0013754D03*
X0080166Y0013754D03*
D28*
X0112331Y0054654D03*
X0112331Y0067450D03*
X0082223Y0087883D03*
X0082223Y0100678D03*
D29*
X0076456Y0066652D03*
X0076456Y0059172D03*
D30*
X0042942Y0100225D03*
X0035461Y0100225D03*
X0082706Y0184871D03*
X0090186Y0184871D03*
X0052784Y0271485D03*
X0045304Y0271485D03*
X0336643Y0033296D03*
X0344123Y0033296D03*
X0360265Y0033296D03*
X0367745Y0033296D03*
D31*
X0066761Y0122666D03*
X0063611Y0122666D03*
X0060461Y0122666D03*
X0057312Y0122666D03*
X0054162Y0122666D03*
X0051013Y0122666D03*
X0047863Y0122666D03*
X0044713Y0122666D03*
X0041564Y0122666D03*
X0038414Y0122666D03*
X0035265Y0122666D03*
X0035265Y0168335D03*
X0038414Y0168335D03*
X0041564Y0168335D03*
X0044713Y0168335D03*
X0047863Y0168335D03*
X0051013Y0168335D03*
X0054162Y0168335D03*
X0057312Y0168335D03*
X0060461Y0168335D03*
X0063611Y0168335D03*
X0066761Y0168335D03*
D32*
X0073847Y0161249D03*
X0073847Y0158099D03*
X0073847Y0154950D03*
X0073847Y0151800D03*
X0073847Y0148650D03*
X0073847Y0145501D03*
X0073847Y0142351D03*
X0073847Y0139202D03*
X0073847Y0136052D03*
X0073847Y0132902D03*
X0073847Y0129753D03*
X0028178Y0129753D03*
X0028178Y0132902D03*
X0028178Y0136052D03*
X0028178Y0139202D03*
X0028178Y0142351D03*
X0028178Y0145501D03*
X0028178Y0148650D03*
X0028178Y0151800D03*
X0028178Y0154950D03*
X0028178Y0158099D03*
X0028178Y0161249D03*
D33*
X0061761Y0108257D03*
X0071761Y0108257D03*
X0071761Y0098257D03*
X0061761Y0098257D03*
X0061761Y0088257D03*
X0071761Y0088257D03*
D34*
X0016611Y0127627D02*
X0010611Y0127627D01*
X0010611Y0137627D02*
X0016611Y0137627D01*
X0016611Y0147627D02*
X0010611Y0147627D01*
X0010454Y0160658D02*
X0016454Y0160658D01*
X0016454Y0170658D02*
X0010454Y0170658D01*
X0010454Y0180658D02*
X0016454Y0180658D01*
D35*
X0012933Y0090552D03*
X0012933Y0081552D03*
X0012933Y0072552D03*
D36*
X0037733Y0081652D03*
D37*
X0025422Y0108099D03*
D38*
X0012331Y0104162D03*
X0012331Y0112036D03*
D39*
G36*
X0060421Y0048285D02*
X0053179Y0041043D01*
X0041761Y0052461D01*
X0049003Y0059703D01*
X0060421Y0048285D01*
G37*
G36*
X0025776Y0013639D02*
X0018534Y0006397D01*
X0007116Y0017815D01*
X0014358Y0025057D01*
X0025776Y0013639D01*
G37*
D40*
X0062971Y0062013D03*
X0062971Y0070013D03*
D41*
X0186839Y0293139D03*
X0249831Y0293139D03*
X0330540Y0293139D03*
X0373847Y0293139D03*
D42*
X0361249Y0096288D03*
X0339202Y0096288D03*
X0339202Y0078572D03*
X0361249Y0078572D03*
D43*
X0357725Y0064202D03*
X0352725Y0064202D03*
X0347725Y0064202D03*
X0342725Y0064202D03*
X0342725Y0045698D03*
X0347725Y0045698D03*
X0352725Y0045698D03*
X0357725Y0045698D03*
D44*
X0342379Y0151406D03*
X0342379Y0226997D03*
D45*
X0371879Y0226997D03*
X0371879Y0151406D03*
D46*
X0072666Y0253843D03*
X0072666Y0269443D03*
X0019517Y0261717D03*
X0019517Y0277317D03*
D47*
X0026406Y0295107D03*
X0012627Y0295107D03*
X0008690Y0062824D03*
X0022469Y0062824D03*
D48*
X0094320Y0136446D03*
X0094320Y0150619D03*
D49*
X0177981Y0023454D03*
X0203572Y0023454D03*
D50*
X0100225Y0014792D03*
X0100225Y0036052D03*
D51*
X0084477Y0043139D03*
X0096288Y0056918D03*
X0104162Y0056918D03*
X0119910Y0049044D03*
X0125816Y0043139D03*
X0114005Y0076603D03*
X0102194Y0090383D03*
X0106131Y0100225D03*
X0104162Y0108099D03*
X0106131Y0115973D03*
X0090383Y0119910D03*
X0062824Y0129753D03*
X0049044Y0135658D03*
X0041170Y0135658D03*
X0035265Y0141564D03*
X0058887Y0141564D03*
X0058887Y0157312D03*
X0066761Y0157312D03*
X0080540Y0152587D03*
X0082509Y0159280D03*
X0088414Y0176997D03*
X0086446Y0192745D03*
X0092351Y0198650D03*
X0084477Y0222272D03*
X0100225Y0224241D03*
X0112036Y0222272D03*
X0108099Y0239989D03*
X0100225Y0241957D03*
X0084477Y0245894D03*
X0080540Y0257706D03*
X0088414Y0257706D03*
X0064792Y0265580D03*
X0054950Y0255737D03*
X0037233Y0251800D03*
X0029359Y0251800D03*
X0045107Y0232115D03*
X0031328Y0212430D03*
X0031328Y0192745D03*
X0017548Y0192745D03*
X0021485Y0117942D03*
X0029359Y0117942D03*
X0027391Y0098257D03*
X0051013Y0098257D03*
X0090383Y0076603D03*
X0066761Y0052981D03*
X0218335Y0023454D03*
X0334477Y0045107D03*
X0375816Y0033296D03*
X0074635Y0279359D03*
X0060855Y0295107D03*
X0096288Y0285265D03*
M02*
