G75*
%MOIN*%
%OFA0B0*%
%FSLAX25Y25*%
%IPPOS*%
%LPD*%
%AMOC8*
5,1,8,0,0,1.08239X$1,22.5*
%
%ADD10C,0.00000*%
%ADD11C,0.00400*%
%ADD12C,0.00600*%
%ADD13C,0.00300*%
%ADD14C,0.00500*%
%ADD15C,0.00200*%
%ADD16C,0.00100*%
%ADD17C,0.00800*%
%ADD18R,0.01181X0.06201*%
%ADD19R,0.06201X0.01181*%
%ADD20C,0.01000*%
%ADD21R,0.01673X0.01280*%
%ADD22R,0.01378X0.01378*%
D10*
X0001800Y0001800D02*
X0001800Y0316761D01*
X0395501Y0316761D01*
X0395501Y0001800D01*
X0001800Y0001800D01*
X0062866Y0022254D02*
X0062934Y0022259D01*
X0063002Y0022268D01*
X0063070Y0022280D01*
X0063136Y0022297D01*
X0063202Y0022317D01*
X0063266Y0022341D01*
X0063329Y0022368D01*
X0063390Y0022399D01*
X0063450Y0022434D01*
X0063507Y0022472D01*
X0063562Y0022513D01*
X0063614Y0022557D01*
X0063664Y0022604D01*
X0063711Y0022654D01*
X0063756Y0022706D01*
X0063797Y0022761D01*
X0063835Y0022818D01*
X0063869Y0022877D01*
X0063901Y0022938D01*
X0063928Y0023001D01*
X0063952Y0023065D01*
X0063973Y0023131D01*
X0063989Y0023197D01*
X0064002Y0023265D01*
X0064011Y0023333D01*
X0064016Y0023401D01*
X0064017Y0023470D01*
X0064014Y0023538D01*
X0064007Y0023607D01*
X0063997Y0023674D01*
X0063982Y0023741D01*
X0063964Y0023807D01*
X0063942Y0023872D01*
X0063916Y0023936D01*
X0063887Y0023998D01*
X0063854Y0024058D01*
X0063818Y0024116D01*
X0063778Y0024173D01*
X0063736Y0024226D01*
X0063690Y0024278D01*
X0063642Y0024326D01*
X0063591Y0024372D01*
X0063537Y0024415D01*
X0063481Y0024454D01*
X0063423Y0024491D01*
X0063363Y0024523D01*
X0063301Y0024553D01*
X0063237Y0024579D01*
X0063172Y0024601D01*
X0063106Y0024619D01*
X0063039Y0024634D01*
X0062971Y0024645D01*
X0062903Y0024652D01*
X0062835Y0024655D01*
X0062766Y0024654D01*
X0137233Y0025422D02*
X0137235Y0025580D01*
X0137241Y0025738D01*
X0137251Y0025896D01*
X0137265Y0026054D01*
X0137283Y0026211D01*
X0137304Y0026368D01*
X0137330Y0026524D01*
X0137360Y0026680D01*
X0137393Y0026835D01*
X0137431Y0026988D01*
X0137472Y0027141D01*
X0137517Y0027293D01*
X0137566Y0027444D01*
X0137619Y0027593D01*
X0137675Y0027741D01*
X0137735Y0027887D01*
X0137799Y0028032D01*
X0137867Y0028175D01*
X0137938Y0028317D01*
X0138012Y0028457D01*
X0138090Y0028594D01*
X0138172Y0028730D01*
X0138256Y0028864D01*
X0138345Y0028995D01*
X0138436Y0029124D01*
X0138531Y0029251D01*
X0138628Y0029376D01*
X0138729Y0029498D01*
X0138833Y0029617D01*
X0138940Y0029734D01*
X0139050Y0029848D01*
X0139163Y0029959D01*
X0139278Y0030068D01*
X0139396Y0030173D01*
X0139517Y0030275D01*
X0139640Y0030375D01*
X0139766Y0030471D01*
X0139894Y0030564D01*
X0140024Y0030654D01*
X0140157Y0030740D01*
X0140292Y0030824D01*
X0140428Y0030903D01*
X0140567Y0030980D01*
X0140708Y0031052D01*
X0140850Y0031122D01*
X0140994Y0031187D01*
X0141140Y0031249D01*
X0141287Y0031307D01*
X0141436Y0031362D01*
X0141586Y0031413D01*
X0141737Y0031460D01*
X0141889Y0031503D01*
X0142042Y0031542D01*
X0142197Y0031578D01*
X0142352Y0031609D01*
X0142508Y0031637D01*
X0142664Y0031661D01*
X0142821Y0031681D01*
X0142979Y0031697D01*
X0143136Y0031709D01*
X0143295Y0031717D01*
X0143453Y0031721D01*
X0143611Y0031721D01*
X0143769Y0031717D01*
X0143928Y0031709D01*
X0144085Y0031697D01*
X0144243Y0031681D01*
X0144400Y0031661D01*
X0144556Y0031637D01*
X0144712Y0031609D01*
X0144867Y0031578D01*
X0145022Y0031542D01*
X0145175Y0031503D01*
X0145327Y0031460D01*
X0145478Y0031413D01*
X0145628Y0031362D01*
X0145777Y0031307D01*
X0145924Y0031249D01*
X0146070Y0031187D01*
X0146214Y0031122D01*
X0146356Y0031052D01*
X0146497Y0030980D01*
X0146636Y0030903D01*
X0146772Y0030824D01*
X0146907Y0030740D01*
X0147040Y0030654D01*
X0147170Y0030564D01*
X0147298Y0030471D01*
X0147424Y0030375D01*
X0147547Y0030275D01*
X0147668Y0030173D01*
X0147786Y0030068D01*
X0147901Y0029959D01*
X0148014Y0029848D01*
X0148124Y0029734D01*
X0148231Y0029617D01*
X0148335Y0029498D01*
X0148436Y0029376D01*
X0148533Y0029251D01*
X0148628Y0029124D01*
X0148719Y0028995D01*
X0148808Y0028864D01*
X0148892Y0028730D01*
X0148974Y0028594D01*
X0149052Y0028457D01*
X0149126Y0028317D01*
X0149197Y0028175D01*
X0149265Y0028032D01*
X0149329Y0027887D01*
X0149389Y0027741D01*
X0149445Y0027593D01*
X0149498Y0027444D01*
X0149547Y0027293D01*
X0149592Y0027141D01*
X0149633Y0026988D01*
X0149671Y0026835D01*
X0149704Y0026680D01*
X0149734Y0026524D01*
X0149760Y0026368D01*
X0149781Y0026211D01*
X0149799Y0026054D01*
X0149813Y0025896D01*
X0149823Y0025738D01*
X0149829Y0025580D01*
X0149831Y0025422D01*
X0149829Y0025264D01*
X0149823Y0025106D01*
X0149813Y0024948D01*
X0149799Y0024790D01*
X0149781Y0024633D01*
X0149760Y0024476D01*
X0149734Y0024320D01*
X0149704Y0024164D01*
X0149671Y0024009D01*
X0149633Y0023856D01*
X0149592Y0023703D01*
X0149547Y0023551D01*
X0149498Y0023400D01*
X0149445Y0023251D01*
X0149389Y0023103D01*
X0149329Y0022957D01*
X0149265Y0022812D01*
X0149197Y0022669D01*
X0149126Y0022527D01*
X0149052Y0022387D01*
X0148974Y0022250D01*
X0148892Y0022114D01*
X0148808Y0021980D01*
X0148719Y0021849D01*
X0148628Y0021720D01*
X0148533Y0021593D01*
X0148436Y0021468D01*
X0148335Y0021346D01*
X0148231Y0021227D01*
X0148124Y0021110D01*
X0148014Y0020996D01*
X0147901Y0020885D01*
X0147786Y0020776D01*
X0147668Y0020671D01*
X0147547Y0020569D01*
X0147424Y0020469D01*
X0147298Y0020373D01*
X0147170Y0020280D01*
X0147040Y0020190D01*
X0146907Y0020104D01*
X0146772Y0020020D01*
X0146636Y0019941D01*
X0146497Y0019864D01*
X0146356Y0019792D01*
X0146214Y0019722D01*
X0146070Y0019657D01*
X0145924Y0019595D01*
X0145777Y0019537D01*
X0145628Y0019482D01*
X0145478Y0019431D01*
X0145327Y0019384D01*
X0145175Y0019341D01*
X0145022Y0019302D01*
X0144867Y0019266D01*
X0144712Y0019235D01*
X0144556Y0019207D01*
X0144400Y0019183D01*
X0144243Y0019163D01*
X0144085Y0019147D01*
X0143928Y0019135D01*
X0143769Y0019127D01*
X0143611Y0019123D01*
X0143453Y0019123D01*
X0143295Y0019127D01*
X0143136Y0019135D01*
X0142979Y0019147D01*
X0142821Y0019163D01*
X0142664Y0019183D01*
X0142508Y0019207D01*
X0142352Y0019235D01*
X0142197Y0019266D01*
X0142042Y0019302D01*
X0141889Y0019341D01*
X0141737Y0019384D01*
X0141586Y0019431D01*
X0141436Y0019482D01*
X0141287Y0019537D01*
X0141140Y0019595D01*
X0140994Y0019657D01*
X0140850Y0019722D01*
X0140708Y0019792D01*
X0140567Y0019864D01*
X0140428Y0019941D01*
X0140292Y0020020D01*
X0140157Y0020104D01*
X0140024Y0020190D01*
X0139894Y0020280D01*
X0139766Y0020373D01*
X0139640Y0020469D01*
X0139517Y0020569D01*
X0139396Y0020671D01*
X0139278Y0020776D01*
X0139163Y0020885D01*
X0139050Y0020996D01*
X0138940Y0021110D01*
X0138833Y0021227D01*
X0138729Y0021346D01*
X0138628Y0021468D01*
X0138531Y0021593D01*
X0138436Y0021720D01*
X0138345Y0021849D01*
X0138256Y0021980D01*
X0138172Y0022114D01*
X0138090Y0022250D01*
X0138012Y0022387D01*
X0137938Y0022527D01*
X0137867Y0022669D01*
X0137799Y0022812D01*
X0137735Y0022957D01*
X0137675Y0023103D01*
X0137619Y0023251D01*
X0137566Y0023400D01*
X0137517Y0023551D01*
X0137472Y0023703D01*
X0137431Y0023856D01*
X0137393Y0024009D01*
X0137360Y0024164D01*
X0137330Y0024320D01*
X0137304Y0024476D01*
X0137283Y0024633D01*
X0137265Y0024790D01*
X0137251Y0024948D01*
X0137241Y0025106D01*
X0137235Y0025264D01*
X0137233Y0025422D01*
X0286840Y0025422D02*
X0286842Y0025580D01*
X0286848Y0025738D01*
X0286858Y0025896D01*
X0286872Y0026054D01*
X0286890Y0026211D01*
X0286911Y0026368D01*
X0286937Y0026524D01*
X0286967Y0026680D01*
X0287000Y0026835D01*
X0287038Y0026988D01*
X0287079Y0027141D01*
X0287124Y0027293D01*
X0287173Y0027444D01*
X0287226Y0027593D01*
X0287282Y0027741D01*
X0287342Y0027887D01*
X0287406Y0028032D01*
X0287474Y0028175D01*
X0287545Y0028317D01*
X0287619Y0028457D01*
X0287697Y0028594D01*
X0287779Y0028730D01*
X0287863Y0028864D01*
X0287952Y0028995D01*
X0288043Y0029124D01*
X0288138Y0029251D01*
X0288235Y0029376D01*
X0288336Y0029498D01*
X0288440Y0029617D01*
X0288547Y0029734D01*
X0288657Y0029848D01*
X0288770Y0029959D01*
X0288885Y0030068D01*
X0289003Y0030173D01*
X0289124Y0030275D01*
X0289247Y0030375D01*
X0289373Y0030471D01*
X0289501Y0030564D01*
X0289631Y0030654D01*
X0289764Y0030740D01*
X0289899Y0030824D01*
X0290035Y0030903D01*
X0290174Y0030980D01*
X0290315Y0031052D01*
X0290457Y0031122D01*
X0290601Y0031187D01*
X0290747Y0031249D01*
X0290894Y0031307D01*
X0291043Y0031362D01*
X0291193Y0031413D01*
X0291344Y0031460D01*
X0291496Y0031503D01*
X0291649Y0031542D01*
X0291804Y0031578D01*
X0291959Y0031609D01*
X0292115Y0031637D01*
X0292271Y0031661D01*
X0292428Y0031681D01*
X0292586Y0031697D01*
X0292743Y0031709D01*
X0292902Y0031717D01*
X0293060Y0031721D01*
X0293218Y0031721D01*
X0293376Y0031717D01*
X0293535Y0031709D01*
X0293692Y0031697D01*
X0293850Y0031681D01*
X0294007Y0031661D01*
X0294163Y0031637D01*
X0294319Y0031609D01*
X0294474Y0031578D01*
X0294629Y0031542D01*
X0294782Y0031503D01*
X0294934Y0031460D01*
X0295085Y0031413D01*
X0295235Y0031362D01*
X0295384Y0031307D01*
X0295531Y0031249D01*
X0295677Y0031187D01*
X0295821Y0031122D01*
X0295963Y0031052D01*
X0296104Y0030980D01*
X0296243Y0030903D01*
X0296379Y0030824D01*
X0296514Y0030740D01*
X0296647Y0030654D01*
X0296777Y0030564D01*
X0296905Y0030471D01*
X0297031Y0030375D01*
X0297154Y0030275D01*
X0297275Y0030173D01*
X0297393Y0030068D01*
X0297508Y0029959D01*
X0297621Y0029848D01*
X0297731Y0029734D01*
X0297838Y0029617D01*
X0297942Y0029498D01*
X0298043Y0029376D01*
X0298140Y0029251D01*
X0298235Y0029124D01*
X0298326Y0028995D01*
X0298415Y0028864D01*
X0298499Y0028730D01*
X0298581Y0028594D01*
X0298659Y0028457D01*
X0298733Y0028317D01*
X0298804Y0028175D01*
X0298872Y0028032D01*
X0298936Y0027887D01*
X0298996Y0027741D01*
X0299052Y0027593D01*
X0299105Y0027444D01*
X0299154Y0027293D01*
X0299199Y0027141D01*
X0299240Y0026988D01*
X0299278Y0026835D01*
X0299311Y0026680D01*
X0299341Y0026524D01*
X0299367Y0026368D01*
X0299388Y0026211D01*
X0299406Y0026054D01*
X0299420Y0025896D01*
X0299430Y0025738D01*
X0299436Y0025580D01*
X0299438Y0025422D01*
X0299436Y0025264D01*
X0299430Y0025106D01*
X0299420Y0024948D01*
X0299406Y0024790D01*
X0299388Y0024633D01*
X0299367Y0024476D01*
X0299341Y0024320D01*
X0299311Y0024164D01*
X0299278Y0024009D01*
X0299240Y0023856D01*
X0299199Y0023703D01*
X0299154Y0023551D01*
X0299105Y0023400D01*
X0299052Y0023251D01*
X0298996Y0023103D01*
X0298936Y0022957D01*
X0298872Y0022812D01*
X0298804Y0022669D01*
X0298733Y0022527D01*
X0298659Y0022387D01*
X0298581Y0022250D01*
X0298499Y0022114D01*
X0298415Y0021980D01*
X0298326Y0021849D01*
X0298235Y0021720D01*
X0298140Y0021593D01*
X0298043Y0021468D01*
X0297942Y0021346D01*
X0297838Y0021227D01*
X0297731Y0021110D01*
X0297621Y0020996D01*
X0297508Y0020885D01*
X0297393Y0020776D01*
X0297275Y0020671D01*
X0297154Y0020569D01*
X0297031Y0020469D01*
X0296905Y0020373D01*
X0296777Y0020280D01*
X0296647Y0020190D01*
X0296514Y0020104D01*
X0296379Y0020020D01*
X0296243Y0019941D01*
X0296104Y0019864D01*
X0295963Y0019792D01*
X0295821Y0019722D01*
X0295677Y0019657D01*
X0295531Y0019595D01*
X0295384Y0019537D01*
X0295235Y0019482D01*
X0295085Y0019431D01*
X0294934Y0019384D01*
X0294782Y0019341D01*
X0294629Y0019302D01*
X0294474Y0019266D01*
X0294319Y0019235D01*
X0294163Y0019207D01*
X0294007Y0019183D01*
X0293850Y0019163D01*
X0293692Y0019147D01*
X0293535Y0019135D01*
X0293376Y0019127D01*
X0293218Y0019123D01*
X0293060Y0019123D01*
X0292902Y0019127D01*
X0292743Y0019135D01*
X0292586Y0019147D01*
X0292428Y0019163D01*
X0292271Y0019183D01*
X0292115Y0019207D01*
X0291959Y0019235D01*
X0291804Y0019266D01*
X0291649Y0019302D01*
X0291496Y0019341D01*
X0291344Y0019384D01*
X0291193Y0019431D01*
X0291043Y0019482D01*
X0290894Y0019537D01*
X0290747Y0019595D01*
X0290601Y0019657D01*
X0290457Y0019722D01*
X0290315Y0019792D01*
X0290174Y0019864D01*
X0290035Y0019941D01*
X0289899Y0020020D01*
X0289764Y0020104D01*
X0289631Y0020190D01*
X0289501Y0020280D01*
X0289373Y0020373D01*
X0289247Y0020469D01*
X0289124Y0020569D01*
X0289003Y0020671D01*
X0288885Y0020776D01*
X0288770Y0020885D01*
X0288657Y0020996D01*
X0288547Y0021110D01*
X0288440Y0021227D01*
X0288336Y0021346D01*
X0288235Y0021468D01*
X0288138Y0021593D01*
X0288043Y0021720D01*
X0287952Y0021849D01*
X0287863Y0021980D01*
X0287779Y0022114D01*
X0287697Y0022250D01*
X0287619Y0022387D01*
X0287545Y0022527D01*
X0287474Y0022669D01*
X0287406Y0022812D01*
X0287342Y0022957D01*
X0287282Y0023103D01*
X0287226Y0023251D01*
X0287173Y0023400D01*
X0287124Y0023551D01*
X0287079Y0023703D01*
X0287038Y0023856D01*
X0287000Y0024009D01*
X0286967Y0024164D01*
X0286937Y0024320D01*
X0286911Y0024476D01*
X0286890Y0024633D01*
X0286872Y0024790D01*
X0286858Y0024948D01*
X0286848Y0025106D01*
X0286842Y0025264D01*
X0286840Y0025422D01*
X0214004Y0167154D02*
X0214006Y0167285D01*
X0214012Y0167417D01*
X0214022Y0167548D01*
X0214036Y0167679D01*
X0214054Y0167809D01*
X0214076Y0167938D01*
X0214101Y0168067D01*
X0214131Y0168195D01*
X0214165Y0168322D01*
X0214202Y0168449D01*
X0214243Y0168573D01*
X0214288Y0168697D01*
X0214337Y0168819D01*
X0214389Y0168940D01*
X0214445Y0169058D01*
X0214505Y0169176D01*
X0214568Y0169291D01*
X0214635Y0169404D01*
X0214705Y0169516D01*
X0214778Y0169625D01*
X0214854Y0169731D01*
X0214934Y0169836D01*
X0215017Y0169938D01*
X0215103Y0170037D01*
X0215192Y0170134D01*
X0215284Y0170228D01*
X0215379Y0170319D01*
X0215476Y0170408D01*
X0215576Y0170493D01*
X0215679Y0170575D01*
X0215784Y0170654D01*
X0215891Y0170730D01*
X0216001Y0170802D01*
X0216113Y0170871D01*
X0216227Y0170937D01*
X0216342Y0170999D01*
X0216460Y0171058D01*
X0216579Y0171113D01*
X0216700Y0171165D01*
X0216823Y0171212D01*
X0216947Y0171256D01*
X0217072Y0171297D01*
X0217198Y0171333D01*
X0217326Y0171366D01*
X0217454Y0171394D01*
X0217583Y0171419D01*
X0217713Y0171440D01*
X0217843Y0171457D01*
X0217974Y0171470D01*
X0218105Y0171479D01*
X0218236Y0171484D01*
X0218368Y0171485D01*
X0218499Y0171482D01*
X0218631Y0171475D01*
X0218762Y0171464D01*
X0218892Y0171449D01*
X0219022Y0171430D01*
X0219152Y0171407D01*
X0219280Y0171381D01*
X0219408Y0171350D01*
X0219535Y0171315D01*
X0219661Y0171277D01*
X0219785Y0171235D01*
X0219909Y0171189D01*
X0220030Y0171139D01*
X0220150Y0171086D01*
X0220269Y0171029D01*
X0220386Y0170969D01*
X0220500Y0170905D01*
X0220613Y0170837D01*
X0220724Y0170766D01*
X0220833Y0170692D01*
X0220939Y0170615D01*
X0221043Y0170534D01*
X0221144Y0170451D01*
X0221243Y0170364D01*
X0221339Y0170274D01*
X0221432Y0170181D01*
X0221523Y0170086D01*
X0221610Y0169988D01*
X0221695Y0169887D01*
X0221776Y0169784D01*
X0221854Y0169678D01*
X0221929Y0169570D01*
X0222001Y0169460D01*
X0222069Y0169348D01*
X0222134Y0169234D01*
X0222195Y0169117D01*
X0222253Y0168999D01*
X0222307Y0168879D01*
X0222358Y0168758D01*
X0222405Y0168635D01*
X0222448Y0168511D01*
X0222487Y0168386D01*
X0222523Y0168259D01*
X0222554Y0168131D01*
X0222582Y0168003D01*
X0222606Y0167874D01*
X0222626Y0167744D01*
X0222642Y0167613D01*
X0222654Y0167482D01*
X0222662Y0167351D01*
X0222666Y0167220D01*
X0222666Y0167088D01*
X0222662Y0166957D01*
X0222654Y0166826D01*
X0222642Y0166695D01*
X0222626Y0166564D01*
X0222606Y0166434D01*
X0222582Y0166305D01*
X0222554Y0166177D01*
X0222523Y0166049D01*
X0222487Y0165922D01*
X0222448Y0165797D01*
X0222405Y0165673D01*
X0222358Y0165550D01*
X0222307Y0165429D01*
X0222253Y0165309D01*
X0222195Y0165191D01*
X0222134Y0165074D01*
X0222069Y0164960D01*
X0222001Y0164848D01*
X0221929Y0164738D01*
X0221854Y0164630D01*
X0221776Y0164524D01*
X0221695Y0164421D01*
X0221610Y0164320D01*
X0221523Y0164222D01*
X0221432Y0164127D01*
X0221339Y0164034D01*
X0221243Y0163944D01*
X0221144Y0163857D01*
X0221043Y0163774D01*
X0220939Y0163693D01*
X0220833Y0163616D01*
X0220724Y0163542D01*
X0220613Y0163471D01*
X0220501Y0163403D01*
X0220386Y0163339D01*
X0220269Y0163279D01*
X0220150Y0163222D01*
X0220030Y0163169D01*
X0219909Y0163119D01*
X0219785Y0163073D01*
X0219661Y0163031D01*
X0219535Y0162993D01*
X0219408Y0162958D01*
X0219280Y0162927D01*
X0219152Y0162901D01*
X0219022Y0162878D01*
X0218892Y0162859D01*
X0218762Y0162844D01*
X0218631Y0162833D01*
X0218499Y0162826D01*
X0218368Y0162823D01*
X0218236Y0162824D01*
X0218105Y0162829D01*
X0217974Y0162838D01*
X0217843Y0162851D01*
X0217713Y0162868D01*
X0217583Y0162889D01*
X0217454Y0162914D01*
X0217326Y0162942D01*
X0217198Y0162975D01*
X0217072Y0163011D01*
X0216947Y0163052D01*
X0216823Y0163096D01*
X0216700Y0163143D01*
X0216579Y0163195D01*
X0216460Y0163250D01*
X0216342Y0163309D01*
X0216227Y0163371D01*
X0216113Y0163437D01*
X0216001Y0163506D01*
X0215891Y0163578D01*
X0215784Y0163654D01*
X0215679Y0163733D01*
X0215576Y0163815D01*
X0215476Y0163900D01*
X0215379Y0163989D01*
X0215284Y0164080D01*
X0215192Y0164174D01*
X0215103Y0164271D01*
X0215017Y0164370D01*
X0214934Y0164472D01*
X0214854Y0164577D01*
X0214778Y0164683D01*
X0214705Y0164792D01*
X0214635Y0164904D01*
X0214568Y0165017D01*
X0214505Y0165132D01*
X0214445Y0165250D01*
X0214389Y0165368D01*
X0214337Y0165489D01*
X0214288Y0165611D01*
X0214243Y0165735D01*
X0214202Y0165859D01*
X0214165Y0165986D01*
X0214131Y0166113D01*
X0214101Y0166241D01*
X0214076Y0166370D01*
X0214054Y0166499D01*
X0214036Y0166629D01*
X0214022Y0166760D01*
X0214012Y0166891D01*
X0214006Y0167023D01*
X0214004Y0167154D01*
X0137233Y0293139D02*
X0137235Y0293297D01*
X0137241Y0293455D01*
X0137251Y0293613D01*
X0137265Y0293771D01*
X0137283Y0293928D01*
X0137304Y0294085D01*
X0137330Y0294241D01*
X0137360Y0294397D01*
X0137393Y0294552D01*
X0137431Y0294705D01*
X0137472Y0294858D01*
X0137517Y0295010D01*
X0137566Y0295161D01*
X0137619Y0295310D01*
X0137675Y0295458D01*
X0137735Y0295604D01*
X0137799Y0295749D01*
X0137867Y0295892D01*
X0137938Y0296034D01*
X0138012Y0296174D01*
X0138090Y0296311D01*
X0138172Y0296447D01*
X0138256Y0296581D01*
X0138345Y0296712D01*
X0138436Y0296841D01*
X0138531Y0296968D01*
X0138628Y0297093D01*
X0138729Y0297215D01*
X0138833Y0297334D01*
X0138940Y0297451D01*
X0139050Y0297565D01*
X0139163Y0297676D01*
X0139278Y0297785D01*
X0139396Y0297890D01*
X0139517Y0297992D01*
X0139640Y0298092D01*
X0139766Y0298188D01*
X0139894Y0298281D01*
X0140024Y0298371D01*
X0140157Y0298457D01*
X0140292Y0298541D01*
X0140428Y0298620D01*
X0140567Y0298697D01*
X0140708Y0298769D01*
X0140850Y0298839D01*
X0140994Y0298904D01*
X0141140Y0298966D01*
X0141287Y0299024D01*
X0141436Y0299079D01*
X0141586Y0299130D01*
X0141737Y0299177D01*
X0141889Y0299220D01*
X0142042Y0299259D01*
X0142197Y0299295D01*
X0142352Y0299326D01*
X0142508Y0299354D01*
X0142664Y0299378D01*
X0142821Y0299398D01*
X0142979Y0299414D01*
X0143136Y0299426D01*
X0143295Y0299434D01*
X0143453Y0299438D01*
X0143611Y0299438D01*
X0143769Y0299434D01*
X0143928Y0299426D01*
X0144085Y0299414D01*
X0144243Y0299398D01*
X0144400Y0299378D01*
X0144556Y0299354D01*
X0144712Y0299326D01*
X0144867Y0299295D01*
X0145022Y0299259D01*
X0145175Y0299220D01*
X0145327Y0299177D01*
X0145478Y0299130D01*
X0145628Y0299079D01*
X0145777Y0299024D01*
X0145924Y0298966D01*
X0146070Y0298904D01*
X0146214Y0298839D01*
X0146356Y0298769D01*
X0146497Y0298697D01*
X0146636Y0298620D01*
X0146772Y0298541D01*
X0146907Y0298457D01*
X0147040Y0298371D01*
X0147170Y0298281D01*
X0147298Y0298188D01*
X0147424Y0298092D01*
X0147547Y0297992D01*
X0147668Y0297890D01*
X0147786Y0297785D01*
X0147901Y0297676D01*
X0148014Y0297565D01*
X0148124Y0297451D01*
X0148231Y0297334D01*
X0148335Y0297215D01*
X0148436Y0297093D01*
X0148533Y0296968D01*
X0148628Y0296841D01*
X0148719Y0296712D01*
X0148808Y0296581D01*
X0148892Y0296447D01*
X0148974Y0296311D01*
X0149052Y0296174D01*
X0149126Y0296034D01*
X0149197Y0295892D01*
X0149265Y0295749D01*
X0149329Y0295604D01*
X0149389Y0295458D01*
X0149445Y0295310D01*
X0149498Y0295161D01*
X0149547Y0295010D01*
X0149592Y0294858D01*
X0149633Y0294705D01*
X0149671Y0294552D01*
X0149704Y0294397D01*
X0149734Y0294241D01*
X0149760Y0294085D01*
X0149781Y0293928D01*
X0149799Y0293771D01*
X0149813Y0293613D01*
X0149823Y0293455D01*
X0149829Y0293297D01*
X0149831Y0293139D01*
X0149829Y0292981D01*
X0149823Y0292823D01*
X0149813Y0292665D01*
X0149799Y0292507D01*
X0149781Y0292350D01*
X0149760Y0292193D01*
X0149734Y0292037D01*
X0149704Y0291881D01*
X0149671Y0291726D01*
X0149633Y0291573D01*
X0149592Y0291420D01*
X0149547Y0291268D01*
X0149498Y0291117D01*
X0149445Y0290968D01*
X0149389Y0290820D01*
X0149329Y0290674D01*
X0149265Y0290529D01*
X0149197Y0290386D01*
X0149126Y0290244D01*
X0149052Y0290104D01*
X0148974Y0289967D01*
X0148892Y0289831D01*
X0148808Y0289697D01*
X0148719Y0289566D01*
X0148628Y0289437D01*
X0148533Y0289310D01*
X0148436Y0289185D01*
X0148335Y0289063D01*
X0148231Y0288944D01*
X0148124Y0288827D01*
X0148014Y0288713D01*
X0147901Y0288602D01*
X0147786Y0288493D01*
X0147668Y0288388D01*
X0147547Y0288286D01*
X0147424Y0288186D01*
X0147298Y0288090D01*
X0147170Y0287997D01*
X0147040Y0287907D01*
X0146907Y0287821D01*
X0146772Y0287737D01*
X0146636Y0287658D01*
X0146497Y0287581D01*
X0146356Y0287509D01*
X0146214Y0287439D01*
X0146070Y0287374D01*
X0145924Y0287312D01*
X0145777Y0287254D01*
X0145628Y0287199D01*
X0145478Y0287148D01*
X0145327Y0287101D01*
X0145175Y0287058D01*
X0145022Y0287019D01*
X0144867Y0286983D01*
X0144712Y0286952D01*
X0144556Y0286924D01*
X0144400Y0286900D01*
X0144243Y0286880D01*
X0144085Y0286864D01*
X0143928Y0286852D01*
X0143769Y0286844D01*
X0143611Y0286840D01*
X0143453Y0286840D01*
X0143295Y0286844D01*
X0143136Y0286852D01*
X0142979Y0286864D01*
X0142821Y0286880D01*
X0142664Y0286900D01*
X0142508Y0286924D01*
X0142352Y0286952D01*
X0142197Y0286983D01*
X0142042Y0287019D01*
X0141889Y0287058D01*
X0141737Y0287101D01*
X0141586Y0287148D01*
X0141436Y0287199D01*
X0141287Y0287254D01*
X0141140Y0287312D01*
X0140994Y0287374D01*
X0140850Y0287439D01*
X0140708Y0287509D01*
X0140567Y0287581D01*
X0140428Y0287658D01*
X0140292Y0287737D01*
X0140157Y0287821D01*
X0140024Y0287907D01*
X0139894Y0287997D01*
X0139766Y0288090D01*
X0139640Y0288186D01*
X0139517Y0288286D01*
X0139396Y0288388D01*
X0139278Y0288493D01*
X0139163Y0288602D01*
X0139050Y0288713D01*
X0138940Y0288827D01*
X0138833Y0288944D01*
X0138729Y0289063D01*
X0138628Y0289185D01*
X0138531Y0289310D01*
X0138436Y0289437D01*
X0138345Y0289566D01*
X0138256Y0289697D01*
X0138172Y0289831D01*
X0138090Y0289967D01*
X0138012Y0290104D01*
X0137938Y0290244D01*
X0137867Y0290386D01*
X0137799Y0290529D01*
X0137735Y0290674D01*
X0137675Y0290820D01*
X0137619Y0290968D01*
X0137566Y0291117D01*
X0137517Y0291268D01*
X0137472Y0291420D01*
X0137431Y0291573D01*
X0137393Y0291726D01*
X0137360Y0291881D01*
X0137330Y0292037D01*
X0137304Y0292193D01*
X0137283Y0292350D01*
X0137265Y0292507D01*
X0137251Y0292665D01*
X0137241Y0292823D01*
X0137235Y0292981D01*
X0137233Y0293139D01*
X0286840Y0293139D02*
X0286842Y0293297D01*
X0286848Y0293455D01*
X0286858Y0293613D01*
X0286872Y0293771D01*
X0286890Y0293928D01*
X0286911Y0294085D01*
X0286937Y0294241D01*
X0286967Y0294397D01*
X0287000Y0294552D01*
X0287038Y0294705D01*
X0287079Y0294858D01*
X0287124Y0295010D01*
X0287173Y0295161D01*
X0287226Y0295310D01*
X0287282Y0295458D01*
X0287342Y0295604D01*
X0287406Y0295749D01*
X0287474Y0295892D01*
X0287545Y0296034D01*
X0287619Y0296174D01*
X0287697Y0296311D01*
X0287779Y0296447D01*
X0287863Y0296581D01*
X0287952Y0296712D01*
X0288043Y0296841D01*
X0288138Y0296968D01*
X0288235Y0297093D01*
X0288336Y0297215D01*
X0288440Y0297334D01*
X0288547Y0297451D01*
X0288657Y0297565D01*
X0288770Y0297676D01*
X0288885Y0297785D01*
X0289003Y0297890D01*
X0289124Y0297992D01*
X0289247Y0298092D01*
X0289373Y0298188D01*
X0289501Y0298281D01*
X0289631Y0298371D01*
X0289764Y0298457D01*
X0289899Y0298541D01*
X0290035Y0298620D01*
X0290174Y0298697D01*
X0290315Y0298769D01*
X0290457Y0298839D01*
X0290601Y0298904D01*
X0290747Y0298966D01*
X0290894Y0299024D01*
X0291043Y0299079D01*
X0291193Y0299130D01*
X0291344Y0299177D01*
X0291496Y0299220D01*
X0291649Y0299259D01*
X0291804Y0299295D01*
X0291959Y0299326D01*
X0292115Y0299354D01*
X0292271Y0299378D01*
X0292428Y0299398D01*
X0292586Y0299414D01*
X0292743Y0299426D01*
X0292902Y0299434D01*
X0293060Y0299438D01*
X0293218Y0299438D01*
X0293376Y0299434D01*
X0293535Y0299426D01*
X0293692Y0299414D01*
X0293850Y0299398D01*
X0294007Y0299378D01*
X0294163Y0299354D01*
X0294319Y0299326D01*
X0294474Y0299295D01*
X0294629Y0299259D01*
X0294782Y0299220D01*
X0294934Y0299177D01*
X0295085Y0299130D01*
X0295235Y0299079D01*
X0295384Y0299024D01*
X0295531Y0298966D01*
X0295677Y0298904D01*
X0295821Y0298839D01*
X0295963Y0298769D01*
X0296104Y0298697D01*
X0296243Y0298620D01*
X0296379Y0298541D01*
X0296514Y0298457D01*
X0296647Y0298371D01*
X0296777Y0298281D01*
X0296905Y0298188D01*
X0297031Y0298092D01*
X0297154Y0297992D01*
X0297275Y0297890D01*
X0297393Y0297785D01*
X0297508Y0297676D01*
X0297621Y0297565D01*
X0297731Y0297451D01*
X0297838Y0297334D01*
X0297942Y0297215D01*
X0298043Y0297093D01*
X0298140Y0296968D01*
X0298235Y0296841D01*
X0298326Y0296712D01*
X0298415Y0296581D01*
X0298499Y0296447D01*
X0298581Y0296311D01*
X0298659Y0296174D01*
X0298733Y0296034D01*
X0298804Y0295892D01*
X0298872Y0295749D01*
X0298936Y0295604D01*
X0298996Y0295458D01*
X0299052Y0295310D01*
X0299105Y0295161D01*
X0299154Y0295010D01*
X0299199Y0294858D01*
X0299240Y0294705D01*
X0299278Y0294552D01*
X0299311Y0294397D01*
X0299341Y0294241D01*
X0299367Y0294085D01*
X0299388Y0293928D01*
X0299406Y0293771D01*
X0299420Y0293613D01*
X0299430Y0293455D01*
X0299436Y0293297D01*
X0299438Y0293139D01*
X0299436Y0292981D01*
X0299430Y0292823D01*
X0299420Y0292665D01*
X0299406Y0292507D01*
X0299388Y0292350D01*
X0299367Y0292193D01*
X0299341Y0292037D01*
X0299311Y0291881D01*
X0299278Y0291726D01*
X0299240Y0291573D01*
X0299199Y0291420D01*
X0299154Y0291268D01*
X0299105Y0291117D01*
X0299052Y0290968D01*
X0298996Y0290820D01*
X0298936Y0290674D01*
X0298872Y0290529D01*
X0298804Y0290386D01*
X0298733Y0290244D01*
X0298659Y0290104D01*
X0298581Y0289967D01*
X0298499Y0289831D01*
X0298415Y0289697D01*
X0298326Y0289566D01*
X0298235Y0289437D01*
X0298140Y0289310D01*
X0298043Y0289185D01*
X0297942Y0289063D01*
X0297838Y0288944D01*
X0297731Y0288827D01*
X0297621Y0288713D01*
X0297508Y0288602D01*
X0297393Y0288493D01*
X0297275Y0288388D01*
X0297154Y0288286D01*
X0297031Y0288186D01*
X0296905Y0288090D01*
X0296777Y0287997D01*
X0296647Y0287907D01*
X0296514Y0287821D01*
X0296379Y0287737D01*
X0296243Y0287658D01*
X0296104Y0287581D01*
X0295963Y0287509D01*
X0295821Y0287439D01*
X0295677Y0287374D01*
X0295531Y0287312D01*
X0295384Y0287254D01*
X0295235Y0287199D01*
X0295085Y0287148D01*
X0294934Y0287101D01*
X0294782Y0287058D01*
X0294629Y0287019D01*
X0294474Y0286983D01*
X0294319Y0286952D01*
X0294163Y0286924D01*
X0294007Y0286900D01*
X0293850Y0286880D01*
X0293692Y0286864D01*
X0293535Y0286852D01*
X0293376Y0286844D01*
X0293218Y0286840D01*
X0293060Y0286840D01*
X0292902Y0286844D01*
X0292743Y0286852D01*
X0292586Y0286864D01*
X0292428Y0286880D01*
X0292271Y0286900D01*
X0292115Y0286924D01*
X0291959Y0286952D01*
X0291804Y0286983D01*
X0291649Y0287019D01*
X0291496Y0287058D01*
X0291344Y0287101D01*
X0291193Y0287148D01*
X0291043Y0287199D01*
X0290894Y0287254D01*
X0290747Y0287312D01*
X0290601Y0287374D01*
X0290457Y0287439D01*
X0290315Y0287509D01*
X0290174Y0287581D01*
X0290035Y0287658D01*
X0289899Y0287737D01*
X0289764Y0287821D01*
X0289631Y0287907D01*
X0289501Y0287997D01*
X0289373Y0288090D01*
X0289247Y0288186D01*
X0289124Y0288286D01*
X0289003Y0288388D01*
X0288885Y0288493D01*
X0288770Y0288602D01*
X0288657Y0288713D01*
X0288547Y0288827D01*
X0288440Y0288944D01*
X0288336Y0289063D01*
X0288235Y0289185D01*
X0288138Y0289310D01*
X0288043Y0289437D01*
X0287952Y0289566D01*
X0287863Y0289697D01*
X0287779Y0289831D01*
X0287697Y0289967D01*
X0287619Y0290104D01*
X0287545Y0290244D01*
X0287474Y0290386D01*
X0287406Y0290529D01*
X0287342Y0290674D01*
X0287282Y0290820D01*
X0287226Y0290968D01*
X0287173Y0291117D01*
X0287124Y0291268D01*
X0287079Y0291420D01*
X0287038Y0291573D01*
X0287000Y0291726D01*
X0286967Y0291881D01*
X0286937Y0292037D01*
X0286911Y0292193D01*
X0286890Y0292350D01*
X0286872Y0292507D01*
X0286858Y0292665D01*
X0286848Y0292823D01*
X0286842Y0292981D01*
X0286840Y0293139D01*
D11*
X0143972Y0304048D02*
X0143972Y0304916D01*
X0143105Y0305783D01*
X0140503Y0305783D01*
X0140503Y0304048D01*
X0141370Y0303181D01*
X0143105Y0303181D01*
X0143972Y0304048D01*
X0140503Y0305783D02*
X0142238Y0307518D01*
X0143972Y0308386D01*
X0137081Y0308386D02*
X0137081Y0303181D01*
X0135346Y0303181D02*
X0138816Y0303181D01*
X0135346Y0306651D02*
X0137081Y0308386D01*
X0133660Y0307518D02*
X0133660Y0304048D01*
X0132792Y0303181D01*
X0131057Y0303181D01*
X0130190Y0304048D01*
X0133660Y0307518D01*
X0132792Y0308386D01*
X0131057Y0308386D01*
X0130190Y0307518D01*
X0130190Y0304048D01*
X0128503Y0303181D02*
X0125034Y0303181D01*
X0128503Y0306651D01*
X0128503Y0307518D01*
X0127636Y0308386D01*
X0125901Y0308386D01*
X0125034Y0307518D01*
X0118190Y0305783D02*
X0114721Y0305783D01*
X0107862Y0305783D02*
X0106127Y0305783D01*
X0106994Y0307518D02*
X0106994Y0303181D01*
X0104440Y0304048D02*
X0104440Y0307518D01*
X0100970Y0304048D01*
X0101838Y0303181D01*
X0103573Y0303181D01*
X0104440Y0304048D01*
X0100970Y0304048D02*
X0100970Y0307518D01*
X0101838Y0308386D01*
X0103573Y0308386D01*
X0104440Y0307518D01*
X0106994Y0307518D02*
X0107862Y0308386D01*
X0099260Y0304048D02*
X0099260Y0303181D01*
X0098392Y0303181D01*
X0098392Y0304048D01*
X0099260Y0304048D01*
X0096705Y0303181D02*
X0093236Y0303181D01*
X0094971Y0303181D02*
X0094971Y0308386D01*
X0093236Y0306651D01*
X0091549Y0306651D02*
X0089814Y0303181D01*
X0088079Y0306651D01*
X0081228Y0306651D02*
X0080361Y0306651D01*
X0078626Y0304916D01*
X0076939Y0304916D02*
X0073470Y0304916D01*
X0073470Y0305783D02*
X0074337Y0306651D01*
X0076072Y0306651D01*
X0076939Y0305783D01*
X0076939Y0304916D01*
X0076072Y0303181D02*
X0074337Y0303181D01*
X0073470Y0304048D01*
X0073470Y0305783D01*
X0071767Y0303181D02*
X0070032Y0303181D01*
X0070899Y0303181D02*
X0070899Y0308386D01*
X0070032Y0308386D01*
X0067462Y0308386D02*
X0067462Y0303181D01*
X0068329Y0303181D02*
X0066594Y0303181D01*
X0064908Y0304048D02*
X0064908Y0305783D01*
X0064040Y0306651D01*
X0062305Y0306651D01*
X0061438Y0305783D01*
X0061438Y0304048D01*
X0062305Y0303181D01*
X0064040Y0303181D01*
X0064908Y0304048D01*
X0066594Y0308386D02*
X0067462Y0308386D01*
X0059743Y0306651D02*
X0058876Y0306651D01*
X0057141Y0304916D01*
X0057141Y0303181D02*
X0057141Y0306651D01*
X0055438Y0306651D02*
X0053703Y0306651D01*
X0054571Y0307518D02*
X0054571Y0304048D01*
X0055438Y0303181D01*
X0052017Y0303181D02*
X0052017Y0305783D01*
X0051149Y0306651D01*
X0048547Y0306651D01*
X0048547Y0303181D01*
X0046860Y0304048D02*
X0046860Y0305783D01*
X0045993Y0306651D01*
X0044258Y0306651D01*
X0043391Y0305783D01*
X0043391Y0304048D01*
X0044258Y0303181D01*
X0045993Y0303181D01*
X0046860Y0304048D01*
X0041704Y0304048D02*
X0040836Y0303181D01*
X0039102Y0303181D01*
X0038234Y0304048D01*
X0038234Y0307518D01*
X0039102Y0308386D01*
X0040836Y0308386D01*
X0041704Y0307518D01*
X0031383Y0306651D02*
X0030516Y0306651D01*
X0028781Y0304916D01*
X0028781Y0303181D02*
X0028781Y0306651D01*
X0027094Y0305783D02*
X0026227Y0306651D01*
X0024492Y0306651D01*
X0023624Y0305783D01*
X0023624Y0304048D01*
X0024492Y0303181D01*
X0026227Y0303181D01*
X0027094Y0304048D01*
X0027094Y0305783D01*
X0021922Y0306651D02*
X0020187Y0306651D01*
X0021054Y0307518D02*
X0021054Y0304048D01*
X0021922Y0303181D01*
X0018500Y0304048D02*
X0018500Y0305783D01*
X0017633Y0306651D01*
X0015898Y0306651D01*
X0015030Y0305783D01*
X0015030Y0304048D01*
X0015898Y0303181D01*
X0017633Y0303181D01*
X0018500Y0304048D01*
X0013344Y0303181D02*
X0013344Y0308386D01*
X0011609Y0306651D01*
X0009874Y0308386D01*
X0009874Y0303181D01*
X0066961Y0296808D02*
X0066961Y0293339D01*
X0066961Y0295941D02*
X0070430Y0295941D01*
X0070430Y0296808D02*
X0070430Y0293339D01*
X0072117Y0293339D02*
X0072117Y0296808D01*
X0074719Y0296808D01*
X0075587Y0295941D01*
X0075587Y0293339D01*
X0077273Y0294206D02*
X0077273Y0295941D01*
X0078141Y0296808D01*
X0080743Y0296808D01*
X0082430Y0296808D02*
X0082430Y0294206D01*
X0083297Y0293339D01*
X0085899Y0293339D01*
X0085899Y0292471D02*
X0085032Y0291604D01*
X0084165Y0291604D01*
X0085899Y0292471D02*
X0085899Y0296808D01*
X0080743Y0298543D02*
X0080743Y0293339D01*
X0078141Y0293339D01*
X0077273Y0294206D01*
X0070430Y0296808D02*
X0068695Y0298543D01*
X0066961Y0296808D01*
X0078626Y0303181D02*
X0078626Y0306651D01*
X0092743Y0298543D02*
X0096212Y0298543D01*
X0094477Y0298543D02*
X0094477Y0293339D01*
X0097899Y0294206D02*
X0098766Y0295073D01*
X0101369Y0295073D01*
X0101369Y0295941D02*
X0101369Y0293339D01*
X0098766Y0293339D01*
X0097899Y0294206D01*
X0098766Y0296808D02*
X0100501Y0296808D01*
X0101369Y0295941D01*
X0103055Y0296808D02*
X0103055Y0294206D01*
X0103923Y0293339D01*
X0106525Y0293339D01*
X0106525Y0292471D02*
X0105658Y0291604D01*
X0104790Y0291604D01*
X0106525Y0292471D02*
X0106525Y0296808D01*
X0108212Y0298543D02*
X0109079Y0298543D01*
X0109079Y0293339D01*
X0108212Y0293339D02*
X0109947Y0293339D01*
X0111649Y0294206D02*
X0112517Y0293339D01*
X0114252Y0293339D01*
X0115119Y0294206D01*
X0115119Y0295941D01*
X0114252Y0296808D01*
X0112517Y0296808D01*
X0111649Y0295941D01*
X0111649Y0294206D01*
X0116806Y0295073D02*
X0118541Y0296808D01*
X0119408Y0296808D01*
X0116806Y0296808D02*
X0116806Y0293339D01*
D12*
X0083466Y0272443D02*
X0075466Y0272443D01*
X0078066Y0272443D02*
X0083466Y0267043D01*
X0083466Y0272443D02*
X0083466Y0250843D01*
X0075466Y0250843D01*
X0069866Y0250843D02*
X0061866Y0250843D01*
X0061866Y0272443D01*
X0067266Y0272443D01*
X0061866Y0267043D01*
X0067266Y0272443D02*
X0069866Y0272443D01*
X0072666Y0277943D02*
X0072666Y0280943D01*
X0074166Y0279443D02*
X0071166Y0279443D01*
X0030317Y0280317D02*
X0030317Y0258717D01*
X0022317Y0258717D01*
X0016717Y0258717D02*
X0008717Y0258717D01*
X0008717Y0280317D01*
X0014117Y0280317D01*
X0008717Y0274917D01*
X0014117Y0280317D02*
X0016717Y0280317D01*
X0022317Y0280317D02*
X0030317Y0280317D01*
X0024917Y0280317D02*
X0030317Y0274917D01*
X0019517Y0285817D02*
X0019517Y0288817D01*
X0021017Y0287317D02*
X0018017Y0287317D01*
X0017468Y0250091D02*
X0017468Y0246091D01*
X0015168Y0237391D02*
X0014468Y0237391D01*
X0014468Y0223591D01*
X0014468Y0221191D01*
X0014468Y0207391D01*
X0015168Y0207391D01*
X0014468Y0221191D02*
X0014537Y0221193D01*
X0014605Y0221199D01*
X0014673Y0221209D01*
X0014740Y0221222D01*
X0014806Y0221240D01*
X0014871Y0221261D01*
X0014935Y0221286D01*
X0014997Y0221314D01*
X0015058Y0221346D01*
X0015117Y0221381D01*
X0015173Y0221420D01*
X0015228Y0221462D01*
X0015279Y0221507D01*
X0015329Y0221555D01*
X0015375Y0221605D01*
X0015418Y0221658D01*
X0015459Y0221714D01*
X0015496Y0221771D01*
X0015529Y0221831D01*
X0015560Y0221893D01*
X0015586Y0221956D01*
X0015609Y0222020D01*
X0015629Y0222086D01*
X0015644Y0222153D01*
X0015656Y0222220D01*
X0015664Y0222288D01*
X0015668Y0222357D01*
X0015668Y0222425D01*
X0015664Y0222494D01*
X0015656Y0222562D01*
X0015644Y0222629D01*
X0015629Y0222696D01*
X0015609Y0222762D01*
X0015586Y0222826D01*
X0015560Y0222889D01*
X0015529Y0222951D01*
X0015496Y0223011D01*
X0015459Y0223068D01*
X0015418Y0223124D01*
X0015375Y0223177D01*
X0015329Y0223227D01*
X0015279Y0223275D01*
X0015228Y0223320D01*
X0015173Y0223362D01*
X0015117Y0223401D01*
X0015058Y0223436D01*
X0014997Y0223468D01*
X0014935Y0223496D01*
X0014871Y0223521D01*
X0014806Y0223542D01*
X0014740Y0223560D01*
X0014673Y0223573D01*
X0014605Y0223583D01*
X0014537Y0223589D01*
X0014468Y0223591D01*
X0015954Y0185658D02*
X0010954Y0185658D01*
X0008454Y0183158D01*
X0008454Y0178158D01*
X0010954Y0175658D01*
X0008454Y0173158D01*
X0008454Y0168158D01*
X0010954Y0165658D01*
X0008454Y0163158D01*
X0008454Y0158158D01*
X0010954Y0155658D01*
X0015954Y0155658D01*
X0018454Y0158158D01*
X0018454Y0163158D01*
X0015954Y0165658D01*
X0010954Y0165658D01*
X0015954Y0165658D02*
X0018454Y0168158D01*
X0018454Y0173158D01*
X0015954Y0175658D01*
X0010954Y0175658D01*
X0015954Y0175658D02*
X0018454Y0178158D01*
X0018454Y0183158D01*
X0015954Y0185658D01*
X0016111Y0152627D02*
X0011111Y0152627D01*
X0008611Y0150127D01*
X0008611Y0145127D01*
X0011111Y0142627D01*
X0016111Y0142627D01*
X0018611Y0145127D01*
X0018611Y0150127D01*
X0016111Y0152627D01*
X0016111Y0142627D02*
X0018611Y0140127D01*
X0018611Y0135127D01*
X0016111Y0132627D01*
X0018611Y0130127D01*
X0018611Y0125127D01*
X0016111Y0122627D01*
X0011111Y0122627D01*
X0008611Y0125127D01*
X0008611Y0130127D01*
X0011111Y0132627D01*
X0008611Y0135127D01*
X0008611Y0140127D01*
X0011111Y0142627D01*
X0011111Y0132627D02*
X0016111Y0132627D01*
X0056761Y0110757D02*
X0056761Y0105757D01*
X0059261Y0103257D01*
X0074261Y0103257D01*
X0076761Y0100757D01*
X0076761Y0095757D01*
X0074261Y0093257D01*
X0076761Y0090757D01*
X0076761Y0085757D01*
X0074261Y0083257D01*
X0059261Y0083257D01*
X0056761Y0085757D01*
X0056761Y0090757D01*
X0059261Y0093257D01*
X0074261Y0093257D01*
X0074261Y0103257D02*
X0076761Y0105757D01*
X0076761Y0110757D01*
X0074261Y0113257D01*
X0059261Y0113257D01*
X0056761Y0110757D01*
X0059261Y0103257D02*
X0056761Y0100757D01*
X0056761Y0095757D01*
X0059261Y0093257D01*
X0032148Y0093952D02*
X0032148Y0069353D01*
X0018526Y0069353D01*
X0018526Y0093952D01*
X0032148Y0093952D01*
X0040461Y0057656D02*
X0009162Y0057656D01*
X0009162Y0025176D01*
X0024713Y0008444D02*
X0058375Y0008444D01*
X0058375Y0040530D01*
X0062866Y0028854D02*
X0062866Y0022254D01*
X0062866Y0018054D01*
X0082466Y0018054D02*
X0082466Y0028854D01*
X0062468Y0194791D02*
X0062468Y0198691D01*
X0064968Y0207391D02*
X0065668Y0207391D01*
X0065668Y0237391D01*
X0064968Y0237391D01*
X0180146Y0293139D02*
X0180148Y0293303D01*
X0180154Y0293467D01*
X0180164Y0293631D01*
X0180178Y0293795D01*
X0180196Y0293958D01*
X0180218Y0294121D01*
X0180245Y0294283D01*
X0180275Y0294445D01*
X0180309Y0294605D01*
X0180347Y0294765D01*
X0180388Y0294924D01*
X0180434Y0295082D01*
X0180484Y0295238D01*
X0180537Y0295394D01*
X0180594Y0295548D01*
X0180655Y0295700D01*
X0180720Y0295851D01*
X0180789Y0296001D01*
X0180861Y0296148D01*
X0180936Y0296294D01*
X0181016Y0296438D01*
X0181098Y0296580D01*
X0181184Y0296720D01*
X0181274Y0296857D01*
X0181367Y0296993D01*
X0181463Y0297126D01*
X0181563Y0297257D01*
X0181665Y0297385D01*
X0181771Y0297511D01*
X0181880Y0297634D01*
X0181992Y0297754D01*
X0182106Y0297872D01*
X0182224Y0297986D01*
X0182344Y0298098D01*
X0182467Y0298207D01*
X0182593Y0298313D01*
X0182721Y0298415D01*
X0182852Y0298515D01*
X0182985Y0298611D01*
X0183121Y0298704D01*
X0183258Y0298794D01*
X0183398Y0298880D01*
X0183540Y0298962D01*
X0183684Y0299042D01*
X0183830Y0299117D01*
X0183977Y0299189D01*
X0184127Y0299258D01*
X0184278Y0299323D01*
X0184430Y0299384D01*
X0184584Y0299441D01*
X0184740Y0299494D01*
X0184896Y0299544D01*
X0185054Y0299590D01*
X0185213Y0299631D01*
X0185373Y0299669D01*
X0185533Y0299703D01*
X0185695Y0299733D01*
X0185857Y0299760D01*
X0186020Y0299782D01*
X0186183Y0299800D01*
X0186347Y0299814D01*
X0186511Y0299824D01*
X0186675Y0299830D01*
X0186839Y0299832D01*
X0187003Y0299830D01*
X0187167Y0299824D01*
X0187331Y0299814D01*
X0187495Y0299800D01*
X0187658Y0299782D01*
X0187821Y0299760D01*
X0187983Y0299733D01*
X0188145Y0299703D01*
X0188305Y0299669D01*
X0188465Y0299631D01*
X0188624Y0299590D01*
X0188782Y0299544D01*
X0188938Y0299494D01*
X0189094Y0299441D01*
X0189248Y0299384D01*
X0189400Y0299323D01*
X0189551Y0299258D01*
X0189701Y0299189D01*
X0189848Y0299117D01*
X0189994Y0299042D01*
X0190138Y0298962D01*
X0190280Y0298880D01*
X0190420Y0298794D01*
X0190557Y0298704D01*
X0190693Y0298611D01*
X0190826Y0298515D01*
X0190957Y0298415D01*
X0191085Y0298313D01*
X0191211Y0298207D01*
X0191334Y0298098D01*
X0191454Y0297986D01*
X0191572Y0297872D01*
X0191686Y0297754D01*
X0191798Y0297634D01*
X0191907Y0297511D01*
X0192013Y0297385D01*
X0192115Y0297257D01*
X0192215Y0297126D01*
X0192311Y0296993D01*
X0192404Y0296857D01*
X0192494Y0296720D01*
X0192580Y0296580D01*
X0192662Y0296438D01*
X0192742Y0296294D01*
X0192817Y0296148D01*
X0192889Y0296001D01*
X0192958Y0295851D01*
X0193023Y0295700D01*
X0193084Y0295548D01*
X0193141Y0295394D01*
X0193194Y0295238D01*
X0193244Y0295082D01*
X0193290Y0294924D01*
X0193331Y0294765D01*
X0193369Y0294605D01*
X0193403Y0294445D01*
X0193433Y0294283D01*
X0193460Y0294121D01*
X0193482Y0293958D01*
X0193500Y0293795D01*
X0193514Y0293631D01*
X0193524Y0293467D01*
X0193530Y0293303D01*
X0193532Y0293139D01*
X0193530Y0292975D01*
X0193524Y0292811D01*
X0193514Y0292647D01*
X0193500Y0292483D01*
X0193482Y0292320D01*
X0193460Y0292157D01*
X0193433Y0291995D01*
X0193403Y0291833D01*
X0193369Y0291673D01*
X0193331Y0291513D01*
X0193290Y0291354D01*
X0193244Y0291196D01*
X0193194Y0291040D01*
X0193141Y0290884D01*
X0193084Y0290730D01*
X0193023Y0290578D01*
X0192958Y0290427D01*
X0192889Y0290277D01*
X0192817Y0290130D01*
X0192742Y0289984D01*
X0192662Y0289840D01*
X0192580Y0289698D01*
X0192494Y0289558D01*
X0192404Y0289421D01*
X0192311Y0289285D01*
X0192215Y0289152D01*
X0192115Y0289021D01*
X0192013Y0288893D01*
X0191907Y0288767D01*
X0191798Y0288644D01*
X0191686Y0288524D01*
X0191572Y0288406D01*
X0191454Y0288292D01*
X0191334Y0288180D01*
X0191211Y0288071D01*
X0191085Y0287965D01*
X0190957Y0287863D01*
X0190826Y0287763D01*
X0190693Y0287667D01*
X0190557Y0287574D01*
X0190420Y0287484D01*
X0190280Y0287398D01*
X0190138Y0287316D01*
X0189994Y0287236D01*
X0189848Y0287161D01*
X0189701Y0287089D01*
X0189551Y0287020D01*
X0189400Y0286955D01*
X0189248Y0286894D01*
X0189094Y0286837D01*
X0188938Y0286784D01*
X0188782Y0286734D01*
X0188624Y0286688D01*
X0188465Y0286647D01*
X0188305Y0286609D01*
X0188145Y0286575D01*
X0187983Y0286545D01*
X0187821Y0286518D01*
X0187658Y0286496D01*
X0187495Y0286478D01*
X0187331Y0286464D01*
X0187167Y0286454D01*
X0187003Y0286448D01*
X0186839Y0286446D01*
X0186675Y0286448D01*
X0186511Y0286454D01*
X0186347Y0286464D01*
X0186183Y0286478D01*
X0186020Y0286496D01*
X0185857Y0286518D01*
X0185695Y0286545D01*
X0185533Y0286575D01*
X0185373Y0286609D01*
X0185213Y0286647D01*
X0185054Y0286688D01*
X0184896Y0286734D01*
X0184740Y0286784D01*
X0184584Y0286837D01*
X0184430Y0286894D01*
X0184278Y0286955D01*
X0184127Y0287020D01*
X0183977Y0287089D01*
X0183830Y0287161D01*
X0183684Y0287236D01*
X0183540Y0287316D01*
X0183398Y0287398D01*
X0183258Y0287484D01*
X0183121Y0287574D01*
X0182985Y0287667D01*
X0182852Y0287763D01*
X0182721Y0287863D01*
X0182593Y0287965D01*
X0182467Y0288071D01*
X0182344Y0288180D01*
X0182224Y0288292D01*
X0182106Y0288406D01*
X0181992Y0288524D01*
X0181880Y0288644D01*
X0181771Y0288767D01*
X0181665Y0288893D01*
X0181563Y0289021D01*
X0181463Y0289152D01*
X0181367Y0289285D01*
X0181274Y0289421D01*
X0181184Y0289558D01*
X0181098Y0289698D01*
X0181016Y0289840D01*
X0180936Y0289984D01*
X0180861Y0290130D01*
X0180789Y0290277D01*
X0180720Y0290427D01*
X0180655Y0290578D01*
X0180594Y0290730D01*
X0180537Y0290884D01*
X0180484Y0291040D01*
X0180434Y0291196D01*
X0180388Y0291354D01*
X0180347Y0291513D01*
X0180309Y0291673D01*
X0180275Y0291833D01*
X0180245Y0291995D01*
X0180218Y0292157D01*
X0180196Y0292320D01*
X0180178Y0292483D01*
X0180164Y0292647D01*
X0180154Y0292811D01*
X0180148Y0292975D01*
X0180146Y0293139D01*
X0173339Y0293139D02*
X0173343Y0293470D01*
X0173355Y0293801D01*
X0173376Y0294132D01*
X0173404Y0294462D01*
X0173441Y0294792D01*
X0173485Y0295120D01*
X0173538Y0295447D01*
X0173598Y0295773D01*
X0173667Y0296097D01*
X0173744Y0296419D01*
X0173828Y0296740D01*
X0173920Y0297058D01*
X0174020Y0297374D01*
X0174128Y0297687D01*
X0174244Y0297998D01*
X0174367Y0298305D01*
X0174497Y0298610D01*
X0174635Y0298911D01*
X0174780Y0299209D01*
X0174933Y0299503D01*
X0175093Y0299793D01*
X0175260Y0300079D01*
X0175433Y0300361D01*
X0175614Y0300639D01*
X0175802Y0300912D01*
X0175996Y0301181D01*
X0176196Y0301445D01*
X0176403Y0301703D01*
X0176617Y0301957D01*
X0176836Y0302205D01*
X0177062Y0302448D01*
X0177293Y0302685D01*
X0177530Y0302916D01*
X0177773Y0303142D01*
X0178021Y0303361D01*
X0178275Y0303575D01*
X0178533Y0303782D01*
X0178797Y0303982D01*
X0179066Y0304176D01*
X0179339Y0304364D01*
X0179617Y0304545D01*
X0179899Y0304718D01*
X0180185Y0304885D01*
X0180475Y0305045D01*
X0180769Y0305198D01*
X0181067Y0305343D01*
X0181368Y0305481D01*
X0181673Y0305611D01*
X0181980Y0305734D01*
X0182291Y0305850D01*
X0182604Y0305958D01*
X0182920Y0306058D01*
X0183238Y0306150D01*
X0183559Y0306234D01*
X0183881Y0306311D01*
X0184205Y0306380D01*
X0184531Y0306440D01*
X0184858Y0306493D01*
X0185186Y0306537D01*
X0185516Y0306574D01*
X0185846Y0306602D01*
X0186177Y0306623D01*
X0186508Y0306635D01*
X0186839Y0306639D01*
X0187170Y0306635D01*
X0187501Y0306623D01*
X0187832Y0306602D01*
X0188162Y0306574D01*
X0188492Y0306537D01*
X0188820Y0306493D01*
X0189147Y0306440D01*
X0189473Y0306380D01*
X0189797Y0306311D01*
X0190119Y0306234D01*
X0190440Y0306150D01*
X0190758Y0306058D01*
X0191074Y0305958D01*
X0191387Y0305850D01*
X0191698Y0305734D01*
X0192005Y0305611D01*
X0192310Y0305481D01*
X0192611Y0305343D01*
X0192909Y0305198D01*
X0193203Y0305045D01*
X0193493Y0304885D01*
X0193779Y0304718D01*
X0194061Y0304545D01*
X0194339Y0304364D01*
X0194612Y0304176D01*
X0194881Y0303982D01*
X0195145Y0303782D01*
X0195403Y0303575D01*
X0195657Y0303361D01*
X0195905Y0303142D01*
X0196148Y0302916D01*
X0196385Y0302685D01*
X0196616Y0302448D01*
X0196842Y0302205D01*
X0197061Y0301957D01*
X0197275Y0301703D01*
X0197482Y0301445D01*
X0197682Y0301181D01*
X0197876Y0300912D01*
X0198064Y0300639D01*
X0198245Y0300361D01*
X0198418Y0300079D01*
X0198585Y0299793D01*
X0198745Y0299503D01*
X0198898Y0299209D01*
X0199043Y0298911D01*
X0199181Y0298610D01*
X0199311Y0298305D01*
X0199434Y0297998D01*
X0199550Y0297687D01*
X0199658Y0297374D01*
X0199758Y0297058D01*
X0199850Y0296740D01*
X0199934Y0296419D01*
X0200011Y0296097D01*
X0200080Y0295773D01*
X0200140Y0295447D01*
X0200193Y0295120D01*
X0200237Y0294792D01*
X0200274Y0294462D01*
X0200302Y0294132D01*
X0200323Y0293801D01*
X0200335Y0293470D01*
X0200339Y0293139D01*
X0200335Y0292808D01*
X0200323Y0292477D01*
X0200302Y0292146D01*
X0200274Y0291816D01*
X0200237Y0291486D01*
X0200193Y0291158D01*
X0200140Y0290831D01*
X0200080Y0290505D01*
X0200011Y0290181D01*
X0199934Y0289859D01*
X0199850Y0289538D01*
X0199758Y0289220D01*
X0199658Y0288904D01*
X0199550Y0288591D01*
X0199434Y0288280D01*
X0199311Y0287973D01*
X0199181Y0287668D01*
X0199043Y0287367D01*
X0198898Y0287069D01*
X0198745Y0286775D01*
X0198585Y0286485D01*
X0198418Y0286199D01*
X0198245Y0285917D01*
X0198064Y0285639D01*
X0197876Y0285366D01*
X0197682Y0285097D01*
X0197482Y0284833D01*
X0197275Y0284575D01*
X0197061Y0284321D01*
X0196842Y0284073D01*
X0196616Y0283830D01*
X0196385Y0283593D01*
X0196148Y0283362D01*
X0195905Y0283136D01*
X0195657Y0282917D01*
X0195403Y0282703D01*
X0195145Y0282496D01*
X0194881Y0282296D01*
X0194612Y0282102D01*
X0194339Y0281914D01*
X0194061Y0281733D01*
X0193779Y0281560D01*
X0193493Y0281393D01*
X0193203Y0281233D01*
X0192909Y0281080D01*
X0192611Y0280935D01*
X0192310Y0280797D01*
X0192005Y0280667D01*
X0191698Y0280544D01*
X0191387Y0280428D01*
X0191074Y0280320D01*
X0190758Y0280220D01*
X0190440Y0280128D01*
X0190119Y0280044D01*
X0189797Y0279967D01*
X0189473Y0279898D01*
X0189147Y0279838D01*
X0188820Y0279785D01*
X0188492Y0279741D01*
X0188162Y0279704D01*
X0187832Y0279676D01*
X0187501Y0279655D01*
X0187170Y0279643D01*
X0186839Y0279639D01*
X0186508Y0279643D01*
X0186177Y0279655D01*
X0185846Y0279676D01*
X0185516Y0279704D01*
X0185186Y0279741D01*
X0184858Y0279785D01*
X0184531Y0279838D01*
X0184205Y0279898D01*
X0183881Y0279967D01*
X0183559Y0280044D01*
X0183238Y0280128D01*
X0182920Y0280220D01*
X0182604Y0280320D01*
X0182291Y0280428D01*
X0181980Y0280544D01*
X0181673Y0280667D01*
X0181368Y0280797D01*
X0181067Y0280935D01*
X0180769Y0281080D01*
X0180475Y0281233D01*
X0180185Y0281393D01*
X0179899Y0281560D01*
X0179617Y0281733D01*
X0179339Y0281914D01*
X0179066Y0282102D01*
X0178797Y0282296D01*
X0178533Y0282496D01*
X0178275Y0282703D01*
X0178021Y0282917D01*
X0177773Y0283136D01*
X0177530Y0283362D01*
X0177293Y0283593D01*
X0177062Y0283830D01*
X0176836Y0284073D01*
X0176617Y0284321D01*
X0176403Y0284575D01*
X0176196Y0284833D01*
X0175996Y0285097D01*
X0175802Y0285366D01*
X0175614Y0285639D01*
X0175433Y0285917D01*
X0175260Y0286199D01*
X0175093Y0286485D01*
X0174933Y0286775D01*
X0174780Y0287069D01*
X0174635Y0287367D01*
X0174497Y0287668D01*
X0174367Y0287973D01*
X0174244Y0288280D01*
X0174128Y0288591D01*
X0174020Y0288904D01*
X0173920Y0289220D01*
X0173828Y0289538D01*
X0173744Y0289859D01*
X0173667Y0290181D01*
X0173598Y0290505D01*
X0173538Y0290831D01*
X0173485Y0291158D01*
X0173441Y0291486D01*
X0173404Y0291816D01*
X0173376Y0292146D01*
X0173355Y0292477D01*
X0173343Y0292808D01*
X0173339Y0293139D01*
X0243138Y0293139D02*
X0243140Y0293303D01*
X0243146Y0293467D01*
X0243156Y0293631D01*
X0243170Y0293795D01*
X0243188Y0293958D01*
X0243210Y0294121D01*
X0243237Y0294283D01*
X0243267Y0294445D01*
X0243301Y0294605D01*
X0243339Y0294765D01*
X0243380Y0294924D01*
X0243426Y0295082D01*
X0243476Y0295238D01*
X0243529Y0295394D01*
X0243586Y0295548D01*
X0243647Y0295700D01*
X0243712Y0295851D01*
X0243781Y0296001D01*
X0243853Y0296148D01*
X0243928Y0296294D01*
X0244008Y0296438D01*
X0244090Y0296580D01*
X0244176Y0296720D01*
X0244266Y0296857D01*
X0244359Y0296993D01*
X0244455Y0297126D01*
X0244555Y0297257D01*
X0244657Y0297385D01*
X0244763Y0297511D01*
X0244872Y0297634D01*
X0244984Y0297754D01*
X0245098Y0297872D01*
X0245216Y0297986D01*
X0245336Y0298098D01*
X0245459Y0298207D01*
X0245585Y0298313D01*
X0245713Y0298415D01*
X0245844Y0298515D01*
X0245977Y0298611D01*
X0246113Y0298704D01*
X0246250Y0298794D01*
X0246390Y0298880D01*
X0246532Y0298962D01*
X0246676Y0299042D01*
X0246822Y0299117D01*
X0246969Y0299189D01*
X0247119Y0299258D01*
X0247270Y0299323D01*
X0247422Y0299384D01*
X0247576Y0299441D01*
X0247732Y0299494D01*
X0247888Y0299544D01*
X0248046Y0299590D01*
X0248205Y0299631D01*
X0248365Y0299669D01*
X0248525Y0299703D01*
X0248687Y0299733D01*
X0248849Y0299760D01*
X0249012Y0299782D01*
X0249175Y0299800D01*
X0249339Y0299814D01*
X0249503Y0299824D01*
X0249667Y0299830D01*
X0249831Y0299832D01*
X0249995Y0299830D01*
X0250159Y0299824D01*
X0250323Y0299814D01*
X0250487Y0299800D01*
X0250650Y0299782D01*
X0250813Y0299760D01*
X0250975Y0299733D01*
X0251137Y0299703D01*
X0251297Y0299669D01*
X0251457Y0299631D01*
X0251616Y0299590D01*
X0251774Y0299544D01*
X0251930Y0299494D01*
X0252086Y0299441D01*
X0252240Y0299384D01*
X0252392Y0299323D01*
X0252543Y0299258D01*
X0252693Y0299189D01*
X0252840Y0299117D01*
X0252986Y0299042D01*
X0253130Y0298962D01*
X0253272Y0298880D01*
X0253412Y0298794D01*
X0253549Y0298704D01*
X0253685Y0298611D01*
X0253818Y0298515D01*
X0253949Y0298415D01*
X0254077Y0298313D01*
X0254203Y0298207D01*
X0254326Y0298098D01*
X0254446Y0297986D01*
X0254564Y0297872D01*
X0254678Y0297754D01*
X0254790Y0297634D01*
X0254899Y0297511D01*
X0255005Y0297385D01*
X0255107Y0297257D01*
X0255207Y0297126D01*
X0255303Y0296993D01*
X0255396Y0296857D01*
X0255486Y0296720D01*
X0255572Y0296580D01*
X0255654Y0296438D01*
X0255734Y0296294D01*
X0255809Y0296148D01*
X0255881Y0296001D01*
X0255950Y0295851D01*
X0256015Y0295700D01*
X0256076Y0295548D01*
X0256133Y0295394D01*
X0256186Y0295238D01*
X0256236Y0295082D01*
X0256282Y0294924D01*
X0256323Y0294765D01*
X0256361Y0294605D01*
X0256395Y0294445D01*
X0256425Y0294283D01*
X0256452Y0294121D01*
X0256474Y0293958D01*
X0256492Y0293795D01*
X0256506Y0293631D01*
X0256516Y0293467D01*
X0256522Y0293303D01*
X0256524Y0293139D01*
X0256522Y0292975D01*
X0256516Y0292811D01*
X0256506Y0292647D01*
X0256492Y0292483D01*
X0256474Y0292320D01*
X0256452Y0292157D01*
X0256425Y0291995D01*
X0256395Y0291833D01*
X0256361Y0291673D01*
X0256323Y0291513D01*
X0256282Y0291354D01*
X0256236Y0291196D01*
X0256186Y0291040D01*
X0256133Y0290884D01*
X0256076Y0290730D01*
X0256015Y0290578D01*
X0255950Y0290427D01*
X0255881Y0290277D01*
X0255809Y0290130D01*
X0255734Y0289984D01*
X0255654Y0289840D01*
X0255572Y0289698D01*
X0255486Y0289558D01*
X0255396Y0289421D01*
X0255303Y0289285D01*
X0255207Y0289152D01*
X0255107Y0289021D01*
X0255005Y0288893D01*
X0254899Y0288767D01*
X0254790Y0288644D01*
X0254678Y0288524D01*
X0254564Y0288406D01*
X0254446Y0288292D01*
X0254326Y0288180D01*
X0254203Y0288071D01*
X0254077Y0287965D01*
X0253949Y0287863D01*
X0253818Y0287763D01*
X0253685Y0287667D01*
X0253549Y0287574D01*
X0253412Y0287484D01*
X0253272Y0287398D01*
X0253130Y0287316D01*
X0252986Y0287236D01*
X0252840Y0287161D01*
X0252693Y0287089D01*
X0252543Y0287020D01*
X0252392Y0286955D01*
X0252240Y0286894D01*
X0252086Y0286837D01*
X0251930Y0286784D01*
X0251774Y0286734D01*
X0251616Y0286688D01*
X0251457Y0286647D01*
X0251297Y0286609D01*
X0251137Y0286575D01*
X0250975Y0286545D01*
X0250813Y0286518D01*
X0250650Y0286496D01*
X0250487Y0286478D01*
X0250323Y0286464D01*
X0250159Y0286454D01*
X0249995Y0286448D01*
X0249831Y0286446D01*
X0249667Y0286448D01*
X0249503Y0286454D01*
X0249339Y0286464D01*
X0249175Y0286478D01*
X0249012Y0286496D01*
X0248849Y0286518D01*
X0248687Y0286545D01*
X0248525Y0286575D01*
X0248365Y0286609D01*
X0248205Y0286647D01*
X0248046Y0286688D01*
X0247888Y0286734D01*
X0247732Y0286784D01*
X0247576Y0286837D01*
X0247422Y0286894D01*
X0247270Y0286955D01*
X0247119Y0287020D01*
X0246969Y0287089D01*
X0246822Y0287161D01*
X0246676Y0287236D01*
X0246532Y0287316D01*
X0246390Y0287398D01*
X0246250Y0287484D01*
X0246113Y0287574D01*
X0245977Y0287667D01*
X0245844Y0287763D01*
X0245713Y0287863D01*
X0245585Y0287965D01*
X0245459Y0288071D01*
X0245336Y0288180D01*
X0245216Y0288292D01*
X0245098Y0288406D01*
X0244984Y0288524D01*
X0244872Y0288644D01*
X0244763Y0288767D01*
X0244657Y0288893D01*
X0244555Y0289021D01*
X0244455Y0289152D01*
X0244359Y0289285D01*
X0244266Y0289421D01*
X0244176Y0289558D01*
X0244090Y0289698D01*
X0244008Y0289840D01*
X0243928Y0289984D01*
X0243853Y0290130D01*
X0243781Y0290277D01*
X0243712Y0290427D01*
X0243647Y0290578D01*
X0243586Y0290730D01*
X0243529Y0290884D01*
X0243476Y0291040D01*
X0243426Y0291196D01*
X0243380Y0291354D01*
X0243339Y0291513D01*
X0243301Y0291673D01*
X0243267Y0291833D01*
X0243237Y0291995D01*
X0243210Y0292157D01*
X0243188Y0292320D01*
X0243170Y0292483D01*
X0243156Y0292647D01*
X0243146Y0292811D01*
X0243140Y0292975D01*
X0243138Y0293139D01*
X0236331Y0293139D02*
X0236335Y0293470D01*
X0236347Y0293801D01*
X0236368Y0294132D01*
X0236396Y0294462D01*
X0236433Y0294792D01*
X0236477Y0295120D01*
X0236530Y0295447D01*
X0236590Y0295773D01*
X0236659Y0296097D01*
X0236736Y0296419D01*
X0236820Y0296740D01*
X0236912Y0297058D01*
X0237012Y0297374D01*
X0237120Y0297687D01*
X0237236Y0297998D01*
X0237359Y0298305D01*
X0237489Y0298610D01*
X0237627Y0298911D01*
X0237772Y0299209D01*
X0237925Y0299503D01*
X0238085Y0299793D01*
X0238252Y0300079D01*
X0238425Y0300361D01*
X0238606Y0300639D01*
X0238794Y0300912D01*
X0238988Y0301181D01*
X0239188Y0301445D01*
X0239395Y0301703D01*
X0239609Y0301957D01*
X0239828Y0302205D01*
X0240054Y0302448D01*
X0240285Y0302685D01*
X0240522Y0302916D01*
X0240765Y0303142D01*
X0241013Y0303361D01*
X0241267Y0303575D01*
X0241525Y0303782D01*
X0241789Y0303982D01*
X0242058Y0304176D01*
X0242331Y0304364D01*
X0242609Y0304545D01*
X0242891Y0304718D01*
X0243177Y0304885D01*
X0243467Y0305045D01*
X0243761Y0305198D01*
X0244059Y0305343D01*
X0244360Y0305481D01*
X0244665Y0305611D01*
X0244972Y0305734D01*
X0245283Y0305850D01*
X0245596Y0305958D01*
X0245912Y0306058D01*
X0246230Y0306150D01*
X0246551Y0306234D01*
X0246873Y0306311D01*
X0247197Y0306380D01*
X0247523Y0306440D01*
X0247850Y0306493D01*
X0248178Y0306537D01*
X0248508Y0306574D01*
X0248838Y0306602D01*
X0249169Y0306623D01*
X0249500Y0306635D01*
X0249831Y0306639D01*
X0250162Y0306635D01*
X0250493Y0306623D01*
X0250824Y0306602D01*
X0251154Y0306574D01*
X0251484Y0306537D01*
X0251812Y0306493D01*
X0252139Y0306440D01*
X0252465Y0306380D01*
X0252789Y0306311D01*
X0253111Y0306234D01*
X0253432Y0306150D01*
X0253750Y0306058D01*
X0254066Y0305958D01*
X0254379Y0305850D01*
X0254690Y0305734D01*
X0254997Y0305611D01*
X0255302Y0305481D01*
X0255603Y0305343D01*
X0255901Y0305198D01*
X0256195Y0305045D01*
X0256485Y0304885D01*
X0256771Y0304718D01*
X0257053Y0304545D01*
X0257331Y0304364D01*
X0257604Y0304176D01*
X0257873Y0303982D01*
X0258137Y0303782D01*
X0258395Y0303575D01*
X0258649Y0303361D01*
X0258897Y0303142D01*
X0259140Y0302916D01*
X0259377Y0302685D01*
X0259608Y0302448D01*
X0259834Y0302205D01*
X0260053Y0301957D01*
X0260267Y0301703D01*
X0260474Y0301445D01*
X0260674Y0301181D01*
X0260868Y0300912D01*
X0261056Y0300639D01*
X0261237Y0300361D01*
X0261410Y0300079D01*
X0261577Y0299793D01*
X0261737Y0299503D01*
X0261890Y0299209D01*
X0262035Y0298911D01*
X0262173Y0298610D01*
X0262303Y0298305D01*
X0262426Y0297998D01*
X0262542Y0297687D01*
X0262650Y0297374D01*
X0262750Y0297058D01*
X0262842Y0296740D01*
X0262926Y0296419D01*
X0263003Y0296097D01*
X0263072Y0295773D01*
X0263132Y0295447D01*
X0263185Y0295120D01*
X0263229Y0294792D01*
X0263266Y0294462D01*
X0263294Y0294132D01*
X0263315Y0293801D01*
X0263327Y0293470D01*
X0263331Y0293139D01*
X0263327Y0292808D01*
X0263315Y0292477D01*
X0263294Y0292146D01*
X0263266Y0291816D01*
X0263229Y0291486D01*
X0263185Y0291158D01*
X0263132Y0290831D01*
X0263072Y0290505D01*
X0263003Y0290181D01*
X0262926Y0289859D01*
X0262842Y0289538D01*
X0262750Y0289220D01*
X0262650Y0288904D01*
X0262542Y0288591D01*
X0262426Y0288280D01*
X0262303Y0287973D01*
X0262173Y0287668D01*
X0262035Y0287367D01*
X0261890Y0287069D01*
X0261737Y0286775D01*
X0261577Y0286485D01*
X0261410Y0286199D01*
X0261237Y0285917D01*
X0261056Y0285639D01*
X0260868Y0285366D01*
X0260674Y0285097D01*
X0260474Y0284833D01*
X0260267Y0284575D01*
X0260053Y0284321D01*
X0259834Y0284073D01*
X0259608Y0283830D01*
X0259377Y0283593D01*
X0259140Y0283362D01*
X0258897Y0283136D01*
X0258649Y0282917D01*
X0258395Y0282703D01*
X0258137Y0282496D01*
X0257873Y0282296D01*
X0257604Y0282102D01*
X0257331Y0281914D01*
X0257053Y0281733D01*
X0256771Y0281560D01*
X0256485Y0281393D01*
X0256195Y0281233D01*
X0255901Y0281080D01*
X0255603Y0280935D01*
X0255302Y0280797D01*
X0254997Y0280667D01*
X0254690Y0280544D01*
X0254379Y0280428D01*
X0254066Y0280320D01*
X0253750Y0280220D01*
X0253432Y0280128D01*
X0253111Y0280044D01*
X0252789Y0279967D01*
X0252465Y0279898D01*
X0252139Y0279838D01*
X0251812Y0279785D01*
X0251484Y0279741D01*
X0251154Y0279704D01*
X0250824Y0279676D01*
X0250493Y0279655D01*
X0250162Y0279643D01*
X0249831Y0279639D01*
X0249500Y0279643D01*
X0249169Y0279655D01*
X0248838Y0279676D01*
X0248508Y0279704D01*
X0248178Y0279741D01*
X0247850Y0279785D01*
X0247523Y0279838D01*
X0247197Y0279898D01*
X0246873Y0279967D01*
X0246551Y0280044D01*
X0246230Y0280128D01*
X0245912Y0280220D01*
X0245596Y0280320D01*
X0245283Y0280428D01*
X0244972Y0280544D01*
X0244665Y0280667D01*
X0244360Y0280797D01*
X0244059Y0280935D01*
X0243761Y0281080D01*
X0243467Y0281233D01*
X0243177Y0281393D01*
X0242891Y0281560D01*
X0242609Y0281733D01*
X0242331Y0281914D01*
X0242058Y0282102D01*
X0241789Y0282296D01*
X0241525Y0282496D01*
X0241267Y0282703D01*
X0241013Y0282917D01*
X0240765Y0283136D01*
X0240522Y0283362D01*
X0240285Y0283593D01*
X0240054Y0283830D01*
X0239828Y0284073D01*
X0239609Y0284321D01*
X0239395Y0284575D01*
X0239188Y0284833D01*
X0238988Y0285097D01*
X0238794Y0285366D01*
X0238606Y0285639D01*
X0238425Y0285917D01*
X0238252Y0286199D01*
X0238085Y0286485D01*
X0237925Y0286775D01*
X0237772Y0287069D01*
X0237627Y0287367D01*
X0237489Y0287668D01*
X0237359Y0287973D01*
X0237236Y0288280D01*
X0237120Y0288591D01*
X0237012Y0288904D01*
X0236912Y0289220D01*
X0236820Y0289538D01*
X0236736Y0289859D01*
X0236659Y0290181D01*
X0236590Y0290505D01*
X0236530Y0290831D01*
X0236477Y0291158D01*
X0236433Y0291486D01*
X0236396Y0291816D01*
X0236368Y0292146D01*
X0236347Y0292477D01*
X0236335Y0292808D01*
X0236331Y0293139D01*
X0317179Y0229497D02*
X0317179Y0224497D01*
X0314679Y0226997D02*
X0319679Y0226997D01*
X0320679Y0226997D02*
X0320690Y0227885D01*
X0320722Y0228772D01*
X0320776Y0229658D01*
X0320852Y0230542D01*
X0320949Y0231424D01*
X0321067Y0232304D01*
X0321207Y0233181D01*
X0321369Y0234054D01*
X0321551Y0234922D01*
X0321755Y0235786D01*
X0321979Y0236645D01*
X0322224Y0237498D01*
X0322491Y0238345D01*
X0322777Y0239185D01*
X0323084Y0240018D01*
X0323411Y0240843D01*
X0323758Y0241660D01*
X0324125Y0242468D01*
X0324512Y0243268D01*
X0324918Y0244057D01*
X0325343Y0244836D01*
X0325787Y0245605D01*
X0326249Y0246363D01*
X0326730Y0247109D01*
X0327229Y0247843D01*
X0327745Y0248565D01*
X0328279Y0249274D01*
X0328830Y0249970D01*
X0329398Y0250653D01*
X0329982Y0251321D01*
X0330582Y0251975D01*
X0331199Y0252614D01*
X0331830Y0253237D01*
X0332476Y0253846D01*
X0333138Y0254438D01*
X0333813Y0255014D01*
X0334502Y0255574D01*
X0335205Y0256116D01*
X0335920Y0256641D01*
X0336648Y0257149D01*
X0337389Y0257639D01*
X0338141Y0258110D01*
X0338904Y0258564D01*
X0339678Y0258998D01*
X0340463Y0259414D01*
X0341257Y0259810D01*
X0342061Y0260187D01*
X0342873Y0260544D01*
X0343694Y0260881D01*
X0344523Y0261198D01*
X0345360Y0261495D01*
X0346204Y0261771D01*
X0347054Y0262027D01*
X0347910Y0262262D01*
X0348771Y0262476D01*
X0349637Y0262669D01*
X0350508Y0262841D01*
X0351383Y0262991D01*
X0352261Y0263121D01*
X0353142Y0263228D01*
X0354026Y0263315D01*
X0354911Y0263379D01*
X0355798Y0263423D01*
X0356685Y0263444D01*
X0357573Y0263444D01*
X0358460Y0263423D01*
X0359347Y0263379D01*
X0360232Y0263315D01*
X0361116Y0263228D01*
X0361997Y0263121D01*
X0362875Y0262991D01*
X0363750Y0262841D01*
X0364621Y0262669D01*
X0365487Y0262476D01*
X0366348Y0262262D01*
X0367204Y0262027D01*
X0368054Y0261771D01*
X0368898Y0261495D01*
X0369735Y0261198D01*
X0370564Y0260881D01*
X0371385Y0260544D01*
X0372197Y0260187D01*
X0373001Y0259810D01*
X0373795Y0259414D01*
X0374580Y0258998D01*
X0375354Y0258564D01*
X0376117Y0258110D01*
X0376869Y0257639D01*
X0377610Y0257149D01*
X0378338Y0256641D01*
X0379053Y0256116D01*
X0379756Y0255574D01*
X0380445Y0255014D01*
X0381120Y0254438D01*
X0381782Y0253846D01*
X0382428Y0253237D01*
X0383059Y0252614D01*
X0383676Y0251975D01*
X0384276Y0251321D01*
X0384860Y0250653D01*
X0385428Y0249970D01*
X0385979Y0249274D01*
X0386513Y0248565D01*
X0387029Y0247843D01*
X0387528Y0247109D01*
X0388009Y0246363D01*
X0388471Y0245605D01*
X0388915Y0244836D01*
X0389340Y0244057D01*
X0389746Y0243268D01*
X0390133Y0242468D01*
X0390500Y0241660D01*
X0390847Y0240843D01*
X0391174Y0240018D01*
X0391481Y0239185D01*
X0391767Y0238345D01*
X0392034Y0237498D01*
X0392279Y0236645D01*
X0392503Y0235786D01*
X0392707Y0234922D01*
X0392889Y0234054D01*
X0393051Y0233181D01*
X0393191Y0232304D01*
X0393309Y0231424D01*
X0393406Y0230542D01*
X0393482Y0229658D01*
X0393536Y0228772D01*
X0393568Y0227885D01*
X0393579Y0226997D01*
X0393568Y0226109D01*
X0393536Y0225222D01*
X0393482Y0224336D01*
X0393406Y0223452D01*
X0393309Y0222570D01*
X0393191Y0221690D01*
X0393051Y0220813D01*
X0392889Y0219940D01*
X0392707Y0219072D01*
X0392503Y0218208D01*
X0392279Y0217349D01*
X0392034Y0216496D01*
X0391767Y0215649D01*
X0391481Y0214809D01*
X0391174Y0213976D01*
X0390847Y0213151D01*
X0390500Y0212334D01*
X0390133Y0211526D01*
X0389746Y0210726D01*
X0389340Y0209937D01*
X0388915Y0209158D01*
X0388471Y0208389D01*
X0388009Y0207631D01*
X0387528Y0206885D01*
X0387029Y0206151D01*
X0386513Y0205429D01*
X0385979Y0204720D01*
X0385428Y0204024D01*
X0384860Y0203341D01*
X0384276Y0202673D01*
X0383676Y0202019D01*
X0383059Y0201380D01*
X0382428Y0200757D01*
X0381782Y0200148D01*
X0381120Y0199556D01*
X0380445Y0198980D01*
X0379756Y0198420D01*
X0379053Y0197878D01*
X0378338Y0197353D01*
X0377610Y0196845D01*
X0376869Y0196355D01*
X0376117Y0195884D01*
X0375354Y0195430D01*
X0374580Y0194996D01*
X0373795Y0194580D01*
X0373001Y0194184D01*
X0372197Y0193807D01*
X0371385Y0193450D01*
X0370564Y0193113D01*
X0369735Y0192796D01*
X0368898Y0192499D01*
X0368054Y0192223D01*
X0367204Y0191967D01*
X0366348Y0191732D01*
X0365487Y0191518D01*
X0364621Y0191325D01*
X0363750Y0191153D01*
X0362875Y0191003D01*
X0361997Y0190873D01*
X0361116Y0190766D01*
X0360232Y0190679D01*
X0359347Y0190615D01*
X0358460Y0190571D01*
X0357573Y0190550D01*
X0356685Y0190550D01*
X0355798Y0190571D01*
X0354911Y0190615D01*
X0354026Y0190679D01*
X0353142Y0190766D01*
X0352261Y0190873D01*
X0351383Y0191003D01*
X0350508Y0191153D01*
X0349637Y0191325D01*
X0348771Y0191518D01*
X0347910Y0191732D01*
X0347054Y0191967D01*
X0346204Y0192223D01*
X0345360Y0192499D01*
X0344523Y0192796D01*
X0343694Y0193113D01*
X0342873Y0193450D01*
X0342061Y0193807D01*
X0341257Y0194184D01*
X0340463Y0194580D01*
X0339678Y0194996D01*
X0338904Y0195430D01*
X0338141Y0195884D01*
X0337389Y0196355D01*
X0336648Y0196845D01*
X0335920Y0197353D01*
X0335205Y0197878D01*
X0334502Y0198420D01*
X0333813Y0198980D01*
X0333138Y0199556D01*
X0332476Y0200148D01*
X0331830Y0200757D01*
X0331199Y0201380D01*
X0330582Y0202019D01*
X0329982Y0202673D01*
X0329398Y0203341D01*
X0328830Y0204024D01*
X0328279Y0204720D01*
X0327745Y0205429D01*
X0327229Y0206151D01*
X0326730Y0206885D01*
X0326249Y0207631D01*
X0325787Y0208389D01*
X0325343Y0209158D01*
X0324918Y0209937D01*
X0324512Y0210726D01*
X0324125Y0211526D01*
X0323758Y0212334D01*
X0323411Y0213151D01*
X0323084Y0213976D01*
X0322777Y0214809D01*
X0322491Y0215649D01*
X0322224Y0216496D01*
X0321979Y0217349D01*
X0321755Y0218208D01*
X0321551Y0219072D01*
X0321369Y0219940D01*
X0321207Y0220813D01*
X0321067Y0221690D01*
X0320949Y0222570D01*
X0320852Y0223452D01*
X0320776Y0224336D01*
X0320722Y0225222D01*
X0320690Y0226109D01*
X0320679Y0226997D01*
X0323847Y0293139D02*
X0323849Y0293303D01*
X0323855Y0293467D01*
X0323865Y0293631D01*
X0323879Y0293795D01*
X0323897Y0293958D01*
X0323919Y0294121D01*
X0323946Y0294283D01*
X0323976Y0294445D01*
X0324010Y0294605D01*
X0324048Y0294765D01*
X0324089Y0294924D01*
X0324135Y0295082D01*
X0324185Y0295238D01*
X0324238Y0295394D01*
X0324295Y0295548D01*
X0324356Y0295700D01*
X0324421Y0295851D01*
X0324490Y0296001D01*
X0324562Y0296148D01*
X0324637Y0296294D01*
X0324717Y0296438D01*
X0324799Y0296580D01*
X0324885Y0296720D01*
X0324975Y0296857D01*
X0325068Y0296993D01*
X0325164Y0297126D01*
X0325264Y0297257D01*
X0325366Y0297385D01*
X0325472Y0297511D01*
X0325581Y0297634D01*
X0325693Y0297754D01*
X0325807Y0297872D01*
X0325925Y0297986D01*
X0326045Y0298098D01*
X0326168Y0298207D01*
X0326294Y0298313D01*
X0326422Y0298415D01*
X0326553Y0298515D01*
X0326686Y0298611D01*
X0326822Y0298704D01*
X0326959Y0298794D01*
X0327099Y0298880D01*
X0327241Y0298962D01*
X0327385Y0299042D01*
X0327531Y0299117D01*
X0327678Y0299189D01*
X0327828Y0299258D01*
X0327979Y0299323D01*
X0328131Y0299384D01*
X0328285Y0299441D01*
X0328441Y0299494D01*
X0328597Y0299544D01*
X0328755Y0299590D01*
X0328914Y0299631D01*
X0329074Y0299669D01*
X0329234Y0299703D01*
X0329396Y0299733D01*
X0329558Y0299760D01*
X0329721Y0299782D01*
X0329884Y0299800D01*
X0330048Y0299814D01*
X0330212Y0299824D01*
X0330376Y0299830D01*
X0330540Y0299832D01*
X0330704Y0299830D01*
X0330868Y0299824D01*
X0331032Y0299814D01*
X0331196Y0299800D01*
X0331359Y0299782D01*
X0331522Y0299760D01*
X0331684Y0299733D01*
X0331846Y0299703D01*
X0332006Y0299669D01*
X0332166Y0299631D01*
X0332325Y0299590D01*
X0332483Y0299544D01*
X0332639Y0299494D01*
X0332795Y0299441D01*
X0332949Y0299384D01*
X0333101Y0299323D01*
X0333252Y0299258D01*
X0333402Y0299189D01*
X0333549Y0299117D01*
X0333695Y0299042D01*
X0333839Y0298962D01*
X0333981Y0298880D01*
X0334121Y0298794D01*
X0334258Y0298704D01*
X0334394Y0298611D01*
X0334527Y0298515D01*
X0334658Y0298415D01*
X0334786Y0298313D01*
X0334912Y0298207D01*
X0335035Y0298098D01*
X0335155Y0297986D01*
X0335273Y0297872D01*
X0335387Y0297754D01*
X0335499Y0297634D01*
X0335608Y0297511D01*
X0335714Y0297385D01*
X0335816Y0297257D01*
X0335916Y0297126D01*
X0336012Y0296993D01*
X0336105Y0296857D01*
X0336195Y0296720D01*
X0336281Y0296580D01*
X0336363Y0296438D01*
X0336443Y0296294D01*
X0336518Y0296148D01*
X0336590Y0296001D01*
X0336659Y0295851D01*
X0336724Y0295700D01*
X0336785Y0295548D01*
X0336842Y0295394D01*
X0336895Y0295238D01*
X0336945Y0295082D01*
X0336991Y0294924D01*
X0337032Y0294765D01*
X0337070Y0294605D01*
X0337104Y0294445D01*
X0337134Y0294283D01*
X0337161Y0294121D01*
X0337183Y0293958D01*
X0337201Y0293795D01*
X0337215Y0293631D01*
X0337225Y0293467D01*
X0337231Y0293303D01*
X0337233Y0293139D01*
X0337231Y0292975D01*
X0337225Y0292811D01*
X0337215Y0292647D01*
X0337201Y0292483D01*
X0337183Y0292320D01*
X0337161Y0292157D01*
X0337134Y0291995D01*
X0337104Y0291833D01*
X0337070Y0291673D01*
X0337032Y0291513D01*
X0336991Y0291354D01*
X0336945Y0291196D01*
X0336895Y0291040D01*
X0336842Y0290884D01*
X0336785Y0290730D01*
X0336724Y0290578D01*
X0336659Y0290427D01*
X0336590Y0290277D01*
X0336518Y0290130D01*
X0336443Y0289984D01*
X0336363Y0289840D01*
X0336281Y0289698D01*
X0336195Y0289558D01*
X0336105Y0289421D01*
X0336012Y0289285D01*
X0335916Y0289152D01*
X0335816Y0289021D01*
X0335714Y0288893D01*
X0335608Y0288767D01*
X0335499Y0288644D01*
X0335387Y0288524D01*
X0335273Y0288406D01*
X0335155Y0288292D01*
X0335035Y0288180D01*
X0334912Y0288071D01*
X0334786Y0287965D01*
X0334658Y0287863D01*
X0334527Y0287763D01*
X0334394Y0287667D01*
X0334258Y0287574D01*
X0334121Y0287484D01*
X0333981Y0287398D01*
X0333839Y0287316D01*
X0333695Y0287236D01*
X0333549Y0287161D01*
X0333402Y0287089D01*
X0333252Y0287020D01*
X0333101Y0286955D01*
X0332949Y0286894D01*
X0332795Y0286837D01*
X0332639Y0286784D01*
X0332483Y0286734D01*
X0332325Y0286688D01*
X0332166Y0286647D01*
X0332006Y0286609D01*
X0331846Y0286575D01*
X0331684Y0286545D01*
X0331522Y0286518D01*
X0331359Y0286496D01*
X0331196Y0286478D01*
X0331032Y0286464D01*
X0330868Y0286454D01*
X0330704Y0286448D01*
X0330540Y0286446D01*
X0330376Y0286448D01*
X0330212Y0286454D01*
X0330048Y0286464D01*
X0329884Y0286478D01*
X0329721Y0286496D01*
X0329558Y0286518D01*
X0329396Y0286545D01*
X0329234Y0286575D01*
X0329074Y0286609D01*
X0328914Y0286647D01*
X0328755Y0286688D01*
X0328597Y0286734D01*
X0328441Y0286784D01*
X0328285Y0286837D01*
X0328131Y0286894D01*
X0327979Y0286955D01*
X0327828Y0287020D01*
X0327678Y0287089D01*
X0327531Y0287161D01*
X0327385Y0287236D01*
X0327241Y0287316D01*
X0327099Y0287398D01*
X0326959Y0287484D01*
X0326822Y0287574D01*
X0326686Y0287667D01*
X0326553Y0287763D01*
X0326422Y0287863D01*
X0326294Y0287965D01*
X0326168Y0288071D01*
X0326045Y0288180D01*
X0325925Y0288292D01*
X0325807Y0288406D01*
X0325693Y0288524D01*
X0325581Y0288644D01*
X0325472Y0288767D01*
X0325366Y0288893D01*
X0325264Y0289021D01*
X0325164Y0289152D01*
X0325068Y0289285D01*
X0324975Y0289421D01*
X0324885Y0289558D01*
X0324799Y0289698D01*
X0324717Y0289840D01*
X0324637Y0289984D01*
X0324562Y0290130D01*
X0324490Y0290277D01*
X0324421Y0290427D01*
X0324356Y0290578D01*
X0324295Y0290730D01*
X0324238Y0290884D01*
X0324185Y0291040D01*
X0324135Y0291196D01*
X0324089Y0291354D01*
X0324048Y0291513D01*
X0324010Y0291673D01*
X0323976Y0291833D01*
X0323946Y0291995D01*
X0323919Y0292157D01*
X0323897Y0292320D01*
X0323879Y0292483D01*
X0323865Y0292647D01*
X0323855Y0292811D01*
X0323849Y0292975D01*
X0323847Y0293139D01*
X0317040Y0293139D02*
X0317044Y0293470D01*
X0317056Y0293801D01*
X0317077Y0294132D01*
X0317105Y0294462D01*
X0317142Y0294792D01*
X0317186Y0295120D01*
X0317239Y0295447D01*
X0317299Y0295773D01*
X0317368Y0296097D01*
X0317445Y0296419D01*
X0317529Y0296740D01*
X0317621Y0297058D01*
X0317721Y0297374D01*
X0317829Y0297687D01*
X0317945Y0297998D01*
X0318068Y0298305D01*
X0318198Y0298610D01*
X0318336Y0298911D01*
X0318481Y0299209D01*
X0318634Y0299503D01*
X0318794Y0299793D01*
X0318961Y0300079D01*
X0319134Y0300361D01*
X0319315Y0300639D01*
X0319503Y0300912D01*
X0319697Y0301181D01*
X0319897Y0301445D01*
X0320104Y0301703D01*
X0320318Y0301957D01*
X0320537Y0302205D01*
X0320763Y0302448D01*
X0320994Y0302685D01*
X0321231Y0302916D01*
X0321474Y0303142D01*
X0321722Y0303361D01*
X0321976Y0303575D01*
X0322234Y0303782D01*
X0322498Y0303982D01*
X0322767Y0304176D01*
X0323040Y0304364D01*
X0323318Y0304545D01*
X0323600Y0304718D01*
X0323886Y0304885D01*
X0324176Y0305045D01*
X0324470Y0305198D01*
X0324768Y0305343D01*
X0325069Y0305481D01*
X0325374Y0305611D01*
X0325681Y0305734D01*
X0325992Y0305850D01*
X0326305Y0305958D01*
X0326621Y0306058D01*
X0326939Y0306150D01*
X0327260Y0306234D01*
X0327582Y0306311D01*
X0327906Y0306380D01*
X0328232Y0306440D01*
X0328559Y0306493D01*
X0328887Y0306537D01*
X0329217Y0306574D01*
X0329547Y0306602D01*
X0329878Y0306623D01*
X0330209Y0306635D01*
X0330540Y0306639D01*
X0330871Y0306635D01*
X0331202Y0306623D01*
X0331533Y0306602D01*
X0331863Y0306574D01*
X0332193Y0306537D01*
X0332521Y0306493D01*
X0332848Y0306440D01*
X0333174Y0306380D01*
X0333498Y0306311D01*
X0333820Y0306234D01*
X0334141Y0306150D01*
X0334459Y0306058D01*
X0334775Y0305958D01*
X0335088Y0305850D01*
X0335399Y0305734D01*
X0335706Y0305611D01*
X0336011Y0305481D01*
X0336312Y0305343D01*
X0336610Y0305198D01*
X0336904Y0305045D01*
X0337194Y0304885D01*
X0337480Y0304718D01*
X0337762Y0304545D01*
X0338040Y0304364D01*
X0338313Y0304176D01*
X0338582Y0303982D01*
X0338846Y0303782D01*
X0339104Y0303575D01*
X0339358Y0303361D01*
X0339606Y0303142D01*
X0339849Y0302916D01*
X0340086Y0302685D01*
X0340317Y0302448D01*
X0340543Y0302205D01*
X0340762Y0301957D01*
X0340976Y0301703D01*
X0341183Y0301445D01*
X0341383Y0301181D01*
X0341577Y0300912D01*
X0341765Y0300639D01*
X0341946Y0300361D01*
X0342119Y0300079D01*
X0342286Y0299793D01*
X0342446Y0299503D01*
X0342599Y0299209D01*
X0342744Y0298911D01*
X0342882Y0298610D01*
X0343012Y0298305D01*
X0343135Y0297998D01*
X0343251Y0297687D01*
X0343359Y0297374D01*
X0343459Y0297058D01*
X0343551Y0296740D01*
X0343635Y0296419D01*
X0343712Y0296097D01*
X0343781Y0295773D01*
X0343841Y0295447D01*
X0343894Y0295120D01*
X0343938Y0294792D01*
X0343975Y0294462D01*
X0344003Y0294132D01*
X0344024Y0293801D01*
X0344036Y0293470D01*
X0344040Y0293139D01*
X0344036Y0292808D01*
X0344024Y0292477D01*
X0344003Y0292146D01*
X0343975Y0291816D01*
X0343938Y0291486D01*
X0343894Y0291158D01*
X0343841Y0290831D01*
X0343781Y0290505D01*
X0343712Y0290181D01*
X0343635Y0289859D01*
X0343551Y0289538D01*
X0343459Y0289220D01*
X0343359Y0288904D01*
X0343251Y0288591D01*
X0343135Y0288280D01*
X0343012Y0287973D01*
X0342882Y0287668D01*
X0342744Y0287367D01*
X0342599Y0287069D01*
X0342446Y0286775D01*
X0342286Y0286485D01*
X0342119Y0286199D01*
X0341946Y0285917D01*
X0341765Y0285639D01*
X0341577Y0285366D01*
X0341383Y0285097D01*
X0341183Y0284833D01*
X0340976Y0284575D01*
X0340762Y0284321D01*
X0340543Y0284073D01*
X0340317Y0283830D01*
X0340086Y0283593D01*
X0339849Y0283362D01*
X0339606Y0283136D01*
X0339358Y0282917D01*
X0339104Y0282703D01*
X0338846Y0282496D01*
X0338582Y0282296D01*
X0338313Y0282102D01*
X0338040Y0281914D01*
X0337762Y0281733D01*
X0337480Y0281560D01*
X0337194Y0281393D01*
X0336904Y0281233D01*
X0336610Y0281080D01*
X0336312Y0280935D01*
X0336011Y0280797D01*
X0335706Y0280667D01*
X0335399Y0280544D01*
X0335088Y0280428D01*
X0334775Y0280320D01*
X0334459Y0280220D01*
X0334141Y0280128D01*
X0333820Y0280044D01*
X0333498Y0279967D01*
X0333174Y0279898D01*
X0332848Y0279838D01*
X0332521Y0279785D01*
X0332193Y0279741D01*
X0331863Y0279704D01*
X0331533Y0279676D01*
X0331202Y0279655D01*
X0330871Y0279643D01*
X0330540Y0279639D01*
X0330209Y0279643D01*
X0329878Y0279655D01*
X0329547Y0279676D01*
X0329217Y0279704D01*
X0328887Y0279741D01*
X0328559Y0279785D01*
X0328232Y0279838D01*
X0327906Y0279898D01*
X0327582Y0279967D01*
X0327260Y0280044D01*
X0326939Y0280128D01*
X0326621Y0280220D01*
X0326305Y0280320D01*
X0325992Y0280428D01*
X0325681Y0280544D01*
X0325374Y0280667D01*
X0325069Y0280797D01*
X0324768Y0280935D01*
X0324470Y0281080D01*
X0324176Y0281233D01*
X0323886Y0281393D01*
X0323600Y0281560D01*
X0323318Y0281733D01*
X0323040Y0281914D01*
X0322767Y0282102D01*
X0322498Y0282296D01*
X0322234Y0282496D01*
X0321976Y0282703D01*
X0321722Y0282917D01*
X0321474Y0283136D01*
X0321231Y0283362D01*
X0320994Y0283593D01*
X0320763Y0283830D01*
X0320537Y0284073D01*
X0320318Y0284321D01*
X0320104Y0284575D01*
X0319897Y0284833D01*
X0319697Y0285097D01*
X0319503Y0285366D01*
X0319315Y0285639D01*
X0319134Y0285917D01*
X0318961Y0286199D01*
X0318794Y0286485D01*
X0318634Y0286775D01*
X0318481Y0287069D01*
X0318336Y0287367D01*
X0318198Y0287668D01*
X0318068Y0287973D01*
X0317945Y0288280D01*
X0317829Y0288591D01*
X0317721Y0288904D01*
X0317621Y0289220D01*
X0317529Y0289538D01*
X0317445Y0289859D01*
X0317368Y0290181D01*
X0317299Y0290505D01*
X0317239Y0290831D01*
X0317186Y0291158D01*
X0317142Y0291486D01*
X0317105Y0291816D01*
X0317077Y0292146D01*
X0317056Y0292477D01*
X0317044Y0292808D01*
X0317040Y0293139D01*
X0367154Y0293139D02*
X0367156Y0293303D01*
X0367162Y0293467D01*
X0367172Y0293631D01*
X0367186Y0293795D01*
X0367204Y0293958D01*
X0367226Y0294121D01*
X0367253Y0294283D01*
X0367283Y0294445D01*
X0367317Y0294605D01*
X0367355Y0294765D01*
X0367396Y0294924D01*
X0367442Y0295082D01*
X0367492Y0295238D01*
X0367545Y0295394D01*
X0367602Y0295548D01*
X0367663Y0295700D01*
X0367728Y0295851D01*
X0367797Y0296001D01*
X0367869Y0296148D01*
X0367944Y0296294D01*
X0368024Y0296438D01*
X0368106Y0296580D01*
X0368192Y0296720D01*
X0368282Y0296857D01*
X0368375Y0296993D01*
X0368471Y0297126D01*
X0368571Y0297257D01*
X0368673Y0297385D01*
X0368779Y0297511D01*
X0368888Y0297634D01*
X0369000Y0297754D01*
X0369114Y0297872D01*
X0369232Y0297986D01*
X0369352Y0298098D01*
X0369475Y0298207D01*
X0369601Y0298313D01*
X0369729Y0298415D01*
X0369860Y0298515D01*
X0369993Y0298611D01*
X0370129Y0298704D01*
X0370266Y0298794D01*
X0370406Y0298880D01*
X0370548Y0298962D01*
X0370692Y0299042D01*
X0370838Y0299117D01*
X0370985Y0299189D01*
X0371135Y0299258D01*
X0371286Y0299323D01*
X0371438Y0299384D01*
X0371592Y0299441D01*
X0371748Y0299494D01*
X0371904Y0299544D01*
X0372062Y0299590D01*
X0372221Y0299631D01*
X0372381Y0299669D01*
X0372541Y0299703D01*
X0372703Y0299733D01*
X0372865Y0299760D01*
X0373028Y0299782D01*
X0373191Y0299800D01*
X0373355Y0299814D01*
X0373519Y0299824D01*
X0373683Y0299830D01*
X0373847Y0299832D01*
X0374011Y0299830D01*
X0374175Y0299824D01*
X0374339Y0299814D01*
X0374503Y0299800D01*
X0374666Y0299782D01*
X0374829Y0299760D01*
X0374991Y0299733D01*
X0375153Y0299703D01*
X0375313Y0299669D01*
X0375473Y0299631D01*
X0375632Y0299590D01*
X0375790Y0299544D01*
X0375946Y0299494D01*
X0376102Y0299441D01*
X0376256Y0299384D01*
X0376408Y0299323D01*
X0376559Y0299258D01*
X0376709Y0299189D01*
X0376856Y0299117D01*
X0377002Y0299042D01*
X0377146Y0298962D01*
X0377288Y0298880D01*
X0377428Y0298794D01*
X0377565Y0298704D01*
X0377701Y0298611D01*
X0377834Y0298515D01*
X0377965Y0298415D01*
X0378093Y0298313D01*
X0378219Y0298207D01*
X0378342Y0298098D01*
X0378462Y0297986D01*
X0378580Y0297872D01*
X0378694Y0297754D01*
X0378806Y0297634D01*
X0378915Y0297511D01*
X0379021Y0297385D01*
X0379123Y0297257D01*
X0379223Y0297126D01*
X0379319Y0296993D01*
X0379412Y0296857D01*
X0379502Y0296720D01*
X0379588Y0296580D01*
X0379670Y0296438D01*
X0379750Y0296294D01*
X0379825Y0296148D01*
X0379897Y0296001D01*
X0379966Y0295851D01*
X0380031Y0295700D01*
X0380092Y0295548D01*
X0380149Y0295394D01*
X0380202Y0295238D01*
X0380252Y0295082D01*
X0380298Y0294924D01*
X0380339Y0294765D01*
X0380377Y0294605D01*
X0380411Y0294445D01*
X0380441Y0294283D01*
X0380468Y0294121D01*
X0380490Y0293958D01*
X0380508Y0293795D01*
X0380522Y0293631D01*
X0380532Y0293467D01*
X0380538Y0293303D01*
X0380540Y0293139D01*
X0380538Y0292975D01*
X0380532Y0292811D01*
X0380522Y0292647D01*
X0380508Y0292483D01*
X0380490Y0292320D01*
X0380468Y0292157D01*
X0380441Y0291995D01*
X0380411Y0291833D01*
X0380377Y0291673D01*
X0380339Y0291513D01*
X0380298Y0291354D01*
X0380252Y0291196D01*
X0380202Y0291040D01*
X0380149Y0290884D01*
X0380092Y0290730D01*
X0380031Y0290578D01*
X0379966Y0290427D01*
X0379897Y0290277D01*
X0379825Y0290130D01*
X0379750Y0289984D01*
X0379670Y0289840D01*
X0379588Y0289698D01*
X0379502Y0289558D01*
X0379412Y0289421D01*
X0379319Y0289285D01*
X0379223Y0289152D01*
X0379123Y0289021D01*
X0379021Y0288893D01*
X0378915Y0288767D01*
X0378806Y0288644D01*
X0378694Y0288524D01*
X0378580Y0288406D01*
X0378462Y0288292D01*
X0378342Y0288180D01*
X0378219Y0288071D01*
X0378093Y0287965D01*
X0377965Y0287863D01*
X0377834Y0287763D01*
X0377701Y0287667D01*
X0377565Y0287574D01*
X0377428Y0287484D01*
X0377288Y0287398D01*
X0377146Y0287316D01*
X0377002Y0287236D01*
X0376856Y0287161D01*
X0376709Y0287089D01*
X0376559Y0287020D01*
X0376408Y0286955D01*
X0376256Y0286894D01*
X0376102Y0286837D01*
X0375946Y0286784D01*
X0375790Y0286734D01*
X0375632Y0286688D01*
X0375473Y0286647D01*
X0375313Y0286609D01*
X0375153Y0286575D01*
X0374991Y0286545D01*
X0374829Y0286518D01*
X0374666Y0286496D01*
X0374503Y0286478D01*
X0374339Y0286464D01*
X0374175Y0286454D01*
X0374011Y0286448D01*
X0373847Y0286446D01*
X0373683Y0286448D01*
X0373519Y0286454D01*
X0373355Y0286464D01*
X0373191Y0286478D01*
X0373028Y0286496D01*
X0372865Y0286518D01*
X0372703Y0286545D01*
X0372541Y0286575D01*
X0372381Y0286609D01*
X0372221Y0286647D01*
X0372062Y0286688D01*
X0371904Y0286734D01*
X0371748Y0286784D01*
X0371592Y0286837D01*
X0371438Y0286894D01*
X0371286Y0286955D01*
X0371135Y0287020D01*
X0370985Y0287089D01*
X0370838Y0287161D01*
X0370692Y0287236D01*
X0370548Y0287316D01*
X0370406Y0287398D01*
X0370266Y0287484D01*
X0370129Y0287574D01*
X0369993Y0287667D01*
X0369860Y0287763D01*
X0369729Y0287863D01*
X0369601Y0287965D01*
X0369475Y0288071D01*
X0369352Y0288180D01*
X0369232Y0288292D01*
X0369114Y0288406D01*
X0369000Y0288524D01*
X0368888Y0288644D01*
X0368779Y0288767D01*
X0368673Y0288893D01*
X0368571Y0289021D01*
X0368471Y0289152D01*
X0368375Y0289285D01*
X0368282Y0289421D01*
X0368192Y0289558D01*
X0368106Y0289698D01*
X0368024Y0289840D01*
X0367944Y0289984D01*
X0367869Y0290130D01*
X0367797Y0290277D01*
X0367728Y0290427D01*
X0367663Y0290578D01*
X0367602Y0290730D01*
X0367545Y0290884D01*
X0367492Y0291040D01*
X0367442Y0291196D01*
X0367396Y0291354D01*
X0367355Y0291513D01*
X0367317Y0291673D01*
X0367283Y0291833D01*
X0367253Y0291995D01*
X0367226Y0292157D01*
X0367204Y0292320D01*
X0367186Y0292483D01*
X0367172Y0292647D01*
X0367162Y0292811D01*
X0367156Y0292975D01*
X0367154Y0293139D01*
X0360347Y0293139D02*
X0360351Y0293470D01*
X0360363Y0293801D01*
X0360384Y0294132D01*
X0360412Y0294462D01*
X0360449Y0294792D01*
X0360493Y0295120D01*
X0360546Y0295447D01*
X0360606Y0295773D01*
X0360675Y0296097D01*
X0360752Y0296419D01*
X0360836Y0296740D01*
X0360928Y0297058D01*
X0361028Y0297374D01*
X0361136Y0297687D01*
X0361252Y0297998D01*
X0361375Y0298305D01*
X0361505Y0298610D01*
X0361643Y0298911D01*
X0361788Y0299209D01*
X0361941Y0299503D01*
X0362101Y0299793D01*
X0362268Y0300079D01*
X0362441Y0300361D01*
X0362622Y0300639D01*
X0362810Y0300912D01*
X0363004Y0301181D01*
X0363204Y0301445D01*
X0363411Y0301703D01*
X0363625Y0301957D01*
X0363844Y0302205D01*
X0364070Y0302448D01*
X0364301Y0302685D01*
X0364538Y0302916D01*
X0364781Y0303142D01*
X0365029Y0303361D01*
X0365283Y0303575D01*
X0365541Y0303782D01*
X0365805Y0303982D01*
X0366074Y0304176D01*
X0366347Y0304364D01*
X0366625Y0304545D01*
X0366907Y0304718D01*
X0367193Y0304885D01*
X0367483Y0305045D01*
X0367777Y0305198D01*
X0368075Y0305343D01*
X0368376Y0305481D01*
X0368681Y0305611D01*
X0368988Y0305734D01*
X0369299Y0305850D01*
X0369612Y0305958D01*
X0369928Y0306058D01*
X0370246Y0306150D01*
X0370567Y0306234D01*
X0370889Y0306311D01*
X0371213Y0306380D01*
X0371539Y0306440D01*
X0371866Y0306493D01*
X0372194Y0306537D01*
X0372524Y0306574D01*
X0372854Y0306602D01*
X0373185Y0306623D01*
X0373516Y0306635D01*
X0373847Y0306639D01*
X0374178Y0306635D01*
X0374509Y0306623D01*
X0374840Y0306602D01*
X0375170Y0306574D01*
X0375500Y0306537D01*
X0375828Y0306493D01*
X0376155Y0306440D01*
X0376481Y0306380D01*
X0376805Y0306311D01*
X0377127Y0306234D01*
X0377448Y0306150D01*
X0377766Y0306058D01*
X0378082Y0305958D01*
X0378395Y0305850D01*
X0378706Y0305734D01*
X0379013Y0305611D01*
X0379318Y0305481D01*
X0379619Y0305343D01*
X0379917Y0305198D01*
X0380211Y0305045D01*
X0380501Y0304885D01*
X0380787Y0304718D01*
X0381069Y0304545D01*
X0381347Y0304364D01*
X0381620Y0304176D01*
X0381889Y0303982D01*
X0382153Y0303782D01*
X0382411Y0303575D01*
X0382665Y0303361D01*
X0382913Y0303142D01*
X0383156Y0302916D01*
X0383393Y0302685D01*
X0383624Y0302448D01*
X0383850Y0302205D01*
X0384069Y0301957D01*
X0384283Y0301703D01*
X0384490Y0301445D01*
X0384690Y0301181D01*
X0384884Y0300912D01*
X0385072Y0300639D01*
X0385253Y0300361D01*
X0385426Y0300079D01*
X0385593Y0299793D01*
X0385753Y0299503D01*
X0385906Y0299209D01*
X0386051Y0298911D01*
X0386189Y0298610D01*
X0386319Y0298305D01*
X0386442Y0297998D01*
X0386558Y0297687D01*
X0386666Y0297374D01*
X0386766Y0297058D01*
X0386858Y0296740D01*
X0386942Y0296419D01*
X0387019Y0296097D01*
X0387088Y0295773D01*
X0387148Y0295447D01*
X0387201Y0295120D01*
X0387245Y0294792D01*
X0387282Y0294462D01*
X0387310Y0294132D01*
X0387331Y0293801D01*
X0387343Y0293470D01*
X0387347Y0293139D01*
X0387343Y0292808D01*
X0387331Y0292477D01*
X0387310Y0292146D01*
X0387282Y0291816D01*
X0387245Y0291486D01*
X0387201Y0291158D01*
X0387148Y0290831D01*
X0387088Y0290505D01*
X0387019Y0290181D01*
X0386942Y0289859D01*
X0386858Y0289538D01*
X0386766Y0289220D01*
X0386666Y0288904D01*
X0386558Y0288591D01*
X0386442Y0288280D01*
X0386319Y0287973D01*
X0386189Y0287668D01*
X0386051Y0287367D01*
X0385906Y0287069D01*
X0385753Y0286775D01*
X0385593Y0286485D01*
X0385426Y0286199D01*
X0385253Y0285917D01*
X0385072Y0285639D01*
X0384884Y0285366D01*
X0384690Y0285097D01*
X0384490Y0284833D01*
X0384283Y0284575D01*
X0384069Y0284321D01*
X0383850Y0284073D01*
X0383624Y0283830D01*
X0383393Y0283593D01*
X0383156Y0283362D01*
X0382913Y0283136D01*
X0382665Y0282917D01*
X0382411Y0282703D01*
X0382153Y0282496D01*
X0381889Y0282296D01*
X0381620Y0282102D01*
X0381347Y0281914D01*
X0381069Y0281733D01*
X0380787Y0281560D01*
X0380501Y0281393D01*
X0380211Y0281233D01*
X0379917Y0281080D01*
X0379619Y0280935D01*
X0379318Y0280797D01*
X0379013Y0280667D01*
X0378706Y0280544D01*
X0378395Y0280428D01*
X0378082Y0280320D01*
X0377766Y0280220D01*
X0377448Y0280128D01*
X0377127Y0280044D01*
X0376805Y0279967D01*
X0376481Y0279898D01*
X0376155Y0279838D01*
X0375828Y0279785D01*
X0375500Y0279741D01*
X0375170Y0279704D01*
X0374840Y0279676D01*
X0374509Y0279655D01*
X0374178Y0279643D01*
X0373847Y0279639D01*
X0373516Y0279643D01*
X0373185Y0279655D01*
X0372854Y0279676D01*
X0372524Y0279704D01*
X0372194Y0279741D01*
X0371866Y0279785D01*
X0371539Y0279838D01*
X0371213Y0279898D01*
X0370889Y0279967D01*
X0370567Y0280044D01*
X0370246Y0280128D01*
X0369928Y0280220D01*
X0369612Y0280320D01*
X0369299Y0280428D01*
X0368988Y0280544D01*
X0368681Y0280667D01*
X0368376Y0280797D01*
X0368075Y0280935D01*
X0367777Y0281080D01*
X0367483Y0281233D01*
X0367193Y0281393D01*
X0366907Y0281560D01*
X0366625Y0281733D01*
X0366347Y0281914D01*
X0366074Y0282102D01*
X0365805Y0282296D01*
X0365541Y0282496D01*
X0365283Y0282703D01*
X0365029Y0282917D01*
X0364781Y0283136D01*
X0364538Y0283362D01*
X0364301Y0283593D01*
X0364070Y0283830D01*
X0363844Y0284073D01*
X0363625Y0284321D01*
X0363411Y0284575D01*
X0363204Y0284833D01*
X0363004Y0285097D01*
X0362810Y0285366D01*
X0362622Y0285639D01*
X0362441Y0285917D01*
X0362268Y0286199D01*
X0362101Y0286485D01*
X0361941Y0286775D01*
X0361788Y0287069D01*
X0361643Y0287367D01*
X0361505Y0287668D01*
X0361375Y0287973D01*
X0361252Y0288280D01*
X0361136Y0288591D01*
X0361028Y0288904D01*
X0360928Y0289220D01*
X0360836Y0289538D01*
X0360752Y0289859D01*
X0360675Y0290181D01*
X0360606Y0290505D01*
X0360546Y0290831D01*
X0360493Y0291158D01*
X0360449Y0291486D01*
X0360412Y0291816D01*
X0360384Y0292146D01*
X0360363Y0292477D01*
X0360351Y0292808D01*
X0360347Y0293139D01*
X0317179Y0153906D02*
X0317179Y0148906D01*
X0314679Y0151406D02*
X0319679Y0151406D01*
X0320679Y0151406D02*
X0320690Y0152294D01*
X0320722Y0153181D01*
X0320776Y0154067D01*
X0320852Y0154951D01*
X0320949Y0155833D01*
X0321067Y0156713D01*
X0321207Y0157590D01*
X0321369Y0158463D01*
X0321551Y0159331D01*
X0321755Y0160195D01*
X0321979Y0161054D01*
X0322224Y0161907D01*
X0322491Y0162754D01*
X0322777Y0163594D01*
X0323084Y0164427D01*
X0323411Y0165252D01*
X0323758Y0166069D01*
X0324125Y0166877D01*
X0324512Y0167677D01*
X0324918Y0168466D01*
X0325343Y0169245D01*
X0325787Y0170014D01*
X0326249Y0170772D01*
X0326730Y0171518D01*
X0327229Y0172252D01*
X0327745Y0172974D01*
X0328279Y0173683D01*
X0328830Y0174379D01*
X0329398Y0175062D01*
X0329982Y0175730D01*
X0330582Y0176384D01*
X0331199Y0177023D01*
X0331830Y0177646D01*
X0332476Y0178255D01*
X0333138Y0178847D01*
X0333813Y0179423D01*
X0334502Y0179983D01*
X0335205Y0180525D01*
X0335920Y0181050D01*
X0336648Y0181558D01*
X0337389Y0182048D01*
X0338141Y0182519D01*
X0338904Y0182973D01*
X0339678Y0183407D01*
X0340463Y0183823D01*
X0341257Y0184219D01*
X0342061Y0184596D01*
X0342873Y0184953D01*
X0343694Y0185290D01*
X0344523Y0185607D01*
X0345360Y0185904D01*
X0346204Y0186180D01*
X0347054Y0186436D01*
X0347910Y0186671D01*
X0348771Y0186885D01*
X0349637Y0187078D01*
X0350508Y0187250D01*
X0351383Y0187400D01*
X0352261Y0187530D01*
X0353142Y0187637D01*
X0354026Y0187724D01*
X0354911Y0187788D01*
X0355798Y0187832D01*
X0356685Y0187853D01*
X0357573Y0187853D01*
X0358460Y0187832D01*
X0359347Y0187788D01*
X0360232Y0187724D01*
X0361116Y0187637D01*
X0361997Y0187530D01*
X0362875Y0187400D01*
X0363750Y0187250D01*
X0364621Y0187078D01*
X0365487Y0186885D01*
X0366348Y0186671D01*
X0367204Y0186436D01*
X0368054Y0186180D01*
X0368898Y0185904D01*
X0369735Y0185607D01*
X0370564Y0185290D01*
X0371385Y0184953D01*
X0372197Y0184596D01*
X0373001Y0184219D01*
X0373795Y0183823D01*
X0374580Y0183407D01*
X0375354Y0182973D01*
X0376117Y0182519D01*
X0376869Y0182048D01*
X0377610Y0181558D01*
X0378338Y0181050D01*
X0379053Y0180525D01*
X0379756Y0179983D01*
X0380445Y0179423D01*
X0381120Y0178847D01*
X0381782Y0178255D01*
X0382428Y0177646D01*
X0383059Y0177023D01*
X0383676Y0176384D01*
X0384276Y0175730D01*
X0384860Y0175062D01*
X0385428Y0174379D01*
X0385979Y0173683D01*
X0386513Y0172974D01*
X0387029Y0172252D01*
X0387528Y0171518D01*
X0388009Y0170772D01*
X0388471Y0170014D01*
X0388915Y0169245D01*
X0389340Y0168466D01*
X0389746Y0167677D01*
X0390133Y0166877D01*
X0390500Y0166069D01*
X0390847Y0165252D01*
X0391174Y0164427D01*
X0391481Y0163594D01*
X0391767Y0162754D01*
X0392034Y0161907D01*
X0392279Y0161054D01*
X0392503Y0160195D01*
X0392707Y0159331D01*
X0392889Y0158463D01*
X0393051Y0157590D01*
X0393191Y0156713D01*
X0393309Y0155833D01*
X0393406Y0154951D01*
X0393482Y0154067D01*
X0393536Y0153181D01*
X0393568Y0152294D01*
X0393579Y0151406D01*
X0393568Y0150518D01*
X0393536Y0149631D01*
X0393482Y0148745D01*
X0393406Y0147861D01*
X0393309Y0146979D01*
X0393191Y0146099D01*
X0393051Y0145222D01*
X0392889Y0144349D01*
X0392707Y0143481D01*
X0392503Y0142617D01*
X0392279Y0141758D01*
X0392034Y0140905D01*
X0391767Y0140058D01*
X0391481Y0139218D01*
X0391174Y0138385D01*
X0390847Y0137560D01*
X0390500Y0136743D01*
X0390133Y0135935D01*
X0389746Y0135135D01*
X0389340Y0134346D01*
X0388915Y0133567D01*
X0388471Y0132798D01*
X0388009Y0132040D01*
X0387528Y0131294D01*
X0387029Y0130560D01*
X0386513Y0129838D01*
X0385979Y0129129D01*
X0385428Y0128433D01*
X0384860Y0127750D01*
X0384276Y0127082D01*
X0383676Y0126428D01*
X0383059Y0125789D01*
X0382428Y0125166D01*
X0381782Y0124557D01*
X0381120Y0123965D01*
X0380445Y0123389D01*
X0379756Y0122829D01*
X0379053Y0122287D01*
X0378338Y0121762D01*
X0377610Y0121254D01*
X0376869Y0120764D01*
X0376117Y0120293D01*
X0375354Y0119839D01*
X0374580Y0119405D01*
X0373795Y0118989D01*
X0373001Y0118593D01*
X0372197Y0118216D01*
X0371385Y0117859D01*
X0370564Y0117522D01*
X0369735Y0117205D01*
X0368898Y0116908D01*
X0368054Y0116632D01*
X0367204Y0116376D01*
X0366348Y0116141D01*
X0365487Y0115927D01*
X0364621Y0115734D01*
X0363750Y0115562D01*
X0362875Y0115412D01*
X0361997Y0115282D01*
X0361116Y0115175D01*
X0360232Y0115088D01*
X0359347Y0115024D01*
X0358460Y0114980D01*
X0357573Y0114959D01*
X0356685Y0114959D01*
X0355798Y0114980D01*
X0354911Y0115024D01*
X0354026Y0115088D01*
X0353142Y0115175D01*
X0352261Y0115282D01*
X0351383Y0115412D01*
X0350508Y0115562D01*
X0349637Y0115734D01*
X0348771Y0115927D01*
X0347910Y0116141D01*
X0347054Y0116376D01*
X0346204Y0116632D01*
X0345360Y0116908D01*
X0344523Y0117205D01*
X0343694Y0117522D01*
X0342873Y0117859D01*
X0342061Y0118216D01*
X0341257Y0118593D01*
X0340463Y0118989D01*
X0339678Y0119405D01*
X0338904Y0119839D01*
X0338141Y0120293D01*
X0337389Y0120764D01*
X0336648Y0121254D01*
X0335920Y0121762D01*
X0335205Y0122287D01*
X0334502Y0122829D01*
X0333813Y0123389D01*
X0333138Y0123965D01*
X0332476Y0124557D01*
X0331830Y0125166D01*
X0331199Y0125789D01*
X0330582Y0126428D01*
X0329982Y0127082D01*
X0329398Y0127750D01*
X0328830Y0128433D01*
X0328279Y0129129D01*
X0327745Y0129838D01*
X0327229Y0130560D01*
X0326730Y0131294D01*
X0326249Y0132040D01*
X0325787Y0132798D01*
X0325343Y0133567D01*
X0324918Y0134346D01*
X0324512Y0135135D01*
X0324125Y0135935D01*
X0323758Y0136743D01*
X0323411Y0137560D01*
X0323084Y0138385D01*
X0322777Y0139218D01*
X0322491Y0140058D01*
X0322224Y0140905D01*
X0321979Y0141758D01*
X0321755Y0142617D01*
X0321551Y0143481D01*
X0321369Y0144349D01*
X0321207Y0145222D01*
X0321067Y0146099D01*
X0320949Y0146979D01*
X0320852Y0147861D01*
X0320776Y0148745D01*
X0320722Y0149631D01*
X0320690Y0150518D01*
X0320679Y0151406D01*
D13*
X0334207Y0173766D02*
X0333723Y0174249D01*
X0333723Y0176184D01*
X0334207Y0176668D01*
X0335174Y0176668D01*
X0335658Y0176184D01*
X0336670Y0175701D02*
X0337637Y0176668D01*
X0337637Y0173766D01*
X0336670Y0173766D02*
X0338605Y0173766D01*
X0339616Y0174249D02*
X0340100Y0173766D01*
X0341067Y0173766D01*
X0341551Y0174249D01*
X0341551Y0174733D01*
X0341067Y0175217D01*
X0339616Y0175217D01*
X0339616Y0174249D01*
X0339616Y0175217D02*
X0340584Y0176184D01*
X0341551Y0176668D01*
X0335658Y0174249D02*
X0335174Y0173766D01*
X0334207Y0173766D01*
X0062532Y0013740D02*
X0059396Y0010604D01*
X0059396Y0012172D02*
X0062532Y0012172D01*
X0062532Y0010604D02*
X0059396Y0013740D01*
X0060964Y0013740D02*
X0060964Y0010604D01*
X0015034Y0200841D02*
X0011898Y0203977D01*
X0013466Y0203977D02*
X0013466Y0200841D01*
X0011898Y0200841D02*
X0015034Y0203977D01*
X0015034Y0202409D02*
X0011898Y0202409D01*
X0021806Y0229804D02*
X0022774Y0229804D01*
X0023257Y0230288D01*
X0023257Y0232707D01*
X0024269Y0231739D02*
X0025236Y0232707D01*
X0025236Y0229804D01*
X0024269Y0229804D02*
X0026204Y0229804D01*
X0021806Y0229804D02*
X0021322Y0230288D01*
X0021322Y0232707D01*
D14*
X0123532Y0231524D02*
X0123532Y0199024D01*
X0163532Y0199024D01*
X0163532Y0231524D01*
X0153532Y0236524D01*
X0133532Y0236524D01*
X0123532Y0231524D01*
X0170776Y0231524D02*
X0170776Y0199024D01*
X0210776Y0199024D01*
X0210776Y0231524D01*
X0200776Y0236524D01*
X0180776Y0236524D01*
X0170776Y0231524D01*
X0225894Y0231524D02*
X0225894Y0199024D01*
X0265894Y0199024D01*
X0265894Y0231524D01*
X0255894Y0236524D01*
X0235894Y0236524D01*
X0225894Y0231524D01*
X0273139Y0231524D02*
X0273139Y0199024D01*
X0313139Y0199024D01*
X0313139Y0231524D01*
X0303139Y0236524D01*
X0283139Y0236524D01*
X0273139Y0231524D01*
X0314885Y0186121D02*
X0316761Y0186121D01*
X0316761Y0187081D01*
X0316761Y0186121D02*
X0318636Y0186121D01*
X0316761Y0186121D02*
X0314885Y0183621D01*
X0316761Y0183621D01*
X0316761Y0182661D01*
X0316761Y0183621D02*
X0318636Y0183621D01*
X0316761Y0186121D01*
X0303139Y0149910D02*
X0283139Y0149910D01*
X0273139Y0144910D01*
X0273139Y0112410D01*
X0313139Y0112410D01*
X0313139Y0144910D01*
X0303139Y0149910D01*
X0265894Y0144910D02*
X0265894Y0112410D01*
X0225894Y0112410D01*
X0225894Y0144910D01*
X0235894Y0149910D01*
X0255894Y0149910D01*
X0265894Y0144910D01*
X0216274Y0183621D02*
X0214398Y0186121D01*
X0214398Y0187081D01*
X0214398Y0186121D02*
X0216274Y0186121D01*
X0214398Y0186121D02*
X0212523Y0186121D01*
X0214398Y0186121D02*
X0212523Y0183621D01*
X0214398Y0183621D01*
X0214398Y0182661D01*
X0214398Y0183621D02*
X0216274Y0183621D01*
X0200776Y0149910D02*
X0180776Y0149910D01*
X0170776Y0144910D01*
X0170776Y0112410D01*
X0210776Y0112410D01*
X0210776Y0144910D01*
X0200776Y0149910D01*
X0163532Y0144910D02*
X0163532Y0112410D01*
X0123532Y0112410D01*
X0123532Y0144910D01*
X0133532Y0149910D01*
X0153532Y0149910D01*
X0163532Y0144910D01*
X0212523Y0099507D02*
X0214398Y0099507D01*
X0214398Y0100467D01*
X0214398Y0099507D02*
X0216274Y0099507D01*
X0214398Y0099507D02*
X0216274Y0097007D01*
X0214398Y0097007D01*
X0214398Y0096047D01*
X0214398Y0097007D02*
X0212523Y0097007D01*
X0214398Y0099507D01*
X0318822Y0100944D02*
X0320698Y0100944D01*
X0320698Y0099984D01*
X0320698Y0100944D02*
X0322573Y0100944D01*
X0320698Y0103444D01*
X0320698Y0104404D01*
X0320698Y0103444D02*
X0322573Y0103444D01*
X0320698Y0103444D02*
X0318822Y0100944D01*
X0318822Y0103444D02*
X0320698Y0103444D01*
X0097469Y0141957D02*
X0094320Y0141957D01*
X0091170Y0141957D01*
X0091170Y0142745D02*
X0091170Y0144320D01*
X0097469Y0144320D01*
X0097469Y0142745D01*
X0091170Y0142745D01*
X0091170Y0145107D02*
X0094320Y0145107D01*
X0097469Y0145107D01*
X0094320Y0145107D02*
X0094320Y0146288D01*
X0094320Y0141957D02*
X0094320Y0140776D01*
D15*
X0118947Y0176191D02*
X0118947Y0178393D01*
X0120048Y0178393D01*
X0120415Y0178026D01*
X0120415Y0177292D01*
X0120048Y0176925D01*
X0118947Y0176925D01*
X0119681Y0176925D02*
X0120415Y0176191D01*
X0121157Y0176191D02*
X0122625Y0176191D01*
X0121891Y0176191D02*
X0121891Y0178393D01*
X0121157Y0177659D01*
X0166191Y0176925D02*
X0167292Y0176925D01*
X0167659Y0177292D01*
X0167659Y0178026D01*
X0167292Y0178393D01*
X0166191Y0178393D01*
X0166191Y0176191D01*
X0166925Y0176925D02*
X0167659Y0176191D01*
X0168401Y0176191D02*
X0169869Y0177659D01*
X0169869Y0178026D01*
X0169502Y0178393D01*
X0168768Y0178393D01*
X0168401Y0178026D01*
X0168401Y0176191D02*
X0169869Y0176191D01*
X0214309Y0197345D02*
X0215410Y0197345D01*
X0215777Y0197712D01*
X0215777Y0199180D01*
X0215410Y0199547D01*
X0214309Y0199547D01*
X0214309Y0197345D01*
X0216519Y0197712D02*
X0216886Y0197345D01*
X0217620Y0197345D01*
X0217987Y0197712D01*
X0217987Y0198446D01*
X0217620Y0198813D01*
X0217253Y0198813D01*
X0216519Y0198446D01*
X0216519Y0199547D01*
X0217987Y0199547D01*
X0221309Y0178393D02*
X0222410Y0178393D01*
X0222777Y0178026D01*
X0222777Y0177292D01*
X0222410Y0176925D01*
X0221309Y0176925D01*
X0221309Y0176191D02*
X0221309Y0178393D01*
X0222043Y0176925D02*
X0222777Y0176191D01*
X0223519Y0176558D02*
X0223886Y0176191D01*
X0224620Y0176191D01*
X0224987Y0176558D01*
X0224987Y0177292D01*
X0224620Y0177659D01*
X0224253Y0177659D01*
X0223519Y0177292D01*
X0223519Y0178393D01*
X0224987Y0178393D01*
X0266585Y0178393D02*
X0267686Y0178393D01*
X0268053Y0178026D01*
X0268053Y0177292D01*
X0267686Y0176925D01*
X0266585Y0176925D01*
X0266585Y0176191D02*
X0266585Y0178393D01*
X0267319Y0176925D02*
X0268053Y0176191D01*
X0268795Y0176558D02*
X0269162Y0176191D01*
X0269896Y0176191D01*
X0270263Y0176558D01*
X0270263Y0176925D01*
X0269896Y0177292D01*
X0268795Y0177292D01*
X0268795Y0176558D01*
X0268795Y0177292D02*
X0269529Y0178026D01*
X0270263Y0178393D01*
X0316672Y0197345D02*
X0317773Y0197345D01*
X0318140Y0197712D01*
X0318140Y0199180D01*
X0317773Y0199547D01*
X0316672Y0199547D01*
X0316672Y0197345D01*
X0318882Y0197345D02*
X0318882Y0197712D01*
X0320349Y0199180D01*
X0320349Y0199547D01*
X0318882Y0199547D01*
X0332072Y0215842D02*
X0332806Y0215842D01*
X0333173Y0216209D01*
X0333915Y0215842D02*
X0335383Y0215842D01*
X0334649Y0215842D02*
X0334649Y0218044D01*
X0333915Y0217310D01*
X0333173Y0217677D02*
X0332806Y0218044D01*
X0332072Y0218044D01*
X0331705Y0217677D01*
X0331705Y0216209D01*
X0332072Y0215842D01*
X0336124Y0215842D02*
X0336124Y0216209D01*
X0337592Y0217677D01*
X0337592Y0218044D01*
X0336124Y0218044D01*
X0121916Y0060526D02*
X0121916Y0060159D01*
X0121549Y0059792D01*
X0120815Y0059792D01*
X0120448Y0060159D01*
X0120448Y0060526D01*
X0120815Y0060893D01*
X0121549Y0060893D01*
X0121916Y0060526D01*
X0121549Y0059792D02*
X0121916Y0059425D01*
X0121916Y0059058D01*
X0121549Y0058691D01*
X0120815Y0058691D01*
X0120448Y0059058D01*
X0120448Y0059425D01*
X0120815Y0059792D01*
X0119706Y0059058D02*
X0119706Y0060526D01*
X0119340Y0060893D01*
X0118239Y0060893D01*
X0118239Y0058691D01*
X0119340Y0058691D01*
X0119706Y0059058D01*
X0113393Y0045014D02*
X0111191Y0045014D01*
X0112292Y0043913D01*
X0112292Y0045381D01*
X0113026Y0043171D02*
X0113393Y0042804D01*
X0113393Y0042070D01*
X0113026Y0041703D01*
X0111558Y0041703D01*
X0111191Y0042070D01*
X0111191Y0042804D01*
X0111558Y0043171D01*
X0088229Y0028814D02*
X0088229Y0028447D01*
X0086761Y0026980D01*
X0088229Y0026980D01*
X0088229Y0028814D02*
X0087862Y0029181D01*
X0087128Y0029181D01*
X0086761Y0028814D01*
X0086019Y0029181D02*
X0086019Y0027347D01*
X0085652Y0026980D01*
X0084918Y0026980D01*
X0084551Y0027347D01*
X0084551Y0029181D01*
X0084768Y0059902D02*
X0084034Y0059902D01*
X0083667Y0060269D01*
X0083667Y0060636D01*
X0084034Y0061003D01*
X0084768Y0061003D01*
X0085135Y0060636D01*
X0085135Y0060269D01*
X0084768Y0059902D01*
X0084768Y0061003D02*
X0085135Y0061370D01*
X0085135Y0061737D01*
X0084768Y0062104D01*
X0084034Y0062104D01*
X0083667Y0061737D01*
X0083667Y0061370D01*
X0084034Y0061003D01*
X0082925Y0061737D02*
X0082558Y0062104D01*
X0081824Y0062104D01*
X0081457Y0061737D01*
X0081457Y0060269D01*
X0081824Y0059902D01*
X0082558Y0059902D01*
X0082925Y0060269D01*
X0083014Y0069892D02*
X0082280Y0070626D01*
X0082647Y0070626D02*
X0081546Y0070626D01*
X0081546Y0069892D02*
X0081546Y0072094D01*
X0082647Y0072094D01*
X0083014Y0071727D01*
X0083014Y0070993D01*
X0082647Y0070626D01*
X0083756Y0069892D02*
X0085223Y0069892D01*
X0084490Y0069892D02*
X0084490Y0072094D01*
X0083756Y0071360D01*
X0085965Y0071360D02*
X0085965Y0071727D01*
X0086332Y0072094D01*
X0087066Y0072094D01*
X0087433Y0071727D01*
X0087433Y0071360D01*
X0087066Y0070993D01*
X0086332Y0070993D01*
X0085965Y0071360D01*
X0086332Y0070993D02*
X0085965Y0070626D01*
X0085965Y0070259D01*
X0086332Y0069892D01*
X0087066Y0069892D01*
X0087433Y0070259D01*
X0087433Y0070626D01*
X0087066Y0070993D01*
X0088029Y0086506D02*
X0088029Y0087607D01*
X0087662Y0087974D01*
X0086194Y0087974D01*
X0085827Y0087607D01*
X0085827Y0086506D01*
X0088029Y0086506D01*
X0087662Y0088716D02*
X0088029Y0089083D01*
X0088029Y0089817D01*
X0087662Y0090184D01*
X0087295Y0090184D01*
X0086928Y0089817D01*
X0086928Y0089450D01*
X0086928Y0089817D02*
X0086561Y0090184D01*
X0086194Y0090184D01*
X0085827Y0089817D01*
X0085827Y0089083D01*
X0086194Y0088716D01*
X0060749Y0080180D02*
X0060382Y0080547D01*
X0059649Y0080547D01*
X0059282Y0080180D01*
X0060749Y0080180D02*
X0060749Y0079813D01*
X0059282Y0078345D01*
X0060749Y0078345D01*
X0058540Y0078345D02*
X0057072Y0078345D01*
X0057072Y0080547D01*
X0020746Y0055979D02*
X0020379Y0056346D01*
X0019645Y0056346D01*
X0019278Y0055979D01*
X0018536Y0055979D02*
X0018169Y0056346D01*
X0017068Y0056346D01*
X0017068Y0054144D01*
X0018169Y0054144D01*
X0018536Y0054511D01*
X0018536Y0055979D01*
X0019278Y0054144D02*
X0020746Y0055612D01*
X0020746Y0055979D01*
X0020746Y0054144D02*
X0019278Y0054144D01*
X0016326Y0054144D02*
X0014858Y0054144D01*
X0014858Y0056346D01*
X0016326Y0056346D01*
X0015592Y0055245D02*
X0014858Y0055245D01*
X0014116Y0054144D02*
X0012648Y0054144D01*
X0012648Y0056346D01*
X0043042Y0018265D02*
X0043042Y0016063D01*
X0044510Y0016063D01*
X0045252Y0016063D02*
X0046720Y0016063D01*
X0045986Y0016063D02*
X0045986Y0018265D01*
X0045252Y0017531D01*
X0167913Y0037150D02*
X0168280Y0036783D01*
X0169014Y0036783D01*
X0169381Y0037150D01*
X0170123Y0037150D02*
X0170490Y0036783D01*
X0171224Y0036783D01*
X0171591Y0037150D01*
X0171591Y0038618D01*
X0171224Y0038985D01*
X0170490Y0038985D01*
X0170123Y0038618D01*
X0170123Y0038251D01*
X0170490Y0037884D01*
X0171591Y0037884D01*
X0169381Y0038618D02*
X0169014Y0038985D01*
X0168280Y0038985D01*
X0167913Y0038618D01*
X0167913Y0037150D01*
X0045728Y0264774D02*
X0044994Y0264774D01*
X0044627Y0265141D01*
X0043885Y0264774D02*
X0042417Y0264774D01*
X0043151Y0264774D02*
X0043151Y0266976D01*
X0042417Y0266242D01*
X0041675Y0266609D02*
X0041308Y0266976D01*
X0040574Y0266976D01*
X0040207Y0266609D01*
X0040207Y0265141D01*
X0040574Y0264774D01*
X0041308Y0264774D01*
X0041675Y0265141D01*
X0044627Y0266609D02*
X0044994Y0266976D01*
X0045728Y0266976D01*
X0046095Y0266609D01*
X0046095Y0266242D01*
X0045728Y0265875D01*
X0046095Y0265508D01*
X0046095Y0265141D01*
X0045728Y0264774D01*
X0045728Y0265875D02*
X0045361Y0265875D01*
X0040105Y0286615D02*
X0038637Y0286615D01*
X0040105Y0288082D01*
X0040105Y0288449D01*
X0039738Y0288816D01*
X0039004Y0288816D01*
X0038637Y0288449D01*
X0037895Y0288449D02*
X0037528Y0288816D01*
X0036428Y0288816D01*
X0036428Y0286615D01*
X0037528Y0286615D01*
X0037895Y0286982D01*
X0037895Y0288449D01*
X0021906Y0288908D02*
X0020438Y0288908D01*
X0021539Y0290009D01*
X0021539Y0287807D01*
X0019696Y0288174D02*
X0019696Y0289642D01*
X0019329Y0290009D01*
X0018228Y0290009D01*
X0018228Y0287807D01*
X0019329Y0287807D01*
X0019696Y0288174D01*
X0017486Y0287807D02*
X0016018Y0287807D01*
X0016018Y0290009D01*
X0017486Y0290009D01*
X0016752Y0288908D02*
X0016018Y0288908D01*
X0015276Y0287807D02*
X0013808Y0287807D01*
X0013808Y0290009D01*
X0014066Y0274337D02*
X0012598Y0274337D01*
X0012231Y0273970D01*
X0012231Y0273236D01*
X0012598Y0272869D01*
X0012231Y0272127D02*
X0012231Y0270659D01*
X0012231Y0271393D02*
X0014433Y0271393D01*
X0013699Y0272127D01*
X0014066Y0272869D02*
X0014433Y0273236D01*
X0014433Y0273970D01*
X0014066Y0274337D01*
X0054144Y0286644D02*
X0055245Y0286644D01*
X0055612Y0287011D01*
X0055612Y0288479D01*
X0055245Y0288846D01*
X0054144Y0288846D01*
X0054144Y0286644D01*
X0056354Y0286644D02*
X0057822Y0286644D01*
X0057088Y0286644D02*
X0057088Y0288846D01*
X0056354Y0288112D01*
X0085562Y0273909D02*
X0085562Y0272441D01*
X0085929Y0272074D01*
X0086663Y0272074D01*
X0087030Y0272441D01*
X0087772Y0272441D02*
X0087772Y0272074D01*
X0087772Y0272441D02*
X0089240Y0273909D01*
X0089240Y0274276D01*
X0087772Y0274276D01*
X0087030Y0273909D02*
X0086663Y0274276D01*
X0085929Y0274276D01*
X0085562Y0273909D01*
D16*
X0055594Y0293769D02*
X0054093Y0293769D01*
X0054093Y0294519D01*
X0054343Y0294770D01*
X0054843Y0294770D01*
X0055094Y0294519D01*
X0055094Y0293769D01*
X0055094Y0294269D02*
X0055594Y0294770D01*
X0055594Y0295242D02*
X0054593Y0296243D01*
X0054343Y0296243D01*
X0054093Y0295993D01*
X0054093Y0295492D01*
X0054343Y0295242D01*
X0055594Y0295242D02*
X0055594Y0296243D01*
X0055594Y0296715D02*
X0054593Y0297716D01*
X0054343Y0297716D01*
X0054093Y0297466D01*
X0054093Y0296966D01*
X0054343Y0296715D01*
X0055594Y0296715D02*
X0055594Y0297716D01*
X0068720Y0200792D02*
X0069471Y0200792D01*
X0069721Y0200542D01*
X0069721Y0200042D01*
X0069471Y0199791D01*
X0068720Y0199791D01*
X0068720Y0199291D02*
X0068720Y0200792D01*
X0069220Y0199791D02*
X0069721Y0199291D01*
X0070193Y0199541D02*
X0070444Y0199291D01*
X0070944Y0199291D01*
X0071194Y0199541D01*
X0071194Y0200542D01*
X0070944Y0200792D01*
X0070444Y0200792D01*
X0070193Y0200542D01*
X0070193Y0200292D01*
X0070444Y0200042D01*
X0071194Y0200042D01*
X0057077Y0188731D02*
X0056076Y0187730D01*
X0056326Y0187480D01*
X0056827Y0187480D01*
X0057077Y0187730D01*
X0057077Y0188731D01*
X0056827Y0188981D01*
X0056326Y0188981D01*
X0056076Y0188731D01*
X0056076Y0187730D01*
X0055604Y0187480D02*
X0054603Y0187480D01*
X0054130Y0187480D02*
X0053630Y0187980D01*
X0053880Y0187980D02*
X0053130Y0187980D01*
X0053130Y0187480D02*
X0053130Y0188981D01*
X0053880Y0188981D01*
X0054130Y0188731D01*
X0054130Y0188231D01*
X0053880Y0187980D01*
X0054603Y0188481D02*
X0055103Y0188981D01*
X0055103Y0187480D01*
X0055905Y0179611D02*
X0056656Y0179611D01*
X0056906Y0179361D01*
X0056906Y0178860D01*
X0056656Y0178610D01*
X0055905Y0178610D01*
X0055905Y0178110D02*
X0055905Y0179611D01*
X0056406Y0178610D02*
X0056906Y0178110D01*
X0057378Y0178110D02*
X0058379Y0179111D01*
X0058379Y0179361D01*
X0058129Y0179611D01*
X0057629Y0179611D01*
X0057378Y0179361D01*
X0057378Y0178110D02*
X0058379Y0178110D01*
X0058852Y0178360D02*
X0059852Y0179361D01*
X0059852Y0178360D01*
X0059602Y0178110D01*
X0059102Y0178110D01*
X0058852Y0178360D01*
X0058852Y0179361D01*
X0059102Y0179611D01*
X0059602Y0179611D01*
X0059852Y0179361D01*
X0088464Y0157038D02*
X0088464Y0156037D01*
X0088714Y0155787D01*
X0089215Y0155787D01*
X0089465Y0156037D01*
X0089937Y0156037D02*
X0090188Y0155787D01*
X0090688Y0155787D01*
X0090938Y0156037D01*
X0090938Y0156538D01*
X0090688Y0156788D01*
X0090438Y0156788D01*
X0089937Y0156538D01*
X0089937Y0157288D01*
X0090938Y0157288D01*
X0089465Y0157038D02*
X0089215Y0157288D01*
X0088714Y0157288D01*
X0088464Y0157038D01*
X0081096Y0128843D02*
X0080595Y0128593D01*
X0080095Y0128093D01*
X0080846Y0128093D01*
X0081096Y0127843D01*
X0081096Y0127592D01*
X0080846Y0127342D01*
X0080345Y0127342D01*
X0080095Y0127592D01*
X0080095Y0128093D01*
X0079623Y0128593D02*
X0079372Y0128843D01*
X0078872Y0128843D01*
X0078622Y0128593D01*
X0078622Y0127592D01*
X0078872Y0127342D01*
X0079372Y0127342D01*
X0079623Y0127592D01*
X0044104Y0114007D02*
X0043854Y0114257D01*
X0043354Y0114257D01*
X0043104Y0114007D01*
X0043104Y0113756D01*
X0043354Y0113506D01*
X0044104Y0113506D01*
X0044104Y0113006D02*
X0044104Y0114007D01*
X0044104Y0113006D02*
X0043854Y0112756D01*
X0043354Y0112756D01*
X0043104Y0113006D01*
X0042631Y0112756D02*
X0041630Y0112756D01*
X0041158Y0112756D02*
X0040658Y0113256D01*
X0040908Y0113256D02*
X0040157Y0113256D01*
X0040157Y0112756D02*
X0040157Y0114257D01*
X0040908Y0114257D01*
X0041158Y0114007D01*
X0041158Y0113506D01*
X0040908Y0113256D01*
X0041630Y0113756D02*
X0042131Y0114257D01*
X0042131Y0112756D01*
X0038199Y0094965D02*
X0037198Y0094965D01*
X0037198Y0094215D01*
X0037698Y0094465D01*
X0037949Y0094465D01*
X0038199Y0094215D01*
X0038199Y0093714D01*
X0037949Y0093464D01*
X0037448Y0093464D01*
X0037198Y0093714D01*
X0036726Y0093464D02*
X0035725Y0093464D01*
X0036225Y0093464D02*
X0036225Y0094965D01*
X0035725Y0094465D01*
X0035252Y0094715D02*
X0035002Y0094965D01*
X0034502Y0094965D01*
X0034252Y0094715D01*
X0034252Y0093714D01*
X0034502Y0093464D01*
X0035002Y0093464D01*
X0035252Y0093714D01*
X0026086Y0182952D02*
X0026086Y0183203D01*
X0027087Y0184203D01*
X0027087Y0184454D01*
X0026086Y0184454D01*
X0025113Y0184454D02*
X0025113Y0182952D01*
X0024613Y0182952D02*
X0025613Y0182952D01*
X0024613Y0183953D02*
X0025113Y0184454D01*
X0024140Y0184203D02*
X0024140Y0183703D01*
X0023890Y0183453D01*
X0023139Y0183453D01*
X0023139Y0182952D02*
X0023139Y0184454D01*
X0023890Y0184454D01*
X0024140Y0184203D01*
X0023640Y0183453D02*
X0024140Y0182952D01*
X0095275Y0186234D02*
X0095525Y0185984D01*
X0096026Y0185984D01*
X0096276Y0186234D01*
X0096748Y0185984D02*
X0097749Y0185984D01*
X0097249Y0185984D02*
X0097249Y0187485D01*
X0096748Y0186985D01*
X0096276Y0187235D02*
X0096026Y0187485D01*
X0095525Y0187485D01*
X0095275Y0187235D01*
X0095275Y0186234D01*
X0098222Y0186734D02*
X0099223Y0186734D01*
X0098972Y0185984D02*
X0098972Y0187485D01*
X0098222Y0186734D01*
X0212822Y0112182D02*
X0212822Y0110681D01*
X0213573Y0110681D01*
X0213823Y0110931D01*
X0213823Y0111932D01*
X0213573Y0112182D01*
X0212822Y0112182D01*
X0214296Y0111431D02*
X0215297Y0111431D01*
X0215046Y0110681D02*
X0215046Y0112182D01*
X0214296Y0111431D01*
X0168365Y0091028D02*
X0167615Y0090278D01*
X0168615Y0090278D01*
X0168365Y0091028D02*
X0168365Y0089527D01*
X0167142Y0089527D02*
X0166642Y0090028D01*
X0166892Y0090028D02*
X0166141Y0090028D01*
X0166141Y0089527D02*
X0166141Y0091028D01*
X0166892Y0091028D01*
X0167142Y0090778D01*
X0167142Y0090278D01*
X0166892Y0090028D01*
X0268504Y0090028D02*
X0269254Y0090028D01*
X0269504Y0090278D01*
X0269504Y0090778D01*
X0269254Y0091028D01*
X0268504Y0091028D01*
X0268504Y0089527D01*
X0269004Y0090028D02*
X0269504Y0089527D01*
X0269977Y0089777D02*
X0269977Y0090028D01*
X0270227Y0090278D01*
X0270727Y0090278D01*
X0270978Y0090028D01*
X0270978Y0089777D01*
X0270727Y0089527D01*
X0270227Y0089527D01*
X0269977Y0089777D01*
X0270227Y0090278D02*
X0269977Y0090528D01*
X0269977Y0090778D01*
X0270227Y0091028D01*
X0270727Y0091028D01*
X0270978Y0090778D01*
X0270978Y0090528D01*
X0270727Y0090278D01*
X0332401Y0069906D02*
X0333152Y0069906D01*
X0333402Y0069656D01*
X0333402Y0069156D01*
X0333152Y0068906D01*
X0332401Y0068906D01*
X0332902Y0068906D02*
X0333402Y0068405D01*
X0333874Y0068405D02*
X0334875Y0068405D01*
X0334375Y0068405D02*
X0334375Y0069906D01*
X0333874Y0069406D01*
X0335348Y0069156D02*
X0336098Y0069156D01*
X0336349Y0068906D01*
X0336349Y0068655D01*
X0336098Y0068405D01*
X0335598Y0068405D01*
X0335348Y0068655D01*
X0335348Y0069156D01*
X0335848Y0069656D01*
X0336349Y0069906D01*
X0332401Y0069906D02*
X0332401Y0068405D01*
X0364960Y0043534D02*
X0364960Y0042533D01*
X0365210Y0042283D01*
X0365711Y0042283D01*
X0365961Y0042533D01*
X0366433Y0042283D02*
X0367434Y0042283D01*
X0366934Y0042283D02*
X0366934Y0043784D01*
X0366433Y0043284D01*
X0365961Y0043534D02*
X0365711Y0043784D01*
X0365210Y0043784D01*
X0364960Y0043534D01*
X0367907Y0043534D02*
X0368157Y0043784D01*
X0368657Y0043784D01*
X0368908Y0043534D01*
X0367907Y0042533D01*
X0368157Y0042283D01*
X0368657Y0042283D01*
X0368908Y0042533D01*
X0368908Y0043534D01*
X0367907Y0043534D02*
X0367907Y0042533D01*
X0339875Y0027786D02*
X0339625Y0028036D01*
X0339125Y0028036D01*
X0338874Y0027786D01*
X0338402Y0027786D02*
X0338152Y0028036D01*
X0337651Y0028036D01*
X0337401Y0027786D01*
X0337401Y0026785D01*
X0337651Y0026535D01*
X0338152Y0026535D01*
X0338402Y0026785D01*
X0338874Y0026535D02*
X0339875Y0027536D01*
X0339875Y0027786D01*
X0339875Y0026535D02*
X0338874Y0026535D01*
X0344212Y0107775D02*
X0344212Y0109276D01*
X0344963Y0109276D01*
X0345213Y0109026D01*
X0345213Y0108526D01*
X0344963Y0108276D01*
X0344212Y0108276D01*
X0344713Y0108276D02*
X0345213Y0107775D01*
X0345685Y0107775D02*
X0346686Y0108776D01*
X0346686Y0109026D01*
X0346436Y0109276D01*
X0345936Y0109276D01*
X0345685Y0109026D01*
X0345685Y0107775D02*
X0346686Y0107775D01*
X0347159Y0107775D02*
X0348160Y0107775D01*
X0347659Y0107775D02*
X0347659Y0109276D01*
X0347159Y0108776D01*
D17*
X0207312Y0039989D02*
X0207312Y0029359D01*
X0207312Y0039989D02*
X0177784Y0039989D01*
X0174241Y0036446D01*
X0174241Y0029359D01*
X0174241Y0017548D02*
X0174241Y0010461D01*
X0177784Y0006918D01*
X0207312Y0006918D01*
X0207312Y0017548D01*
X0205146Y0017942D02*
X0205008Y0017594D01*
X0204861Y0017250D01*
X0204706Y0016909D01*
X0204543Y0016572D01*
X0204371Y0016239D01*
X0204191Y0015910D01*
X0204004Y0015586D01*
X0203809Y0015266D01*
X0203605Y0014952D01*
X0203395Y0014642D01*
X0203177Y0014338D01*
X0202951Y0014039D01*
X0202718Y0013745D01*
X0202479Y0013457D01*
X0202232Y0013176D01*
X0201978Y0012900D01*
X0201718Y0012631D01*
X0201452Y0012367D01*
X0201179Y0012111D01*
X0200900Y0011861D01*
X0200615Y0011618D01*
X0200324Y0011382D01*
X0200027Y0011154D01*
X0199725Y0010932D01*
X0199418Y0010718D01*
X0199105Y0010512D01*
X0198788Y0010313D01*
X0198466Y0010122D01*
X0198139Y0009939D01*
X0197808Y0009763D01*
X0197473Y0009596D01*
X0197134Y0009438D01*
X0196791Y0009287D01*
X0196444Y0009145D01*
X0196095Y0009011D01*
X0195742Y0008886D01*
X0195386Y0008770D01*
X0195027Y0008662D01*
X0194666Y0008563D01*
X0194302Y0008472D01*
X0193937Y0008391D01*
X0193569Y0008319D01*
X0193200Y0008255D01*
X0192830Y0008201D01*
X0192458Y0008155D01*
X0192085Y0008119D01*
X0191712Y0008091D01*
X0191338Y0008073D01*
X0190963Y0008064D01*
X0190589Y0008064D01*
X0190214Y0008073D01*
X0189840Y0008091D01*
X0189467Y0008119D01*
X0189094Y0008155D01*
X0188722Y0008201D01*
X0188352Y0008255D01*
X0187983Y0008319D01*
X0187615Y0008391D01*
X0187250Y0008472D01*
X0186886Y0008563D01*
X0186525Y0008662D01*
X0186166Y0008770D01*
X0185810Y0008886D01*
X0185457Y0009011D01*
X0185108Y0009145D01*
X0184761Y0009287D01*
X0184418Y0009438D01*
X0184079Y0009596D01*
X0183744Y0009763D01*
X0183413Y0009939D01*
X0183086Y0010122D01*
X0182764Y0010313D01*
X0182447Y0010512D01*
X0182134Y0010718D01*
X0181827Y0010932D01*
X0181525Y0011154D01*
X0181228Y0011382D01*
X0180937Y0011618D01*
X0180652Y0011861D01*
X0180373Y0012111D01*
X0180100Y0012367D01*
X0179834Y0012631D01*
X0179574Y0012900D01*
X0179320Y0013176D01*
X0179073Y0013457D01*
X0178834Y0013745D01*
X0178601Y0014039D01*
X0178375Y0014338D01*
X0178157Y0014642D01*
X0177947Y0014952D01*
X0177743Y0015266D01*
X0177548Y0015586D01*
X0177361Y0015910D01*
X0177181Y0016239D01*
X0177009Y0016572D01*
X0176846Y0016909D01*
X0176691Y0017250D01*
X0176544Y0017594D01*
X0176406Y0017942D01*
X0176406Y0028966D02*
X0176544Y0029314D01*
X0176691Y0029658D01*
X0176846Y0029999D01*
X0177009Y0030336D01*
X0177181Y0030669D01*
X0177361Y0030998D01*
X0177548Y0031322D01*
X0177743Y0031642D01*
X0177947Y0031956D01*
X0178157Y0032266D01*
X0178375Y0032570D01*
X0178601Y0032869D01*
X0178834Y0033163D01*
X0179073Y0033451D01*
X0179320Y0033732D01*
X0179574Y0034008D01*
X0179834Y0034277D01*
X0180100Y0034541D01*
X0180373Y0034797D01*
X0180652Y0035047D01*
X0180937Y0035290D01*
X0181228Y0035526D01*
X0181525Y0035754D01*
X0181827Y0035976D01*
X0182134Y0036190D01*
X0182447Y0036396D01*
X0182764Y0036595D01*
X0183086Y0036786D01*
X0183413Y0036969D01*
X0183744Y0037145D01*
X0184079Y0037312D01*
X0184418Y0037470D01*
X0184761Y0037621D01*
X0185108Y0037763D01*
X0185457Y0037897D01*
X0185810Y0038022D01*
X0186166Y0038138D01*
X0186525Y0038246D01*
X0186886Y0038345D01*
X0187250Y0038436D01*
X0187615Y0038517D01*
X0187983Y0038589D01*
X0188352Y0038653D01*
X0188722Y0038707D01*
X0189094Y0038753D01*
X0189467Y0038789D01*
X0189840Y0038817D01*
X0190214Y0038835D01*
X0190589Y0038844D01*
X0190963Y0038844D01*
X0191338Y0038835D01*
X0191712Y0038817D01*
X0192085Y0038789D01*
X0192458Y0038753D01*
X0192830Y0038707D01*
X0193200Y0038653D01*
X0193569Y0038589D01*
X0193937Y0038517D01*
X0194302Y0038436D01*
X0194666Y0038345D01*
X0195027Y0038246D01*
X0195386Y0038138D01*
X0195742Y0038022D01*
X0196095Y0037897D01*
X0196444Y0037763D01*
X0196791Y0037621D01*
X0197134Y0037470D01*
X0197473Y0037312D01*
X0197808Y0037145D01*
X0198139Y0036969D01*
X0198466Y0036786D01*
X0198788Y0036595D01*
X0199105Y0036396D01*
X0199418Y0036190D01*
X0199725Y0035976D01*
X0200027Y0035754D01*
X0200324Y0035526D01*
X0200615Y0035290D01*
X0200900Y0035047D01*
X0201179Y0034797D01*
X0201452Y0034541D01*
X0201718Y0034277D01*
X0201978Y0034008D01*
X0202232Y0033732D01*
X0202479Y0033451D01*
X0202718Y0033163D01*
X0202951Y0032869D01*
X0203177Y0032570D01*
X0203395Y0032266D01*
X0203605Y0031956D01*
X0203809Y0031642D01*
X0204004Y0031322D01*
X0204191Y0030998D01*
X0204371Y0030669D01*
X0204543Y0030336D01*
X0204706Y0029999D01*
X0204861Y0029658D01*
X0205008Y0029314D01*
X0205146Y0028966D01*
X0113217Y0038414D02*
X0113217Y0015973D01*
X0109674Y0012430D01*
X0104556Y0012430D01*
X0095894Y0012430D02*
X0090776Y0012430D01*
X0087233Y0015973D01*
X0087233Y0038414D01*
X0095894Y0038414D01*
X0104556Y0038414D02*
X0113217Y0038414D01*
X0103965Y0037036D02*
X0104246Y0036942D01*
X0104525Y0036840D01*
X0104801Y0036732D01*
X0105074Y0036617D01*
X0105345Y0036496D01*
X0105612Y0036368D01*
X0105877Y0036233D01*
X0106138Y0036092D01*
X0106395Y0035945D01*
X0106649Y0035792D01*
X0106899Y0035632D01*
X0107145Y0035467D01*
X0107387Y0035295D01*
X0107624Y0035118D01*
X0107858Y0034935D01*
X0108086Y0034746D01*
X0108311Y0034551D01*
X0108530Y0034352D01*
X0108744Y0034147D01*
X0108953Y0033937D01*
X0109157Y0033722D01*
X0109356Y0033501D01*
X0109550Y0033277D01*
X0109737Y0033047D01*
X0109920Y0032813D01*
X0110096Y0032575D01*
X0110267Y0032332D01*
X0110431Y0032086D01*
X0110590Y0031835D01*
X0110742Y0031581D01*
X0110888Y0031322D01*
X0111028Y0031061D01*
X0111162Y0030796D01*
X0111289Y0030528D01*
X0111409Y0030257D01*
X0111523Y0029983D01*
X0111630Y0029707D01*
X0111730Y0029427D01*
X0111823Y0029146D01*
X0111910Y0028862D01*
X0111989Y0028577D01*
X0112062Y0028289D01*
X0112128Y0028000D01*
X0112186Y0027709D01*
X0112237Y0027417D01*
X0112282Y0027124D01*
X0112319Y0026830D01*
X0112349Y0026535D01*
X0112372Y0026239D01*
X0112387Y0025943D01*
X0112395Y0025646D01*
X0112397Y0025350D01*
X0112390Y0025053D01*
X0112377Y0024757D01*
X0112357Y0024461D01*
X0112329Y0024166D01*
X0112294Y0023872D01*
X0112252Y0023578D01*
X0112202Y0023286D01*
X0112146Y0022994D01*
X0112083Y0022705D01*
X0112012Y0022417D01*
X0111935Y0022130D01*
X0111850Y0021846D01*
X0111759Y0021564D01*
X0111661Y0021284D01*
X0111556Y0021007D01*
X0111444Y0020732D01*
X0111326Y0020460D01*
X0111201Y0020191D01*
X0111069Y0019925D01*
X0110932Y0019663D01*
X0110787Y0019404D01*
X0110637Y0019148D01*
X0110480Y0018896D01*
X0110317Y0018648D01*
X0110149Y0018405D01*
X0109974Y0018165D01*
X0109793Y0017930D01*
X0109607Y0017699D01*
X0109416Y0017472D01*
X0109219Y0017251D01*
X0109016Y0017034D01*
X0108808Y0016823D01*
X0108596Y0016616D01*
X0108378Y0016415D01*
X0108155Y0016219D01*
X0107928Y0016028D01*
X0107696Y0015843D01*
X0107460Y0015664D01*
X0107219Y0015491D01*
X0106974Y0015324D01*
X0106725Y0015162D01*
X0106473Y0015007D01*
X0106216Y0014858D01*
X0105957Y0014715D01*
X0105693Y0014578D01*
X0105427Y0014448D01*
X0105157Y0014325D01*
X0104885Y0014208D01*
X0104609Y0014098D01*
X0104331Y0013995D01*
X0104051Y0013898D01*
X0103768Y0013808D01*
X0096485Y0013808D02*
X0096204Y0013902D01*
X0095925Y0014004D01*
X0095649Y0014112D01*
X0095376Y0014227D01*
X0095105Y0014348D01*
X0094838Y0014476D01*
X0094573Y0014611D01*
X0094312Y0014752D01*
X0094055Y0014899D01*
X0093801Y0015052D01*
X0093551Y0015212D01*
X0093305Y0015377D01*
X0093063Y0015549D01*
X0092826Y0015726D01*
X0092592Y0015909D01*
X0092364Y0016098D01*
X0092139Y0016293D01*
X0091920Y0016492D01*
X0091706Y0016697D01*
X0091497Y0016907D01*
X0091293Y0017122D01*
X0091094Y0017343D01*
X0090900Y0017567D01*
X0090713Y0017797D01*
X0090530Y0018031D01*
X0090354Y0018269D01*
X0090183Y0018512D01*
X0090019Y0018758D01*
X0089860Y0019009D01*
X0089708Y0019263D01*
X0089562Y0019522D01*
X0089422Y0019783D01*
X0089288Y0020048D01*
X0089161Y0020316D01*
X0089041Y0020587D01*
X0088927Y0020861D01*
X0088820Y0021137D01*
X0088720Y0021417D01*
X0088627Y0021698D01*
X0088540Y0021982D01*
X0088461Y0022267D01*
X0088388Y0022555D01*
X0088322Y0022844D01*
X0088264Y0023135D01*
X0088213Y0023427D01*
X0088168Y0023720D01*
X0088131Y0024014D01*
X0088101Y0024309D01*
X0088078Y0024605D01*
X0088063Y0024901D01*
X0088055Y0025198D01*
X0088053Y0025494D01*
X0088060Y0025791D01*
X0088073Y0026087D01*
X0088093Y0026383D01*
X0088121Y0026678D01*
X0088156Y0026972D01*
X0088198Y0027266D01*
X0088248Y0027558D01*
X0088304Y0027850D01*
X0088367Y0028139D01*
X0088438Y0028427D01*
X0088515Y0028714D01*
X0088600Y0028998D01*
X0088691Y0029280D01*
X0088789Y0029560D01*
X0088894Y0029837D01*
X0089006Y0030112D01*
X0089124Y0030384D01*
X0089249Y0030653D01*
X0089381Y0030919D01*
X0089518Y0031181D01*
X0089663Y0031440D01*
X0089813Y0031696D01*
X0089970Y0031948D01*
X0090133Y0032196D01*
X0090301Y0032439D01*
X0090476Y0032679D01*
X0090657Y0032914D01*
X0090843Y0033145D01*
X0091034Y0033372D01*
X0091231Y0033593D01*
X0091434Y0033810D01*
X0091642Y0034021D01*
X0091854Y0034228D01*
X0092072Y0034429D01*
X0092295Y0034625D01*
X0092522Y0034816D01*
X0092754Y0035001D01*
X0092990Y0035180D01*
X0093231Y0035353D01*
X0093476Y0035520D01*
X0093725Y0035682D01*
X0093977Y0035837D01*
X0094234Y0035986D01*
X0094493Y0036129D01*
X0094757Y0036266D01*
X0095023Y0036396D01*
X0095293Y0036519D01*
X0095565Y0036636D01*
X0095841Y0036746D01*
X0096119Y0036849D01*
X0096399Y0036946D01*
X0096682Y0037036D01*
X0074044Y0039989D02*
X0067351Y0039989D01*
X0067351Y0046288D02*
X0074044Y0046288D01*
X0109182Y0057706D02*
X0109182Y0064398D01*
X0115481Y0064398D02*
X0115481Y0057706D01*
X0085373Y0090934D02*
X0085373Y0097627D01*
X0079074Y0097627D02*
X0079074Y0090934D01*
X0068335Y0126603D02*
X0033690Y0126603D01*
X0032115Y0128178D01*
X0032115Y0162824D01*
X0033690Y0164398D01*
X0068335Y0164398D01*
X0069910Y0162824D01*
X0069910Y0128178D01*
X0068335Y0126603D01*
X0062233Y0278178D02*
X0055540Y0278178D01*
X0055540Y0284477D02*
X0062233Y0284477D01*
X0042548Y0284477D02*
X0035855Y0284477D01*
X0035855Y0278178D02*
X0042548Y0278178D01*
D18*
X0036052Y0281377D03*
X0062036Y0281278D03*
X0067548Y0043188D03*
D19*
X0112282Y0057902D03*
X0082174Y0091131D03*
D20*
X0034152Y0129753D02*
X0034154Y0129820D01*
X0034160Y0129886D01*
X0034170Y0129952D01*
X0034184Y0130017D01*
X0034201Y0130081D01*
X0034223Y0130144D01*
X0034248Y0130206D01*
X0034277Y0130266D01*
X0034310Y0130324D01*
X0034345Y0130380D01*
X0034385Y0130434D01*
X0034427Y0130485D01*
X0034472Y0130534D01*
X0034520Y0130580D01*
X0034571Y0130623D01*
X0034624Y0130663D01*
X0034680Y0130700D01*
X0034738Y0130733D01*
X0034797Y0130763D01*
X0034858Y0130789D01*
X0034921Y0130812D01*
X0034985Y0130830D01*
X0035050Y0130845D01*
X0035116Y0130856D01*
X0035182Y0130863D01*
X0035248Y0130866D01*
X0035315Y0130865D01*
X0035381Y0130860D01*
X0035447Y0130851D01*
X0035513Y0130838D01*
X0035577Y0130821D01*
X0035640Y0130801D01*
X0035702Y0130776D01*
X0035763Y0130748D01*
X0035822Y0130717D01*
X0035878Y0130682D01*
X0035933Y0130644D01*
X0035985Y0130602D01*
X0036034Y0130557D01*
X0036081Y0130510D01*
X0036125Y0130460D01*
X0036165Y0130407D01*
X0036203Y0130352D01*
X0036237Y0130295D01*
X0036268Y0130236D01*
X0036295Y0130175D01*
X0036318Y0130113D01*
X0036338Y0130049D01*
X0036354Y0129984D01*
X0036366Y0129919D01*
X0036374Y0129853D01*
X0036378Y0129786D01*
X0036378Y0129720D01*
X0036374Y0129653D01*
X0036366Y0129587D01*
X0036354Y0129522D01*
X0036338Y0129457D01*
X0036318Y0129393D01*
X0036295Y0129331D01*
X0036268Y0129270D01*
X0036237Y0129211D01*
X0036203Y0129154D01*
X0036165Y0129099D01*
X0036125Y0129046D01*
X0036081Y0128996D01*
X0036034Y0128949D01*
X0035985Y0128904D01*
X0035933Y0128862D01*
X0035878Y0128824D01*
X0035821Y0128789D01*
X0035763Y0128758D01*
X0035702Y0128730D01*
X0035640Y0128705D01*
X0035577Y0128685D01*
X0035513Y0128668D01*
X0035447Y0128655D01*
X0035381Y0128646D01*
X0035315Y0128641D01*
X0035248Y0128640D01*
X0035182Y0128643D01*
X0035116Y0128650D01*
X0035050Y0128661D01*
X0034985Y0128676D01*
X0034921Y0128694D01*
X0034858Y0128717D01*
X0034797Y0128743D01*
X0034738Y0128773D01*
X0034680Y0128806D01*
X0034624Y0128843D01*
X0034571Y0128883D01*
X0034520Y0128926D01*
X0034472Y0128972D01*
X0034427Y0129021D01*
X0034385Y0129072D01*
X0034345Y0129126D01*
X0034310Y0129182D01*
X0034277Y0129240D01*
X0034248Y0129300D01*
X0034223Y0129362D01*
X0034201Y0129425D01*
X0034184Y0129489D01*
X0034170Y0129554D01*
X0034160Y0129620D01*
X0034154Y0129686D01*
X0034152Y0129753D01*
X0026406Y0113808D02*
X0017942Y0113808D01*
X0026406Y0113808D02*
X0026406Y0111446D01*
X0026406Y0104753D02*
X0026406Y0102391D01*
X0017942Y0102391D01*
D21*
X0013365Y0065530D03*
X0013365Y0060117D03*
X0021731Y0292400D03*
X0021731Y0297814D03*
D22*
X0020206Y0295107D03*
X0014891Y0062824D03*
M02*
